<?xml version="1.0" encoding="iso-8859-1"?>
<!-- Generator: Adobe Illustrator 19.2.1, SVG Export Plug-In . SVG Version: 6.00 Build 0)  -->
<svg version="1.1" xmlns="http://www.w3.org/2000/svg" xmlns:xlink="http://www.w3.org/1999/xlink" x="0px" y="0px"
	 viewBox="0 0 100 100" style="enable-background:new 0 0 100 100;" xml:space="preserve">
<g id="LOGO_x5F_MAKEUP_x5F_SMcP">
	<g>
		<defs>
			<path id="SVGID_1_" d="M25.921,49.999c0,13.299,10.781,24.081,24.08,24.081c13.299,0,24.08-10.781,24.08-24.081
				c0-13.299-10.781-24.079-24.08-24.079C36.701,25.92,25.921,36.701,25.921,49.999"/>
		</defs>
		<clipPath id="SVGID_2_">
			<use xlink:href="#SVGID_1_"  style="overflow:visible;"/>
		</clipPath>
		
			<linearGradient id="SVGID_3_" gradientUnits="userSpaceOnUse" x1="-368.7064" y1="347.9189" x2="-368.2767" y2="347.9189" gradientTransform="matrix(95.8124 -84.1425 -84.1425 -95.8124 64630.3281 2379.6072)">
			<stop  offset="0" style="stop-color:#CB964A"/>
			<stop  offset="0.1644" style="stop-color:#A07C45"/>
			<stop  offset="0.2612" style="stop-color:#B18D54"/>
			<stop  offset="0.454" style="stop-color:#E2C17F"/>
			<stop  offset="0.5293" style="stop-color:#FFDE95"/>
			<stop  offset="0.6079" style="stop-color:#E7C582"/>
			<stop  offset="0.7614" style="stop-color:#B8955A"/>
			<stop  offset="0.8434" style="stop-color:#A07C45"/>
			<stop  offset="0.917" style="stop-color:#B38748"/>
			<stop  offset="0.9895" style="stop-color:#CB964A"/>
			<stop  offset="1" style="stop-color:#CB964A"/>
		</linearGradient>
		<polygon style="clip-path:url(#SVGID_2_);fill:url(#SVGID_3_);" points="2.042,46.89 53.111,2.042 97.959,53.11 46.891,97.958 		
			"/>
	</g>
	<g>
		<defs>
			<path id="SVGID_4_" d="M32.973,67.027c-9.404-9.404-9.404-24.65,0-34.054c9.404-9.404,24.651-9.404,34.055,0
				c9.403,9.404,9.403,24.651,0,34.055C62.326,71.729,56.162,74.079,50,74.08C43.837,74.08,37.675,71.729,32.973,67.027
				 M31.956,31.956c-9.95,9.949-9.95,26.138,0,36.087c9.949,9.95,26.139,9.95,36.089,0c9.949-9.95,9.949-26.139,0-36.089
				c-4.974-4.974-11.51-7.461-18.043-7.461C43.465,24.493,36.931,26.981,31.956,31.956"/>
		</defs>
		<clipPath id="SVGID_5_">
			<use xlink:href="#SVGID_4_"  style="overflow:visible;"/>
		</clipPath>
		
			<linearGradient id="SVGID_6_" gradientUnits="userSpaceOnUse" x1="-368.8019" y1="348.0088" x2="-368.3722" y2="348.0088" gradientTransform="matrix(-83.9778 -83.9778 -83.9778 83.9778 -1678.5028 -60127.7422)">
			<stop  offset="0" style="stop-color:#CB964A"/>
			<stop  offset="0.1644" style="stop-color:#A07C45"/>
			<stop  offset="0.2612" style="stop-color:#B18D54"/>
			<stop  offset="0.454" style="stop-color:#E2C17F"/>
			<stop  offset="0.5293" style="stop-color:#FFDE95"/>
			<stop  offset="0.6079" style="stop-color:#E7C582"/>
			<stop  offset="0.7614" style="stop-color:#B8955A"/>
			<stop  offset="0.8434" style="stop-color:#A07C45"/>
			<stop  offset="0.917" style="stop-color:#B38748"/>
			<stop  offset="0.9895" style="stop-color:#CB964A"/>
			<stop  offset="1" style="stop-color:#CB964A"/>
		</linearGradient>
		<polygon style="clip-path:url(#SVGID_5_);fill:url(#SVGID_6_);" points="50,105.987 -5.206,50.781 50,-4.425 105.206,50.781 		"/>
	</g>
	<g>
		<defs>
			<path id="SVGID_7_" d="M28.749,71.251c-11.736-11.736-11.736-30.765,0-42.502c11.736-11.736,30.765-11.736,42.501,0
				c11.737,11.737,11.737,30.766,0,42.503c-5.868,5.868-13.56,8.802-21.251,8.802C42.308,80.054,34.618,77.12,28.749,71.251
				 M27.732,27.732c-5.948,5.948-9.223,13.856-9.223,22.267c0,8.412,3.275,16.32,9.223,22.268C33.68,78.215,41.588,81.491,50,81.491
				c8.412,0,16.32-3.276,22.268-9.224c5.948-5.948,9.224-13.856,9.224-22.268c0-8.411-3.276-16.32-9.224-22.268
				C66.32,21.784,58.411,18.509,50,18.509C41.588,18.509,33.68,21.785,27.732,27.732"/>
		</defs>
		<clipPath id="SVGID_8_">
			<use xlink:href="#SVGID_7_"  style="overflow:visible;"/>
		</clipPath>
		
			<linearGradient id="SVGID_9_" gradientUnits="userSpaceOnUse" x1="-368.7854" y1="347.9997" x2="-368.3557" y2="347.9997" gradientTransform="matrix(-103.6371 -103.6371 -103.6371 103.6371 -2081.519 -74213.6328)">
			<stop  offset="0" style="stop-color:#CB964A"/>
			<stop  offset="0.1644" style="stop-color:#A07C45"/>
			<stop  offset="0.2612" style="stop-color:#B18D54"/>
			<stop  offset="0.454" style="stop-color:#E2C17F"/>
			<stop  offset="0.5293" style="stop-color:#FFDE95"/>
			<stop  offset="0.6079" style="stop-color:#E7C582"/>
			<stop  offset="0.7614" style="stop-color:#B8955A"/>
			<stop  offset="0.8434" style="stop-color:#A07C45"/>
			<stop  offset="0.917" style="stop-color:#B38748"/>
			<stop  offset="0.9895" style="stop-color:#CB964A"/>
			<stop  offset="1" style="stop-color:#CB964A"/>
		</linearGradient>
		<polygon style="clip-path:url(#SVGID_8_);fill:url(#SVGID_9_);" points="50,114.479 -15.227,49.252 50,-15.975 115.227,49.252 		
			"/>
	</g>
	<g>
		<defs>
			<path id="SVGID_10_" d="M15.662,84.338c-18.964-18.964-18.965-49.712,0-68.677c18.964-18.964,49.712-18.964,68.677,0
				c18.964,18.965,18.965,49.713,0,68.678c-9.481,9.481-21.911,14.222-34.338,14.223C37.571,98.563,25.146,93.821,15.662,84.338
				 M31.186,3.661c-6.203,2.516-11.769,6.211-16.541,10.983C9.872,19.418,6.176,24.983,3.661,31.185C1.232,37.177,0,43.507,0,50
				c0,6.493,1.232,12.824,3.661,18.814c2.516,6.203,6.211,11.769,10.983,16.541c4.773,4.773,10.338,8.468,16.541,10.984
				C37.177,98.768,43.507,100,50,100c6.493,0,12.824-1.232,18.814-3.661c6.203-2.516,11.769-6.21,16.542-10.983
				c4.772-4.772,8.467-10.337,10.983-16.541C98.768,62.824,100,56.493,100,50c0-6.493-1.232-12.824-3.661-18.815
				c-2.516-6.203-6.211-11.768-10.983-16.541C80.583,9.872,75.017,6.177,68.814,3.661C62.824,1.232,56.493,0,50,0
				C43.507,0,37.176,1.232,31.186,3.661"/>
		</defs>
		<clipPath id="SVGID_11_">
			<use xlink:href="#SVGID_10_"  style="overflow:visible;"/>
		</clipPath>
		
			<linearGradient id="SVGID_12_" gradientUnits="userSpaceOnUse" x1="-368.7593" y1="347.9971" x2="-368.3296" y2="347.9971" gradientTransform="matrix(-164.5471 -164.5471 -164.5471 164.5471 -3330.1692 -117855.6719)">
			<stop  offset="0" style="stop-color:#CB964A"/>
			<stop  offset="0.1644" style="stop-color:#A07C45"/>
			<stop  offset="0.2612" style="stop-color:#B18D54"/>
			<stop  offset="0.454" style="stop-color:#E2C17F"/>
			<stop  offset="0.5293" style="stop-color:#FFDE95"/>
			<stop  offset="0.6079" style="stop-color:#E7C582"/>
			<stop  offset="0.7614" style="stop-color:#B8955A"/>
			<stop  offset="0.8434" style="stop-color:#A07C45"/>
			<stop  offset="0.917" style="stop-color:#B38748"/>
			<stop  offset="0.9895" style="stop-color:#CB964A"/>
			<stop  offset="1" style="stop-color:#CB964A"/>
		</linearGradient>
		<polygon style="clip-path:url(#SVGID_11_);fill:url(#SVGID_12_);" points="50,153.303 -54.955,48.348 50,-56.607 154.955,48.348 
					"/>
	</g>
	<g>
		<defs>
			<polygon id="SVGID_13_" points="15.738,79.103 16.822,80.114 21.361,75.166 19.116,82.253 20.106,83.176 27.029,80.449 
				22.407,85.323 23.5,86.342 29.552,79.853 28.145,78.54 20.907,81.36 23.183,74.047 23.215,73.943 21.79,72.614 			"/>
		</defs>
		<clipPath id="SVGID_14_">
			<use xlink:href="#SVGID_13_"  style="overflow:visible;"/>
		</clipPath>
		
			<linearGradient id="SVGID_15_" gradientUnits="userSpaceOnUse" x1="-368.7274" y1="348.0858" x2="-368.2976" y2="348.0858" gradientTransform="matrix(-127.8259 233.5668 233.5668 127.8259 -128367.7891 41627.6094)">
			<stop  offset="0" style="stop-color:#CB964A"/>
			<stop  offset="0.1644" style="stop-color:#A07C45"/>
			<stop  offset="0.2612" style="stop-color:#B18D54"/>
			<stop  offset="0.454" style="stop-color:#E2C17F"/>
			<stop  offset="0.5293" style="stop-color:#FFDE95"/>
			<stop  offset="0.6079" style="stop-color:#E7C582"/>
			<stop  offset="0.7614" style="stop-color:#B8955A"/>
			<stop  offset="0.8434" style="stop-color:#A07C45"/>
			<stop  offset="0.917" style="stop-color:#B38748"/>
			<stop  offset="0.9895" style="stop-color:#CB964A"/>
			<stop  offset="1" style="stop-color:#CB964A"/>
		</linearGradient>
		<polygon style="clip-path:url(#SVGID_14_);fill:url(#SVGID_15_);" points="35.333,75.778 26.368,92.159 9.957,83.178 
			18.922,66.797 		"/>
	</g>
	<g>
		<defs>
			<path id="SVGID_16_" d="M30.628,86.443l3.244-2.518l0.058,4.091L30.628,86.443z M26.018,88.039l1.585,0.755l1.842-1.45
				l4.538,2.163l0.034,2.344l1.617,0.771l-0.289-9.966l-1.357-0.647L26.018,88.039z"/>
		</defs>
		<clipPath id="SVGID_17_">
			<use xlink:href="#SVGID_16_"  style="overflow:visible;"/>
		</clipPath>
		
			<linearGradient id="SVGID_18_" gradientUnits="userSpaceOnUse" x1="-368.7274" y1="348.0186" x2="-368.2976" y2="348.0186" gradientTransform="matrix(-127.8266 233.5682 233.5682 127.8266 -128343.25 41641.6875)">
			<stop  offset="0" style="stop-color:#CB964A"/>
			<stop  offset="0.1644" style="stop-color:#A07C45"/>
			<stop  offset="0.2612" style="stop-color:#B18D54"/>
			<stop  offset="0.454" style="stop-color:#E2C17F"/>
			<stop  offset="0.5293" style="stop-color:#FFDE95"/>
			<stop  offset="0.6079" style="stop-color:#E7C582"/>
			<stop  offset="0.7614" style="stop-color:#B8955A"/>
			<stop  offset="0.8434" style="stop-color:#A07C45"/>
			<stop  offset="0.917" style="stop-color:#B38748"/>
			<stop  offset="0.9895" style="stop-color:#CB964A"/>
			<stop  offset="1" style="stop-color:#CB964A"/>
		</linearGradient>
		<polygon style="clip-path:url(#SVGID_17_);fill:url(#SVGID_18_);" points="40.103,84.456 33.417,96.672 21.549,90.176 
			28.234,77.96 		"/>
	</g>
	<g>
		<defs>
			<polygon id="SVGID_19_" points="38.668,93.399 40.165,93.64 40.601,90.945 43.301,89.561 46.33,94.637 48.374,94.967 
				44.702,88.845 49.771,86.205 47.448,85.83 40.908,89.201 41.605,84.885 40.084,84.639 			"/>
		</defs>
		<clipPath id="SVGID_20_">
			<use xlink:href="#SVGID_19_"  style="overflow:visible;"/>
		</clipPath>
		
			<linearGradient id="SVGID_21_" gradientUnits="userSpaceOnUse" x1="-368.7274" y1="347.9667" x2="-368.2976" y2="347.9667" gradientTransform="matrix(-127.8325 233.5789 233.5789 127.8325 -128325.6406 41656.4375)">
			<stop  offset="0" style="stop-color:#CB964A"/>
			<stop  offset="0.1644" style="stop-color:#A07C45"/>
			<stop  offset="0.2612" style="stop-color:#B18D54"/>
			<stop  offset="0.454" style="stop-color:#E2C17F"/>
			<stop  offset="0.5293" style="stop-color:#FFDE95"/>
			<stop  offset="0.6079" style="stop-color:#E7C582"/>
			<stop  offset="0.7614" style="stop-color:#B8955A"/>
			<stop  offset="0.8434" style="stop-color:#A07C45"/>
			<stop  offset="0.917" style="stop-color:#B38748"/>
			<stop  offset="0.9895" style="stop-color:#CB964A"/>
			<stop  offset="1" style="stop-color:#CB964A"/>
		</linearGradient>
		<polygon style="clip-path:url(#SVGID_20_);fill:url(#SVGID_21_);" points="54.12,87.02 47.212,99.643 34.318,92.587 
			41.227,79.963 		"/>
	</g>
	<g>
		<defs>
			<polygon id="SVGID_22_" points="51.329,86.281 52.352,95.093 60.816,94.111 60.656,92.724 53.733,93.528 53.442,91.015 
				59.884,90.268 59.728,88.917 53.285,89.665 53.033,87.488 59.643,86.721 59.482,85.334 			"/>
		</defs>
		<clipPath id="SVGID_23_">
			<use xlink:href="#SVGID_22_"  style="overflow:visible;"/>
		</clipPath>
		
			<linearGradient id="SVGID_24_" gradientUnits="userSpaceOnUse" x1="-368.7258" y1="347.914" x2="-368.2961" y2="347.914" gradientTransform="matrix(-127.8279 233.5705 233.5705 127.8279 -128299.1172 41666.1328)">
			<stop  offset="0" style="stop-color:#CB964A"/>
			<stop  offset="0.1644" style="stop-color:#A07C45"/>
			<stop  offset="0.2612" style="stop-color:#B18D54"/>
			<stop  offset="0.454" style="stop-color:#E2C17F"/>
			<stop  offset="0.5293" style="stop-color:#FFDE95"/>
			<stop  offset="0.6079" style="stop-color:#E7C582"/>
			<stop  offset="0.7614" style="stop-color:#B8955A"/>
			<stop  offset="0.8434" style="stop-color:#A07C45"/>
			<stop  offset="0.917" style="stop-color:#B38748"/>
			<stop  offset="0.9895" style="stop-color:#CB964A"/>
			<stop  offset="1" style="stop-color:#CB964A"/>
		</linearGradient>
		<polygon style="clip-path:url(#SVGID_23_);fill:url(#SVGID_24_);" points="64.926,87.583 58.63,99.089 47.219,92.844 
			53.516,81.339 		"/>
	</g>
	<g>
		<defs>
			<path id="SVGID_25_" d="M68.326,81.237l2.716,4.655c0.218,0.373,0.406,0.695,0.437,1.104c0.013,0.118,0.006,0.416-0.114,0.7
				c-0.364,0.84-1.488,1.528-1.711,1.658c-0.746,0.435-1.452,0.657-2.097,0.657c-0.034,0-0.067,0-0.097-0.002
				c-0.316-0.013-0.748-0.03-1.218-0.61c-0.186-0.219-0.339-0.486-0.404-0.6l-2.659-4.559l-1.352,0.789l2.613,4.478
				c0.363,0.621,0.715,1.168,1.354,1.558c0.254,0.151,0.665,0.358,1.289,0.405c0.108,0.009,0.216,0.013,0.322,0.013h0
				c0.911,0,1.896-0.306,2.943-0.917c1.893-1.105,2.823-2.516,2.62-3.972c-0.078-0.603-0.305-1.028-0.617-1.563l-2.674-4.582
				L68.326,81.237z"/>
		</defs>
		<clipPath id="SVGID_26_">
			<use xlink:href="#SVGID_25_"  style="overflow:visible;"/>
		</clipPath>
		
			<linearGradient id="SVGID_27_" gradientUnits="userSpaceOnUse" x1="-368.7404" y1="347.8731" x2="-368.3107" y2="347.8731" gradientTransform="matrix(-127.8282 233.571 233.571 127.8282 -128286.1016 41681.2891)">
			<stop  offset="0" style="stop-color:#CB964A"/>
			<stop  offset="0.1644" style="stop-color:#A07C45"/>
			<stop  offset="0.2612" style="stop-color:#B18D54"/>
			<stop  offset="0.454" style="stop-color:#E2C17F"/>
			<stop  offset="0.5293" style="stop-color:#FFDE95"/>
			<stop  offset="0.6079" style="stop-color:#E7C582"/>
			<stop  offset="0.7614" style="stop-color:#B8955A"/>
			<stop  offset="0.8434" style="stop-color:#A07C45"/>
			<stop  offset="0.917" style="stop-color:#B38748"/>
			<stop  offset="0.9895" style="stop-color:#CB964A"/>
			<stop  offset="1" style="stop-color:#CB964A"/>
		</linearGradient>
		<polygon style="clip-path:url(#SVGID_26_);fill:url(#SVGID_27_);" points="77.819,82.992 70.557,96.261 57.181,88.94 
			64.442,75.671 		"/>
	</g>
	<g>
		<defs>
			<path id="SVGID_28_" d="M73.915,78.85l2.481-2.654c0.456-0.488,0.978-1.045,1.663-0.989c0.279,0.021,0.539,0.143,0.772,0.36
				c0.321,0.3,0.415,0.592,0.438,0.787c0.087,0.621-0.304,1.098-0.785,1.612l-2.57,2.751L73.915,78.85z M76.062,74.609l-0.073,0.066
				c-0.154,0.148-0.309,0.297-0.455,0.453l-3.681,3.938l6.482,6.058l1.077-1.151l-2.497-2.334l2.678-2.865
				c0.578-0.618,1.175-1.257,1.272-2.26c0.11-1.043-0.483-1.769-0.847-2.109c-0.415-0.387-0.932-0.645-1.458-0.725
				c-0.121-0.017-0.244-0.026-0.364-0.026C77.126,73.652,76.381,74.322,76.062,74.609"/>
		</defs>
		<clipPath id="SVGID_29_">
			<use xlink:href="#SVGID_28_"  style="overflow:visible;"/>
		</clipPath>
		
			<linearGradient id="SVGID_30_" gradientUnits="userSpaceOnUse" x1="-368.7373" y1="347.848" x2="-368.3076" y2="347.848" gradientTransform="matrix(-127.8285 233.5715 233.5715 127.8285 -128275.7422 41685.5625)">
			<stop  offset="0" style="stop-color:#CB964A"/>
			<stop  offset="0.1644" style="stop-color:#A07C45"/>
			<stop  offset="0.2612" style="stop-color:#B18D54"/>
			<stop  offset="0.454" style="stop-color:#E2C17F"/>
			<stop  offset="0.5293" style="stop-color:#FFDE95"/>
			<stop  offset="0.6079" style="stop-color:#E7C582"/>
			<stop  offset="0.7614" style="stop-color:#B8955A"/>
			<stop  offset="0.8434" style="stop-color:#A07C45"/>
			<stop  offset="0.917" style="stop-color:#B38748"/>
			<stop  offset="0.9895" style="stop-color:#CB964A"/>
			<stop  offset="1" style="stop-color:#CB964A"/>
		</linearGradient>
		<polygon style="clip-path:url(#SVGID_29_);fill:url(#SVGID_30_);" points="85.806,76.296 78.873,88.964 67.023,82.479 
			73.956,69.811 		"/>
	</g>
	<g>
		<defs>
			<path id="SVGID_31_" d="M8.383,60.981l3.083-2.69l0.934,3.536L8.383,60.981z M6.462,60.678l0.384,1.452l9.754,2.182l-0.448-1.698
				l-2.297-0.467l-1.285-4.862l1.767-1.541l-0.457-1.731L6.462,60.678z"/>
		</defs>
		<clipPath id="SVGID_32_">
			<use xlink:href="#SVGID_31_"  style="overflow:visible;"/>
		</clipPath>
		
			<linearGradient id="SVGID_33_" gradientUnits="userSpaceOnUse" x1="-368.7274" y1="348.169" x2="-368.2976" y2="348.169" gradientTransform="matrix(-127.8259 233.5668 233.5668 127.8259 -128404.3203 41607.6016)">
			<stop  offset="0" style="stop-color:#CB964A"/>
			<stop  offset="0.1644" style="stop-color:#A07C45"/>
			<stop  offset="0.2612" style="stop-color:#B18D54"/>
			<stop  offset="0.454" style="stop-color:#E2C17F"/>
			<stop  offset="0.5293" style="stop-color:#FFDE95"/>
			<stop  offset="0.6079" style="stop-color:#E7C582"/>
			<stop  offset="0.7614" style="stop-color:#B8955A"/>
			<stop  offset="0.8434" style="stop-color:#A07C45"/>
			<stop  offset="0.917" style="stop-color:#B38748"/>
			<stop  offset="0.9895" style="stop-color:#CB964A"/>
			<stop  offset="1" style="stop-color:#CB964A"/>
		</linearGradient>
		<polygon style="clip-path:url(#SVGID_32_);fill:url(#SVGID_33_);" points="20.936,56.387 14.263,68.582 2.125,61.939 
			8.798,49.744 		"/>
	</g>
	<g>
		<defs>
			<path id="SVGID_34_" d="M6.446,51.24l0.181-4.51c0.025-0.621,0.09-1.121,0.672-1.42c0.206-0.11,0.433-0.165,0.675-0.165
				c0.03,0,0.056,0,0.079,0.002c0.325,0.013,0.597,0.116,0.812,0.311c0.502,0.425,0.517,1.119,0.488,1.853L9.19,51.35L6.446,51.24z
				 M10.515,45.792c-0.044-0.29-0.097-0.48-0.162-0.67c-0.483-1.312-1.639-1.55-2.284-1.576c-1.271-0.051-2.246,0.639-2.609,1.824
				c-0.113,0.362-0.165,0.636-0.195,1.391l-0.24,5.977l8.864,0.357l0.064-1.564l-3.415-0.137l0.155-3.863l3.532-2.747l0.082-2.041
				L10.515,45.792z"/>
		</defs>
		<clipPath id="SVGID_35_">
			<use xlink:href="#SVGID_34_"  style="overflow:visible;"/>
		</clipPath>
		
			<linearGradient id="SVGID_36_" gradientUnits="userSpaceOnUse" x1="-368.7274" y1="348.2128" x2="-368.2976" y2="348.2128" gradientTransform="matrix(-127.8235 233.5625 233.5625 127.8235 -128418.3672 41597.8789)">
			<stop  offset="0" style="stop-color:#CB964A"/>
			<stop  offset="0.1644" style="stop-color:#A07C45"/>
			<stop  offset="0.2612" style="stop-color:#B18D54"/>
			<stop  offset="0.454" style="stop-color:#E2C17F"/>
			<stop  offset="0.5293" style="stop-color:#FFDE95"/>
			<stop  offset="0.6079" style="stop-color:#E7C582"/>
			<stop  offset="0.7614" style="stop-color:#B8955A"/>
			<stop  offset="0.8434" style="stop-color:#A07C45"/>
			<stop  offset="0.917" style="stop-color:#B38748"/>
			<stop  offset="0.9895" style="stop-color:#CB964A"/>
			<stop  offset="1" style="stop-color:#CB964A"/>
		</linearGradient>
		<polygon style="clip-path:url(#SVGID_35_);fill:url(#SVGID_36_);" points="18.665,45.128 12.166,57.002 0.665,50.708 
			7.163,38.834 		"/>
	</g>
	<g>
		<defs>
			<path id="SVGID_37_" d="M8.128,37.925l0.971-2.676c0.149-0.41,0.317-0.834,0.542-1.157c0.64-0.921,1.536-1.115,2.176-1.115
				c0.391,0,0.795,0.073,1.199,0.215c0.539,0.196,1.506,0.68,1.921,1.727c0.39,1.005,0.087,1.937-0.028,2.287l-0.01,0.031
				c-0.061,0.201-0.122,0.402-0.197,0.611l-0.79,2.177L8.128,37.925z M9.535,32.197C8.9,32.674,8.399,33.338,8.09,34.115
				c-0.094,0.224-0.172,0.439-0.258,0.673l-1.504,4.148l8.34,3.027l1.221-3.364c0.446-1.227,1-2.755,0.435-4.29
				c-0.419-1.151-1.437-2.116-2.724-2.584c-0.557-0.202-1.12-0.302-1.665-0.302C11.055,31.423,10.222,31.684,9.535,32.197"/>
		</defs>
		<clipPath id="SVGID_38_">
			<use xlink:href="#SVGID_37_"  style="overflow:visible;"/>
		</clipPath>
		
			<linearGradient id="SVGID_39_" gradientUnits="userSpaceOnUse" x1="-368.7274" y1="348.2327" x2="-368.2976" y2="348.2327" gradientTransform="matrix(-127.8245 233.5643 233.5643 127.8245 -128427.2266 41593.875)">
			<stop  offset="0" style="stop-color:#CB964A"/>
			<stop  offset="0.1644" style="stop-color:#A07C45"/>
			<stop  offset="0.2612" style="stop-color:#B18D54"/>
			<stop  offset="0.454" style="stop-color:#E2C17F"/>
			<stop  offset="0.5293" style="stop-color:#FFDE95"/>
			<stop  offset="0.6079" style="stop-color:#E7C582"/>
			<stop  offset="0.7614" style="stop-color:#B8955A"/>
			<stop  offset="0.8434" style="stop-color:#A07C45"/>
			<stop  offset="0.917" style="stop-color:#B38748"/>
			<stop  offset="0.9895" style="stop-color:#CB964A"/>
			<stop  offset="1" style="stop-color:#CB964A"/>
		</linearGradient>
		<polygon style="clip-path:url(#SVGID_38_);fill:url(#SVGID_39_);" points="21.327,33.853 14.454,46.411 1.889,39.534 
			8.761,26.976 		"/>
	</g>
	<g>
		<defs>
			<polygon id="SVGID_40_" points="11.606,26.57 18.74,31.846 23.809,24.993 22.686,24.164 18.542,29.767 16.507,28.263 
				20.364,23.047 19.271,22.239 15.414,27.455 13.652,26.151 17.61,20.8 16.487,19.969 			"/>
		</defs>
		<clipPath id="SVGID_41_">
			<use xlink:href="#SVGID_40_"  style="overflow:visible;"/>
		</clipPath>
		
			<linearGradient id="SVGID_42_" gradientUnits="userSpaceOnUse" x1="-368.7274" y1="348.2361" x2="-368.2976" y2="348.2361" gradientTransform="matrix(-127.8291 233.5727 233.5727 127.8291 -128432.4766 41595.0117)">
			<stop  offset="0" style="stop-color:#CB964A"/>
			<stop  offset="0.1644" style="stop-color:#A07C45"/>
			<stop  offset="0.2612" style="stop-color:#B18D54"/>
			<stop  offset="0.454" style="stop-color:#E2C17F"/>
			<stop  offset="0.5293" style="stop-color:#FFDE95"/>
			<stop  offset="0.6079" style="stop-color:#E7C582"/>
			<stop  offset="0.7614" style="stop-color:#B8955A"/>
			<stop  offset="0.8434" style="stop-color:#A07C45"/>
			<stop  offset="0.917" style="stop-color:#B38748"/>
			<stop  offset="0.9895" style="stop-color:#CB964A"/>
			<stop  offset="1" style="stop-color:#CB964A"/>
		</linearGradient>
		<polygon style="clip-path:url(#SVGID_41_);fill:url(#SVGID_42_);" points="28.811,22.706 20.996,36.985 6.604,29.109 
			14.418,14.83 		"/>
	</g>
	<g>
		<defs>
			<polygon id="SVGID_43_" points="25.809,12.198 29.866,17.625 20.706,15.971 19.507,16.858 24.782,23.991 25.992,23.096 
				21.936,17.649 31.145,19.287 32.294,18.436 27.019,11.303 			"/>
		</defs>
		<clipPath id="SVGID_44_">
			<use xlink:href="#SVGID_43_"  style="overflow:visible;"/>
		</clipPath>
		
			<linearGradient id="SVGID_45_" gradientUnits="userSpaceOnUse" x1="-368.7274" y1="348.2195" x2="-368.2976" y2="348.2195" gradientTransform="matrix(-127.8278 233.5704 233.5704 127.8278 -128424.5156 41598.2695)">
			<stop  offset="0" style="stop-color:#CB964A"/>
			<stop  offset="0.1644" style="stop-color:#A07C45"/>
			<stop  offset="0.2612" style="stop-color:#B18D54"/>
			<stop  offset="0.454" style="stop-color:#E2C17F"/>
			<stop  offset="0.5293" style="stop-color:#FFDE95"/>
			<stop  offset="0.6079" style="stop-color:#E7C582"/>
			<stop  offset="0.7614" style="stop-color:#B8955A"/>
			<stop  offset="0.8434" style="stop-color:#A07C45"/>
			<stop  offset="0.917" style="stop-color:#B38748"/>
			<stop  offset="0.9895" style="stop-color:#CB964A"/>
			<stop  offset="1" style="stop-color:#CB964A"/>
		</linearGradient>
		<polygon style="clip-path:url(#SVGID_44_);fill:url(#SVGID_45_);" points="37.637,14.227 29.347,29.376 14.163,21.067 
			22.454,5.918 		"/>
	</g>
	<g>
		<defs>
			<path id="SVGID_46_" d="M38.542,8.103l3.556-0.742c0.334-0.07,0.679-0.142,1.017-0.142c0.377,0,0.676,0.095,0.912,0.29
				c0.216,0.179,0.359,0.427,0.424,0.739c0.089,0.429-0.001,0.722-0.095,0.896c-0.286,0.558-0.881,0.722-1.57,0.866L39.1,10.781
				L38.542,8.103z M42.739,5.871l-0.078,0.01c-0.218,0.033-0.436,0.066-0.653,0.111l-5.277,1.101l1.813,8.685l1.544-0.322
				l-0.698-3.346l3.839-0.801c0.829-0.174,1.685-0.352,2.341-1.116c0.691-0.79,0.623-1.725,0.521-2.212
				c-0.115-0.555-0.39-1.064-0.774-1.431c-0.508-0.478-1.166-0.721-1.959-0.721C43.098,5.828,42.882,5.854,42.739,5.871"/>
		</defs>
		<clipPath id="SVGID_47_">
			<use xlink:href="#SVGID_46_"  style="overflow:visible;"/>
		</clipPath>
		
			<linearGradient id="SVGID_48_" gradientUnits="userSpaceOnUse" x1="-368.7274" y1="348.1792" x2="-368.2976" y2="348.1792" gradientTransform="matrix(-127.8274 233.5695 233.5695 127.8274 -128405.4844 41608.2578)">
			<stop  offset="0" style="stop-color:#CB964A"/>
			<stop  offset="0.1644" style="stop-color:#A07C45"/>
			<stop  offset="0.2612" style="stop-color:#B18D54"/>
			<stop  offset="0.454" style="stop-color:#E2C17F"/>
			<stop  offset="0.5293" style="stop-color:#FFDE95"/>
			<stop  offset="0.6079" style="stop-color:#E7C582"/>
			<stop  offset="0.7614" style="stop-color:#B8955A"/>
			<stop  offset="0.8434" style="stop-color:#A07C45"/>
			<stop  offset="0.917" style="stop-color:#B38748"/>
			<stop  offset="0.9895" style="stop-color:#CB964A"/>
			<stop  offset="1" style="stop-color:#CB964A"/>
		</linearGradient>
		<polygon style="clip-path:url(#SVGID_47_);fill:url(#SVGID_48_);" points="50.451,8.121 44.064,19.791 32.541,13.484 
			38.928,1.815 		"/>
	</g>
	<g>
		<defs>
			<path id="SVGID_49_" d="M54.543,9.674l-4.026-0.362l0.246-2.736l4.495,0.404c0.619,0.055,1.114,0.145,1.384,0.742
				c0.146,0.309,0.142,0.582,0.126,0.76c-0.029,0.324-0.145,0.591-0.35,0.796c-0.274,0.293-0.672,0.431-1.25,0.431
				C54.953,9.71,54.732,9.691,54.543,9.674 M48.544,13.921l1.559,0.14l0.306-3.404l3.85,0.346l2.569,3.663l2.033,0.183l-2.858-3.937
				c0.292-0.03,0.484-0.072,0.677-0.128c1.334-0.418,1.63-1.559,1.687-2.203c0.114-1.264-0.52-2.272-1.693-2.696
				c-0.356-0.131-0.627-0.196-1.379-0.263l-5.958-0.535L48.544,13.921z"/>
		</defs>
		<clipPath id="SVGID_50_">
			<use xlink:href="#SVGID_49_"  style="overflow:visible;"/>
		</clipPath>
		
			<linearGradient id="SVGID_51_" gradientUnits="userSpaceOnUse" x1="-368.7274" y1="348.1133" x2="-368.2976" y2="348.1133" gradientTransform="matrix(-127.8288 233.5721 233.5721 127.8288 -128382.4844 41622.0859)">
			<stop  offset="0" style="stop-color:#CB964A"/>
			<stop  offset="0.1644" style="stop-color:#A07C45"/>
			<stop  offset="0.2612" style="stop-color:#B18D54"/>
			<stop  offset="0.454" style="stop-color:#E2C17F"/>
			<stop  offset="0.5293" style="stop-color:#FFDE95"/>
			<stop  offset="0.6079" style="stop-color:#E7C582"/>
			<stop  offset="0.7614" style="stop-color:#B8955A"/>
			<stop  offset="0.8434" style="stop-color:#A07C45"/>
			<stop  offset="0.917" style="stop-color:#B38748"/>
			<stop  offset="0.9895" style="stop-color:#CB964A"/>
			<stop  offset="1" style="stop-color:#CB964A"/>
		</linearGradient>
		<polygon style="clip-path:url(#SVGID_50_);fill:url(#SVGID_51_);" points="62.973,7.334 56.483,19.192 44.432,12.597 
			50.922,0.739 		"/>
	</g>
	<g>
		<defs>
			<polygon id="SVGID_52_" points="59.627,15.312 67.527,18.512 68.051,17.218 61.591,14.601 62.541,12.256 68.553,14.692 
				69.063,13.432 63.052,10.996 63.874,8.965 70.043,11.464 70.567,10.17 62.959,7.088 			"/>
		</defs>
		<clipPath id="SVGID_53_">
			<use xlink:href="#SVGID_52_"  style="overflow:visible;"/>
		</clipPath>
		
			<linearGradient id="SVGID_54_" gradientUnits="userSpaceOnUse" x1="-368.7274" y1="348.0586" x2="-368.2976" y2="348.0586" gradientTransform="matrix(-127.8247 233.5646 233.5646 127.8247 -128355.6172 41633.1875)">
			<stop  offset="0" style="stop-color:#CB964A"/>
			<stop  offset="0.1644" style="stop-color:#A07C45"/>
			<stop  offset="0.2612" style="stop-color:#B18D54"/>
			<stop  offset="0.454" style="stop-color:#E2C17F"/>
			<stop  offset="0.5293" style="stop-color:#FFDE95"/>
			<stop  offset="0.6079" style="stop-color:#E7C582"/>
			<stop  offset="0.7614" style="stop-color:#B8955A"/>
			<stop  offset="0.8434" style="stop-color:#A07C45"/>
			<stop  offset="0.917" style="stop-color:#B38748"/>
			<stop  offset="0.9895" style="stop-color:#CB964A"/>
			<stop  offset="1" style="stop-color:#CB964A"/>
		</linearGradient>
		<polygon style="clip-path:url(#SVGID_53_);fill:url(#SVGID_54_);" points="75.378,9.721 68.045,23.12 54.815,15.879 62.148,2.481 
					"/>
	</g>
	<g>
		<defs>
			<path id="SVGID_55_" d="M74.443,13.745c-0.501,0.025-0.752,0.085-0.941,0.145c-0.854,0.232-1.617,0.757-2.266,1.561
				c-0.839,1.038-1.006,1.886-1.06,2.429c-0.058,0.472-0.016,0.867,0.003,1.048c0.049,0.28,0.1,0.493,0.176,0.737
				c0.349,1.048,1.027,1.968,2.072,2.813c1.269,1.026,2.59,1.568,3.818,1.568h0c0.247,0,0.493-0.023,0.733-0.068
				c0.281-0.058,0.547-0.132,1.076-0.342l0.219-0.088l-1.058-1.291l-0.117,0.046c-0.258,0.101-0.453,0.163-0.74,0.202
				c-0.918,0.139-1.915-0.207-2.934-1.03c-0.284-0.229-0.522-0.446-0.702-0.642c-0.675-0.761-1.022-1.581-1.003-2.374
				c0.022-0.87,0.44-1.564,0.788-1.993c0.552-0.684,1.193-1.081,1.91-1.183c0.205-0.034,0.361-0.04,0.456-0.04
				c0.06,0,0.108,0.003,0.154,0.008c0.758,0.049,1.613,0.429,2.408,1.07c1.044,0.844,1.393,1.705,1.477,1.952
				c0.102,0.287,0.156,0.654,0.141,0.954c-0.009,0.129-0.026,0.258-0.055,0.416l-0.022,0.127l1.295,0.654l0.212,0.088l0.039-0.23
				c0.039-0.23,0.112-0.657,0.069-1.229c-0.05-0.557-0.193-0.986-0.248-1.152c-0.476-1.324-1.599-2.334-2.06-2.707
				c-0.393-0.318-1.435-1.085-2.606-1.337c-0.33-0.072-0.715-0.111-1.113-0.111L74.443,13.745z"/>
		</defs>
		<clipPath id="SVGID_56_">
			<use xlink:href="#SVGID_55_"  style="overflow:visible;"/>
		</clipPath>
		
			<linearGradient id="SVGID_57_" gradientUnits="userSpaceOnUse" x1="-368.7274" y1="348.0008" x2="-368.2976" y2="348.0008" gradientTransform="matrix(-127.834 233.5816 233.5816 127.834 -128340.9844 41649.3555)">
			<stop  offset="0" style="stop-color:#CB964A"/>
			<stop  offset="0.1644" style="stop-color:#A07C45"/>
			<stop  offset="0.2612" style="stop-color:#B18D54"/>
			<stop  offset="0.454" style="stop-color:#E2C17F"/>
			<stop  offset="0.5293" style="stop-color:#FFDE95"/>
			<stop  offset="0.6079" style="stop-color:#E7C582"/>
			<stop  offset="0.7614" style="stop-color:#B8955A"/>
			<stop  offset="0.8434" style="stop-color:#A07C45"/>
			<stop  offset="0.917" style="stop-color:#B38748"/>
			<stop  offset="0.9895" style="stop-color:#CB964A"/>
			<stop  offset="1" style="stop-color:#CB964A"/>
		</linearGradient>
		<polygon style="clip-path:url(#SVGID_56_);fill:url(#SVGID_57_);" points="84.971,16.118 78.209,28.473 65.78,21.671 
			72.541,9.316 		"/>
	</g>
	<g>
		<defs>
			
				<rect id="SVGID_58_" x="76.807" y="24.005" transform="matrix(0.7798 -0.6261 0.6261 0.7798 2.3707 56.3265)" width="8.874" height="1.578"/>
		</defs>
		<clipPath id="SVGID_59_">
			<use xlink:href="#SVGID_58_"  style="overflow:visible;"/>
		</clipPath>
		
			<linearGradient id="SVGID_60_" gradientUnits="userSpaceOnUse" x1="-368.7274" y1="347.9604" x2="-368.2976" y2="347.9604" gradientTransform="matrix(-127.824 233.5633 233.5633 127.824 -128314.5312 41655.0859)">
			<stop  offset="0" style="stop-color:#CB964A"/>
			<stop  offset="0.1644" style="stop-color:#A07C45"/>
			<stop  offset="0.2612" style="stop-color:#B18D54"/>
			<stop  offset="0.454" style="stop-color:#E2C17F"/>
			<stop  offset="0.5293" style="stop-color:#FFDE95"/>
			<stop  offset="0.6079" style="stop-color:#E7C582"/>
			<stop  offset="0.7614" style="stop-color:#B8955A"/>
			<stop  offset="0.8434" style="stop-color:#A07C45"/>
			<stop  offset="0.917" style="stop-color:#B38748"/>
			<stop  offset="0.9895" style="stop-color:#CB964A"/>
			<stop  offset="1" style="stop-color:#CB964A"/>
		</linearGradient>
		<polygon style="clip-path:url(#SVGID_59_);fill:url(#SVGID_60_);" points="88.055,22.965 83.374,31.517 74.432,26.623 
			79.113,18.071 		"/>
	</g>
	<g>
		<defs>
			<path id="SVGID_61_" d="M85.402,26.777c-0.361,0.187-0.865,0.527-1.074,1.3c-0.239,0.874,0.061,1.653,0.706,3.191l0.122,0.293
				c0.274,0.654,0.734,1.749,0.769,2.315c0.021,0.307-0.049,0.725-0.507,0.962c-0.079,0.041-0.296,0.138-0.579,0.138
				c-0.189,0-0.375-0.043-0.551-0.126c-0.38-0.183-0.946-0.623-1.489-1.684l-0.015-0.032c-0.191-0.367-0.643-1.323-0.73-2.27
				c-0.064-0.702,0.066-1.181,0.107-1.312c0.025-0.079,0.051-0.14,0.08-0.208l0.062-0.149l-1.184-1.006l-0.115,0.215
				c-0.112,0.208-0.298,0.556-0.398,1.13c-0.022,0.132-0.089,0.536-0.051,1.074c0.034,0.459,0.107,0.763,0.159,0.98
				c0.234,0.997,0.744,1.998,0.801,2.108c0.263,0.506,0.557,0.933,0.653,1.072c0.662,0.982,1.515,1.593,2.397,1.72
				c0.112,0.018,0.228,0.027,0.345,0.027c0.413,0,0.825-0.105,1.227-0.314c0.181-0.094,0.733-0.38,1.063-1.098
				c0.313-0.717,0.261-1.488-0.18-2.661c-0.154-0.405-0.32-0.804-0.484-1.203c-0.194-0.467-0.394-0.949-0.57-1.433l-0.027-0.071
				c-0.159-0.423-0.339-0.902-0.106-1.296c0.074-0.125,0.197-0.237,0.336-0.309c0.084-0.043,0.223-0.096,0.403-0.096
				c0.287,0,0.575,0.128,0.855,0.38c0.256,0.226,0.688,0.749,1.064,1.474c0.471,0.907,0.657,1.766,0.556,2.552
				c-0.023,0.181-0.074,0.394-0.151,0.639l-0.034,0.108l1.177,1.012l0.09-0.224c0.008-0.02,0.022-0.049,0.039-0.086
				c0.069-0.148,0.197-0.423,0.259-0.712c0.046-0.177,0.066-0.345,0.084-0.503c0.098-1.018-0.181-2.168-0.83-3.418
				c-0.738-1.424-1.473-2.056-1.844-2.305c-0.426-0.292-0.893-0.442-1.362-0.442C86.115,26.507,85.751,26.596,85.402,26.777"/>
		</defs>
		<clipPath id="SVGID_62_">
			<use xlink:href="#SVGID_61_"  style="overflow:visible;"/>
		</clipPath>
		
			<linearGradient id="SVGID_63_" gradientUnits="userSpaceOnUse" x1="-368.7274" y1="347.9267" x2="-368.2976" y2="347.9267" gradientTransform="matrix(-127.8246 233.5644 233.5644 127.8246 -128301.0859 41662.957)">
			<stop  offset="0" style="stop-color:#CB964A"/>
			<stop  offset="0.1644" style="stop-color:#A07C45"/>
			<stop  offset="0.2612" style="stop-color:#B18D54"/>
			<stop  offset="0.454" style="stop-color:#E2C17F"/>
			<stop  offset="0.5293" style="stop-color:#FFDE95"/>
			<stop  offset="0.6079" style="stop-color:#E7C582"/>
			<stop  offset="0.7614" style="stop-color:#B8955A"/>
			<stop  offset="0.8434" style="stop-color:#A07C45"/>
			<stop  offset="0.917" style="stop-color:#B38748"/>
			<stop  offset="0.9895" style="stop-color:#CB964A"/>
			<stop  offset="1" style="stop-color:#CB964A"/>
		</linearGradient>
		<polygon style="clip-path:url(#SVGID_62_);fill:url(#SVGID_63_);" points="94.826,28.814 88.285,40.765 76.303,34.207 
			82.844,22.256 		"/>
	</g>
	<g>
		<defs>
			
				<rect id="SVGID_64_" x="84.075" y="38.009" transform="matrix(0.9607 -0.2776 0.2776 0.9607 -7.2921 26.0995)" width="8.873" height="1.578"/>
		</defs>
		<clipPath id="SVGID_65_">
			<use xlink:href="#SVGID_64_"  style="overflow:visible;"/>
		</clipPath>
		
			<linearGradient id="SVGID_66_" gradientUnits="userSpaceOnUse" x1="-368.7274" y1="347.8952" x2="-368.2976" y2="347.8952" gradientTransform="matrix(-127.8271 233.569 233.569 127.8271 -128290.8828 41670.7188)">
			<stop  offset="0" style="stop-color:#CB964A"/>
			<stop  offset="0.1644" style="stop-color:#A07C45"/>
			<stop  offset="0.2612" style="stop-color:#B18D54"/>
			<stop  offset="0.454" style="stop-color:#E2C17F"/>
			<stop  offset="0.5293" style="stop-color:#FFDE95"/>
			<stop  offset="0.6079" style="stop-color:#E7C582"/>
			<stop  offset="0.7614" style="stop-color:#B8955A"/>
			<stop  offset="0.8434" style="stop-color:#A07C45"/>
			<stop  offset="0.917" style="stop-color:#B38748"/>
			<stop  offset="0.9895" style="stop-color:#CB964A"/>
			<stop  offset="1" style="stop-color:#CB964A"/>
		</linearGradient>
		<polygon style="clip-path:url(#SVGID_65_);fill:url(#SVGID_66_);" points="94.668,37.726 90.927,44.562 82.355,39.87 
			86.096,33.035 		"/>
	</g>
	<g>
		<defs>
			<path id="SVGID_67_" d="M89.339,51.236c-1.12-0.196-1.946-0.939-2.327-2.091c-0.202-0.608-0.234-1.149-0.249-1.38
				c-0.067-1.09,0.114-1.992,0.54-2.681c0.218-0.352,0.4-0.533,0.562-0.673c0.652-0.548,1.454-0.673,1.875-0.7
				c0.083-0.005,0.168-0.007,0.254-0.007c0.338,0,0.664,0.04,0.943,0.117c0.419,0.114,0.797,0.317,1.121,0.603
				c0.936,0.826,1.156,2.165,1.206,2.7c0.073,0.832,0.061,2.865-1.615,3.776c-0.277,0.153-0.742,0.343-1.391,0.384
				c-0.082,0.005-0.161,0.007-0.236,0.007C89.7,51.29,89.445,51.252,89.339,51.236 M89.595,42.164
				c-1.11,0.069-1.885,0.466-2.342,0.788c-1.086,0.772-1.728,1.997-1.857,3.538c-0.06,0.597-0.043,1.093-0.028,1.336
				c0.15,2.425,1.295,3.645,1.781,4.056c0.949,0.81,2.035,0.98,2.779,0.98c0.121,0,0.224-0.004,0.305-0.009
				c0.566-0.036,1.655-0.204,2.594-0.942c0.607-0.482,1.129-1.206,1.435-1.986c0.42-1.08,0.425-2.185,0.391-2.747
				c-0.116-1.86-0.882-3.037-1.503-3.695c-0.311-0.335-0.512-0.487-0.68-0.601c-0.685-0.477-1.557-0.73-2.523-0.73
				C89.83,42.152,89.713,42.156,89.595,42.164"/>
		</defs>
		<clipPath id="SVGID_68_">
			<use xlink:href="#SVGID_67_"  style="overflow:visible;"/>
		</clipPath>
		
			<linearGradient id="SVGID_69_" gradientUnits="userSpaceOnUse" x1="-368.7274" y1="347.8682" x2="-368.2976" y2="347.8682" gradientTransform="matrix(-127.8258 233.5667 233.5667 127.8258 -128278.5234 41676.4062)">
			<stop  offset="0" style="stop-color:#CB964A"/>
			<stop  offset="0.1644" style="stop-color:#A07C45"/>
			<stop  offset="0.2612" style="stop-color:#B18D54"/>
			<stop  offset="0.454" style="stop-color:#E2C17F"/>
			<stop  offset="0.5293" style="stop-color:#FFDE95"/>
			<stop  offset="0.6079" style="stop-color:#E7C582"/>
			<stop  offset="0.7614" style="stop-color:#B8955A"/>
			<stop  offset="0.8434" style="stop-color:#A07C45"/>
			<stop  offset="0.917" style="stop-color:#B38748"/>
			<stop  offset="0.9895" style="stop-color:#CB964A"/>
			<stop  offset="1" style="stop-color:#CB964A"/>
		</linearGradient>
		<polygon style="clip-path:url(#SVGID_68_);fill:url(#SVGID_69_);" points="99.199,44.62 92.533,56.8 80.827,50.393 87.492,38.214 
					"/>
	</g>
	<g>
		<defs>
			<polygon id="SVGID_70_" points="85.28,56.176 91.847,57.91 83.622,62.366 83.252,63.749 91.824,66.043 92.213,64.589 
				85.657,62.87 93.855,58.457 94.24,57.016 85.669,54.721 			"/>
		</defs>
		<clipPath id="SVGID_71_">
			<use xlink:href="#SVGID_70_"  style="overflow:visible;"/>
		</clipPath>
		
			<linearGradient id="SVGID_72_" gradientUnits="userSpaceOnUse" x1="-368.7274" y1="347.8425" x2="-368.2976" y2="347.8425" gradientTransform="matrix(-127.8265 233.5679 233.5679 127.8265 -128268.7344 41682.3438)">
			<stop  offset="0" style="stop-color:#CB964A"/>
			<stop  offset="0.1644" style="stop-color:#A07C45"/>
			<stop  offset="0.2612" style="stop-color:#B18D54"/>
			<stop  offset="0.454" style="stop-color:#E2C17F"/>
			<stop  offset="0.5293" style="stop-color:#FFDE95"/>
			<stop  offset="0.6079" style="stop-color:#E7C582"/>
			<stop  offset="0.7614" style="stop-color:#B8955A"/>
			<stop  offset="0.8434" style="stop-color:#A07C45"/>
			<stop  offset="0.917" style="stop-color:#B38748"/>
			<stop  offset="0.9895" style="stop-color:#CB964A"/>
			<stop  offset="1" style="stop-color:#CB964A"/>
		</linearGradient>
		<polygon style="clip-path:url(#SVGID_71_);fill:url(#SVGID_72_);" points="99.008,57.331 91.708,70.67 78.484,63.433 
			85.785,50.094 		"/>
	</g>
</g>
<g id="Layer_1">
</g>
</svg>
