<?xml version="1.0" encoding="iso-8859-1"?>
<!-- Generator: Adobe Illustrator 19.2.1, SVG Export Plug-In . SVG Version: 6.00 Build 0)  -->
<svg version="1.1" xmlns="http://www.w3.org/2000/svg" xmlns:xlink="http://www.w3.org/1999/xlink" x="0px" y="0px"
	 viewBox="0 0 110 10" style="enable-background:new 0 0 110 10;" xml:space="preserve">
<g id="hashtag">
	<g>
		<path d="M4.271,7.496h-0.51l0.76-2.129H2.842l-0.76,2.129h-0.51l0.76-2.129h-1.27l0.16-0.5h1.289l0.53-1.469H1.763l0.17-0.5h1.29
			l0.649-1.789h0.51L3.732,2.898h1.679l0.65-1.789h0.51L5.92,2.898H7.22l-0.17,0.5H5.741l-0.53,1.469H6.51l-0.17,0.5H5.031
			L4.271,7.496z M5.231,3.398H3.552l-0.53,1.469h1.679L5.231,3.398z"/>
		<path d="M15.069,7.496H8.692V0h6.157v0.88H9.572v2.289h2.779v0.879H9.572v2.569h5.497V7.496z"/>
		<path d="M22.37,7.496h-1.04l-0.66-1.209h-3.158l-0.64,1.209h-1l2.798-5.177h0.879L22.37,7.496z M19.101,3.309l-1.129,2.099h2.259
			L19.101,3.309z"/>
		<path d="M25.952,7.496h-0.879V3.198h-1.999V2.319h4.857v0.879h-1.979V7.496z"/>
		<path d="M33.541,0c2.559,0,3.458,2.409,3.458,3.748s-0.719,3.748-3.458,3.748h-3.678V0H33.541z M33.541,6.617
			c1.709,0,2.579-1.669,2.579-2.869c0-1.219-0.87-2.868-2.579-2.868h-2.798v5.737H33.541z"/>
		<path d="M43.64,7.496h-4.657V2.319h4.557v0.879h-3.678v1.189h2.019v0.879h-2.019v1.35h3.778V7.496z"/>
		<path d="M49.85,3.638c-0.43-0.24-1-0.6-2.139-0.6c-0.959,0-1.449,0.25-1.449,0.689c0,0.5,0.18,0.66,1.669,0.66
			c2.339,0,2.608,0.71,2.608,1.519c0,1.489-1.389,1.75-2.548,1.75c-1.769,0-2.699-0.64-3.039-0.88l0.42-0.77
			c0.6,0.36,1.179,0.77,2.639,0.77c0.929,0,1.579-0.2,1.579-0.779c0-0.66-0.34-0.68-2.279-0.73c-1.179-0.02-1.999-0.359-1.999-1.439
			c0-0.87,0.65-1.669,2.389-1.669c1.259,0,2.209,0.51,2.559,0.689L49.85,3.638z"/>
		<path d="M56.599,3.638c-0.43-0.24-0.999-0.6-2.139-0.6c-0.959,0-1.449,0.25-1.449,0.689c0,0.5,0.181,0.66,1.669,0.66
			c2.339,0,2.609,0.71,2.609,1.519c0,1.489-1.39,1.75-2.549,1.75c-1.77,0-2.698-0.64-3.038-0.88l0.419-0.77
			c0.601,0.36,1.18,0.77,2.639,0.77c0.93,0,1.579-0.2,1.579-0.779c0-0.66-0.34-0.68-2.278-0.73c-1.18-0.02-1.999-0.359-1.999-1.439
			c0-0.87,0.649-1.669,2.389-1.669c1.26,0,2.209,0.51,2.559,0.689L56.599,3.638z"/>
		<path d="M63.889,7.496h-4.657V2.319h4.558v0.879h-3.679v1.189h2.02v0.879h-2.02v1.35h3.778V7.496z"/>
		<path d="M71.258,7.496h-1.1l-1.489-2.119H66.85v2.119h-0.879V2.319h3.198c1.039,0,1.969,0.35,1.969,1.489
			c0,1.149-0.779,1.449-1.39,1.549L71.258,7.496z M69.259,4.498c0.579,0,0.999-0.16,0.999-0.669c0-0.58-0.38-0.63-1.049-0.63H66.85
			v1.299H69.259z"/>
		<path d="M75.24,7.496h-0.88V3.198h-1.998V2.319h4.856v0.879H75.24V7.496z"/>
		<path d="M80.101,7.496h-0.88V0h6.157v0.88h-5.277v2.289h3.288v0.879h-3.288V7.496z"/>
		<path d="M88.18,7.496H87.3V2.319h0.88V7.496z"/>
		<path d="M96.228,7.496h-1.1l-1.489-2.119H91.82v2.119h-0.879V2.319h3.198c1.039,0,1.969,0.35,1.969,1.489
			c0,1.149-0.779,1.449-1.39,1.549L96.228,7.496z M94.229,4.498c0.579,0,0.999-0.16,0.999-0.669c0-0.58-0.38-0.63-1.049-0.63H91.82
			v1.299H94.229z"/>
		<path d="M102.187,3.638c-0.43-0.24-0.999-0.6-2.139-0.6c-0.959,0-1.449,0.25-1.449,0.689c0,0.5,0.181,0.66,1.669,0.66
			c2.339,0,2.609,0.71,2.609,1.519c0,1.489-1.39,1.75-2.549,1.75c-1.77,0-2.698-0.64-3.038-0.88l0.419-0.77
			c0.601,0.36,1.18,0.77,2.639,0.77c0.93,0,1.579-0.2,1.579-0.779c0-0.66-0.34-0.68-2.278-0.73c-1.18-0.02-1.999-0.359-1.999-1.439
			c0-0.87,0.649-1.669,2.389-1.669c1.26,0,2.209,0.51,2.559,0.689L102.187,3.638z"/>
		<path d="M106.958,7.496h-0.88V3.198h-1.998V2.319h4.856v0.879h-1.979V7.496z"/>
	</g>
</g>
<g id="Layer_1">
</g>
</svg>
