<?xml version="1.0" encoding="iso-8859-1"?>
<!-- Generator: Adobe Illustrator 19.2.1, SVG Export Plug-In . SVG Version: 6.00 Build 0)  -->
<svg version="1.1" xmlns="http://www.w3.org/2000/svg" xmlns:xlink="http://www.w3.org/1999/xlink" x="0px" y="0px"
	 viewBox="0 0 120 120" style="enable-background:new 0 0 120 120;" xml:space="preserve">
<g id="LOGO_x5F_walgreens">
	<linearGradient id="SVGID_1_" gradientUnits="userSpaceOnUse" x1="17.8547" y1="107.9042" x2="17.8547" y2="63.0026">
		<stop  offset="0" style="stop-color:#A31E22"/>
		<stop  offset="0.3359" style="stop-color:#96191C"/>
		<stop  offset="0.9565" style="stop-color:#740A0B"/>
		<stop  offset="1" style="stop-color:#71090A"/>
	</linearGradient>
	<polygon style="fill:url(#SVGID_1_);" points="35.681,115.899 0.028,79.098 0.028,11.775 35.681,40.099 	"/>
	<path style="fill:#E31837;" d="M100,74.799v-70.5C100,1.929,98.072,0,95.702,0H0.004v11.089L0,11.085l0.03,68.012h95.672
		C98.072,79.097,100,77.167,100,74.799z"/>
	<path style="fill:#FFFFFF;" d="M45.805,65.18c16.904,3.122,29.274-13.252,37.206-27.422c3.177-5.683,7.988-20.545,2.59-26.166
		c-4.938-5.431-8.76,1.703-11.685,4.078l2.255,2.676c4.512,5.703,0.593,16.54-2.085,22.329c-4.024,7.129-11.6,17.909-20.465,16.405
		c-1.918-0.444-3.515-2.319-4.182-4.278c4.769-4.722,10.42-13.02,13.591-18.535c2.675-4.496,7.277-13.169,3.022-16.744
		c-3.528-2.447-10.605,1.077-14.392,4.265c-2.306,2.084-3.867,3.784-5.657,6.204c-4.871,6.614-9.519,17.946-9.028,26.676
		c-2.348,1.7-5.02,3.387-8.201,2.412c-3.148-0.703-3.721-3.386-4.164-5.485c-2.006-12.652,10.667-28.618,17.781-37.79
		c0,0-5.612,1.518-9.708,1.694c-9.412,0.404-16.398-3.976-21.49,2.315c-1.535,2.232-2.418,4.592-2.707,7.38
		c2.086-1.779,5.181-1.351,8.134-1.179c5.103,0.455,7.62,1.059,12.228-0.172c-4.104,5.776-10.929,17.191-12.198,24.309
		c-0.664,4.728-0.604,12.173,3.433,15.518c6.695,4.448,13.333,1.341,19.28-2.763C41.126,62.951,43.296,64.735,45.805,65.18z
		 M57.161,25.668c1.777-0.87,1.242,1.778,1.242,1.778c-0.247,2.999-2.431,6.567-3.974,9.312c-1.598,2.805-7.174,9.412-9.605,10.839
		c0.106-4.002,4.386-12.73,6.572-16.075C52.52,29.569,55.382,26.544,57.161,25.668z"/>
	<g>
		<path style="fill:#848484;" d="M108.413,71.231c2.142,0,3.939,1.691,3.939,3.907c0,2.26-1.797,3.95-3.939,3.95
			c-2.154,0-3.961-1.69-3.961-3.95C104.453,72.922,106.259,71.231,108.413,71.231z M108.413,78.51c1.817,0,3.224-1.45,3.224-3.372
			c0-1.88-1.407-3.33-3.224-3.33c-1.839,0-3.246,1.45-3.246,3.33C105.167,77.061,106.575,78.51,108.413,78.51z M106.879,72.859
			h1.776c1.092,0,1.606,0.431,1.606,1.313c0,0.83-0.525,1.176-1.208,1.251l1.313,2.027h-0.766l-1.251-1.975h-0.756v1.975h-0.714
			V72.859z M107.594,74.896h0.746c0.631,0,1.208-0.031,1.208-0.756c0-0.61-0.525-0.704-1.008-0.704h-0.945V74.896z"/>
	</g>
</g>
<g id="Layer_1">
</g>
</svg>
