<svg xmlns="http://www.w3.org/2000/svg" viewBox="0 0 120 15" enable-background="new 0 0 120 15"><g fill="#512698"><path d="M5.152.132h1.465v10.1c0 .943-.097 1.64-.29 2.09-.192.452-.503.813-.933 1.085s-.947.406-1.553.406c-.092 0-.25-.014-.475-.043l-.27-1.363h.373c.42 0 .74-.05.963-.154.223-.102.4-.283.528-.54.13-.26.194-.81.194-1.65V.134zM12.696 10.364V9.5c-.283.31-.607.55-.97.723-.364.172-.727.258-1.088.258-.425 0-.816-.105-1.176-.317-.358-.213-.63-.5-.812-.864-.184-.365-.276-.97-.276-1.815v-3.86h1.333v3.84c0 .707.1 1.2.304 1.48.203.28.56.42 1.066.42.635 0 1.174-.31 1.62-.93v-4.81h1.332v6.738h-1.332zM15.933.132h1.333v10.232h-1.333V.132zM19.88.79c.22 0 .41.077.565.228s.234.337.234.557c0 .215-.08.4-.235.557s-.345.234-.564.234c-.204 0-.385-.08-.54-.238-.157-.158-.235-.343-.235-.553 0-.205.078-.387.234-.546.155-.16.336-.24.54-.24zm-.66 2.835h1.334v6.738H19.22V3.625zM26.714 6.313v2.864c0 .23.078.344.234.344.16 0 .413-.12.754-.358v.813c-.303.195-.546.33-.73.4-.183.07-.374.105-.574.105-.57 0-.908-.225-1.01-.674-.567.44-1.17.66-1.81.66-.47 0-.86-.156-1.172-.466s-.47-.7-.47-1.168c0-.425.153-.804.46-1.14.304-.333.738-.598 1.3-.793l1.706-.587v-.358c0-.81-.405-1.216-1.216-1.216-.728 0-1.436.375-2.124 1.127V4.41c.518-.61 1.262-.917 2.234-.917.728 0 1.31.19 1.75.57.146.123.278.286.396.488s.19.406.224.608c.032.205.048.59.048 1.155zm-1.31 2.718v-2l-.894.345c-.454.18-.775.362-.963.546-.188.184-.282.412-.282.686 0 .278.09.505.268.68.178.177.41.265.692.265.424 0 .817-.173 1.178-.52zM30.215 3.625v.857c.596-.66 1.272-.99 2.03-.99.42 0 .81.11 1.17.327s.637.514.825.893c.188.378.282.978.282 1.798v3.854H33.19V6.526c0-.688-.106-1.18-.316-1.476s-.562-.443-1.055-.443c-.63 0-1.166.315-1.605.945v4.812h-1.362v-6.74h1.362zM37.715 3.625v.857c.596-.66 1.272-.99 2.03-.99.42 0 .81.11 1.17.327s.637.514.825.893c.188.378.282.978.282 1.798v3.854H40.69V6.526c0-.688-.106-1.18-.316-1.476s-.562-.443-1.055-.443c-.63 0-1.166.315-1.605.945v4.812h-1.362v-6.74h1.362zM49.624 7.112h-4.74c.035.645.25 1.157.65 1.538.396.38.91.57 1.54.57.88 0 1.69-.272 2.433-.82v1.305c-.41.273-.817.47-1.22.586-.402.118-.874.177-1.416.177-.74 0-1.342-.154-1.8-.46s-.828-.722-1.103-1.243c-.276-.52-.414-1.122-.414-1.805 0-1.026.29-1.86.872-2.502.58-.642 1.335-.963 2.263-.963.894 0 1.606.312 2.14.938s.797 1.462.797 2.512v.167zm-4.71-.8h3.392c-.034-.53-.193-.94-.476-1.23s-.664-.43-1.143-.43-.87.143-1.176.43-.502.7-.595 1.23zM62.63.132h1.466v10.232H62.63V5.91h-5.748v4.454h-1.465V.132h1.465v4.424h5.75V.132zM69.393 3.61c1.025 0 1.877.332 2.556.993.678.662 1.018 1.493 1.018 2.494 0 .972-.345 1.78-1.033 2.42s-1.556.964-2.6.964c-1.012 0-1.856-.325-2.535-.977-.68-.652-1.018-1.466-1.018-2.443 0-.986.343-1.808 1.03-2.464.684-.657 1.545-.985 2.58-.985zm-.074 1.202c-.64 0-1.165.21-1.575.63s-.615.955-.615 1.604c0 .645.21 1.17.63 1.58s.96.61 1.618.61c.654 0 1.19-.206 1.608-.62.417-.41.626-.94.626-1.584 0-.64-.218-1.17-.652-1.59s-.98-.63-1.64-.63zM78.74 10.364V9.5c-.284.31-.607.55-.97.723-.365.172-.728.258-1.09.258-.424 0-.815-.105-1.175-.317-.358-.213-.63-.5-.812-.864-.184-.365-.274-.97-.274-1.814v-3.86h1.33v3.84c0 .707.103 1.2.306 1.48.202.28.558.42 1.065.42.636 0 1.175-.31 1.62-.93v-4.81h1.333v6.737H78.74zM81.603 5.955c0-.718.263-1.285.787-1.703.525-.417 1.24-.626 2.15-.626h2.775v1.04h-1.362c.264.27.447.513.55.732.103.22.153.47.153.754 0 .352-.1.697-.3 1.037s-.458.598-.773.78c-.314.18-.83.324-1.55.43-.502.074-.754.248-.754.52 0 .157.094.286.28.385.19.1.53.204 1.023.312.824.18 1.355.322 1.593.425.236.103.45.25.64.44.323.32.484.726.484 1.214 0 .64-.284 1.15-.854 1.53-.568.382-1.33.573-2.28.573-.963 0-1.73-.194-2.305-.577-.572-.383-.86-.896-.86-1.54 0-.915.565-1.503 1.692-1.767-.448-.287-.672-.573-.672-.856 0-.215.097-.41.29-.586.192-.176.452-.305.78-.388-.992-.44-1.487-1.15-1.487-2.13zm2.19 4.724c-.45 0-.817.094-1.103.285-.286.19-.43.435-.43.732 0 .693.626 1.04 1.876 1.04.59 0 1.05-.087 1.373-.26.324-.173.486-.42.486-.735 0-.312-.205-.568-.615-.766-.408-.198-.938-.297-1.587-.297zm.315-5.897c-.36 0-.67.122-.923.366s-.38.536-.38.878c0 .347.123.634.373.86.248.228.563.34.944.34.376 0 .69-.115.94-.347.252-.23.378-.52.378-.867 0-.352-.127-.645-.38-.88s-.57-.35-.952-.35zM88.32.132h1.33v4.38c.558-.68 1.25-1.018 2.074-1.018.45 0 .852.112 1.208.337s.622.536.795.93c.174.397.26.985.26 1.766v3.838h-1.332V6.196c0-.493-.12-.89-.363-1.19-.24-.3-.56-.45-.955-.45-.293 0-.57.075-.828.226s-.546.403-.858.754v4.827H88.32V.133zM100.17 3.625v-.402c0-1.084.23-1.892.69-2.424.463-.534 1.015-.8 1.66-.8.28 0 .608.044.99.132v1.304c-.216-.078-.42-.117-.616-.117-.522 0-.885.138-1.088.416-.202.278-.304.774-.304 1.487v.403h1.2v1.2h-1.2v5.538h-1.333V4.827H99.2V3.625h.967zM106.842 3.61c1.025 0 1.877.332 2.556.993.68.662 1.02 1.493 1.02 2.494 0 .972-.346 1.78-1.034 2.42s-1.556.964-2.6.964c-1.012 0-1.856-.325-2.535-.977-.68-.652-1.02-1.466-1.02-2.443 0-.986.344-1.808 1.03-2.464.686-.657 1.546-.985 2.582-.985zm-.074 1.202c-.64 0-1.164.21-1.574.63s-.615.955-.615 1.604c0 .645.21 1.17.63 1.58s.96.61 1.617.61c.654 0 1.19-.206 1.608-.62.417-.41.626-.94.626-1.584 0-.64-.217-1.17-.65-1.59s-.982-.63-1.642-.63zM113.324 3.625V5.17l.073-.117c.645-1.04 1.29-1.56 1.934-1.56.504 0 1.028.254 1.576.762l-.703 1.172c-.465-.44-.895-.66-1.29-.66-.43 0-.802.206-1.116.616-.315.41-.473.896-.473 1.458v3.524h-1.34v-6.74h1.34z"/></g></svg>