<svg xmlns="http://www.w3.org/2000/svg" viewBox="0 0 100 120" enable-background="new 0 0 100 120"><g fill="#fff"><path d="M94.784 27.382c-.025-.11-.06-.22-.11-.327-.355-.73-1.224-1.034-1.957-.678-.734.35-1.035 1.213-.676 1.942.15.3.392.524.674.662.025.114.06.227.114.337.355.716 1.22 1.023 1.956.67.73-.35 1.032-1.214.676-1.935-.15-.308-.393-.535-.676-.673zm-2.432.787c-.286-.588-.06-1.21.516-1.484.565-.275 1.21-.067 1.496.518.007.014.005.03.012.043-.14-.022-.284-.02-.428 0-.007-.05-.023-.105-.052-.165-.18-.358-.42-.31-.74-.16l-.662.32.362.745c-.1.18-.155.377-.17.582-.133-.105-.252-.23-.334-.4zm.708.236l.094.194.243-.118.138.284c-.176.03-.35.033-.513-.016-.01-.12.01-.233.038-.344zm1.296-.24c-.103.207-.263.388-.49.504l-.166-.336.275-.133.01.007.16-.078c.084-.028.163-.03.21.037zm-1.01.045l-.097-.19c.057-.074.13-.133.21-.192l.27.197-.385.186zm.27-.875c-.038.015-.077.023-.113.04-.16.077-.292.18-.408.297l-.013.006-.17-.344.3-.144c.13-.06.304-.148.374-.007.033.064.037.11.03.152zm.835.514c-.11-.05-.24-.033-.387.026l-.318-.214c.245-.096.498-.114.73-.043.006.08-.013.153-.024.23zm.183 1.834c-.574.27-1.212.065-1.495-.514-.01-.018-.007-.036-.015-.054.187.03.38.024.57-.022l.247.506.31-.15-.237-.473c.085-.042.165-.09.237-.144l.518.375.335-.16-.62-.416c.195-.11.277-.243.236-.425.05-.13.08-.266.09-.406.135.105.255.233.34.405.282.58.045 1.205-.517 1.48zM79.735 9.583c.933-1.132 2.704-3.615 3.718-4.487 1.016-.873 1.96-3.213.993-3.907-.116-.084-.25-.107-.395-.106-.013-.38-.123-.703-.39-.895-.752-.54-2.2.875-2.89 2.022-.726 1.205-1.87 4.27-1.822 6.37.298-.36.686-.866 1.104-1.407-.2.84-.333 1.682-.317 2.408zM43.633 57.097l.093-.05-.206-3.997-.474.226.133 2.79-.25-.214-.197-3.802-.474.226.132 2.79-2.13-1.838-.478.23 1.027.885-.24.115zM27.645 64.166c.4-1.676.718-3.396 1.004-5.074 1.31-1.437 4.137-3.143 5.31-3.566.04-.025.127-.094.038-.13-1.417-.04-4.647 2.29-5.294 2.74.013-.227.026-.53.042-.867 1.437-1.207 3.474-2.4 4.427-2.744.04-.025.128-.094.04-.13-1.075-.03-3.188 1.3-4.432 2.142.166-3.323.613-9.738 2.692-14.642.172-.417-.134-.42-.428-.78-.102-.125-.22-.22-.344-.294.096-.333-.17-.374-.442-.707-.5-.613-1.338-.676-1.832.47-.648 1.713-2.27 5.253-4.363 8.63-3.243 4.803-7.034 10.012-8.782 9.236-.04-.017-.08-.046-.12-.07-.563-1.22-.772-3.21-.397-4.968 5.012-6.167 8.21-11.693 9.45-13.93 1.383-2.487 7.396-13.032 5.127-14.486-.107-.07-.218-.127-.33-.176-.065-.37-.202-.66-.457-.824-3.4-2.174-9.954 5.69-12.452 10.98-1.218 2.583-5.554 10.27-5.085 18.377-1.198 1.11-5.236 5.776-7.69 4.295-.147-.09-.284-.19-.413-.303-2.714-4.91 1.893-18.62 8.805-22.29.013-.017.005-.03-.04-.025-3.047.578-5.986 3.915-8.043 7.965 1.723-3.846 4.29-7.344 7.296-8.94.013-.018.005-.03-.04-.026C3.49 35.434-3.296 53.09 1.74 57.794c.456.772 1.08 1.376 1.906 1.74 2.95 1.306 6.4-1.142 8.425-3.02.366.74.8 1.344 1.27 1.82 1.304 1.978 3.148 2.656 4.467 2.445 2.777-.446 5.907-5.572 7.735-8.526-.287 3.007-.693 7.343-.8 7.982-4.198 4.124-10.885 17.787-7.548 19.304.15.528.44.898.902 1.057 1.658.566 4.52-2.896 6.805-7.978 1.128-2.52 2.032-5.482 2.745-8.454zm-7.89 7.482c1.152-2.83 2.877-5.79 4.523-7.905-.39 2.328-.96 5.016-1.824 7.435-1.274 3.562-2.997 6.465-4.318 6.657-.03-1.284.587-3.647 1.62-6.187zm7.792-45.68c-.285 2.508-3.582 8.934-5.224 11.695-1.626 2.735-4.747 7.478-6.863 10.265.733-3.255 2.434-8.473 4.45-11.9.805-1.364 5.512-9.312 7.637-10.06zM4.817 58.892c.728-.027 1.46-.206 2.172-.49-.754.392-1.5.6-2.173.49zm19.82 2.495c-.045.318-.093.654-.145 1-2.788 3.395-6.148 9.768-7.135 14.026.09-1.342.683-3.484 1.61-5.767 1.425-3.496 3.726-7.22 5.67-9.26zM98.815 9.367c-.288-.624-.745-1.114-1.448-1.37-3.18-1.158-5.597 3.072-6.044 4.257-.788 2.095-1.26 4.396.026 5.516.063.057.138.11.218.16.128.32.303.61.568.84.454.402 1.32.725 2.362-.245l.088-.345c-.944.666-1.517.5-1.812-.09.29-.086.603-.254.937-.565l.09-.345c-.5.35-.89.463-1.196.413-.206-.985.006-2.512.466-3.802.21-.59 1.374-3.91 2.852-3.887.234.004.437.063.617.16.336.898.326 2.15.125 3.124-1 4.88-3.227 8.275-3.916 9.175-.456.595-2.572 3.41-4.074 2.614-.13-.07-.242-.154-.354-.24-.402-.927-.43-2.29-.08-4.255.45-2.558 2.896-8.102 3.203-8.805.308-.71.023-1.012-.15-1.308-.107-.175-.292-.215-.508-.185.028-.378-.153-.6-.28-.815-.358-.592-1.564.25-2.098.77-.81.804-2.175 3.796-2.746 5.452-.353 1.026-5.044 11.31-5.23 11.77-.12.292-.4.76-.71.903-.164-1.426.316-3.84.384-4.353.094-.656 1.465-6.637 1.61-7.16.14-.52.073-1.017-.243-1.038-.11-.008-.323.036-.572.145.01-.04.02-.085.027-.107.14-.52.074-1.017-.242-1.038-.318-.023-1.468.347-1.978 1.658-.198.51-1.306 4.35-1.82 6.116-.542 1.88-2.706 5.843-4.125 8.365.303-2.256.672-4.983.777-5.534.17-.943.845-6.84.698-8.036-.063-.537-.402-.745-.773-.798-.003-.073-.007-.148-.013-.202-.07-.584-.462-.788-.87-.816-.43-.03-.845-.05-.966.58-.174.89-.386 1.748-.617 2.568-.04.013-.07.01-.118.035-1.02.54-2.004 1.3-2.893 2.136.845-1.158 1.713-2.175 2.477-2.832.27-.228.065-.534-.37-.303-3.268 1.726-6.16 5.734-6.78 7.14-.44 1.006-3.87 6.134-2.66 10.687.13.492.428.89.82 1.09.36 1.14 1.606 1.777 2.9.217 1.21-1.442 3.96-6.675 5.67-10.05-.186.948-.393 2.004-.596 3.13-.512 2.845-.73 5.593-1.012 7.67-.96 2.05-3.38 7.017-4.064 8.72-.68 1.677-3.42 9.433-1.022 10.58.164.513.442.897.89 1.06 2.706.99 5.823-7.063 6.525-11.622.365-2.387.93-7.885 1.22-10.265.11-.882 3.287-6.398 4.773-8.957.13.917.45 1.865 1.19 2.432.29.61.747 1.12 1.464 1.366 1.364.47 2.548-2.597 3.828-5.807.687-1.725 1.45-3.358 2.085-4.634.125 1.543.56 3.4 1.804 4.597.518.874 1.27 1.604 2.386 1.968 3.654 1.193 7.836-5.404 8.963-8.096 1.07-2.594 2.616-7.785.335-9.505zM92.215 13c.024-.07.045-.14.07-.21.21-.59 1.373-3.91 2.85-3.887.247.004.458.07.644.174-1.795.756-3.104 2.898-3.564 3.923zM64.728 50.226c.716-2.29 2.174-5.585 3.283-7.905-.34 2.406-.8 5.35-1.136 6.525-.53 1.824-1.685 6.893-3.074 7.31-.108-1.63.557-4.746.927-5.93zm6.036-30.814c-1.133 3.698-2.614 6.467-2.96 7.38-1.075 2.888-3.517 6.77-3.957 7.33-.104.133-.258.305-.423.443l.01-.132c.067-.57.213-3.206 2.49-7.95 1.202-2.496 3.186-5.435 4.84-7.07zm-6.13 15.71c-.24.308-.746.83-1.03.636 1.68-2.026 6.286-11.24 7.018-12.774.006.025 0 .076.004.108-.898 2.33-1.777 4.025-2.033 4.7-1.075 2.888-3.517 6.77-3.957 7.33zm-.693 14.104c1.058-3.385 3.742-8.975 4.517-10.348-.022.23-.098.86-.21 1.7-1.113 2.335-2.58 5.403-3.09 6.67-.508 1.254-2.17 5.913-1.974 8.663-.55-1.083.314-5.266.757-6.684zm.267 7.935c-.086-.028-.15-.104-.208-.197.544-.032 1.098-.394 1.64-.975-.442.832-.924 1.347-1.433 1.173zm8.136-23.178c.023-.152.13-.945.27-1.994 1.557-2.898 3.87-6.817 4.096-7.22-.012.247-.04.67-.033 1.166-1.467 3.102-3.897 7.255-4.334 8.048zm8.877-5.622c-.18.442-.734 1.306-1.196.797 0-.002-.002-.004-.004-.005.82-1.04 1.606-3.047 2.432-5.118 1.012-2.542 2.2-4.905 2.878-6.182-.014.23-.058.77-.054 1.473-1.508 3.4-3.924 8.706-4.056 9.035zm8.534-2.276c.464-.02.93-.138 1.394-.343-.468.286-.95.447-1.394.344zM53.08 51.71l.77.467.574-.275c-.387-.204-.523-.273-.774-.436-.194-.123-.364-.228-.528-.318l.516-.247c-.387-.203-.523-.272-.774-.435l-.142-.09c.022-.173-.008-.355-.097-.538-.15-.31-.394-.484-.69-.54.005-.15-.02-.304-.096-.46-.277-.572-.87-.723-1.544-.402l-.84.402 1.61 3.295.24-.116.546 1.116.478-.23-.696-1.43.2-.098c.237-.112.48-.13 1.246.336zm-.618-.803c.02-.02.03-.045.047-.066l.212.13c-.084-.027-.17-.05-.26-.063zm-.347-.865c-.144-.063-.286-.114-.44-.135.044-.046.072-.097.105-.146.146.034.256.132.335.282zm-1.676-1.175c.46-.22.74-.123.895.184.046.092.063.19.063.287-.105.027-.208.047-.318.1l-.602.29-.348-.71.31-.15zm.983 2.18l-.336-.685c.204-.086.45-.073 1.008.24-.072.106-.177.21-.366.3l-.307.145zM59.013 45.645l1.602.77.455.936.243-.115.544 1.116.476-.226-.846-1.742.477-2.146-.576.276-.35 1.564-.337-.694.478-2.146-.577.276-.35 1.565-1.448-.707-.576.275 1.994.96.046.096-.678-.33zM73.83 38.565l-.24.115-.546-1.116-.477.23 1.606 3.298.243-.118.544 1.118.48-.232-.7-1.434 1.622-.775.156.322.244-.116.543 1.116.48-.23-1.605-3.297-.243.116-.543-1.115-.48.23.7 1.436-1.624.776-.16-.32zm1.988-.03l.337.692-1.622.773-.337-.69 1.622-.775zM87.77 35.444l-.337-.69 1.26-.6-.21-.427-1.258.6-.856-1.752-.242.117-.545-1.117-.48.232 1.605 3.292.243-.116.545 1.116 1.984-.947-.21-.426zM86.842 85.5c-.273-.14-.508-.34-.727-.564.205-.08.248-.202.06-.385l-.12-.05c-.187-.096-.356-.22-.517-.356-.717-1.284-1.057-3.286-1.232-6.08-.07-1.28.063-2.8.065-2.814.13-1.367.397-2.96.68-4.645.382-2.287.778-4.65.836-6.552.03-.97-.127-1.638-.466-1.987-.116-.12-.26-.19-.415-.235-.078-.333-.202-.59-.372-.764-.186-.193-.427-.29-.712-.29-.254 0-.55.08-.88.236-1.068.506-2.135 2.424-3.044 5.256-.032-.992-.19-1.617-.49-1.927-.118-.12-.264-.182-.423-.21-.082-.358-.2-.622-.364-.79-.152-.155-.34-.235-.556-.235-.168 0-.356.05-.56.146-.923.44-1.844 2.18-2.82 5.365.038-.526.065-.965.074-1.26.01-.355-.068-.624-.236-.796-.127-.13-.302-.2-.506-.2-.014 0-.03.006-.046.006v-.01c.01-.356-.068-.625-.236-.797-.127-.13-.302-.2-.506-.2-.183 0-.39.054-.612.16-.295.14-.578.34-.838.598l-.047.045.006.065c.11 1.48.14 3.08.09 4.76-.08 2.564-.314 5.394-.532 7.64-.637 1.955-1.465 3.23-2.264 3.61-.053.024-.12.042-.188.054-.06-.334-.093-.727-.08-1.18.047-1.552.34-3.8.563-5.666.168-1.407.313-2.623.334-3.302.01-.356-.07-.624-.236-.796-.126-.13-.3-.2-.505-.2-.016 0-.033.007-.048.007v-.01c.012-.357-.067-.625-.234-.797-.126-.13-.3-.2-.505-.2-.184 0-.39.055-.612.16-.12.057-.24.138-.36.218-.058-.04-.112-.095-.175-.122-.263-.69-.667-1.082-1.177-1.082-.18 0-.374.048-.573.142-2.795 1.326-5.13 7.786-5.273 12.46-.006.184-.007.634-.006.812-.28 2.503-.668 4.97-2.51 4.97h-.174c-.118-.016-.224-.055-.325-.104-.72-1.923-.285-5.957.062-9.042.414-3.694 1.187-10.57 4.464-18.678.054-.138.055-.244.004-.32-.035-.05-.092-.08-.155-.08-.125 0-.223.115-.294.21-.726 1.164-1.416 2.53-2.055 4 .48-1.542 1.04-3.148 1.713-4.81.054-.138.055-.244.004-.32-.035-.05-.092-.08-.155-.08-.125 0-.223.115-.294.21-2.963 4.752-5.34 12.83-6.063 18.026-.715 5.134-1.106 8.915.37 10.815.144.184.308.342.484.484.096.178.184.363.303.516.52.667 1.262 1.06 2.21 1.163.068.004.13.006.19.006 1.62 0 2.73-1.253 3.31-3.712.046.036.09.067.138.096.43.992 1.086 1.236 1.614 1.236.348 0 .74-.102 1.162-.302 1.23-.583 2.137-2.3 2.764-4.023.047.064.09.134.143.19.096.098.21.16.324.226.116.316.27.576.46.773.273.28.617.428.997.428.256 0 .51-.106.78-.234.856-.406 1.8-1.388 2.45-2.74h.01l-.046.32c-.01.29.054.373.193.515.118.12.286.186.487.186.2 0 .427-.06.677-.178.258-.122.512-.297.717-.492l.052-.05-.01-.07c-.032-.218-.02-.573-.01-.886.11-3.624 1.955-11.963 3.17-14.112 0 .04 0 .072-.002.113-.034 1.123-.206 2.656-.39 4.28-.195 1.745-.398 3.55-.44 4.978-.046 1.47.08 2.276.408 2.614.114.118.252.177.41.177.013 0 .03-.01.042-.01.068.398.177.67.334.833.114.118.252.177.41.177.11 0 .232-.03.36-.09.315-.15.618-.414 1.01-.88l.038-.043-.004-.056c-.03-.383-.054-.796-.04-1.22.13-4.292 2.16-11.473 3.524-13.775-.094 1.068-.31 2.433-.544 3.88-.348 2.154-.743 4.595-.804 6.58 0 .005-.048.916.045 2.205.27 3.542 1.2 6.2 2.517 7.48.728 1.18 1.637 1.84 2.66 1.843h.1c.25-.078.308-.208.105-.405l-.118-.052zm-23.5-.688c-.03.015-.057.013-.086.022-.15-.672-.214-1.64-.178-2.826.136-4.445 1.495-9.97 3.23-10.792.063-.03.12-.04.178-.045.18.645.285 1.563.287 2.662-.045.75-.13 1.545-.217 2.39-.066.634-.134 1.282-.188 1.933-.605 3.552-1.737 6.045-3.026 6.657zm2.178-14.596c.08-.038.155-.057.225-.057.157 0 .3.1.428.285-.017.007-.033.01-.05.018-.858.407-1.672 1.3-2.393 2.476.51-1.386 1.12-2.407 1.79-2.724zm-7.185 18.49h-.174c-.13-.02-.25-.06-.36-.117 1.246-.35 2.12-1.595 2.6-3.744.07.195.147.357.23.506-.307 1.85-.858 3.353-2.295 3.353zm5.794-2.894c-.078.036-.15.054-.215.054-.084 0-.16-.037-.233-.1 1.182-.844 2.034-2.725 2.598-4.463.028.313.084.59.155.844-.616 1.925-1.422 3.245-2.306 3.665zm5.79-2.576c-.1.047-.258.07-.34.07-.11 0-.204-.04-.288-.13-.023-.023-.04-.07-.063-.1.718-.502 1.447-1.346 1.978-2.46l-.048.344c-.01.288.054.372.193.514.015.016.038.022.055.036-.472.894-.986 1.488-1.49 1.726zm4.586-11.172c.768-3.37 1.72-6.406 2.34-6.7.038-.02.073-.03.1-.03.022 0 .048.005.08.037.04.043.083.124.118.268-.9 1.578-1.825 4.43-2.82 8.692.055-.723.118-1.494.182-2.266zm5.022-.043c.115-.945.23-1.903.32-2.815.923-3.515 2.127-6.61 2.848-6.953.068-.033.107-.04.128-.04.076.07.102.304.11.546-1.35 1.605-2.63 5.286-3.498 10.027.03-.255.06-.51.092-.764zM50.095 94.297c.013-.228.026-.53.042-.868 1.437-1.207 3.474-2.4 4.427-2.744.04-.025.103-.08.04-.13-1.075-.03-3.188 1.3-4.43 2.142.164-3.323.61-9.738 2.69-14.64.172-.418-.135-.42-.428-.78-.102-.125-.22-.22-.345-.294.098-.333-.17-.374-.44-.706-.5-.613-1.34-.676-1.833.47-.65 1.712-2.27 5.252-4.363 8.628-3.243 4.804-7.034 10.013-8.782 9.237-.042-.018-.08-.047-.12-.07-.564-1.22-.773-3.21-.398-4.97 5.012-6.166 8.21-11.692 9.45-13.928C46.99 73.157 53 62.612 50.733 61.158c-.107-.07-.217-.127-.33-.176-.065-.37-.202-.66-.457-.824-3.4-2.175-9.954 5.69-12.452 10.98-1.22 2.582-5.555 10.268-5.086 18.377-1.198 1.11-5.236 5.776-7.69 4.295-.147-.09-.284-.19-.413-.303-2.714-4.91 1.893-18.62 8.805-22.29.006-.02-.005-.034-.04-.025-3.048.578-5.988 3.916-8.045 7.967 1.723-3.847 4.29-7.346 7.297-8.942.007-.02-.004-.035-.04-.026-7.4 1.404-14.186 19.06-9.148 23.765.455.772 1.08 1.376 1.905 1.74 2.95 1.306 6.4-1.143 8.423-3.022.365.742.8 1.345 1.27 1.822 1.303 1.977 3.147 2.656 4.466 2.444 2.776-.445 5.907-5.57 7.734-8.525-.287 3.006-.693 7.343-.8 7.982-4.198 4.125-10.885 17.787-7.55 19.304.15.53.44.9.902 1.058 1.66.566 4.52-2.897 6.805-7.978 1.13-2.518 2.033-5.48 2.747-8.452.4-1.676.718-3.396 1.003-5.074 1.312-1.437 4.138-3.143 5.31-3.566.04-.025.103-.08.04-.13-1.417-.04-4.647 2.288-5.295 2.74zm-1.157-32.17c-.285 2.51-3.58 8.935-5.224 11.696-1.626 2.735-4.747 7.478-6.863 10.266.734-3.256 2.435-8.475 4.453-11.902.803-1.364 5.51-9.312 7.635-10.06zm-22.73 32.926c.728-.027 1.46-.206 2.17-.49-.75.392-1.495.6-2.17.49zm14.94 12.755c1.15-2.83 2.875-5.792 4.52-7.905-.39 2.328-.96 5.017-1.823 7.435-1.274 3.563-2.998 6.466-4.32 6.657-.027-1.283.59-3.646 1.622-6.187zm4.88-10.26c-.044.318-.092.654-.144 1-2.788 3.395-6.148 9.768-7.135 14.026.09-1.342.682-3.484 1.61-5.766 1.424-3.497 3.724-7.222 5.668-9.26zM92.26 31.89c0-.147-.025-.297-.096-.444-.237-.49-.677-.594-1.11-.635.224-.1.53-.147.925-.02l-.26-.536c-.31-.043-.603.002-.855.124-.204.097-.35.228-.464.37-.222-.035-.406-.103-.493-.282-.11-.237.03-.496.335-.646.226-.107.543-.162.95-.03l-.258-.536c-.31-.043-.602.002-.854.124-.61.29-.843.825-.585 1.362.147.298.41.425.704.494-.016.164 0 .333.082.506.232.472.744.53 1.23.576-.036.024-.06.05-.104.07-.327.157-.718.135-1.11-.056l.288.596c.382.076.722.035 1.08-.14.194-.09.328-.232.43-.387.196.05.354.14.438.31.09.186.03.5-.34.676-.328.156-.72.135-1.112-.057l.29.595c.38.076.72.035 1.08-.14.54-.254.75-.822.5-1.34-.16-.327-.414-.475-.692-.555zm-1.567-.425c-.024-.05-.03-.104-.032-.156.467.044.92.06 1.086.4.013.027.015.06.02.092-.468-.04-.916-.018-1.073-.337zM47.15 50.465l-.21-.43-1.89.903 1.608 3.3.243-.115.545 1.116 1.933-.927-.208-.424-1.455.692-.335-.69 1.212-.58-.165-.335.15-.07-.205-.426-1.364.654-.335-.692 1.117-.537-.146-.3.292-.14-.208-.43-1.656.79-.334-.69zM33.36 57.566c-.203-.416-.718-.694-1.436-.354l-.965.463 1.603 3.295.243-.117.543 1.117 1.142-.547c.835-.398.913-1.018.712-1.425-.14-.29-.394-.456-.703-.502.022-.18-.01-.353-.083-.498-.058-.12-.136-.216-.226-.296-.014-.046-.022-.09-.046-.138-.125-.257-.37-.46-.707-.5.034-.157.01-.32-.078-.498zm-.134 2.14l-.317.153-.338-.69.336-.163c.35-.167.617-.16.797-.043.087.295-.06.545-.48.74zM32.08 57.66c.443-.21.685-.066.805.183.048.098.065.19.064.276-.078.025-.157.053-.24.093l-.73.352-.34-.693.44-.21zm2.598 2.506c.122.247.103.594-.457.863l-.596.287-.338-.69.42-.202c.316-.15.523-.333.648-.524.147.04.26.13.324.268zM46.016 9.786c.058.16.11.325.236.457.14.27-.136.685.193.892.047.058.38.31.51.568.008.018.022.07.054.053.02-.02.02-.035.032-.053.006-.01.015-.01.023-.016-.01.137.013.263.1.366 0 .033-.002.066.004.09.048.05.065.148.14.166.013-.005.022-.005.03-.02.003-.016 0-.033.003-.05.09.08.204.193.3.32-.157.202-.31.503-.2.846.127.383.435.576.766.624-.022.118-.023.243.02.376.19.576.783.755 1.262.593.633-.225 1.06-.74 1.865-.77.08.197.39.465.77.217.083.07.145.144.162.213.03.115-.223.067-.168.5.026.218.46.67.965.146.51.523.937.073.965-.145.057-.433-.196-.385-.162-.5.04-.18.332-.414.734-.435.94-.056 1.378.533 2.058.774.48.16 1.072-.018 1.26-.594.192-.587-.388-1.06-.45-1.11-.04-.035-.026-.103.03-.203-.23.025-.256.167-.3.167l-.043.003c.01-.088.01-.173-.005-.254.047-.03.09-.06.124-.095.06.012.133-.024.145-.056.18-.4.608-.463.88-.774.438-.322-.105-.656-.105-1.012.04-.16.226-.158.32-.307.154-.267.202-.634.123-.953 0-.01-.012-.044.05-.055.062-.006.107.12.134.178.12.39.01.835-.33 1.115-.024.034-.042.076-.035.125.03.15.1.293.178.44.198.61-.616.793-.858 1.215-.07.143.048.305.06.394.007.04-.048.155 0 .166.274-.023.03-.48.232-.64.024-.015.074.058.106.023.068-.184.305-.192.4-.365.004-.02.02-.05.034-.063.404-.293.162-.856.525-1.17.094-.102.054-.347.237-.35.017.003.024-.032.02-.034-.142-.448.182-.954-.195-1.316-.02-.023-.083-.04-.118-.052-.188-.033-.356.046-.51.135-.013-.384.155-.783-.16-1.083-.02-.023-.082-.04-.117-.052-.197-.034-.372.052-.53.145-.014.006-.03 0-.036 0l-.043-.04c-.018-.08-.03-.163-.034-.248-.022-.406.07-.77.224-1.103.018-.044.132-.212.165-.247.365-.444.578-1.002.382-1.59 0-.035.094-.09.123-.188.005-.02.005-.047-.036-.04-.033.002-.06.01-.092.018 0-.064 0-.128.006-.195.02 0 .036.008.058.008.056-.007.105-.007.16.02.21.127.023.367.014.537.104.585-.098 1.08-.437 1.502-.033.036-.117.164-.136.193-.13.26-.243.56-.168.84.05-.063.125-.126.164-.14.046-.02.14-.105.163-.164.04-.1.018-.154.04-.22.003-.023.03-.035.06-.022l.035.042c.01.007.02.007.038 0 .122-.29.352-.53.526-.793.014-.032.084-.117.1-.18.02-.108.004-.25.13-.265.023-.004.048-.014.04-.025-.06-.234.083-.645-.032-.745-.193-.12-.196-.295-.23-.433-.044-.355-.324-.32-.425-.313-.032.003-.062.003-.092.007.01-.117.01-.22-.04-.26-.193-.12-.196-.296-.23-.434-.044-.355-.324-.32-.425-.313-.063.007-.12.024-.182.015-.06-.02-.125-.07-.19-.08-.153.054-.23.007-.355.055 0 .034.043.05.063.058.236.045.377.126.62.12.056-.006.105-.006.16.02.21.128.023.368.014.538.016.087.01.17.014.252-.026.003-.052 0-.083.013 0 .035.042.05.062.06.01 0 .016.004.025.006 0 .055-.002.11-.008.162-.048-.012-.095-.026-.145-.038-.015-.005-.03 0-.046 0 .023-.2.02-.403-.05-.613 0-.035.093-.09.12-.188.006-.02.006-.048-.034-.04-.117.004-.22.053-.27.07-.023.006-.03-.01-.043-.017-.122-.152-.292-.174-.465-.214-.065-.025-.145.007-.185.02-.28.083-.597-.026-.876-.063-.03-.007-.04 0-.058.005-.054.038-.127.098-.156.162-.01.015-.003.03.007.034.184.066.022.197.044.325.056.083.158.122.273.104.316-.155.587.16.836.327.09.07.31-.037.312.122-.16-.02-.32-.06-.47-.08-.032-.006-.042 0-.06.006-.054.04-.127.098-.156.163-.01.015-.002.03.007.034.052.018.073.042.08.07-.083.085-.17.163-.26.237-.208-.25-.374-.526-.632-.74-.005-.042-.015-.083-.035-.12-.29-.294-.46-.673-.806-.93-.023-.036-.05-.03-.067-.027l-.005.005c-.185.053-.295-.178-.46-.258.057-.01.126-.016.115-.054-.03-.122-.267-.217-.552-.28-.087-.125-.192-.208-.287-.266.268.046.567.122.768.232.154.086.17 0 .197-.052 0 0 .04-.07.08-.118 0 0 .197-.278.45-.238.085.013.197.013.26-.043.044-.047.112-.145.08-.253-.045-.133-.17-.166-.278-.15-.13.028-.148.12-.186.205-.02.038-.214.17-.28.2-.11.043-.185.036-.162-.078.013-.07.144-.29.192-.304.062-.02.166-.003.252-.1.055-.064.075-.192-.01-.29-.108-.122-.238-.07-.29-.03-.076.062-.096.148-.1.267-.002.06-.216.287-.27.31-.087.037-.148.01-.156-.09-.01-.114.114-.367.18-.393.092-.027.16-.08.19-.162.01-.036.003-.075 0-.114.016-.007.037-.008.05-.02.045-.046.113-.144.08-.252-.044-.133-.168-.166-.277-.15-.127.028-.147.12-.185.205-.02.04-.214.17-.28.2-.003.003-.005 0-.01.003.062-.058.093-.107.1-.16.01-.056-.028-.137-.096-.19.013-.016.027-.03.036-.033.062-.02.166-.002.252-.1.055-.064.075-.192-.01-.29-.108-.122-.238-.07-.29-.03-.076.062-.096.148-.1.267 0 .026-.045.086-.096.145-.052.018-.102.053-.133.11-.003.007 0 .017 0 .026-.015.01-.03.026-.04.03-.087.036-.148.01-.156-.09-.01-.115.114-.368.18-.394.092-.027.16-.08.19-.162.036-.108 0-.25-.116-.292-.12-.038-.25.002-.295.127-.045.116 0 .162.018.23.01.047-.057.2-.133.305-.03-.015-.05-.042-.09-.042-.072 0-.123.036-.16.08-.002-.006-.006-.005-.007-.01-.02-.077.06-.444.1-.47.127-.093.152-.146.16-.217.013-.074-.028-.21-.16-.24-.08-.023-.214.007-.275.118-.042.098 0 .235.036.265.033.028-.054.413-.14.526-.08.115-.152.06-.177 0-.02-.048-.142-.516-.046-.626.102-.108.106-.136.106-.206C52.527.148 52.457 0 52.3 0c-.152 0-.223.148-.22.217 0 .07.003.098.105.206.1.11-.026.578-.043.627-.03.058-.098.114-.18 0-.083-.113-.17-.498-.14-.526.033-.03.077-.167.033-.264-.055-.11-.195-.14-.27-.117-.135.03-.175.166-.165.24.012.07.035.125.164.218.043.027.12.393.1.47-.027.116-.094.123-.18.054-.1-.08-.225-.326-.21-.385.016-.07.063-.116.016-.232-.045-.125-.176-.165-.292-.127-.115.044-.154.185-.115.293.028.083.098.135.193.162.063.026.182.278.174.393-.008.1-.068.127-.154.09-.053-.024-.27-.25-.27-.31-.006-.118-.023-.205-.104-.268-.05-.04-.182-.09-.286.03-.085.1-.07.227-.014.29.09.1.19.08.25.1.05.015.183.234.198.305.02.114-.053.12-.162.078-.066-.03-.258-.163-.277-.2-.04-.085-.06-.177-.19-.206-.105-.015-.233.018-.275.15-.036.11.034.207.083.253.06.056.17.056.257.043.25-.04.448.238.448.238.043.05.08.12.08.12.03.05.04.136.192.05.04-.02.094-.038.14-.057.002.05.018.098.045.128.017.02.035.02.053.032-.07.025-.128.052-.177.082-.02-.012-.028-.03-.057-.036-.107-.015-.235.018-.277.15-.035.11.034.207.083.253.06.057.17.057.257.044.097-.016.18.02.254.066-.035-.004-.067-.006-.094 0-.11.023-.732.243-.72 1.042 0 .03.048.13-.073.176-.595.206-.812.615-.878.986-.035-.026-.07-.052-.12-.047-.064.02-.127.032-.19.04.03-.367.148-.686.505-.92.016-.002.05-.014.07-.01.13-.004.22-.113.334-.145.18-.06.148-.264.173-.377-.018-.05-.132.01-.223.104-.028.02-.067.02-.085.015-.38-.107-.493.404-.722.583-.233.206-.386.443-.375.755-.1-.01-.188-.03-.25-.045-.092-.007-.13.003-.178.023-.115.046-.35.093-.444.248-.005.008-.01.007-.014.01-.045-.035-.082-.067-.096-.126-.03-.136-.148-.066-.23-.038-.02.014-.033.036-.028.05.018.04.046.076.07.115-.017.01-.037.018-.032.03l.003.037c.01.07-.005.117-.02.163-.065-.1-.112-.204-.15-.31.15-.243.557-.058.737-.312.004-.004.004-.01 0-.01-.115-.03-.257-.083-.376-.05.078-.06.15-.13.23-.176.238-.192.545.134.754-.118.02-.04.02-.068-.017-.09-.223-.112.05-.153.064-.266 0-.01-.01-.023-.027-.03-.09-.04-.15-.17-.27-.155-.314.103-.61.04-.764 0-.093-.007-.13.003-.18.023-.114.045-.35.092-.443.247-.01.018-.02.018-.03.02l-.252-.02c-.037 0-.053.03-.047.045l.003.038c.025.17-.054.246-.08.356-.015.074.015.23.025.296.036.208.074.408.15.593-.05.09-.07.19-.075.3-.06-.11-.117-.22-.163-.333-.03-.057-.042-.138-.042-.17-.012-.382-.14-.738-.022-1.104.1-.375.578-.115.776-.395.003-.004.003-.01 0-.01-.14-.036-.322-.116-.45-.02-.03.02-.07.03-.1.032-.304.078-.38.427-.646.598-.252.2-.04.59-.252.806-.018.037.002.092.062.063.105-.013.14.092.134.17 0 .02-.003.06.003.077.147.398.65.6.576 1.082 0 .017.007.023.017.025.04.005.06-.046.087-.067.04-.013.072.018.085.043.015.224.26.35.32.54.006.034.01.04.01.054 0 .02.003.05.028.032.015-.073.02-.144.02-.214.083.096.147.2.187.315-.012.135-.027.27-.05.398-.01.033-.034.114-.08.157-.217.233-.528.383-.725.643-.072.015-.174-.182-.51-.184-.18-.004-.278.132-.3.152-.06.08-.09.184-.11.282-.04.332.087.672-.106.942-.008.012-.02.042-.02.055.025.145.235-.07.286.12zm9.955-5.692c-.017-.01-.105-.058-.042-.1.07-.024.14.042.13.08-.02.04-.066.02-.087.02zm.943.163c-.03-.018-.026-.07-.022-.1.063-.097.197.015.19.062 0 .044-.092.08-.167.037zm-8.144-.354c.058.03-.02.086-.043.1-.007 0-.067.02-.085-.024.01-.06.056-.098.127-.077zm-2.248 7.064c-.024-.032-.016-.15.005-.29.028.074.123.02.198.032-.012.073-.016.147.003.222.026.116.128.142.223.18.028.044.05.092.088.132.03.058.035.124.037.192-.203-.14-.44-.24-.553-.47zm.123-.808c.003.156-.015.305-.104.438.033-.186.08-.376.105-.44zm1.79-4.2c.03.01.055.01.082.01l-.002.003c.022.047.053.09.08.135l-.166.025c-.047-.095-.086-.19-.098-.293.03.044.055.094.104.12zm3.468-3.642c-.014-.006-.04-.027-.068-.054.024.014.047.035.072.055-.002-.003-.003-.002-.004-.002zm.12.59c.197-.072.416-.126.623-.16-.025.07-.06.147-.1.23-.157.023-.31.056-.44.098l-.082-.167zm.833.616c.022.042.05.075.064.13.01.044.034.074.067.1-.025.014-.053.04-.07.04-.07.003-.13-.055-.188-.088-.015-.05-.022-.092-.008-.116.016-.023-.065-.1-.132-.14.09-.015.213.058.266.074zm.873-.335c.086.143.132.312.13.474-.05 0-.095-.005-.12-.04-.065-.09 0-.138-.087-.192-.01-.006-.028 0-.048.008-.017-.06-.043-.112-.08-.16.098-.062.178-.082.204-.09zm1.558 2.154c-.016.083-.026.166-.026.248-.012-.015-.016-.032-.03-.047-.026-.026-.115-.055-.237-.063.015-.08.03-.19.032-.323.1.052.187.11.26.184zm2.17.662c-.032.036-.116.164-.135.193-.006.01-.01.023-.016.034-.098.092-.2.178-.3.263.035-.106.062-.215.108-.316.018-.04.132-.21.165-.245.056-.068.1-.143.148-.216.05.038.1.074.15.11-.04.06-.075.12-.12.176zm-.55 1.048c.033.01.062.027.097.03.052 0 .072-.062.09-.094.012-.025.032-.046.046-.07.005.04.004.08.014.118.05-.063.125-.126.164-.14.046-.02.14-.105.163-.164.04-.1.02-.153.04-.22.004-.024.032-.035.06-.022l.03.036c-.115.19-.23.384-.353.573-.013.03-.022.05-.038.08-.01.037-.084.092-.138.077-.064.005-.127-.014-.19-.024 0-.062.014-.118.017-.18zm.206 4.063c-.11-.185-.187-.394-.222-.627.07.076.16.14.24.21.03.087.065.17.113.252-.035.06-.08.114-.13.165zM51.96 14.13c.053-.037.1-.085.146-.142.052.027.1.056.144.088-.04.06-.08.11-.124.155-.052-.035-.1-.07-.165-.1zm-.434-.11c.006-.042.02-.076.043-.09.024-.01.058-.046.087-.087.068.01.128.03.19.048-.023.082-.06.137-.116.154-.008.002 0 .018-.002.025-.062-.015-.108-.043-.18-.05-.006 0-.015.002-.022 0zm-4.272-3.438l.023-.024c.074-.036.123-.093.177-.144.008.024.01.05.022.072.013.015.042.048.055.057.33.22.253.466.138.726-.073-.047-.14-.11-.21-.162.146-.21-.09-.35-.204-.526zm1.69-3.75c.026-.035.06-.065.09-.1.025.046.064.078.094.12-.033.04-.066.083-.12.1-.03-.002-.047-.02-.056-.044-.01-.025-.01-.053-.007-.075zm1.083.938c-.11.015-.13.15-.234.182-.062-.007-.067-.075-.062-.12.16-.23.4-.393.63-.573.126.31.227.688.276 1.265.052.575.052 1.01-.207 1.676.186.313.62 1.01.934 1.24.062.1.13.206.206.316-.162-.018-.423-.143-.808-.654-.01-.014-.143.04-.397.258-.284-.044-.564-.1-.843-.167-.05-.01-.128-.04-.142-.063-.145-.137-.14-.324-.106-.518.103.026.204.054.302.084.093.06.16.18.29.168.205-.032.11.205.252.27.136.05.274 0 .373-.082.034-.035-.104-.135-.166-.217-.027-.043-.05-.046-.062-.062-.157-.09-.225-.26-.376-.348-.018-.004-.038-.023-.057-.025-.17-.018-.335-.046-.5-.078.006-.037.016-.076.02-.112.01-.175-.062-.247-.09-.302-.028-.02-.046-.026-.07-.005-.02.015-.018.044-.01.06.05.12.047.23.02.333-.07-.014-.14-.03-.208-.046.012-.042.027-.082.028-.13-.018-.11-.144-.138-.228-.18-.103-.072-.203-.168-.21-.29 0-.022.013-.065.032-.078.14-.104.238.177.39.182.176 0 .287-.102.402-.23.09-.085.176-.15.252-.375.03-.12.028-.135.062-.187.192-.387.504-.695.307-1.193zm.046-1.476c-.004-.103-.006-.204-.003-.302.102.014.198.063.292.117-.004.263.05.468.058.494.005.015.038.006.073-.01l.065.152c-.062.037-.127.066-.192.096-.115-.245-.224-.442-.293-.548zm3.794-1.984s0 .002.002.003c.02.018.133.092.106.173-.003.01-.008.01-.012.02-.102.03-.272.098-.466.19l-.01-.007c-.104-.055-.095 0-.13 0h-.072c-.134.002-.125-.002-.18-.042.11-.065.226-.13.365-.19.08.024.163.072.19.072.032.007.123 0 .086-.025-.046-.035-.08-.073-.106-.11.074-.03.146-.06.227-.085zm.595.796c.003.025-.01.04-.008.064-.02-.003-.03-.01-.05-.013-.166-.032-.123-.032-.08-.143.02-.054.034-.09.047-.13.047.065.082.14.092.222zm.352.635c.157-.043.29.044.366.175-.143-.033-.282-.074-.405-.154.014-.004.026-.015.04-.02zm-.622 2.01c.013-.002.042-.01.038-.048.005-.008.002-.034.02-.05.013-.03.02-.04.05-.044.018 0 .044-.004.07.003.023.013.08.026.108-.002.04-.035.052-.067.056-.085.11-.342.474-.332.7-.5.042-.014.078-.016.115-.018 0 .01-.006.02-.004.033-.024.094-.03.174-.028.25-.178.27-.65 1.183-.73 1.96-.04.383-.077.734-.015 1.186-.01 0-.02-.002-.032 0-.014.012-.06.035-.067.055-.028.05-.066.09-.107.125-.134-1.34.078-2.02.644-3.27 0 0-.086.012-.168.09-.014.008-.018.04-.032.07-.126.334-.576.433-.773.47.012-.065.024-.132.037-.192.04-.007.083-.018.118-.032zm1.8 2.303c-.02.103-.172.19-.19.19-.306.066-.626.102-.92.195-.05.007-.084.003-.103-.004h-.028c-.042-.302-.036-.585-.006-.91.09-1.044.344-1.452.635-1.952.046.115.103.227.15.363.032.117.087.288.21.383.127.107.158.215.194.317.072.187.117.224.144.262-.345.333.04.756-.086 1.156zm-5.32 1.372c-.008-.002-.018-.007-.027-.012.035-.017.068-.035.108-.052.073-.03.086.085.097.112 0 .004-.028.024-.072.052-.033-.035-.062-.074-.105-.1zm.33-3.904c.006-.257.178-.32.275-.334.014-.003.02.006.034.006.025.012.048.026.072.035.034.025.07.06.108.095-.014.02-.036.036-.065.046-.016.015-.05-.02-.117-.01-.014.003-.024.017-.037.024-.03-.02-.06-.04-.105-.05l.04.092c-.03.036-.05.08-.04.13.017.092.03.138.112.22.028.027.062.032.095.035.025.06.057.126.08.184-.08.015-.21-.03-.267-.084-.063-.14-.124-.26-.18-.366 0-.008-.005-.015-.004-.023zm.674.318c0-.035-.026-.096-.063-.115-.01-.01-.038-.04-.068-.075.002-.022.006-.047.006-.093.006-.022.05-.065.098-.07.035.035.068.07.096.094.037.053.074.115.074.143 0 .065-.046.098-.095.098-.048 0-.003.106-.26.175.087-.043.204-.098.213-.157zm.192-.762c-.022-.033-.033-.07-.045-.105.287.093.334.194.387.317-.116 0-.24-.052-.342-.21zm.674-.065c-.004.09-.04.165-.123.215-.017.012-.037.017-.055.026.06-.078.14-.187.177-.24zm.19-.263c-.002 0 0 .003-.002.004 0 .002-.002 0-.003.002.002 0 .003-.003.004-.005zm-1.535.134c.05.007.103 0 .173-.022.08-.018.07-.06.057-.073-.006-.005-.014-.023-.024-.045l.2.12c0 .006.003.017.002.018-.015.025-.01.134-.143.125h-.06c-.067-.042-.136-.083-.205-.122zm.397.208c-.004-.016.02-.05.046-.068.034-.018.06-.033.08-.008.008.01.068.114.133.225-.018-.003-.037-.004-.05-.01-.064-.026-.125-.064-.186-.1-.007-.01-.02-.034-.023-.04zm-.048 1.128l-.004.003c.03.077.046.148.07.223-.063.03-.126.06-.19.08-.025-.077-.053-.154-.08-.23.06-.018.13-.045.204-.077zm1.447-1.112c.094-.226.188-.29.23-.322 0 0 .002 0 .003-.002.06.004.127-.01.18-.03.007 0 .012-.018.02-.028.033.005.135.026.164.155-.067.026-.133.048-.193.064h-.002c-.02-.017-.062-.034-.094-.02-.024.016-.033.034-.047.053-.06.01-.1.017-.102.022-.032.046-.075.104-.12.166l-.037-.056zm1.38-1.042c.03.08.067.195.105.31-.028.047-.06.102-.093.166l-.143-.408c.047-.02.088-.045.13-.068zm-.178.86c-.034.032-.09.066-.21.088-.012.002-.03-.008-.045-.01l.08-.202.014-.004c.05-.033.06-.076.07-.113 0-.014.013-.047.024-.107.002-.023.064-.083.12-.064 0 0 .042.07.077.138-.042.084-.086.176-.13.275zm-.304.284c.03.015-.02.093-.027.108-.016.018-.035.02-.054.03.015-.046.033-.094.05-.14.01 0 .023-.004.03.002zm-.068-.45c-.046.033-.095.062-.146.087-.037-.054-.08-.136-.095-.232.025.013.082.026.11-.002.037-.034.05-.065.054-.083 0 .003-.004.005-.003.01.006.09.022.137.082.22zm.288-.46c0 .03-.043.067-.092.087-.02 0-.045-.027-.114-.024-.028 0-.053.018-.078.033.057-.076.127-.136.21-.176.044.032.072.066.074.078zm-1.467 1.332c.015-.025.03-.05.05-.07.005-.004.01-.003.017-.007-.022.027-.043.052-.067.078zm-.786.682c.053-.07.12-.104.18-.116-.06.043-.12.078-.18.116zm-.153 2.31c.04 0 .066.022.1.035-.01.086-.018.172-.03.265-.042-.042-.095-.068-.14-.065-.043.007-.105.02-.14.076.027-.1.058-.207.076-.298.04-.006.074-.013.134-.013zm-.172.71c-.035-.06-.068-.12-.096-.173.016-.052.02-.09.035-.14 0 .013-.004.02-.003.034.01.13.078.144.116.144.035 0 .08-.025.08.062 0 .052-.05.088-.13.074zm.29-.063c.127.18.274.365.318.43.083-.05.158-.078.35-.078.132 0 .226.082.288.148-.076.062-.185.106-.478-.005-.35.136-.442.043-.52-.035-.054-.08-.106-.16-.155-.24.108-.04.17-.116.197-.22zm2.477.6c-.076-.068-.16-.134-.246-.193.023-.03.06-.08.11-.14.072.053.147.12.227.198l-.09.136zm-.03-.477c.057-.076.114-.156.16-.23-.008-.063-.012-.114-.02-.173.006-.023.016-.043.037-.055.052-.046.122-.077.186-.065.008.004.018-.002.028-.002.026.097.04.184.076.293-.065.124-.155.276-.252.43-.08-.077-.15-.142-.213-.198zm-.455-3.228c-.07.095-.16.204-.258.32.015-.175.042-.345.077-.51.047-.074.094-.134.142-.215.01-.007.007-.023 0-.03-.003-.006-.005-.046 0-.074.044-.206.166-.342.304-.454-.12.303-.22.64-.265.962zm.773-1.954c-.003.002-.01.015-.016.02-.002-.01-.008-.017-.01-.028-.01-.07 0-.138.02-.2.068-.002.13.014.19.043-.016.04-.025.087-.016.13.024.1.07.23.197.19.05-.013.08-.05.096-.1.05.052.098.104.15.153-.04.074-.102.13-.192.148-.114.024-.245-.015-.338-.127.027-.048.054-.094.08-.145.017-.035-.117-.113-.162-.084zm-1.732.81c-.068.113-.437.56-.503.63 0 .02.047.216.04.23-.003.002-.006.01-.007.015l-.102.094c-.014.003-.015.016-.035.015-.08-.007-.258.01-.423.06.084-.053.17-.12.26-.195.025-.006.042 0 .07-.01.08-.017.07-.058.056-.072l-.01-.017c.25-.232.52-.55.786-1.01.01-.008.006-.024 0-.03-.004-.007-.006-.047 0-.075.127-.598.855-.73.98-.795l.026-.01c-.06.032-.12.065-.17.1-.234.17-.578.436-.97 1.07zm1.365-1.453c-.05.01-.107.005-.163-.01.11-.056.234-.107.367-.16-.04.087-.103.15-.203.17zm-3.435.277c-.027.078-.046.156-.053.233l-.164-.1c.01-.078.04-.15.065-.223l.152.09zm-.188.386c.048.035.1.085.152.14.003.022.006.047.012.067l.063.01c.09.094.17.178.21.18.082.027.075.07.068.127 0 .028.015.073.035.104-.09-.046-.186-.08-.284-.102-.01-.01-.016-.025-.027-.03-.036-.028-.204-.25-.227-.264-.002 0-.01-.008-.013-.01-.018-.078-.018-.158-.02-.237l.03.015zm.038.794c.152-.07.288-.03.418.035-.11.032-.215.078-.28.15-.055-.005-.156.055-.14.088.11.2.213.37.31.547.04.166.073.33.092.5 0 0 .055.002.14-.01.026.07.05.144.075.223-.063.01-.126.03-.19.03.028.443-.007.937-.1 1.573.136.208.34.46.394.538.006-.004.014-.005.02-.01-.028.126-.07.262-.12.404-.205-.257-.462-.662-.605-.933.275-.87.206-1.347.147-1.91-.036-.365-.16-.758-.3-1.103.046-.04.095-.078.138-.122zm-1.638 5.65c-.013-.06-.138-.157-.163-.174-.208-.126-.413-.253-.608-.404.05.014.1.016.122-.015l-.005-.014c-.04-.135-.07-.267-.133-.394-.01-.044-.072-.1-.118-.136.208-.117.32-.302.458-.488.04-.05.085-.154.092-.182.05-.114.133-.217.207-.322.074.007.15.015.224.03-.106.167-.24.33-.3.504.06.064.096.136.116.222 0 .02 0 .072.024.087.054.06.19.17.278.174.294-.063.602-.014.895.06-.226.223-.505.527-.847.955-.062.075-.133.142-.206.207-.013-.038-.02-.076-.037-.11zm-.795-.196c.03.04-.076.07-.162.13-.03-.035-.054-.076-.09-.106.094-.07.192-.1.252-.024zm-.407.28c.022-.02.022-.034.033-.052.01-.016.03-.026.04-.026.162.063.068.31.088.443-.22-.06-.277-.206-.228-.342.005-.014.02-.03.026-.045.01.018.02.034.04.024zm.354.202c.137.004.302-.104.396-.23.017.03.042.053.054.09.007.012.01.02.033.035.033.017.095.058.154.105-.21.127-.438.204-.648.193 0-.064.006-.127.01-.192zm.8.11c.073.03.152.055.186.01l-.005-.013c-.01-.033-.022-.063-.03-.095.443-.36.795-.907.996-1.12.067-.07.125-.127.18-.178.03.008.06.016.088.025.025.016.048.04.07.06-.092.07-.18.142-.236.214-.336.44-.78 1.025-1.238 1.293h-.01c-.028 0-.052-.062-.128-.112.044-.022.085-.054.128-.083zm-.324.553c.088-.03.203-.09.33-.155.01.007.025 0 .033.012.046.062-.242.11-.24.285l-.062.03c-.063.022-.12.032-.18.042.004-.018 0-.037.008-.055.017-.048.052-.102.095-.155.005-.003.01-.002.016-.004zm.08.38c.05-.018.1-.04.147-.063.17.077.434-.1.52-.28.275-.167.558-.326.912-.395-.083.1-.167.196-.258.31-.29.353-.732.606-1.113.58-.188-.007-.302-.058-.363-.13.053-.008.107-.005.156-.022zm.66-.562c-.03-.055-.073-.098-.128-.123.44-.234.98-.494 1.435-.493-.057.06-.122.134-.185.205-.372.045-.778.23-1.122.41zm1.516-.588l.003-.003c.064.01.122.028.18.045-.027.026-.06.053-.082.08l-.07.09c-.053-.012-.09-.036-.15-.04-.007-.002-.014 0-.02 0 .048-.062.1-.132.14-.172zm4.937.895c-.1-.11-.197-.226-.29-.34.144.076.267.14.37.184.078.088.162.174.25.256-.073-.01-.15-.026-.23-.056-.027-.01-.066-.03-.1-.045zm-1.064-1.327c.192.096.328.21.54.43.082.087.195.237.323.4-.303-.186-.6-.5-.864-.83zm-.13-.315c-.023.03-.04.047-.062.073L54.428 12c.032-.042.064-.087.096-.132.066.073.148.176.243.3-.085-.054-.135-.073-.142-.065zm.197-.163c-.07-.077-.137-.15-.2-.213.136-.2.257-.398.335-.527-.06-.15-.1-.285-.136-.416.358-.248.843-.22 1.276-.165.207-.03.256-.224.312-.376.01-.007-.04-.065-.08-.124-.133-.224-.24-.473-.25-.77-.002-.102.06-.254.106-.348.03-.048.065-.092.102-.135.01.024.02.044.028.07.01.04.03.088.05.136-.012.017-.027.032-.036.05-.154.444.087.843.39 1.178.016.242.138.503.06.754-.02.103-.172.19-.19.19-.306.066-.626.102-.92.195-.05.006-.084.002-.103-.005-.086-.01-.16-.013-.24-.002-.014.012-.06.035-.067.055-.11.192-.36.243-.437.452zm.682-5.21c-.025-.01-.105-.01-.17.02-.3.21-.625.262-.925.44-.012.014-.093.02-.132.06-.034.026-.035.035-.057.054.04-.1.082-.194.126-.283.184-.086.357-.135.41-.164.052-.024.454-.17.616-.304.032.02.064.04.098.05.084.056.156.134.208.22-.06-.023-.12-.05-.173-.09zm.117-.646c-.06-.04-.122-.077-.19-.1-.014-.087-.044-.172-.088-.257l.22.1c.024.085.052.167.058.257zM54.8 5.49c-.053.014-.15.048-.266.096.02-.013.045-.027.06-.04.03-.065.05-.147.063-.237.05-.017.087-.038.14-.053-.04-.014-.093-.02-.136-.034.006-.076 0-.152-.013-.233.02.017.035.036.074.04.046.008.073.036.115.05.01.136 0 .276-.036.41zm-.18-.626c-.036-.11-.086-.22-.173-.317-.006-.006-.03-.012-.04-.02-.016-.244-.245-.446-.404-.446-.093 0-.164.064-.175.13-.07-.018-.13-.043-.212-.052l-.02-.005c.028-.113.118-.21.23-.26-.003.003-.003.008-.004.012-.02.027 0 .11.113.125.324.058.547.243.698.47.024.126.02.252-.014.364zm-.463-.983c.048.017.09.04.133.068-.046-.022-.082-.048-.133-.067zM50.15 5.468h.004c.082.024.192.09.25.138l.043.028c-.028.08-.052.16-.065.236-.094-.05-.192-.09-.294-.115.012-.1.03-.197.062-.288zm-.418 1.37c.135-.037.286-.04.34-.15.043.076.085.152.126.23-.284.102-.588.158-.898.203.003-.047-.017-.103-.024-.153.01 0 .02.004.03.004.074-.018.164-.01.208-.063.005-.016.005-.03 0-.05l-.262-.34c.136-.114.28-.224.42-.34-.107.233-.25.476.06.66zM48.006 8.94c-.103-.072-.203-.168-.21-.29 0-.022.013-.065.032-.078.14-.104.238.177.39.182.04 0 .07-.02.106-.032-.01.02-.02.04-.036.055-.065.07-.147.127-.224.187-.02-.006-.04-.016-.058-.025zm-.647 3.087c0-.05-.003-.102.005-.15.008-.027.007-.074 0-.09-.01-.037-.038-.057-.055-.088.015-.104.037-.218.06-.318.07.04.133.084.196.13-.053.137-.088.278-.053.422.035.156.208.15.314.224.027.027.06.045.09.068.004.03-.002.057-.023.073-.013.01-.052.043-.1.09-.162-.105-.327-.206-.435-.363zm.326 1.21c.035.034.408.234 1.022-.017.005.034-.003.06-.025.078-.018.015-.087.074-.166.16-.14.04-.313.065-.57.036.076.098.218.177.407.177-.033.054-.063.112-.088.173-.4-.05-.632-.4-.58-.605zm1.788 1.553c-.652.238-1.07-.284-1.002-.552.035.033.414.24 1.04-.023.43-.188.793-.635 1.064-.985.062-.002.12-.008.187-.004.008 0 .014.003.022.004-.356.462-.79.986-1.228 1.144-.195.07-.396.17-.823.12.11.14.348.254.68.127.402-.145 1.28-.76 1.98-.796-.03.04-.046.11-.052.2-.71.055-1.565.657-1.868.766zm2.345-.405c-.125-.01-.193-.078-.238-.153.152.013.283.057.393.115-.05.025-.102.042-.156.038zm4.887.405c-.34-.12-1.345-.844-2.08-.77-.727.06-.96.6-.94.724.005.066.086.167.136.187.084.053.068.426-.25.455-.18.012-.355-.157-.485-.385-.132.228-.303.397-.482.385-.323-.03-.338-.403-.25-.454.045-.02.132-.12.135-.186.01-.065-.057-.244-.223-.41.012-.01.023-.015.035-.028.105.108.205.166.3.202.026.072.056.144.058.22.007.214-.053.29-.142.315-.054.014 0 .144.088.146.224.002.45-.45.482-.514.03.063.26.516.484.513.09-.003.137-.134.09-.147-.09-.026-.15-.1-.142-.316.012-.427.424-.833 1.094-.908.72-.072 1.722.642 2.146.8.332.127.576.013.684-.127-.427.05-.63-.05-.826-.12-.17-.062-.338-.192-.504-.34.094.01.184.01.277-.002.092.067.18.14.28.184.625.264 1 .057 1.04.023.06.27-.353.792-1.003.553zm.957-1.012c.058.167-.026.36-.403.374-.2.014-.42-.055-.626-.172.1-.04.186-.108.267-.183.155.154.407.244.515.056.145-.262-.284-.304-.225-.376.12-.156.412.13.474.3zm-.885-.27c-.01.033-.006.068.004.104-.088.1-.216.18-.374.216-.06-.048-.11-.103-.162-.158.19 0 .333-.08.407-.177-.28.032-.46 0-.608-.046-.077-.094-.155-.19-.226-.272.022.01.04.03.06.04.626.263 1.002.056 1.04.022.007.028.005.06.002.09-.067.04-.122.092-.143.18zm.63-.984c-.11.058-.28.077-.36.17-.13-.222-.31-.37-.342-.397-.04-.035-.027-.103.03-.203-.232.025-.257.167-.302.167-.172 0-.395.036-.445.246-.063.246.468.642.638.345.145-.26-.284-.303-.225-.375.12-.156.412.13.474.302.058.168-.026.36-.403.374-.38.027-.826-.227-1.11-.578-.15-.186-.284-.344-.41-.488.05.027.103.05.152.07.127.01.04-.173.127-.223.052-.045.122-.076.186-.064.018.01.047.01.065-.005.263-.254.626-.297.99-.28-.13.042-.257.09-.255.238-.055.066-.196.158-.143.26.08.065.32-.042.438-.162.062.012.134-.024.146-.056.047-.1.108-.18.18-.247l.044.005c.14-.02.204-.115.25-.22.098-.06.19-.127.28-.2.042.05.088.1.134.148-.196.154-.42.296-.53.487-.07.143.05.305.062.394.006.04-.05.155 0 .166.274-.023.028-.48.23-.64.025-.015.075.058.107.023.05-.134.186-.175.295-.253.134.122.33.207.337.41-.137.24-.428.39-.64.59zm.47-3.708c0-.01-.012-.044.05-.055.062-.004.107.122.134.18.023.074.03.15.035.227-.086-.075-.157-.155-.214-.24-.006-.038.002-.076-.006-.11zm.58-3.564l-.008.006c-.003-.015-.002-.034-.004-.05.018.002.036.008.013.044zm-.597-.042c0 .005-.002.01-.003.014-.01.04-.09.073-.16.032-.024-.013-.02-.046-.017-.073.003-.01.002-.022.004-.033.062-.072.17.013.176.06zm-.293-.972c.01-.008.047-.026.076-.033.017 0 .06 0 .03.047-.036.034-.043.034-.072.048-.02.004-.033-.012-.042-.014-.01-.008-.01-.034.008-.048zm-.855.756c.07-.023.14.043.13.08-.007.015-.02.016-.03.02l-.086-.017c-.03-.02-.06-.053-.015-.083zm-.092.525c.05.025.11.038.177.028.006-.003.01 0 .016-.003-.11.18-.217.362-.333.54-.024-.1-.015-.217-.02-.327.055-.08.102-.162.16-.24zm-.634-.04c.044.044.077.09.102.135-.072.072-.138.15-.188.242-.03.052-.075.078-.008.095.078.035.155.08.238.106-.01.057-.023.116-.036.174-.097-.018-.19-.038-.285-.073 0-.14-.02-.298-.068-.46.022-.04.04-.08.04-.09.016-.158-.054-.333-.085-.492.103.118.19.257.29.363zm-1.952-2.153c.075.074.12.07.162.057-.004.017-.01.033-.006.05.005.03.01.167.005.19 0 .066.03.066.08.076.086.046.19.104.262.163.02.02.04.033.063.038.235.06.366.285.51.473-.024-.015-.047-.034-.074-.04-.047-.01-.067.05-.058.102.005.028.01.166.005.19 0 .065.03.065.082.075.084.046.19.104.26.163.01.01.023.015.035.02 0 .072-.01.144-.025.218-.09-.07-.203-.13-.33-.185-.024-.183-.088-.376-.21-.556-.134-.528-.588-.692-.68-.712-.02-.005-.046-.002-.072 0-.002-.145-.026-.268-.063-.376.017.018.027.03.053.055zm-.95-.397c-.037 0-.08.002-.12.004.073-.053.16-.087.25-.084.117.004.222.046.312.112-.16-.02-.314-.032-.442-.032zm.978-1.306c.006.04.02.076.03.115.015.06-.108.305-.204.384-.088.07-.158.062-.185-.055-.003-.013 0-.04 0-.063.022-.018.033-.047.045-.07 0 0 .04-.07.08-.118 0 0 .095-.127.234-.196zm-.593.33c-.016.037-.032.075-.048.097-.02.03-.04.048-.057.058-.034-.013-.068-.026-.106-.038-.004-.006-.01-.012-.013-.02-.01-.018-.03-.103-.05-.2.1.03.19.065.273.104zm-.486-.158c-.015.084-.03.15-.043.198-.08-.015-.16-.027-.24-.037-.03-.068-.054-.146-.072-.225.11.014.23.035.355.064zm-.686-.09c.03 0 .078.005.117.006.02.068.037.15.047.223-.057-.003-.113-.006-.163-.006-.046 0-.098 0-.152.004-.045-.083-.076-.165-.068-.197l.007-.022c.085-.006.164-.01.214-.008zm-.724.1c.06-.014.118-.03.178-.04.034.03.076.054.13.068.023.01.056.058.087.116-.11.01-.225.028-.337.05-.006-.08-.024-.142-.057-.194zm-.3.576c.023-.01.048-.026.077-.055.083-.08.115-.12.15-.145.06.052.16.22.173.282.02.114-.053.12-.162.078-.05-.024-.173-.106-.237-.16zm-1.72 2.522c.06.03-.02.086-.042.1-.007 0-.067.02-.085-.024.01-.06.055-.098.126-.076zm-.79.722c.02.076.07.147.18.21.15-.042.33-.034.358-.188-.004-.078-.01-.155-.013-.23.107.018.21.03.306.004.015.096.032.168.036.182.013.036.187-.054.172-.098-.047-.167-.052-.34-.03-.51 0-.003.003-.004.003-.006.06-.452.35-.864.89-.96.114-.027.127-.098.114-.126-.156-.407.124-1.04.605-1.053.088-.002.175.03.248.08l.003.007c.02.035.034.085.09.084.053.068.08.148.07.232-.01.016-.027.032-.03.05-.004.01.012.01.016.015-.023.065-.065.13-.143.188-.034.025.058.032.086.025.047-.006.234-.138.325-.075.027-.1.072-.066.098-.066.03 0 .058-.017.045-.096 0-.005-.005-.012-.006-.016.06-.065.094-.104.143-.123.05-.018.083.016.1.03l.02.006c-.015.04-.034.08-.04.11-.015.074.013.092.047.092.022 0 .052-.006.074.04-.002 0-.01-.004-.01-.002-.085.053-.022.105-.085.195-.02.03-.054.04-.092.042l-.042-.03c-.017.012-.028.02-.038.03-.073-.01-.15-.03-.206-.017-.015.003-.04.01-.072.023-.016-.005-.038-.006-.09.02-.057.024-.13.107-.203.104-.077-.005-.206-.095-.275-.308-.03-.082.08-.156.11-.174.108-.087.01-.233-.138-.233-.172 0-.43.226-.413.492.014.28.043.295.093.442.042.11.087.11-.078.143-.922.136-1.088.724-1.043 1.126-.11.137-.177.29-.19.47-.278.162-.586.25-.906.31-.032-.027-.065-.052-.077-.102-.01-.04-.026-.058-.046-.07 0-.01.003-.02 0-.034l-.108-.14c.05-.026.1-.056.146-.094zm-.08-.606c.004.035.012.063-.023.098-.053.05-.18-.014-.168-.042-.004-.046.13-.157.19-.056zm-.83.17c-.005-.005-.008-.002-.016-.01-.01-.013-.003-.015-.002-.02l.02.03zm.042-1.17c.005.035.013.063-.022.098-.053.05-.18-.014-.168-.042-.004-.046.13-.157.19-.056zm-.25.713c.03.01.056 0 .084 0-.07.03-.13.07-.182.123 0-.006-.005-.012-.006-.018-.004-.057.044-.112.104-.105zm-.56-.59c.025 0 .065.02.076.027.01.014.01.035.007.045-.006.01-.02.022-.044.015-.03-.005-.038-.015-.072-.052-.033-.04.013-.034.033-.034zm-.604 4.51c.024-.03.038-.043.062-.038.045 0 .057.04.057.055.06.285-.046.565.085.817l.017.017c-.023.055-.054.108-.065.165-.005.04-.002.08-.003.122-.086-.107-.208-.21-.224-.337-.022-.267-.06-.575.07-.802zM79.738 38.432l.545 1.115.48-.228-1.61-3.298-.243.116-.544-1.116-.48.23 1.61 3.295zM56.192 49.683l.545 1.116 1.98-.948-.205-.425-1.504.717-.337-.69 1.26-.602-.205-.426-1.26.602-.86-1.755-.24.115-.546-1.115-.48.228 1.61 3.3zM38.32 31.313c.046-.08.146-.192.265-.32-.06.393-.08.732-.074.943.01.28.047.783.174.822.13.036.314-.254.422-.444.293-.508 2.35-2.038 2.71-3.72.112-.52-.204-1.066-.783-1.052.11-.688-.51-1.4-1.5-.745-1.563 1.033-1.834 3.377-1.81 4.14.01.28.046.782.173.82.132.036.316-.254.424-.444zM37.95 54.858l-.208-.426-1.887.902 1.608 3.297.242-.115.545 1.116 1.93-.922-.21-.425-1.45.696-.338-.693 1.21-.58-.162-.333.15-.07-.206-.424-1.363.648-.336-.69 1.12-.535-.15-.305.293-.14-.208-.426-1.654.79-.337-.69zM32.494 52.018c.276.65.75 1.152 1.53 1.36 2.153.584 3.627-5.504 4.57-8.143.225.58.542 1.002.927 1.312.386.77.96 1.213 1.64 1.5 2.475 1.045 4.81-2.748 5.498-3.892 3.306-5.486 5.35-10.85 7.134-17.48.424.25 1.586.766 2.273 1.078-.048.22-.146.445-.212.633-2.694 7.847-1.667 10.36-.11 12.123.028.032.07.05.1.08.21.337.44.64.686.92 1.414 1.595 4.808.98 6.43-1.26.197-.274.05-.592-.26-.287-.202.194-1.195 1.226-2.466 1.41-.293.044-.63-.017-.966-.167 1.098-.3 2.18-.955 2.905-1.957.198-.274.052-.592-.26-.287-.2.194-1.194 1.226-2.465 1.41-.465.07-1.036-.112-1.55-.542-.266-.5-.47-1.115-.54-1.883-.14-1.49.132-2.716.393-3.785.418-1.706 1-3.05 1.085-4.015.093-.977.222-1.58-.427-2.19-.078-.07-.192-.14-.325-.207-.06-.28-.19-.537-.462-.792-.51-.475-2.368-.8-3.453-1.49-.146-1.098 1.545-4.278.646-4.795-.153-.09-.37.023-.598.27.12-.607.117-1.094-.19-1.27-.63-.367-2.348 2.642-1.584 4.81.322.918-1.523 6.156-2.17 8.115-.192.593-.83 2.343-1.512 4.006-.073-.94-.36-1.82-1.044-2.36 0 .038-.005.07-.007.11-.167-.438-.415-.823-.78-1.11-.03 1.068-.193 1.827-.422 2.81-.604 2.61-3.242 7.156-4.058 8.175-.43.535-1.182 1.398-1.796 1.528-.047-.474-.026-1.074.064-1.714.472-3.344 3.898-8.442 4.73-9.57.824-1.124 1.963-2.17 2.768-2.423l.035-.2c-.33-.1-1.196-.282-2.69.562.644-.664 1.33-1.19 1.868-1.36l.035-.2c-.423-.128-1.72-.42-4.11 1.546-3.056 2.52-5.275 8.637-5.715 10.52-.243 1.058-2.062 6.883-3.17 7.79-.07-1.67.977-4.457 1.112-4.856.36-1.076 1.538-4.502 1.807-5.758.088-.422.538-1.7.135-1.933-.232-.134-.47-.09-.7.035.095-.45.137-.905-.087-1.034-.738-.428-1.565.83-1.84 1.452-.333.738-2.146 4.513-2.55 5.748-.256.798-2.098 6.06.15 7.658zm20.51-26.343c.068.04.155.087.255.138-.02 1.458-1.612 5.992-2.204 7.786-.33 1.012-1.96 5.415-2.89 6.966.172-.468.498-1.618.586-2.845 1.733-3.726 3.056-7.6 4.253-12.045zM38.233 43.248c.013.372.052.697.103 1-.51 1.87-2.635 8.388-3.536 7.504-.022-.02-.035-.05-.053-.072 1.655-1.964 2.782-7.317 3.485-8.432zM84.335 35.71l-1.26.602-.853-1.752-.244.116-.543-1.116-.48.227 1.605 3.297.243-.116.544 1.116 1.985-.947-.21-.426-1.505.718-.335-.688 1.264-.603z"/></g></svg>