<svg xmlns="http://www.w3.org/2000/svg" viewBox="0 0 140 15" enable-background="new 0 0 140 15"><g><path fill="#D41245" d="M0 0h140v15H0z"/><g fill="#fff" stroke="#fff" stroke-width=".25"><path d="M15.193 10.148l.04-4.845-2.31 4.845h-.753L9.868 5.303l.04 4.845h-.752V4.503h1.103l2.302 4.78 2.303-4.78h1.087v5.645h-.76zM22.425 10.148l-.688-1.39h-3.47l-.688 1.39h-.904l2.926-5.645h.855l2.895 5.645h-.927zM20.01 5.31l-1.406 2.8h2.79l-1.383-2.8zM29.36 9.388c-.503.704-1.455.816-1.662.84-.128.016-.456.056-.816.056-.16 0-.855-.016-1.455-.167-.128-.032-.328-.08-.607-.2-.296-.128-.496-.272-.592-.344-.304-.232-.44-.44-.528-.568l.744-.304c.04.05.072.09.12.137.12.12.384.328.775.487.646.264 1.414.272 1.598.272.144 0 .99.024 1.535-.384.336-.256.384-.607.384-.76 0-.327-.184-.567-.48-.695-.415-.184-1.39-.24-1.838-.28-1.08-.088-1.608-.144-2.024-.528-.384-.353-.4-.752-.4-.944 0-.792.544-1.15.784-1.28.336-.183.952-.367 1.863-.367 1.12 0 1.79.27 2.2.535.095.064.175.12.255.192.184.152.32.352.368.408l-.736.296c-.04-.04-.184-.183-.344-.295-.312-.216-.848-.472-1.735-.472-.575 0-1.022.104-1.23.184-.487.184-.624.52-.624.76 0 .12.032.248.096.352.2.32.6.35.927.39.623.08 1.247.113 1.87.185.872.104 1.27.328 1.543.664.28.358.296.718.296.886 0 .48-.177.79-.29.942zM33.78 10.148V4.503h.815v5.645h-.815zM41.32 10.148l-4.42-4.67.016 4.67h-.768V4.503h.823l4.39 4.662-.023-4.662h.768v5.645h-.784zM44.484 5.2v1.806h4.07v.664h-4.07v2.48h-.792V4.502h5.02V5.2h-4.228zM55.722 9.324c-.393.408-1.256.976-2.67.976-.145 0-.473-.008-.864-.072-.384-.056-1.527-.264-2.183-1.32-.384-.623-.408-1.262-.408-1.518 0-.648.168-1.295.567-1.8.08-.103.185-.223.408-.407.384-.32 1.16-.815 2.43-.815.257 0 1.024.024 1.752.36.464.216.91.567 1.207.99.465.673.497 1.417.497 1.688 0 .327-.048 1.207-.735 1.918zm-.28-2.982c-.608-1.303-2.216-1.295-2.535-1.287-.24.008-1.256.064-1.91.72-.113.112-.337.36-.473.76-.088.256-.128.55-.128.823 0 .208.023.815.407 1.335.08.104.2.248.448.424.33.232.88.488 1.815.488.152 0 .528 0 .952-.112.79-.208 1.367-.735 1.56-1.535.023-.112.07-.344.07-.63.002-.482-.126-.818-.206-.986zM63.192 10.148l-1.91-2.263h-2.727v2.263h-.808V4.503h3.846c.48 0 .655.024.896.088.76.2 1.19.793 1.19 1.568 0 .304-.064 1.095-.91 1.447-.146.056-.297.104-.617.152l2.087 2.39h-1.048zm-.487-4.51c-.24-.423-.615-.463-1.056-.463h-3.104v2.047h2.79c.457 0 .992-.016 1.304-.416.08-.096.208-.288.208-.616 0-.104-.007-.32-.143-.55zM71.152 10.148l.04-4.845-2.31 4.845h-.752l-2.303-4.845.04 4.845h-.75V4.503h1.103l2.303 4.78 2.303-4.78h1.087v5.645h-.76zM78.386 10.148l-.688-1.39h-3.47l-.688 1.39h-.903l2.926-5.645h.855l2.895 5.645h-.927zM75.97 5.31l-1.406 2.8h2.79l-1.383-2.8zM85.905 9.212c-.92 1.08-2.55 1.08-2.88 1.08-1.118 0-1.773-.312-2.174-.568-.143-.096-.255-.184-.383-.296-.08-.08-.256-.256-.415-.512-.2-.304-.448-.792-.448-1.63 0-.273.017-1.017.496-1.68.08-.12.184-.248.407-.448.2-.168.432-.328.656-.44.728-.368 1.63-.384 1.847-.384.264 0 1.312.024 2.127.52.112.072.344.224.584.472.257.272.393.52.465.647l-.856.184c-.05-.087-.097-.167-.152-.247-.128-.176-.32-.352-.504-.464-.264-.167-.83-.408-1.63-.408-.225 0-1.097.008-1.752.472-.064.04-.185.136-.32.288-.216.232-.52.68-.52 1.48 0 .23.024.87.448 1.422.503.656 1.335.808 1.574.848.272.04.56.04.648.04.256 0 1.35.008 2.022-.728.136-.144.216-.264.312-.432l.848.176c-.183.33-.286.473-.4.608zM87.42 10.148V4.503h.816v5.645h-.815zM95.625 9.324c-.393.408-1.256.976-2.67.976-.145 0-.473-.008-.864-.072-.383-.056-1.526-.264-2.182-1.32-.384-.623-.408-1.262-.408-1.518 0-.648.168-1.295.567-1.8.08-.103.185-.223.408-.407.384-.32 1.16-.815 2.43-.815.257 0 1.024.024 1.752.36.464.216.91.567 1.207.99.464.673.496 1.417.496 1.688 0 .327-.048 1.207-.735 1.918zm-.28-2.982c-.607-1.303-2.215-1.295-2.534-1.287-.24.008-1.255.064-1.91.72-.112.112-.336.36-.472.76-.088.255-.128.55-.128.822 0 .208.023.815.407 1.335.08.104.2.248.448.424.327.232.88.488 1.814.488.15 0 .527 0 .95-.112.792-.208 1.368-.735 1.56-1.535.024-.112.072-.344.072-.63 0-.48-.127-.817-.207-.985zM102.825 10.148l-4.422-4.67.017 4.67h-.768V4.503h.823l4.39 4.662-.024-4.662h.77v5.645h-.785zM113.122 10.148l-.688-1.39h-3.47l-.688 1.39h-.903l2.926-5.645h.854l2.895 5.645h-.928zm-2.415-4.837l-1.407 2.8h2.79l-1.383-2.8zM121.12 10.66l-1.326-.744c-.136.056-.27.112-.416.16-.48.152-1.03.216-1.535.216-.352 0-1.615-.024-2.55-.8-.185-.152-.345-.336-.48-.527-.327-.48-.472-.968-.472-1.55 0-.265.033-.953.433-1.584.145-.223.312-.407.496-.574.438-.392 1.214-.888 2.605-.888.304 0 1.216.024 2.04.504.143.08.438.27.727.583.672.728.72 1.495.72 1.87 0 .29-.032 1.016-.536 1.688-.128.168-.248.288-.4.432l1.105.632-.41.583zm-1.286-4.982c-.576-.496-1.335-.647-2.08-.63-.23.007-1.374.04-2.054.767-.112.12-.304.352-.432.744-.112.35-.12.654-.12.79 0 .13 0 .345.08.632.072.288.23.776.84 1.175.344.224.863.464 1.8.464.24 0 1.198.017 1.9-.542.17-.136.29-.28.337-.336.176-.232.448-.67.448-1.39 0-.314-.04-1.09-.72-1.674zM128.28 8.957c-.44 1.07-1.694 1.327-2.718 1.327-.27 0-1.304.008-2.103-.55-.337-.233-.49-.48-.57-.625-.223-.417-.238-.833-.238-1.288v-3.32h.808v3.35c0 .065-.01.305.03.53.08.52.346.703.545.83.28.177.744.377 1.535.377.104 0 1.056 0 1.6-.4.19-.145.304-.337.336-.41.128-.263.128-.527.128-.823V4.503h.808V7.9c0 .377-.01.697-.16 1.057zM130.02 10.148V4.503h.816v5.645h-.815zm.528-6.02h-.52l.512-1h1.016l-1.008 1z"/></g></g></svg>