<svg xmlns="http://www.w3.org/2000/svg" viewBox="0 0 100 15" enable-background="new 0 0 100 15"><g><path d="M86.693 7.79h.555-.555zm3.24-.25h-.15.15zm-3.23 0c.062-1.32.227-1.892.65-2.255.287-.23.653-.34 1.132-.34.39 0 .68.114.898.34.374.357.503.92.55 2.205v.037l-3.118.012h-.112zm-.01 0v-.063.062zm1.793-2.863c-1.8 0-3.207 1.525-3.207 3.473 0 1.946 1.406 3.47 3.206 3.47 1.045 0 2.008-.55 2.647-1.502l-.01-.033c-.027-.045-.11-.105-.15-.103-.595.883-1.477 1.367-2.487 1.367-.48 0-.846-.11-1.132-.342-.488-.41-.635-1.082-.635-2.857 0-.118 0-.24-.026-.334v-.01l4.52-.006c.04 0 .06-.02.06-.06 0-.96-.705-3.063-2.788-3.063M94.562 5.882c-.006.008-.006.01-.01.022v-.5l.01.478zm5.304 5.325h-.86c-.076 0-.076-.014-.076-.05V7.29c0-1.634-.968-2.613-2.582-2.613-.637 0-1.16.242-1.494.665v.002c-.042.055-.08.113-.115.17-.072.112-.13.23-.18.366V4.874c0-.035-.005-.058-.06-.058h-2.244c-.024 0-.033.074-.033.136 0 .06.01.135.033.135h.872c.097 0 .097.04.097.052v6.018c0 .012 0 .05-.097.05h-.872c-.024 0-.033.073-.033.135 0 .065.01.135.033.135h3.265c.023 0 .032-.07.032-.135 0-.062-.01-.136-.03-.136h-.86c-.1 0-.1-.037-.1-.05v-4.74c.345-1.03.874-1.47 1.786-1.47.467 0 1.217.426 1.217 1.58v4.63c0 .03-.015.05-.084.05h-.856c-.015 0-.02.026-.027.05-.002.022-.005.055-.005.086 0 .065.005.135.032.135h3.243c.045 0 .045-.11.045-.135 0-.02 0-.136-.046-.136M8.343 8.175c-.045 0-.12.006-.12.035 0 1.12-.425 2.997-3.292 2.997H3.227c-.08 0-.096-.016-.096-.05l-.01-5.23h.577c1.14 0 1.846.678 1.846 1.768 0 .066.22.066.22 0V3.892c0-.028-.068-.03-.112-.03-.04 0-.106.003-.106.03 0 1.107-.69 1.766-1.846 1.766l-.568.01V.728c0-.032.016-.05.096-.05h1.657c2.31 0 2.56 1.878 2.56 2.683 0 .048.108.048.124.048.026 0 .133 0 .133-.047V.467c0-.024-.024-.06-.056-.06H.03C.008.405 0 .48 0 .54c0 .064.008.136.03.136h1.297c.068 0 .086.017.086.05v10.43c0 .03-.017.05-.086.05H.03c-.023 0-.03.074-.03.136 0 .065.008.135.03.135H8.4c.038 0 .062-.022.062-.06V8.21c0-.03-.077-.035-.12-.035M12.91 11.207h-.858c-.085 0-.097-.016-.097-.05V.058c0-.017-.02-.057-.06-.057H9.648c-.038 0-.042.105-.042.136 0 .03.004.135.042.135h.86c.084 0 .096.02.096.05V11.16c0 .033-.012.05-.097.05h-.86c-.038 0-.04.104-.04.135 0 .033.003.135.04.135h3.262c.03 0 .034-.07.034-.135 0-.062-.005-.136-.035-.136M17.32 11.207h-.87c-.074 0-.09-.02-.09-.05V4.875c0-.04-.018-.058-.054-.058H14.05c-.03 0-.03.074-.03.136 0 .062 0 .135.03.135h.852c.098 0 .1.015.1.052v6.018c0 .035 0 .05-.1.05h-.852c-.03 0-.03.073-.03.135 0 .065 0 .135.03.135h3.27c.025 0 .033-.07.033-.135 0-.062-.01-.136-.032-.136M15.684 1.94c.486 0 .883-.412.883-.917 0-.51-.397-.93-.883-.93-.478 0-.87.42-.87.93 0 .515.382.917.87.917M23.977 9.238c-.045 0-.12 0-.12.033 0 1.376-.614 1.937-2.128 1.937h-1.6c-.06 0-.077-.006-.077-.03L24 4.942c.014-.056.014-.094 0-.11h-.727l-4.223-.014c-.032 0-.057.02-.057.058v1.95c0 .055.254.055.254 0 0-1.28.496-1.737 1.89-1.737h1.252c.07 0 .076.016.066.033l-3.91 6.233c-.023.035-.033.064-.018.092.01.02.03.033.056.033h5.46c.052 0 .053-.02.053-.056v-2.15c-.002-.034-.074-.034-.12-.034M29.448 10.456c.02.11.055.224.095.328-.04-.1-.077-.203-.103-.316.003-.008.008-.01.008-.012m-.074-2.522V9.77c0 .717-.584 1.515-1.426 1.515-.705 0-1.063-.44-1.063-1.312 0-1.41.475-1.628 1.005-1.735.127-.02.267-.037.416-.053.377-.043.805-.09 1.068-.25m2.223 2.925c-.005-.004-.008-.004-.01 0 0 0-.008-.004-.015-.004-.065.16-.25.337-.503.337-.225 0-.353-.19-.353-.52V7.507c0-1.878-.84-2.83-2.502-2.83-1.234 0-1.893.71-1.893 1.226 0 .353.194.71.635.71.512 0 .695-.31.695-.572 0-.115-.036-.19-.07-.27-.035-.083-.072-.17-.072-.304 0-.36.226-.523.705-.523.575 0 1.16.168 1.16 1.395v1.18c0 .3-.826.373-1.625.442l-.157.02c-.756.075-2.038.44-2.038 1.99 0 1.03.794 1.645 2.116 1.645.767 0 1.333-.396 1.617-.858.06-.09.115-.192.153-.29.126.7.607 1.147 1.223 1.147.584 0 .985-.316 1.07-.614.005-.008 0-.024-.008-.037-.026-.038-.083-.094-.128-.106M34.806 10.877c.067.066.14.13.218.195-.073-.058-.15-.123-.218-.187v-.008zm.012-5.557c0 .002-.008.002-.012.004v-2.24l.012 2.236zm1.44-.374c.29 0 .832.045 1.16.326.488.407.73 1.39.73 2.92 0 1.514-.23 2.413-.73 2.83-.28.238-.547.326-.99.326-.575 0-1.328-.31-1.604-.99l-.005-4.59c.238-.54.903-.822 1.44-.822m0-.27c-.5 0-.92.157-1.268.473-.06.056-.12.106-.17.165V.055c0-.013 0-.055-.057-.055h-2.247c-.03 0-.036.076-.036.136 0 .06.006.135.036.135h.874c.062 0 .095.02.095.05V11.16c0 .012 0 .05-.095.05h-.874c-.03 0-.036.073-.036.135 0 .065.006.135.036.135h2.247c.052 0 .058-.02.058-.058l-.018-.312v-.216c.41.43 1.06.727 1.622.727 1.856 0 3.1-1.772 3.1-3.43.002-1.657-1.397-3.513-3.268-3.513M42.01 7.79h.55-.55zm3.24-.25h-.155.154zm-3.232 0c.062-1.32.228-1.892.65-2.255.29-.23.65-.34 1.13-.34.392 0 .685.114.903.34.367.357.507.92.55 2.205v.037l-3.115.012h-.117zm-.008 0v-.063.062m1.79-2.863c-1.8 0-3.207 1.525-3.207 3.473 0 1.946 1.408 3.47 3.206 3.47 1.043 0 2.007-.55 2.648-1.502l-.014-.033c-.022-.043-.108-.107-.147-.103-.59.883-1.48 1.367-2.488 1.367-.483 0-.842-.11-1.128-.342-.488-.41-.638-1.082-.638-2.857 0-.118 0-.24-.024-.334v-.01l4.516-.006c.038 0 .06-.02.06-.06 0-.96-.7-3.063-2.787-3.063M51.023 10.12c-.177.662-.53 1.06-.94 1.06-.267 0-.427-.164-.427-.447V5.14c0-.032.01-.053.08-.053h1.295c.03 0 .037-.072.037-.135 0-.062-.008-.136-.036-.136h-1.293c-.072 0-.08-.02-.08-.053V2.147c0-.03-.13-.03-.153-.03-.088 0-.104.016-.104.027-.193.567-.565.893-1.103.985v1.633c0 .04-.008.053-.102.053H47.12c-.03 0-.03.074-.03.136 0 .062 0 .135.03.135h1.075c.095 0 .102.016.102.052v4.942c0 1.02.447 1.537 1.333 1.537.805 0 1.337-.468 1.574-1.384 0-.035-.125-.123-.18-.115M54.174 5.882c-.002.006-.006.01-.007.022v-2.83l.007 2.808zm5.31 5.325h-.858c-.082 0-.084-.014-.084-.05V7.29c0-1.634-.97-2.613-2.6-2.613-.513 0-1.108.193-1.494.696-.112.146-.202.31-.274.507V.056c0-.014 0-.056-.057-.056h-2.24c-.03 0-.037.076-.037.136 0 .06.006.135.037.135h.866c.072 0 .103.02.103.05V11.16c0 .012 0 .05-.103.05h-.866c-.03 0-.037.073-.037.135 0 .065.006.135.037.135h3.254c.03 0 .036-.07.036-.135 0-.062-.005-.136-.035-.136h-.856c-.1 0-.1-.037-.1-.05v-4.74c.347-1.03.872-1.47 1.768-1.47.47 0 1.222.426 1.222 1.58v4.63c0 .036-.022.05-.066.05h-.86c-.044 0-.044.105-.044.136 0 .033 0 .135.044.135h3.245c.027 0 .03-.07.03-.135 0-.062-.003-.136-.03-.136M68.04 11.184s-.003.01-.007.01c.004 0 .004-.006.007-.01M63.404 7.57l1.72-5.003 1.29 3.802.406 1.192-2.504.008h-.912zm-.013 0l.438-1.266-.432 1.266h-.005zm3.433 0h-.776l.776-.004v.004zm4.458 3.637h-1.295c-.058 0-.095-.026-.095-.037L65.944.193c-.016-.038-.135-.04-.173-.04-.034 0-.156.003-.17.04L62.03 10.56c-.186.61-.217.647-.35.647h-1.06c-.01 0-.024 0-.024.136 0 .135.012.135.025.135h2.913c.028 0 .034-.07.034-.135 0-.062-.005-.136-.034-.136H62.24c-.017 0-.023-.004-.027-.01-.03-.037.026-.226.16-.63l.94-2.736 3.56-.003 1.16 3.358c-.01.01-.03.023-.057.023H66.64c-.032 0-.036.074-.036.136 0 .065.004.135.035.135h4.64c.03 0 .033-.07.033-.136 0-.063-.004-.137-.032-.137M73.986 5.88c0 .008-.006.012-.006.024v-.5l.006.476zm1.582-1.203c-.695 0-1.128.242-1.41.8-.06.12-.12.25-.172.398v-1c0-.036 0-.06-.056-.06h-2.244c-.03 0-.03.075-.03.138 0 .062 0 .135.03.135h.86c.08 0 .092.02.092.052v6.02c0 .032-.012.048-.092.048h-.86c-.03 0-.03.074-.03.136 0 .065 0 .135.03.135h3.254c.033 0 .04-.07.04-.136 0-.062-.007-.136-.04-.136h-.87c-.067 0-.084-.02-.084-.05V6.544c.247-1.006.607-1.456 1.145-1.456.245 0 .396.15.396.393 0 .12-.036.195-.082.27-.047.09-.105.19-.105.39 0 .317.3.553.71.553.347 0 .7-.27.7-.866 0-.573-.367-1.15-1.182-1.15M82.315 10.733v.328l-.01-.307c.004-.006.01-.01.01-.02m0-5.418v.01c-.06-.07-.123-.127-.19-.186.067.054.13.114.19.175M78.993 8.19c0-1.553.242-2.508.742-2.918.32-.27.794-.326 1.13-.326.562 0 1.237.283 1.44.82v4.283c0 .645-.49 1.298-1.593 1.298-.44 0-.693-.086-.976-.326-.506-.414-.743-1.312-.743-2.83m5.614 3.015h-.858c-.085 0-.096-.016-.096-.05V.058c0-.017-.02-.057-.042-.057h-2.25c-.024 0-.03.076-.03.136 0 .06.006.135.03.135h.864c.067 0 .08.02.08.05l.01 2.793V5.31c-.38-.426-.85-.633-1.45-.633-1.87 0-3.267 1.856-3.267 3.514s1.252 3.43 3.113 3.43c.776 0 1.3-.387 1.502-.7.04-.056.074-.112.092-.163v.663c0 .037.02.058.056.058h2.245c.04 0 .05-.11.05-.135-.002-.023-.012-.136-.05-.136"/><path d="M99.422 13.428l.554-.565h-.188l-.742.772v-.772H98.9v1.292h.146v-.347l.275-.28.498.627H100l-.578-.727zm-2.737-.174c0 .168-.14.268-.332.268h-.397v-.524h.4c.208 0 .33.095.33.256m.193.9l-.398-.527c.203-.037.35-.163.35-.38 0-.232-.182-.385-.467-.385h-.555v1.292h.146v-.502h.37l.374.502h.18zm-3.284-.644c0 .296-.21.532-.506.532-.296 0-.51-.24-.51-.536 0-.296.21-.532.506-.532.296 0 .51.24.51.536m.15-.003c0-.358-.263-.667-.656-.667s-.66.312-.66.67c0 .358.263.667.656.667.394 0 .66-.312.66-.67m-3.673.135l.538-.78h-.17l-.44.647-.435-.647h-.177l.537.78v.512h.148v-.513zm-5.122.297l-.368-1.077h-.16l.463 1.302h.122l.356-1.05.354 1.05h.124l.463-1.302h-.153l-.37 1.076-.354-1.08h-.12l-.355 1.08zm-2.485-1.078h-.934v1.292h.944v-.133h-.798v-.45h.705v-.133h-.704v-.44h.788v-.135zM79.27 13.9l-.815-1.037h-.137v1.292h.142v-1.06l.835 1.06h.116v-1.292h-.14V13.9z"/></g></svg>