<svg xmlns="http://www.w3.org/2000/svg" viewBox="0 0 100 85" enable-background="new 0 0 100 85"><g><path d="M19.654 77.87h.53v5.023h-.53V77.87zM21.16 81.86v-.013c0-.764.62-1.163 1.52-1.163.454 0 .77.062 1.087.15v-.11c0-.632-.385-.962-1.053-.962-.42 0-.75.104-1.08.255l-.16-.434c.393-.18.772-.303 1.294-.303.502 0 .895.138 1.15.392.247.248.37.592.37 1.046v2.175h-.522v-.53c-.248.316-.654.605-1.28.605-.667 0-1.327-.377-1.327-1.107zm2.614-.274v-.33c-.262-.076-.605-.15-1.04-.15-.66 0-1.038.288-1.038.714v.014c0 .447.413.708.895.708.654 0 1.184-.392 1.184-.956zM27.498 79.336h.53v.62c.234-.386.606-.696 1.218-.696.86 0 1.362.578 1.362 1.425v2.21h-.53v-2.08c0-.66-.358-1.073-.984-1.073-.613 0-1.067.447-1.067 1.115v2.037h-.53v-3.558zM31.69 81.545v-2.21h.53v2.08c0 .66.358 1.072.985 1.072.605 0 1.066-.447 1.066-1.115v-2.037h.524v3.558h-.523v-.62c-.24.386-.604.696-1.217.696-.86 0-1.362-.58-1.362-1.425zM37.564 82.515c.49 0 .833-.2 1.122-.502l.33.296c-.358.398-.792.666-1.466.666-.977 0-1.775-.75-1.775-1.858 0-1.032.723-1.858 1.707-1.858 1.053 0 1.66.84 1.66 1.886 0 .048 0 .104-.008.186h-2.822c.075.75.626 1.183 1.252 1.183zm1.04-1.61c-.062-.647-.434-1.197-1.136-1.197-.612 0-1.08.51-1.156 1.197h2.292zM39.556 79.336h.585l1.2 2.952 1.203-2.952h.57l-1.547 3.585h-.468l-1.542-3.584zM43.517 81.86v-.013c0-.764.62-1.163 1.52-1.163.455 0 .772.062 1.088.15v-.11c0-.632-.385-.962-1.053-.962-.42 0-.75.104-1.08.255l-.16-.434c.393-.18.772-.303 1.294-.303.502 0 .895.138 1.15.392.247.248.37.592.37 1.046v2.175h-.522v-.53c-.248.316-.654.605-1.28.605-.666 0-1.327-.377-1.327-1.107zm2.615-.274v-.33c-.262-.076-.605-.15-1.04-.15-.66 0-1.038.288-1.038.714v.014c0 .447.413.708.895.708.653 0 1.182-.392 1.182-.956zM50.056 79.804h-.49v-.46h.49v-.31c0-.407.11-.716.31-.916.18-.18.44-.275.764-.275.248 0 .413.028.585.09v.46c-.192-.055-.337-.09-.516-.09-.414 0-.62.248-.62.757v.29h1.128v.453h-1.122v3.09h-.53v-3.09zM52.393 79.336h.53v.93c.262-.593.778-1.02 1.452-.992v.57h-.04c-.78 0-1.412.56-1.412 1.632v1.417h-.53v-3.557zM54.75 81.86v-.013c0-.764.62-1.163 1.522-1.163.454 0 .77.062 1.087.15v-.11c0-.632-.386-.962-1.054-.962-.42 0-.75.104-1.08.255l-.16-.434c.393-.18.772-.303 1.294-.303.502 0 .895.138 1.15.392.247.248.37.592.37 1.046v2.175h-.522v-.53c-.248.316-.654.605-1.28.605-.666 0-1.327-.377-1.327-1.107zm2.616-.274v-.33c-.262-.076-.605-.15-1.04-.15-.66 0-1.038.288-1.038.714v.014c0 .447.413.708.895.708.653 0 1.183-.392 1.183-.956zM58.973 83.513l.24-.413c.407.296.86.454 1.37.454.785 0 1.294-.434 1.294-1.266v-.42c-.31.413-.743.75-1.397.75-.854 0-1.672-.64-1.672-1.665v-.014c0-1.04.826-1.68 1.672-1.68.667 0 1.1.33 1.39.716v-.64h.53v2.938c0 .55-.165.97-.454 1.26-.316.315-.792.474-1.355.474-.592 0-1.143-.165-1.617-.495zm2.917-2.567v-.014c0-.73-.633-1.204-1.308-1.204-.674 0-1.23.468-1.23 1.197v.014c0 .715.57 1.21 1.23 1.21.675 0 1.308-.488 1.308-1.204zM63.324 81.86v-.013c0-.764.62-1.163 1.52-1.163.455 0 .772.062 1.088.15v-.11c0-.632-.385-.962-1.053-.962-.42 0-.75.104-1.082.255l-.158-.434c.392-.18.77-.303 1.293-.303.502 0 .895.138 1.15.392.247.248.37.592.37 1.046v2.175h-.522v-.53c-.247.316-.653.605-1.28.605-.666 0-1.326-.377-1.326-1.107zm2.615-.274v-.33c-.263-.076-.606-.15-1.04-.15-.66 0-1.04.288-1.04.714v.014c0 .447.414.708.896.708.653 0 1.183-.392 1.183-.956zM67.586 79.336h.53v.62c.234-.386.606-.696 1.218-.696.86 0 1.362.578 1.362 1.425v2.21h-.53v-2.08c0-.66-.358-1.073-.984-1.073-.613 0-1.067.447-1.067 1.115v2.037h-.53v-3.558zM71.615 81.132v-.014c0-1.005.785-1.858 1.824-1.858.673 0 1.093.282 1.423.633l-.35.372c-.283-.296-.6-.537-1.082-.537-.722 0-1.272.612-1.272 1.376v.014c0 .77.564 1.383 1.308 1.383.454 0 .805-.226 1.087-.53l.337.318c-.358.4-.785.688-1.452.688-1.04 0-1.823-.846-1.823-1.844zM75.79 77.973h.605v.585h-.606v-.585zm.033 1.363h.53v3.558h-.53v-3.558zM77.328 81.86v-.013c0-.764.62-1.163 1.52-1.163.455 0 .772.062 1.088.15v-.11c0-.632-.385-.962-1.053-.962-.42 0-.75.104-1.08.255l-.16-.434c.393-.18.772-.303 1.294-.303.502 0 .895.138 1.15.392.247.248.37.592.37 1.046v2.175h-.522v-.53c-.248.316-.654.605-1.28.605-.666 0-1.327-.377-1.327-1.107zm2.615-.274v-.33c-.262-.076-.605-.15-1.04-.15-.66 0-1.038.288-1.038.714v.014c0 .447.413.708.895.708.654 0 1.183-.392 1.183-.956z"/></g></svg>