<svg xmlns="http://www.w3.org/2000/svg" viewBox="0 0 115 120" enable-background="new 0 0 115 120"><g><linearGradient id="a" gradientUnits="userSpaceOnUse" x1="17.855" y1="107.904" x2="17.855" y2="63.003"><stop offset="0" stop-color="#A31E22"/><stop offset=".336" stop-color="#96191C"/><stop offset=".957" stop-color="#740A0B"/><stop offset="1" stop-color="#71090A"/></linearGradient><path fill="url(#a)" d="M35.68 115.9L.03 79.097V11.775L35.68 40.1z"/><path d="M100 74.8V4.3c0-2.37-1.928-4.3-4.298-4.3H.004v11.09L0 11.084l.03 68.012h95.672c2.37 0 4.298-1.93 4.298-4.298z" fill="#E31837"/><path d="M45.805 65.18C62.71 68.302 75.08 51.928 83.01 37.758 86.19 32.075 91 17.213 85.6 11.59c-4.937-5.43-8.76 1.704-11.684 4.08l2.255 2.675c4.513 5.703.594 16.54-2.084 22.33-4.024 7.128-11.6 17.908-20.465 16.404-1.917-.445-3.514-2.32-4.18-4.28 4.768-4.72 10.42-13.02 13.59-18.534 2.676-4.496 7.278-13.17 3.023-16.744-3.528-2.447-10.605 1.077-14.392 4.265-2.305 2.084-3.866 3.784-5.656 6.204-4.87 6.615-9.52 17.947-9.028 26.677-2.348 1.7-5.02 3.387-8.2 2.412-3.15-.704-3.722-3.387-4.165-5.486-2.005-12.652 10.668-28.62 17.782-37.79 0 0-5.612 1.518-9.708 1.694-9.412.404-16.398-3.976-21.49 2.315-1.535 2.232-2.418 4.592-2.707 7.38 2.086-1.78 5.18-1.35 8.134-1.18 5.104.456 7.622 1.06 12.23-.17-4.105 5.775-10.93 17.19-12.2 24.308-.663 4.73-.603 12.174 3.434 15.52 6.695 4.447 13.333 1.34 19.28-2.764 1.762 2.045 3.932 3.83 6.44 4.274zM57.16 25.668c1.778-.87 1.243 1.778 1.243 1.778-.247 3-2.43 6.567-3.974 9.312-1.6 2.805-7.175 9.412-9.606 10.84.106-4.003 4.386-12.73 6.572-16.076 1.124-1.953 3.986-4.978 5.765-5.854z" fill="#fff"/><path d="M108.414 71.23c2.142 0 3.94 1.692 3.94 3.908 0 2.26-1.798 3.95-3.94 3.95-2.154 0-3.96-1.69-3.96-3.95 0-2.216 1.806-3.907 3.96-3.907zm0 7.28c1.817 0 3.224-1.45 3.224-3.37 0-1.88-1.407-3.33-3.224-3.33-1.84 0-3.246 1.45-3.246 3.33 0 1.92 1.407 3.37 3.246 3.37zm-1.534-5.65h1.776c1.092 0 1.606.43 1.606 1.312 0 .83-.525 1.176-1.208 1.25l1.313 2.028h-.766l-1.25-1.975h-.756v1.975h-.714v-4.59zm.714 2.037h.746c.63 0 1.208-.03 1.208-.756 0-.61-.525-.703-1.008-.703h-.945v1.46z" fill="#848484"/></g></svg>