<svg xmlns="http://www.w3.org/2000/svg" viewBox="0 0 100 85" enable-background="new 0 0 100 85"><g><path d="M30.633 25.89h1.342l-6.64 18.968h-1.06l-4.7-16.602-4.66 16.602h-1.06L7.18 25.89h1.34l5.83 16.707 4.697-16.707h1.093l4.665 16.707zM37.023 29.104c1.73-2.508 3.71-3.568 6.606-3.568 2.72 0 4.77.99 6.253 2.966 1.34 1.803 1.447 3.71 1.447 6.147v10.208H50.2V34.756c0-5.44-2.297-8.16-6.642-8.16-2.367 0-4.168.954-5.475 2.826-1.13 1.59-1.13 3.39-1.13 5.652v9.785h-1.13V19.743h1.2v9.36zM56.98 19.743h1.2v3.074h-1.2v-3.074zm0 6.146h1.2v18.967h-1.2V25.89zM66.692 25.89h3.568v1.236h-3.568v17.732h-1.236V27.126H61.85V25.89h3.606v-6.147h1.236zM73.79 35.816c.248 5.192 3.887 8.513 8.584 8.513 3.497 0 6.394-1.91 7.948-5.44h1.27c-1.766 4.203-5.014 6.464-9.148 6.464-5.722 0-9.82-4.556-9.82-9.96 0-5.653 4.344-10.068 9.643-10.068 5.758 0 9.786 4.097 9.926 10.49H73.79zm8.69-9.538c-4.522 0-8.052 3.143-8.69 8.372h17.166c-.634-5.3-3.99-8.372-8.476-8.372"/></g></svg>