<svg xmlns="http://www.w3.org/2000/svg" viewBox="0 0 100 85" enable-background="new 0 0 100 85"><g><path d="M88.565 4.682c-1.802 0-3.21 1.526-3.21 3.475 0 1.95 1.408 3.473 3.21 3.473 1.046 0 2.01-.548 2.65-1.502l-.012-.033c-.027-.045-.11-.106-.15-.105-.592.885-1.477 1.37-2.487 1.37-.48 0-.845-.108-1.132-.342-.49-.41-.637-1.083-.637-2.86 0-.118 0-.24-.024-.334v-.012l4.523-.005c.04 0 .06-.02.06-.06 0-.962-.706-3.065-2.79-3.065M86.77 7.547v-.06.06zm.01 0c.063-1.32.226-1.892.652-2.256.287-.23.652-.34 1.132-.34.39 0 .68.113.9.34.373.358.503.922.55 2.207v.036l-3.12.013h-.114zm3.234 0h-.152.152zM86.77 7.8h.557-.556zM99.955 11.218h-.858c-.08 0-.08-.015-.08-.05V7.3c0-1.634-.97-2.615-2.584-2.615-.636 0-1.16.242-1.494.665v.002c-.042.056-.08.113-.114.172-.072.112-.13.23-.18.365V4.88c0-.036-.005-.058-.06-.058H92.34c-.024 0-.033.073-.033.136 0 .06.01.136.033.136h.874c.095 0 .095.04.095.052v6.024c0 .012 0 .05-.096.05h-.874c-.024 0-.033.074-.033.136 0 .064.01.133.033.133h3.266c.024 0 .032-.07.032-.134 0-.063-.008-.137-.032-.137h-.86c-.1 0-.1-.038-.1-.05V6.425c.346-1.03.876-1.472 1.787-1.472.468 0 1.218.426 1.218 1.58v4.636c0 .03-.012.048-.083.048h-.857c-.016 0-.023.024-.03.05-.002.022-.003.057-.003.088 0 .064.004.133.033.133h3.244c.045 0 .045-.11.045-.134 0-.024 0-.138-.045-.138m-5.31-5.33c-.005.008-.005.01-.008.02v-.5l.008.48zM8.35 8.183c-.045 0-.118.005-.118.035 0 1.123-.428 3-3.3 3H3.23c-.08 0-.096-.017-.096-.05l-.012-5.232h.58c1.142 0 1.846.676 1.846 1.77 0 .064.22.064.22 0v-3.81c0-.027-.066-.03-.112-.03-.04 0-.108.004-.108.03 0 1.107-.69 1.77-1.846 1.77l-.568.006V.73c0-.032.016-.05.096-.05h1.658C7.2.68 7.45 2.56 7.45 3.365c0 .048.11.048.126.048.025 0 .13 0 .13-.048V.467c0-.023-.024-.06-.055-.06H.03C.007.407 0 .48 0 .544 0 .608.008.68.03.68h1.3c.067 0 .084.02.084.05v10.44c0 .03-.017.048-.085.048H.03c-.022 0-.03.073-.03.137 0 .064.008.136.03.136h8.38c.036 0 .062-.022.062-.06V8.22c0-.03-.08-.035-.122-.035M12.92 11.218h-.856c-.085 0-.1-.017-.1-.05V.06c0-.015-.017-.058-.06-.058H9.66c-.04 0-.043.106-.043.137s.004.134.043.134h.858c.087 0 .098.022.098.053v10.845c0 .032-.012.05-.098.05h-.858c-.04 0-.043.105-.043.136 0 .033.004.133.043.133h3.263c.032 0 .036-.07.036-.133 0-.06-.005-.136-.035-.136M17.337 11.218h-.873c-.072 0-.087-.02-.087-.05V4.88c0-.036-.02-.056-.056-.056h-2.256c-.033 0-.033.073-.033.136s0 .136.034.136h.85c.1 0 .1.015.1.052v6.024c0 .035 0 .05-.1.05h-.85c-.033 0-.033.074-.033.136 0 .064 0 .133.034.133h3.272c.024 0 .03-.07.03-.134.002-.063-.005-.138-.03-.138M15.7 1.943c.486 0 .882-.41.882-.917 0-.512-.397-.933-.882-.933-.48 0-.873.42-.873.933 0 .515.383.917.873.917M24 9.247c-.048 0-.12 0-.12.033 0 1.376-.617 1.94-2.132 1.94H20.15c-.06 0-.08-.008-.08-.032l3.95-6.242c.017-.056.017-.094 0-.112h-.724l-4.228-.013c-.033 0-.058.02-.058.06v1.95c0 .056.255.056.255 0 0-1.282.494-1.738 1.89-1.738h1.252c.073 0 .08.015.07.033l-3.916 6.238c-.023.036-.032.064-.016.092.01.02.03.033.056.033h5.464c.05 0 .053-.02.053-.056V9.28c0-.033-.072-.033-.118-.033M31.626 10.87c-.004-.004-.008-.004-.01 0l-.016-.004c-.064.162-.25.338-.503.338-.225 0-.35-.19-.35-.52V7.516c0-1.88-.845-2.834-2.507-2.834-1.236 0-1.895.713-1.895 1.227 0 .353.194.712.633.712.514 0 .697-.313.697-.574 0-.116-.036-.19-.07-.27-.035-.083-.072-.17-.072-.303 0-.36.226-.524.707-.524.575 0 1.16.17 1.16 1.397V7.53c0 .3-.828.374-1.628.44l-.156.02c-.757.08-2.04.442-2.04 1.995 0 1.03.794 1.646 2.118 1.646.764 0 1.33-.396 1.617-.857.06-.09.117-.192.154-.29.124.7.607 1.148 1.223 1.148.586 0 .987-.314 1.07-.614.005-.008 0-.024-.007-.036-.023-.04-.08-.098-.124-.11M29.4 7.943V9.78c0 .717-.585 1.516-1.427 1.516-.705 0-1.063-.44-1.063-1.312 0-1.415.475-1.63 1.006-1.738.128-.02.266-.037.417-.052.376-.043.804-.09 1.068-.252m.075 2.525c.02.112.053.225.093.327-.04-.103-.076-.202-.102-.314.004-.01.006-.012.01-.013"/><path d="M36.29 4.683c-.498 0-.917.154-1.265.47-.063.057-.12.11-.17.167V.058c0-.015 0-.056-.058-.056H32.55c-.033 0-.038.076-.038.136 0 .06.005.134.037.134h.873c.063 0 .096.02.096.05V11.17c0 .013 0 .05-.097.05h-.874c-.033 0-.038.074-.038.137 0 .064.005.136.037.136h2.247c.053 0 .058-.02.058-.058l-.017-.314v-.216c.41.43 1.062.728 1.623.728 1.857 0 3.104-1.77 3.104-3.43 0-1.66-1.4-3.517-3.273-3.517m0 .27c.29 0 .833.044 1.163.325.488.407.73 1.39.73 2.922 0 1.516-.23 2.415-.73 2.833-.28.237-.548.325-.99.325-.58 0-1.33-.31-1.607-.99l-.006-4.595c.238-.538.905-.82 1.44-.82m-1.44.374c0 .003-.008.003-.012.004V3.09l.012 2.24zm-.012 5.56c.067.066.138.13.217.195-.072-.057-.15-.122-.217-.186v-.008zM43.838 4.682c-1.8 0-3.21 1.526-3.21 3.475 0 1.95 1.41 3.473 3.21 3.473 1.046 0 2.01-.548 2.652-1.502l-.013-.033c-.024-.044-.11-.11-.146-.105-.593.885-1.483 1.37-2.492 1.37-.482 0-.84-.108-1.127-.342-.49-.41-.638-1.083-.638-2.86 0-.118 0-.24-.025-.334v-.012l4.522-.005c.038 0 .06-.02.06-.06-.002-.962-.702-3.065-2.792-3.065m-1.79 2.865v-.06.06m.008 0c.063-1.32.226-1.892.65-2.256.29-.23.65-.34 1.132-.34.393 0 .685.113.902.34.37.358.507.922.55 2.207v.036l-3.118.013h-.116zm3.234 0h-.154.154zm-3.243.252h.552-.553zM51.068 10.13c-.177.662-.53 1.062-.94 1.062-.268 0-.428-.166-.428-.45V5.146c0-.03.012-.052.083-.052h1.295c.03 0 .036-.073.036-.136 0-.063-.007-.136-.036-.136h-1.295c-.07 0-.083-.02-.083-.052v-2.62c0-.03-.13-.03-.15-.03-.088 0-.104.017-.104.03-.193.566-.566.892-1.104.984v1.635c0 .04-.01.053-.103.053h-1.076c-.03 0-.03.073-.03.136 0 .063 0 .136.03.136h1.075c.092 0 .102.015.102.052v4.948c0 1.02.447 1.537 1.333 1.537.806 0 1.337-.467 1.577-1.384 0-.035-.126-.123-.184-.115"/><path d="M59.536 11.218h-.86c-.08 0-.08-.015-.08-.05V7.3c0-1.634-.972-2.615-2.604-2.615-.512 0-1.11.192-1.496.696-.113.145-.202.31-.273.506V.056c0-.014 0-.056-.06-.056h-2.24c-.033 0-.038.08-.038.137s.005.134.037.134h.866c.072 0 .104.022.104.053v10.845c0 .012 0 .05-.104.05h-.866c-.032 0-.037.074-.037.136 0 .064.005.133.037.133h3.258c.03 0 .035-.07.035-.133s-.004-.137-.035-.137h-.857c-.1 0-.1-.037-.1-.05V6.426c.346-1.03.87-1.472 1.77-1.472.47 0 1.222.426 1.222 1.58v4.636c0 .034-.023.048-.067.048h-.86c-.045 0-.045.106-.045.137 0 .033 0 .133.045.133h3.247c.027 0 .03-.07.03-.133 0-.062-.002-.137-.03-.137m-5.31-5.33c-.005.005-.01.01-.01.02v-2.83l.01 2.81zM71.344 11.217h-1.297c-.057 0-.093-.024-.093-.036L66.004.194c-.02-.036-.136-.04-.174-.04-.035 0-.156.004-.172.04L62.086 10.57c-.188.61-.218.647-.35.647h-1.06s-.025 0-.025.137c0 .134.014.134.014.134h2.925c.028 0 .035-.07.035-.134 0-.06-.007-.137-.036-.137h-1.294c-.017 0-.023-.004-.025-.008-.032-.04.026-.23.16-.634l.944-2.737 3.56-.005 1.16 3.36c-.008.01-.027.023-.055.023H66.7c-.03 0-.034.076-.034.137 0 .065.004.134.033.134h4.645c.03 0 .032-.07.032-.135 0-.062-.004-.138-.033-.138m-4.46-3.638h-.78l.78-.005v.004zm-3.435 0l.435-1.268-.433 1.267h-.003zm.01 0l1.722-5.01 1.292 3.807.406 1.194-2.506.01h-.913zm4.64 3.614s-.002.01-.007.013c.004-.003.005-.01.008-.013"/><path d="M75.635 4.682c-.695 0-1.13.242-1.412.8-.06.12-.117.25-.17.4V4.878c0-.036 0-.058-.056-.058H71.75c-.028 0-.03.073-.03.136 0 .063.002.134.03.134h.863c.077 0 .09.02.09.053v6.024c0 .032-.013.048-.09.048h-.862c-.028 0-.03.073-.03.137 0 .063.002.133.03.133h3.257c.032 0 .04-.07.04-.133 0-.064-.008-.137-.04-.137h-.87c-.068 0-.084-.02-.084-.05V6.55c.246-1.007.607-1.458 1.146-1.458.242 0 .393.15.393.395 0 .12-.035.194-.08.27-.05.088-.105.19-.105.39 0 .317.298.553.71.553.348 0 .7-.27.7-.866 0-.574-.368-1.152-1.183-1.152m-1.582 1.204c0 .008-.008.013-.008.023v-.5l.008.476zM84.683 11.22h-.86c-.085 0-.094-.017-.094-.05V.058c0-.016-.02-.057-.045-.057h-2.25c-.025 0-.03.077-.03.138 0 .057.005.136.03.136h.864c.067 0 .08.017.08.048l.008 2.796v2.196c-.378-.423-.85-.63-1.448-.63-1.875 0-3.272 1.857-3.272 3.517 0 1.658 1.255 3.432 3.117 3.432.776 0 1.3-.387 1.504-.7.04-.056.073-.112.09-.164v.663c0 .04.02.06.058.06h2.246c.04 0 .048-.11.048-.135 0-.024-.01-.136-.05-.136m-5.62-3.02c0-1.558.242-2.512.745-2.923.318-.27.793-.326 1.132-.326.56 0 1.234.283 1.44.82v4.29c0 .645-.492 1.3-1.597 1.3-.442 0-.693-.088-.977-.327-.505-.414-.744-1.313-.744-2.834m3.326-2.88v.01c-.06-.068-.122-.126-.19-.186.067.056.13.116.19.176m0 5.424v.327l-.008-.306c.002-.007.008-.01.008-.02"/></g></svg>