<svg xmlns="http://www.w3.org/2000/svg" viewBox="0 0 100 85" enable-background="new 0 0 100 85"><g><path d="M28.41 51.706h3.568v1.236H28.41v17.732h-1.236V52.942H23.57v-1.236h3.604V45.56h1.236zM34.802 61.63c.247 5.193 3.886 8.514 8.583 8.514 3.497 0 6.394-1.908 7.948-5.44h1.27c-1.766 4.204-5.014 6.465-9.148 6.465-5.722 0-9.82-4.557-9.82-9.96 0-5.653 4.344-10.07 9.643-10.07 5.758 0 9.786 4.098 9.926 10.492H34.802zm8.69-9.536c-4.522 0-8.052 3.143-8.69 8.372h17.166c-.634-5.3-3.992-8.372-8.476-8.372M74.61 51.706h1.13v18.968h-1.13v-4.522c-2.298 3.427-4.946 5.015-8.514 5.015-5.582 0-9.75-4.52-9.75-10.067 0-5.404 4.028-9.89 9.75-9.89 3.674 0 6.568 1.73 8.513 5.157v-4.66zm-8.584.46c-4.664 0-8.48 3.885-8.48 9.04 0 5.193 4.1 9.01 8.657 9.01 4.308 0 8.37-3.957 8.37-8.832 0-5.122-3.71-9.22-8.547-9.22"/></g></svg>