<svg xmlns="http://www.w3.org/2000/svg" viewBox="0 0 100 10" enable-background="new 0 0 100 10"><g fill="#D41245"><path d="M7.022 7.278L4.557 4.36H1.04v2.918H0v-7.28h4.96c.62 0 .846.03 1.155.114.98.258 1.536 1.02 1.536 2.02 0 .392-.08 1.414-1.175 1.867-.185.07-.38.133-.793.195l2.69 3.083h-1.35zm-.63-5.816C6.085.916 5.6.864 5.033.864h-4v2.64H4.63c.588 0 1.278-.02 1.68-.536.104-.124.27-.37.27-.794 0-.134-.012-.413-.187-.712zM9.834 4.875c.072.485.165.815.526 1.155.248.237.805.62 1.68.62.6 0 1.197-.187 1.61-.63.143-.155.205-.28.308-.464l.938.258c-.072.154-.155.31-.258.454-.32.464-.835.732-.99.804-.28.134-.907.36-1.743.36-1.63 0-3.073-.907-3.083-2.71 0-.155.02-.527.176-.94.505-1.33 1.846-1.587 2.258-1.65.114-.02.34-.05.63-.05.432 0 1.69.06 2.525 1.123.156.196.486.63.568 1.29.022.133.022.257.022.38H9.834zm3.32-1.732c-.082-.052-.268-.165-.536-.248-.134-.04-.34-.082-.67-.082-.763 0-1.464.278-1.887.95-.082.123-.102.153-.195.38h4.032c-.217-.598-.495-.835-.743-1zM22.05 6.31c-.32.432-.845.71-.97.772-.34.154-.948.37-1.855.37-.98 0-2.083-.226-2.743-1.01-.556-.66-.577-1.392-.577-1.71 0-.527.114-.96.423-1.393.05-.063.154-.207.31-.362.41-.392 1.236-.877 2.618-.877.268 0 1.227.012 2 .496.124.072.35.217.588.474.175.196.258.33.39.557l-.937.268c-.134-.227-.227-.33-.31-.413-.597-.577-1.515-.608-1.732-.608-.237 0-.928.03-1.526.433-.712.484-.785 1.186-.785 1.505 0 .155.02.536.247.908.258.402.898.95 2.073.95.186 0 1.083-.022 1.702-.527.177-.143.26-.267.383-.453l.938.247c-.082.124-.155.258-.237.372zM29.236 6.082c-.36.588-1.268 1.35-2.918 1.35-.186 0-.784-.01-1.35-.175-.455-.134-1.95-.71-1.95-2.392 0-.258.032-.815.392-1.392.825-1.3 2.495-1.35 2.877-1.35.237 0 1.103.02 1.846.37.114.05.29.134.516.32.143.113.308.278.42.412.197.237.517.753.517 1.557 0 .207-.02.764-.35 1.3zm-.866-2.196c-.588-.97-1.898-.96-2.124-.96-.588.012-1.176.156-1.63.548-.39.33-.607.804-.607 1.33 0 .175.02.567.298.95.29.39.918.865 2.063.865.496 0 .98-.115 1.414-.393.247-.154.825-.598.825-1.464-.003-.145-.024-.517-.24-.877zM40.277 7.278V4.73c0-.33.01-.67-.134-.98-.165-.36-.66-.793-1.598-.793-1.042 0-1.66.505-1.856.876-.104.196-.145.38-.145.825v2.62h-.98V4.69c0-.247-.01-.505-.072-.742-.28-.98-1.36-.99-1.598-.99s-.918.04-1.506.484c-.073.05-.26.196-.392.433-.144.278-.144.536-.144.845v2.558h-.99V2.246h.99v.69c.186-.175.29-.247.38-.32.29-.185.94-.483 1.847-.483.187 0 1.094.01 1.702.474.145.114.217.186.423.443.124-.134.248-.248.402-.36.34-.238 1-.568 2.042-.568.937 0 2.082.34 2.464 1.3.113.288.144.535.144 1.144v2.712h-.98zM43.563 4.875c.072.485.165.815.526 1.155.247.237.804.62 1.68.62.598 0 1.196-.187 1.608-.63.144-.155.206-.28.31-.464l.937.258c-.072.154-.155.31-.258.454-.32.464-.835.732-.99.804-.277.134-.907.36-1.742.36-1.63 0-3.073-.907-3.083-2.71 0-.155.02-.527.176-.94.505-1.33 1.846-1.587 2.258-1.65.113-.02.34-.05.63-.05.432 0 1.69.06 2.525 1.123.156.196.486.63.568 1.29.02.133.02.257.02.38h-5.165zm3.32-1.732c-.083-.052-.268-.165-.536-.248-.134-.04-.34-.082-.67-.082-.763 0-1.464.278-1.887.95-.083.123-.103.153-.196.38h4.032c-.217-.598-.496-.835-.743-1zM54.913 7.278v-2.66c0-.433-.04-.62-.133-.825-.186-.433-.7-.856-1.733-.856-.496 0-.774.093-.98.165-.154.062-.733.268-.97.897-.113.288-.123.576-.123.886v2.392h-.98V2.246h.98v.608c.176-.144.36-.32.763-.484.3-.124.784-.268 1.485-.268 1.247 0 2.164.506 2.494 1.258.166.39.166.784.166 1.196v2.722h-.97zM62.417 7.278l-.01-.66c-.103.093-.217.186-.33.258-.32.206-.97.495-1.918.495-.31 0-1.197-.02-1.95-.577-.33-.237-1.04-.907-1.04-2.073 0-.35.072-1.175.814-1.835.33-.29 1.073-.763 2.207-.763.27 0 1.052.03 1.764.413.166.093.217.114.464.3V-.002h.98v7.28h-.98zm-.464-3.825c-.62-.557-1.516-.546-1.72-.546-.33 0-.65.062-.95.185-1.01.433-1.094 1.34-1.094 1.712 0 .32.062.608.226.876.227.38.794.887 1.867.887.66 0 1.474-.206 1.877-.763.134-.185.31-.546.31-1.093 0-.237-.01-.804-.517-1.257zM70.376 7.33c-.857 0-.928-.485-.97-.857-.03.05-.113.186-.237.3-.34.33-1.042.69-2.166.69-.31 0-.62-.04-.71-.05-.507-.084-.93-.25-1.28-.64-.257-.3-.39-.65-.39-1.042 0-.865.62-1.236.886-1.35.485-.216 1.268-.227 2.454-.237l1.434-.01c0-.443.02-.877-.444-1.124-.216-.115-.63-.207-1.227-.207-.474 0-1.154.04-1.557.36-.093.074-.123.115-.226.3l-.99-.093c.01-.04.103-.31.226-.495.093-.134.28-.36.65-.516.33-.135.96-.27 1.846-.27.144 0 .856.01 1.434.156.134.03.66.144.96.546.246.33.246.67.246 1.05V5.68c0 .32 0 .516.04.65.052.154.177.3.527.3.093 0 .176-.01.36-.032v.68c-.29.02-.58.05-.867.05zM67.56 4.895c-.763 0-1.217.02-1.537.175-.113.053-.423.25-.423.65 0 .496.454.99 1.454.99.268 0 .588-.05.65-.06.206-.032 1.114-.187 1.516-.93.186-.35.176-.68.186-.824H67.56zM81.52 7.278V4.73c0-.33.01-.67-.133-.98-.166-.36-.66-.793-1.598-.793-1.042 0-1.66.505-1.858.876-.103.196-.144.38-.144.825v2.62h-.98V4.69c0-.247-.01-.505-.072-.742-.28-.98-1.36-.99-1.598-.99s-.917.04-1.506.484c-.072.05-.257.196-.39.433-.145.278-.145.536-.145.845v2.558h-.99V2.246h.99v.69c.186-.175.29-.247.38-.32.29-.185.94-.483 1.847-.483.186 0 1.093.01 1.7.474.145.114.218.186.424.443.124-.134.247-.248.403-.36.34-.238 1-.568 2.042-.568.938 0 2.083.34 2.464 1.3.114.288.144.535.144 1.144v2.712h-.98zM90.024 6.082c-.36.588-1.268 1.35-2.918 1.35-.186 0-.784-.01-1.35-.175-.454-.134-1.95-.71-1.95-2.392 0-.258.032-.815.392-1.392.825-1.3 2.495-1.35 2.877-1.35.237 0 1.104.02 1.846.37.115.05.29.134.517.32.144.113.31.278.423.412.196.237.516.753.516 1.557-.002.207-.022.764-.352 1.3zm-.867-2.196c-.587-.97-1.897-.96-2.124-.96-.587.012-1.176.156-1.63.548-.392.33-.607.804-.607 1.33 0 .175.02.567.3.95.288.39.917.865 2.062.865.494 0 .98-.115 1.413-.393.248-.154.825-.598.825-1.464 0-.145-.02-.517-.238-.877zM97.094 6.453c-.608 1.083-2.577 1.01-2.618 1.01-.34 0-2.268 0-3.434-1.05l.846-.557c.05.04.29.227.516.35.794.413 1.784.434 2.02.434.02 0 .928 0 1.392-.248.217-.113.403-.31.403-.567 0-.134-.052-.33-.32-.464-.444-.236-1.394-.205-2.62-.34-.434-.05-.918-.134-1.29-.402-.31-.227-.474-.577-.474-.97 0-.556.32-.99.804-1.237.7-.36 1.887-.36 1.99-.36.784 0 1.608.134 2.31.506.34.185.496.31.62.433l-.857.473c-.824-.567-1.836-.588-2.144-.588-.712 0-1.156.103-1.424.3-.186.143-.217.278-.217.39 0 .093.04.28.246.392.35.206 1.3.237 2.36.33.775.062 1.146.144 1.465.35.394.26.59.67.59 1.125 0 .114-.01.413-.166.69zM98.866 3.298V2.184h1.124v1.113h-1.124zm.01 3.98V6.175H100v1.103h-1.124z"/></g></svg>