<svg xmlns="http://www.w3.org/2000/svg" viewBox="0 0 100 15" enable-background="new 0 0 100 15"><g fill="#D41245"><path d="M5.452 1.42v8.74H4.047V1.42H0V.24h9.513v1.18h-4.06zM21.182 8.066c-.772 1.883-2.98 2.333-4.777 2.333-.478 0-2.29.013-3.696-.97-.59-.408-.858-.844-1-1.096-.392-.73-.42-1.462-.42-2.262V.24h1.42v5.887c0 .113-.015.534.055.927.14.914.604 1.237.955 1.462.492.31 1.307.66 2.698.66.183 0 1.855 0 2.81-.702.338-.253.535-.59.59-.717.225-.464.225-.927.225-1.447V.24h1.42v5.97c0 .66-.014 1.224-.28 1.856zM38.842 10.16l-3.358-3.977h-4.792v3.977h-1.42V.24h6.76c.842 0 1.15.04 1.572.153 1.335.35 2.094 1.392 2.094 2.754 0 .534-.113 1.925-1.602 2.544-.253.1-.52.184-1.082.268l3.667 4.2h-1.838zm-.858-7.925c-.422-.745-1.082-.816-1.855-.816h-5.453v3.596h4.904c.802 0 1.743-.028 2.29-.73.142-.17.366-.506.366-1.082 0-.183-.013-.562-.252-.97zM42.235 10.16V.24h9.148V1.46H43.64v2.95h7.545v1.182H43.64v3.344h8.108v1.223h-9.513zM63.22 10.16V8.797c-.21.21-.42.407-.66.576-.56.393-1.854 1.01-3.666 1.01-2.67 0-4.103-1.375-4.707-2.205-.338-.45-.97-1.49-.97-3.007 0-.477.07-1.643.815-2.768.196-.295.394-.534.647-.773C55.35.997 56.8 0 59.144 0c.563 0 1.91.043 3.317.773.717.365 1.11.745 1.335.998.225.24.323.352.59.844l-1.377.422c-.1-.14-.24-.38-.534-.66-.478-.435-1.546-1.166-3.232-1.166-.31 0-1.082.028-1.898.31-1.616.562-2.627 1.855-2.627 3.597 0 .885.322 1.897.898 2.585 1.166 1.42 3.063 1.503 3.582 1.503 1.377 0 2.923-.59 3.667-1.812.268-.45.324-.787.394-1.28h-4.37v-1.18h5.552v5.228h-1.22zM75.86 10.16l-1.207-2.445h-6.1l-1.207 2.445H65.76L70.9.24h1.503l5.086 9.92h-1.63zM71.62 1.658l-2.474 4.918h4.904l-2.43-4.918zM79.03 10.16V.24h1.405V8.95h6.59v1.208H79.03zM98.708 8.713c-.69.717-2.206 1.714-4.693 1.714-.254 0-.83-.014-1.52-.126-.673-.098-2.683-.463-3.835-2.318-.674-1.096-.717-2.22-.717-2.67 0-1.138.295-2.276.998-3.16.14-.184.324-.394.718-.718C90.332.87 91.696 0 93.93 0c.45 0 1.8.043 3.077.632.816.38 1.602.998 2.123 1.742.814 1.18.87 2.488.87 2.966 0 .576-.084 2.122-1.292 3.373zm-.492-5.242c-1.068-2.29-3.893-2.275-4.455-2.262-.42.014-2.205.113-3.357 1.265-.196.196-.59.632-.83 1.335-.153.45-.223.97-.223 1.447 0 .366.04 1.433.717 2.347.14.183.352.435.787.745.575.407 1.546.857 3.19.857.266 0 .927 0 1.672-.196 1.39-.366 2.403-1.293 2.74-2.698.042-.197.127-.605.127-1.11 0-.844-.227-1.434-.367-1.73z"/></g></svg>