<svg xmlns="http://www.w3.org/2000/svg" viewBox="0 0 150 20" enable-background="new 0 0 150 20"><g><path fill="#f08" d="M0 0h150v20H0z"/><g fill="#fff"><path d="M13.71 7.946h-.015v4.198h-.863V6.147h.863l2.047 3.726 2.047-3.726h.863v5.997h-.864V7.946h-.017l-2.03 3.686-2.032-3.686zM26.397 12.144h-.976l-.854-1.975h-2.68L21 12.143h-.943l2.71-5.997h.96l2.67 5.997zM23.23 7.218l-.943 2.087h1.887l-.944-2.087zM27.536 10.473c.4.27.983.936 2.422.936.808 0 1.91-.29 1.91-1.024 0-.984-1.126-.984-1.878-.984h-.896c-.815 0-1.775-.448-1.775-1.535 0-1.27 1.438-1.847 2.54-1.847 1.352 0 2.216.64 2.456.815l-.486.695c-.512-.304-.936-.648-1.943-.648-.75 0-1.703.28-1.703.983 0 .464.336.688 1.023.688H30c1.406 0 2.734.352 2.734 1.84 0 1.254-1.335 1.878-2.83 1.878-1.808 0-2.608-.854-2.976-1.214l.608-.583zM38.167 6.147v5.997h-.864V6.147h.864zM41.367 6.147l3.566 4.557h.016V6.147h.863v5.997h-.864l-3.567-4.558h-.016v4.558h-.863V6.147h.863zM49.07 12.144h-.862V6.147h4.91v.863H49.07v1.575h2.456v.864H49.07v2.694zM54.448 9.145c0-1.88 1.495-3.126 3.214-3.126 1.72 0 3.214 1.238 3.214 3.125 0 1.88-1.495 3.126-3.214 3.126-1.72 0-3.214-1.238-3.214-3.125zm5.565 0c0-1.24-.992-2.263-2.35-2.263-1.36 0-2.352 1.023-2.352 2.263s.993 2.263 2.352 2.263c1.36 0 2.35-1.023 2.35-2.263zM66.374 6.147c.96 0 1.88.488 1.88 1.71 0 1.304-.873 1.712-1.376 1.752l1.24 2.534h-.984l-1.2-2.502h-2.23v2.502h-.864V6.147h3.534zm-2.67.863v1.767h2.67c.647 0 1.016-.336 1.016-.92 0-.68-.52-.847-1.016-.847h-2.67zM70.887 7.946h-.016v4.198h-.862V6.147h.863l2.048 3.726 2.047-3.726h.864v5.997h-.865V7.946h-.016l-2.032 3.686-2.03-3.686zM83.572 12.144h-.975l-.855-1.975h-2.68l-.886 1.974h-.943l2.71-5.997h.96l2.67 5.997zm-3.166-4.926l-.943 2.087h1.887l-.944-2.087zM90.564 11.072c-.567.615-1.28 1.2-2.998 1.2-1.623 0-3.158-1.24-3.158-3.08 0-1.766 1.367-3.173 3.142-3.173 1.64 0 2.63.942 2.92 1.222l-.648.552c-.272-.224-1.032-.912-2.263-.912-1.12 0-2.288.816-2.288 2.31 0 1.072.863 2.216 2.503 2.216 1.28 0 1.95-.648 2.215-.96l.574.624zM93.127 6.147v5.997h-.863V6.147h.863zM95.04 9.145c0-1.88 1.495-3.126 3.215-3.126 1.72 0 3.214 1.238 3.214 3.125 0 1.88-1.496 3.126-3.215 3.126-1.72 0-3.215-1.238-3.215-3.125zm5.565 0c0-1.24-.99-2.263-2.35-2.263s-2.352 1.023-2.352 2.263.99 2.263 2.35 2.263 2.352-1.023 2.352-2.263zM104.328 6.147l3.565 4.557h.017V6.147h.863v5.997h-.863l-3.566-4.558h-.016v4.558h-.864V6.147h.864zM119.42 12.144h-.974l-.856-1.975h-2.678l-.888 1.974h-.943l2.71-5.997h.96l2.67 5.997zm-3.165-4.926l-.943 2.087h1.887l-.945-2.087zM126.333 12.367l-.735.512-.792-.824c-.27.128-.8.216-1.223.216-1.72 0-3.215-1.24-3.215-3.126 0-1.88 1.495-3.126 3.215-3.126 1.72 0 3.214 1.24 3.214 3.126 0 1.127-.487 1.912-1.207 2.462l.743.76zm-1.367-1.4c.576-.343.968-1.086.968-1.822 0-1.24-.99-2.263-2.35-2.263s-2.352 1.023-2.352 2.263.99 2.263 2.35 2.263c.185 0 .368-.017.545-.057l-.217-.23.76-.464.296.312zM134.062 9.88c0 1.137-.432 2.392-2.63 2.392-2.2 0-2.63-1.255-2.63-2.39V6.146h.862V9.88c0 .88.367 1.528 1.767 1.528s1.77-.648 1.77-1.527V6.148h.862V9.88zM137.27 6.147v5.997h-.862V6.147h.863zm.034-1.495h.936l-.848 1h-.728l.64-1z"/></g></g></svg>