<svg xmlns="http://www.w3.org/2000/svg" viewBox="0 0 100 16.987" enable-background="new 0 0 100 16.987"><path d="M29.49 12.886l-1.908-.838V6.023l1.89 1.047.99-1.44-2.488-1.402c-.757.724-1.524 1.258-2.302 1.607v5.444c0 .53-.05.917-.153 1.168-.073.178-.22.344-.446.497v.188c.623.125 1.15.266 1.577.423.427.157.945.403 1.55.735l2.338-1.72-.07-.403-.977.72zm4.67-6.338v-.213c0-.48-.082-.858-.242-1.135-.162-.276-.516-.6-1.06-.972l-1.992 1.646.263.298c.056-.052.097-.092.12-.117.17-.172.31-.256.417-.256.133 0 .254.087.37.265.143.228.214.657.214 1.29v4.53c0 .374-.024.663-.077.868-.052.208-.152.428-.295.67-.053.088-.188.24-.405.455-.454.442-.68.897-.68 1.365 0 .472.198.883.59 1.228.392.344.953.518 1.683.518.698 0 1.275-.152 1.73-.454.3-.186.448-.376.448-.57 0-.108-.038-.196-.112-.26-.077-.068-.178-.1-.304-.1-.114 0-.214.03-.294.09-.082.06-.18.188-.294.384-.115.195-.23.323-.35.383-.248.127-.562.19-.94.19-.525 0-.948-.135-1.267-.408-.32-.275-.478-.572-.478-.892 0-.19.044-.36.133-.51.12-.207.323-.42.608-.64.132-.107.534-.362 1.206-.765 1.54-.908 2.653-1.642 3.343-2.203.69-.56 1.198-1.155 1.52-1.787.325-.63.484-1.263.484-1.896 0-1.182-.493-2.287-1.48-3.32L34.16 6.55zm1.903 3.783c-.377.698-1.01 1.366-1.904 2.006V7.018l1.45-1.176c.678.813 1.02 1.645 1.02 2.497 0 .63-.19 1.293-.567 1.99M24.266 1.01H23.07l-.485 2.02h.41l1.27-2.02zM23.9 12.747c-.057.033-.12.05-.187.05-.098 0-.19-.083-.282-.247-.09-.165-.136-.52-.136-1.063V6.323l.71-.73L22.34 4.23l-1.665 1.364.71.73v5.28c0 .796.075 1.353.222 1.67.148.32.48.658.995 1.018l2.04-1.646-.245-.298c-.25.218-.417.352-.496.4M5.67 8.802c.15 1.35.465 3.537.465 4.236 0 .508-.153.922-.457 1.234-.306.31-.702.467-1.193.467-.25 0-.638-.087-1.16-.263-.364-.124-.694-.186-.99-.186-.703 0-1.27.234-1.696.7-.264.296-.478.755-.64 1.378l.353.17c.108-.27.222-.446.34-.53.18-.12.406-.182.683-.182.328 0 .755.106 1.28.323.383.147.664.244.837.286.174.042.374.064.602.064.82 0 1.77-.356 2.85-1.067 1.27-.856 2.186-1.85 2.746-2.984.424-.864.636-2.167.636-3.91 0-.567-.005-1.115-.012-1.644-.017-1-.026-1.698-.026-2.088 0-.78.15-1.502.452-2.167.302-.663.862-1.44 1.68-2.327L12.065 0c-.456.325-.888.556-1.3.692-.407.138-.904.205-1.484.205-.62 0-1.47-.117-2.56-.353C5.364.256 4.4.112 3.834.112c-.908 0-1.67.285-2.297.857C.91 1.54.598 2.17.598 2.85c0 .47.126.85.377 1.134.254.286.545.43.876.43.257 0 .468-.085.632-.254.164-.17.248-.38.248-.632 0-.224-.076-.415-.227-.57-.15-.152-.33-.23-.544-.23-.1 0-.215.033-.344.095-.13.06-.225.092-.288.092-.07 0-.127-.025-.172-.076-.05-.05-.073-.118-.073-.2 0-.268.154-.533.462-.79.307-.26.727-.39 1.26-.39.406 0 .99.13 1.748.394.758.26 1.447.39 2.067.39.602 0 1.35-.142 2.248-.426-.977.64-1.684 1.192-2.118 1.65-.436.46-.735.905-.896 1.334-.162.427-.256 1-.28 1.722l.095 2.28zm3.39-5.29c-.43.985-.644 2.12-.644 3.405l.04 4.293c0 .82-.12 1.496-.363 2.03-.242.53-.57.964-.99 1.3-.306.24-.8.503-1.485.792.585-.47.97-.915 1.148-1.332.253-.573.38-1.374.38-2.402l-.04-4.187c0-1.247.142-2.233.42-2.953.282-.724.697-1.36 1.253-1.907.416-.403 1.065-.823 1.95-1.258-.82.802-1.377 1.543-1.67 2.222m10.707 9.206c-.123 0-.237-.084-.34-.254-.16-.246-.242-.653-.242-1.226V6.286l.75-.693-1.704-1.365-1.664 1.365.712.693v5.154l-1.71 1.285c-.366-.262-.6-.48-.69-.65-.096-.172-.145-.444-.145-.812V6.286l.71-.693-1.74-1.365L11.48 6.06l.243.3c.266-.226.465-.338.597-.338.177 0 .316.088.42.266.058.1.088.314.088.64V11.6c0 .592.094 1.07.282 1.43.19.364.587.785 1.196 1.262 1.015-.885 2.006-1.658 2.975-2.32.01.62.094 1.072.245 1.357.152.283.475.605.97.96l2.04-1.533-.245-.3c-.258.177-.432.263-.52.263m36.105-6.885v5.208c0 .512-.042.875-.13 1.09-.065.165-.214.35-.45.55l.092.188c.573 0 1.085.084 1.536.25.598.22 1.353.61 2.264 1.172.296-.267.604-.492.925-.672.42-.244 1.104-.556 2.048-.936V5.65c-1.32-.338-2.423-.813-3.31-1.42-.825.69-1.816 1.226-2.975 1.605m4.378 6.922l-2.47-1.01V5.835c.323.06.597.13.824.213.32.116.87.356 1.647.723v5.987zm25.177-.037c-.123 0-.236-.084-.34-.254-.16-.246-.242-.653-.242-1.226V6.286l.75-.693-1.703-1.365-1.666 1.365.713.693v5.154l-1.713 1.285c-.365-.262-.597-.48-.69-.65-.097-.172-.144-.444-.144-.812V6.286l.71-.693-1.738-1.365-2.228 1.832.244.3c.266-.226.464-.338.598-.338.178 0 .316.088.42.266.058.1.086.314.086.64V11.6c0 .592.094 1.07.282 1.43.188.364.586.785 1.195 1.262 1.016-.885 2.01-1.658 2.98-2.32.008.62.09 1.072.242 1.357.15.283.475.605.972.96l2.038-1.533-.243-.3c-.258.177-.433.263-.523.263M90.4 5.73l1.177 1.454 1.44-1.254-1.44-1.702-2.115 1.832c0-.33-.064-.59-.19-.777-.196-.3-.563-.65-1.1-1.056l-1.965 1.72.245.3c.246-.3.44-.45.583-.45.13 0 .25.083.356.246.11.162.165.49.165.98v3.907c0 .568-.042.953-.127 1.153-.085.202-.268.4-.544.598v.19c.414.107.797.262 1.147.457.35.196.785.516 1.3.962l2.454-1.944-.227-.3-.972.785-1.123-.785V6.542l.937-.81zm9.6 1.58l-2.658-3.08c-1.058.54-1.733.88-2.02 1.012-.4.18-.897.378-1.496.594v5.43c0 .62-.035 1.024-.105 1.21-.07.188-.21.344-.418.47v.188c.737.15 1.31.297 1.708.44.4.145.91.384 1.528.718l3.087-2.17-.225-.298-1.48 1.047-2.185-.822v-1.76L100 7.312zm-4.265-1.94l.132-.04 2.382 2.574-2.515 1.755V5.37zM74.9 2.02h-.27l-2.61 3.25v.417h.9v5.446c0 .445-.057.784-.165 1.02-.085.183-.254.36-.51.53v.188c.912.25 1.73.724 2.45 1.422l2.003-1.646-.225-.298-.6.485-1.047-.824V5.686h1.91V4.64h-1.91l.074-2.62zm-3.974 10.7c-.124 0-.237-.084-.34-.254-.162-.246-.242-.653-.242-1.226V6.286l.75-.693-1.704-1.365-1.665 1.365.71.693v5.154l-1.71 1.285c-.366-.262-.6-.48-.69-.65-.097-.172-.145-.444-.145-.812V6.286l.712-.693-1.74-1.365-2.227 1.832.243.3c.267-.226.465-.338.596-.338.178 0 .317.088.42.266.06.1.088.314.088.64V11.6c0 .592.093 1.07.283 1.43.188.364.586.785 1.196 1.262 1.015-.885 2.007-1.658 2.975-2.32.01.62.094 1.072.246 1.357.152.283.476.605.97.96l2.04-1.533-.244-.3c-.254.177-.43.263-.52.263m-18.474-.54c-.745.31-1.57.466-2.473.466l-.358-.01-.113-10.735c1.303.642 2.477 1.02 3.517 1.13l1.57-1.44-.167-.358h-.215c-.723 0-1.35-.057-1.886-.172C51.79.945 51.06.69 50.124.3l-4.06 3.33v4.24c0 .944-.038 1.525-.112 1.735-.076.212-.302.472-.677.78-.87-1.123-1.306-2.35-1.306-3.673 0-1.092.297-2.102.89-3.032.46-.722 1.162-1.4 2.103-2.035l-.243-.26c-1.43.858-2.462 1.746-3.1 2.655-.814 1.164-1.222 2.425-1.222 3.79 0 1.104.29 2.178.867 3.22.58 1.044 1.378 1.845 2.4 2.404 1.022.56 2.11.837 3.27.837.777 0 1.563-.13 2.356-.398.792-.267 1.47-.625 2.034-1.073.562-.445 1.135-1.07 1.72-1.876l-.282-.28c-.795.698-1.568 1.204-2.31 1.516m-5.305-.205c-.576-.297-1.115-.724-1.62-1.28.826-.682 1.47-1.29 1.927-1.824.227-.262.372-.51.435-.74.055-.178.084-.532.084-1.065V2.777l1.086-.89.11 10.684c-.773-.1-1.45-.297-2.023-.595"/></svg>