<?xml version="1.0" encoding="iso-8859-1"?>
<!-- Generator: Adobe Illustrator 29.5.0, SVG Export Plug-In . SVG Version: 9.03 Build 0)  -->
<svg version="1.1" id="Layer_1" xmlns="http://www.w3.org/2000/svg" xmlns:xlink="http://www.w3.org/1999/xlink" x="0px" y="0px"
	 viewBox="0 0 1000 1000" style="enable-background:new 0 0 1000 1000;" xml:space="preserve">
<path style="fill-rule:evenodd;clip-rule:evenodd;" d="M998.125,548.81c-0.88,9.087-8.86,15.79-17.953,15.174
	c8.908,1.895,14.744,10.52,13.092,19.503h-0.01c-1.65,8.992-10.203,14.992-19.227,13.588c8.744,2.635,13.826,11.733,11.4,20.542
	c-2.424,8.81-11.44,14.06-20.3,11.915c8.465,3.366,12.755,12.848,9.595,21.426c-3.17,8.57-12.6,13.04-21.248,10.155
	c8.155,4.06,11.633,13.868,7.768,22.148s-13.642,11.955-22.01,8.368c7.787,4.702,10.454,14.76,5.923,22.695h0.01
	c-4.542,7.954-14.6,10.82-22.65,6.55c7.402,5.3,9.267,15.55,4.108,23.11h0.01c-5.15,7.557-15.394,9.625-23.085,4.74
	c6.957,5.866,8.01,16.204,2.28,23.34c-5.72,7.135-16.087,8.414-23.372,2.952c6.494,6.366,6.754,16.762,0.503,23.446
	c-6.252,6.694-16.707,7.175-23.548,1.174c6.02,6.82,5.508,17.214-1.217,23.427c-6.734,6.213-17.18,5.934-23.567-0.547
	c5.498,7.242,4.242,17.56-2.918,23.273c-7.16,5.703-17.547,4.683-23.45-2.22c4.957,7.596,2.966,17.8-4.57,22.993
	c-7.547,5.192-17.847,3.432-23.248-3.877c4.435,7.924,1.74,17.973-6.146,22.638c-7.875,4.646-18.01,2.213-22.89-5.423
	c3.837,8.203,0.464,18.013-7.71,22.12c-8.174,4.115-18.117,0.99-22.465-6.963c3.276,8.443-0.744,18.012-9.178,21.56
	c-8.436,3.56-18.137-0.22-21.943-8.433c2.704,8.637-1.953,17.917-10.6,20.908h0.01c-1.847,0.635-3.71,0.933-5.557,0.933
	c-6.872,0-13.306-4.208-15.83-10.948c0.07,0.27,0.133,0.542,0.186,0.813c0.106,0.54,0.192,1.088,0.24,1.626
	c0.06,0.55,0.088,1.107,0.088,1.655c0,0.558-0.028,1.116-0.087,1.664c-0.047,0.537-0.134,1.086-0.24,1.624
	c-0.107,0.54-0.252,1.077-0.407,1.606c-0.164,0.52-0.348,1.04-0.56,1.55c-0.212,0.5-0.444,1.01-0.705,1.49
	c-0.26,0.48-0.542,0.96-0.85,1.413c-0.31,0.46-0.638,0.903-0.986,1.327c-0.348,0.432-0.725,0.846-1.12,1.23
	c-0.387,0.385-0.803,0.76-1.228,1.116c-0.426,0.347-0.88,0.673-1.344,0.97c-0.454,0.31-0.928,0.597-1.42,0.848
	c-0.483,0.26-0.985,0.5-1.497,0.702c-0.503,0.21-1.034,0.404-1.556,0.558c-0.522,0.163-1.062,0.298-1.604,0.404
	c-0.54,0.116-1.092,0.193-1.642,0.25c-0.55,0.058-1.11,0.086-1.662,0.086c-0.55,0-1.11-0.028-1.662-0.086
	c-0.55-0.057-1.1-0.134-1.643-0.25c-0.54-0.106-1.082-0.24-1.604-0.404c-0.523-0.154-1.054-0.347-1.556-0.558
	c-0.512-0.202-1.014-0.442-1.497-0.702c-0.493-0.25-0.966-0.54-1.42-0.847c-0.464-0.298-0.918-0.625-1.344-0.97
	c-0.426-0.357-0.84-0.732-1.228-1.117c-0.395-0.384-0.773-0.798-1.12-1.23c-0.348-0.424-0.677-0.866-0.986-1.327
	c-0.31-0.453-0.59-0.933-0.85-1.414c-0.26-0.482-0.494-0.99-0.706-1.49c-0.213-0.51-0.396-1.03-0.56-1.55
	c-0.164-0.53-0.3-1.067-0.406-1.606c-0.107-0.538-0.193-1.087-0.252-1.625c-0.048-0.55-0.077-1.107-0.077-1.665
	c0-0.548,0.028-1.105,0.076-1.654c0.058-0.537,0.145-1.086,0.252-1.625c0.106-0.538,0.242-1.076,0.406-1.606
	c0.164-0.52,0.347-1.04,0.56-1.55c0.212-0.5,0.444-1.01,0.705-1.49c0.26-0.48,0.54-0.962,0.85-1.413s0.637-0.903,0.985-1.327
	c0.347-0.433,0.725-0.846,1.12-1.23c0.387-0.385,0.802-0.76,1.228-1.116c0.426-0.346,0.88-0.673,1.343-0.972
	c0.455-0.307,0.928-0.596,1.42-0.846c0.484-0.26,0.986-0.5,1.498-0.702c0.502-0.212,1.033-0.404,1.555-0.558
	c0.52-0.163,1.062-0.3,1.603-0.404c0.542-0.115,1.092-0.193,1.643-0.25c1.1-0.106,2.222-0.106,3.324,0
	c0.55,0.057,1.1,0.134,1.642,0.25c0.542,0.105,1.082,0.24,1.604,0.404c0.522,0.154,1.053,0.346,1.556,0.558
	c0.505,0.2,1,0.436,1.477,0.69c-4.89-5.758-5.44-14.275-0.82-20.674c4.647-6.424,12.995-8.617,20.058-5.78
	C663.4,876.62,662,868.12,666,861.263c4.02-6.875,12.185-9.867,19.518-7.655c-6.01-4.75-8.165-13.155-4.744-20.36
	c3.44-7.23,11.382-10.895,18.92-9.24c-6.416-4.28-9.248-12.54-6.368-20.013h0.01c2.878-7.482,10.55-11.733,18.203-10.626
	c-6.726-3.818-10.137-11.876-7.78-19.542c2.368-7.664,9.73-12.444,17.44-11.858c-6.956-3.366-10.898-11.184-9.053-18.983
	c1.846-7.81,8.86-13.05,16.59-12.983c-7.15-2.905-11.595-10.444-10.27-18.35c1.323-7.905,8-13.607,15.72-14.03
	c-7.344-2.415-12.3-9.627-11.517-17.61c0.773-7.962,7.005-14.088,14.647-15.068c-7.46-1.875-12.918-8.684-12.753-16.666
	c0.174-7.943,5.836-14.493,13.314-16.1c-7.507-1.258-13.47-7.48-14.05-15.376c-0.57-7.8,4.29-14.743,11.403-17.157
	c-7.44-0.413-13.97-5.732-15.585-13.338c-1.58-7.477,2.102-14.84,8.545-18.285c-0.036,0.004-0.073,0.01-0.11,0.013
	c-0.55,0.057-1.11,0.086-1.66,0.086c-0.552,0-1.113-0.028-1.664-0.085c-0.55-0.05-1.1-0.135-1.642-0.24
	c-0.542-0.106-1.082-0.25-1.604-0.405c-0.53-0.163-1.053-0.346-1.565-0.557c-0.503-0.212-1.005-0.443-1.488-0.702
	c-0.493-0.258-0.966-0.537-1.43-0.845c-0.454-0.3-0.908-0.635-1.333-0.98c-0.425-0.347-0.84-0.722-1.236-1.106
	c-0.387-0.395-0.763-0.81-1.112-1.232c-0.348-0.423-0.677-0.875-0.985-1.327c-0.308-0.46-0.59-0.932-0.85-1.423
	c-0.26-0.48-0.493-0.98-0.705-1.49c-0.212-0.5-0.396-1.02-0.56-1.548c-0.164-0.52-0.3-1.06-0.406-1.597
	c-0.068-0.34-0.11-0.687-0.16-1.03c-0.243,0.028-0.486,0.06-0.73,0.09c0.01,0.093,0.03,0.182,0.04,0.276
	c0.81,9.26-6.068,17.425-15.373,18.232c-0.503,0.048-0.995,0.068-1.488,0.068c-8.678,0-16.06-6.607-16.833-15.368
	c-0.008-0.09-0.003-0.18-0.01-0.27c-0.222,0.012-0.445,0.02-0.667,0.032c0.004,0.09,0.018,0.177,0.02,0.267
	c0.212,9.3-7.17,17.003-16.503,17.225c-0.136,0-0.27,0.01-0.406,0.01c-9.16,0-16.686-7.28-16.9-16.436c0-0.098,0.01-0.19,0.01-0.287
	l-0.68-0.006c0,0.095,0.008,0.188,0.004,0.283c-0.358,9.06-7.846,16.165-16.88,16.165c-0.223,0-0.454-0.01-0.677-0.02
	c-9.334-0.364-16.6-8.193-16.232-17.483c0.004-0.09,0.02-0.175,0.024-0.264c-0.22-0.016-0.44-0.028-0.66-0.044
	c-0.007,0.087-0.004,0.173-0.013,0.26c-0.91,8.655-8.252,15.1-16.802,15.1c-0.58,0-1.18-0.03-1.768-0.097
	c-9.286-0.962-16.04-9.233-15.074-18.474c0.01-0.098,0.033-0.19,0.045-0.288l-0.658-0.09c-0.015,0.098-0.018,0.193-0.034,0.29
	c-1.4,8.203-8.56,14.012-16.658,14.012c-0.937,0-1.894-0.077-2.85-0.24c-9.208-1.558-15.402-10.252-13.837-19.416
	c0.017-0.092,0.045-0.18,0.062-0.27c-0.216-0.045-0.43-0.092-0.646-0.136c-0.02,0.094-0.03,0.187-0.052,0.28
	c-1.855,7.733-8.792,12.936-16.435,12.936c-1.306,0-2.62-0.154-3.934-0.46c-9.092-2.155-14.696-11.234-12.532-20.273
	c0.022-0.093,0.056-0.18,0.08-0.272c-0.215-0.058-0.433-0.113-0.648-0.172c-0.026,0.09-0.04,0.18-0.07,0.27
	c-2.24,7.222-8.927,11.857-16.145,11.857c-1.65,0-3.333-0.24-5.004-0.75c-8.92-2.75-13.914-12.174-11.15-21.05
	c0.03-0.097,0.072-0.187,0.103-0.282l-0.63-0.215c-0.034,0.095-0.056,0.19-0.093,0.285c-2.59,6.684-8.995,10.79-15.788,10.79
	c-2.02,0-4.07-0.365-6.07-1.125c-8.714-3.346-13.062-13.078-9.71-21.753c0.037-0.094,0.085-0.18,0.123-0.274l-0.61-0.26
	c-0.04,0.092-0.07,0.184-0.11,0.274c-2.87,6.135-8.977,9.742-15.354,9.742c-2.378,0-4.803-0.5-7.113-1.567
	c-8.473-3.924-12.145-13.935-8.203-22.36c0.042-0.09,0.095-0.17,0.138-0.26c-0.2-0.1-0.397-0.204-0.597-0.305
	c-0.047,0.088-0.082,0.18-0.13,0.268c-3.084,5.568-8.86,8.704-14.823,8.704c-2.754,0-5.565-0.673-8.155-2.097h0.01
	c-8.185-4.49-11.15-14.723-6.638-22.868c0.046-0.084,0.102-0.16,0.15-0.243c-0.192-0.114-0.38-0.232-0.57-0.346
	c-0.096,0.152-0.19,0.306-0.287,0.454c-0.31,0.462-0.638,0.904-0.985,1.327c-0.358,0.432-0.735,0.845-1.12,1.23
	c-0.388,0.394-0.803,0.76-1.238,1.116c-0.426,0.347-0.87,0.673-1.333,0.98c-0.454,0.3-0.937,0.587-1.42,0.847
	c-0.483,0.25-0.986,0.49-1.498,0.702c-0.512,0.21-1.034,0.394-1.556,0.558c-0.53,0.154-1.073,0.288-1.604,0.404
	c-0.54,0.106-1.1,0.183-1.643,0.24c-0.55,0.057-1.11,0.086-1.662,0.086c-0.55,0-1.112-0.03-1.662-0.086
	c-0.55-0.057-1.102-0.134-1.643-0.24c-0.542-0.115-1.082-0.25-1.604-0.404c-0.53-0.163-1.053-0.347-1.565-0.558
	c-0.5-0.21-1.004-0.452-1.487-0.702c-0.493-0.26-0.966-0.548-1.43-0.847c-0.455-0.307-0.91-0.634-1.334-0.98
	c-0.426-0.356-0.84-0.72-1.237-1.116c-0.387-0.385-0.763-0.798-1.112-1.23c-0.346-0.424-0.685-0.866-0.984-1.328
	c-0.31-0.452-0.59-0.933-0.85-1.413c-0.26-0.482-0.493-0.982-0.706-1.49c-0.12-0.283-0.213-0.58-0.316-0.873
	c-0.305,0.122-0.606,0.247-0.91,0.37c3.77,8.054,0.592,17.73-7.393,21.947c-2.52,1.336-5.236,1.962-7.913,1.962
	c-5.732,0-11.296-2.915-14.445-8.074c-0.224,0.156-0.45,0.31-0.672,0.468c5.55,6.8,4.96,16.82-1.57,22.887v0.01
	c-3.266,3.03-7.41,4.53-11.547,4.53c-4.132,0-8.252-1.52-11.48-4.497l-0.51,0.64c7.283,4.937,9.588,14.705,5.063,22.387
	c-3.15,5.346-8.803,8.328-14.6,8.328c-2.564,0-5.158-0.585-7.577-1.798c-0.11,0.253-0.222,0.5-0.33,0.755
	c8.41,2.994,13.096,12.047,10.505,20.66c-2.203,7.29-8.92,11.993-16.194,11.993c-1.353,0-2.734-0.175-4.108-0.516l-0.17,0.83
	c8.95,1.435,15.22,9.665,14.075,18.687c-1.073,8.51-8.358,14.733-16.754,14.733c-0.532,0-1.065-0.032-1.6-0.084
	c-0.02,0.284-0.04,0.565-0.058,0.85c9.15,0.332,16.41,7.853,16.297,17.006c-0.115,9.178-7.576,16.532-16.747,16.62
	c0.01,0.29,0.015,0.576,0.024,0.866c9.172-0.476,17.086,6.436,17.745,15.596c0.65,9.165-6.194,17.123-15.35,17.945l0.098,0.873
	c9.13-1.163,17.537,5.15,18.875,14.252c1.328,9.095-4.92,17.546-14.006,19.022l0.155,0.857c9.032-1.79,17.87,3.93,19.832,12.924
	c1.96,8.985-3.696,17.846-12.657,19.938l0.215,0.853c8.89-2.408,18.09,2.7,20.672,11.53c2.572,8.83-2.448,18.052-11.24,20.762
	l0.27,0.823c8.68-3.02,18.233,1.416,21.434,10.044c3.2,8.612-1.144,18.165-9.702,21.494c0.11,0.268,0.22,0.538,0.333,0.806
	c8.417-3.655,18.267,0.026,22.123,8.367c3.855,8.338,0.286,18.182-7.972,22.17c0.133,0.258,0.264,0.52,0.398,0.778
	c8.063-4.343,18.16-1.517,22.725,6.44c4.56,7.963,1.874,18.056-5.968,22.744c0.158,0.247,0.313,0.497,0.472,0.745
	c7.574-5.087,17.87-3.28,23.206,4.17h0.01c5.32,7.44,3.687,17.71-3.593,23.183c0.18,0.226,0.365,0.448,0.547,0.673
	c0.086-0.073,0.166-0.155,0.253-0.227c0.425-0.346,0.88-0.673,1.333-0.972c0.463-0.306,0.937-0.595,1.43-0.845
	c0.483-0.26,0.986-0.5,1.498-0.702c0.502-0.212,1.024-0.404,1.555-0.558c0.522-0.163,1.063-0.3,1.604-0.404
	c0.542-0.114,1.092-0.192,1.643-0.25c1.1-0.105,2.222-0.105,3.324,0c0.55,0.058,1.1,0.135,1.642,0.25
	c0.542,0.106,1.082,0.24,1.604,0.405c0.522,0.154,1.053,0.346,1.556,0.558c0.512,0.202,1.014,0.442,1.497,0.702
	c0.483,0.25,0.966,0.54,1.42,0.846c0.464,0.3,0.91,0.626,1.344,0.973c0.425,0.355,0.84,0.73,1.227,1.115
	c0.396,0.385,0.773,0.798,1.12,1.23c0.35,0.425,0.678,0.876,0.986,1.328c0.3,0.452,0.59,0.933,0.85,1.413
	c0.252,0.48,0.494,0.99,0.706,1.49c0.212,0.51,0.396,1.028,0.56,1.548c0.155,0.53,0.29,1.068,0.406,1.606
	c0.107,0.54,0.184,1.088,0.242,1.626c0.06,0.548,0.087,1.106,0.087,1.654c0,0.558-0.027,1.116-0.086,1.664
	c-0.058,0.538-0.135,1.087-0.242,1.625c-0.116,0.54-0.25,1.077-0.406,1.606c-0.164,0.518-0.348,1.038-0.56,1.548
	c-0.212,0.5-0.454,1.01-0.705,1.49c-0.26,0.48-0.55,0.962-0.85,1.414c-0.31,0.46-0.637,0.903-0.985,1.327
	c-0.358,0.43-0.725,0.845-1.12,1.23c-0.387,0.384-0.803,0.76-1.238,1.115c-0.425,0.347-0.87,0.673-1.333,0.97
	c-0.454,0.31-0.937,0.597-1.42,0.848c-0.483,0.26-0.985,0.5-1.497,0.702c-0.503,0.21-1.034,0.404-1.556,0.558
	c-0.52,0.163-1.06,0.298-1.603,0.404c-0.54,0.116-1.092,0.193-1.642,0.25c-0.55,0.058-1.112,0.086-1.663,0.086
	c-0.55,0-1.11-0.028-1.662-0.086c-0.55-0.057-1.1-0.134-1.643-0.25c-0.54-0.106-1.082-0.24-1.604-0.404
	c-0.53-0.154-1.053-0.347-1.555-0.558c-0.512-0.202-1.015-0.442-1.498-0.702c-0.493-0.25-0.966-0.54-1.42-0.847
	c-0.463-0.298-0.918-0.625-1.343-0.97c-0.426-0.357-0.84-0.732-1.228-1.117c-0.396-0.385-0.774-0.8-1.12-1.23
	c-0.35-0.425-0.678-0.867-0.987-1.328c-0.31-0.453-0.59-0.933-0.85-1.414c-0.26-0.48-0.493-0.99-0.706-1.49
	c-0.212-0.51-0.395-1.03-0.56-1.55c-0.154-0.528-0.3-1.066-0.406-1.605c-0.105-0.538-0.192-1.087-0.24-1.625
	c-0.06-0.548-0.088-1.106-0.088-1.664c0-0.548,0.03-1.105,0.087-1.654c0.048-0.538,0.135-1.087,0.24-1.626
	c0.098-0.49,0.23-0.982,0.368-1.467l-0.692-0.21c-0.03,0.09-0.05,0.182-0.08,0.272c-3.083,8.78-12.726,13.405-21.538,10.347v-0.01
	c-8.638-3-13.275-12.27-10.57-20.897c-3.826,8.193-13.527,11.953-21.943,8.386c-8.426-3.568-12.445-13.126-9.16-21.56
	c-4.367,7.933-14.3,11.04-22.465,6.914c-8.165-4.116-11.527-13.926-7.682-22.12c-4.908,7.617-15.025,10.04-22.89,5.377
	c-7.854-4.654-10.54-14.656-6.163-22.56c-5.43,7.23-15.682,8.942-23.19,3.76c-7.518-5.194-9.498-15.36-4.57-22.947
	c-5.923,6.847-16.28,7.838-23.412,2.135c-7.13-5.712-8.387-16.002-2.927-23.224c-6.397,6.425-16.812,6.675-23.518,0.462
	c-6.706-6.203-7.208-16.57-1.218-23.388c-6.86,5.953-17.276,5.443-23.508-1.25c-6.232-6.684-5.952-17.07,0.532-23.426
	c-7.295,5.433-17.653,4.135-23.354-3c-5.72-7.147-4.648-17.485,2.32-23.34c-7.692,4.866-17.934,2.788-23.065-4.78
	c-5.14-7.57-3.266-17.8,4.136-23.09c-8.058,4.25-18.097,1.356-22.62-6.597v0.01c-4.52-7.953-1.835-18.012,5.982-22.695
	c-8.387,3.577-18.155-0.115-22.01-8.405c-3.856-8.29-0.358-18.1,7.817-22.137c-8.658,2.885-18.09-1.606-21.24-10.194
	s1.17-18.07,9.663-21.417c-8.88,2.154-17.904-3.116-20.31-11.944c-2.406-8.82,2.696-17.908,11.43-20.523
	C16.79,597.75,8.25,591.73,6.606,582.74c-1.633-8.983,4.223-17.6,13.15-19.475c-9.102,0.607-17.093-6.116-17.953-15.204
	c-0.86-9.096,5.71-17.175,14.754-18.29c-9.11-0.183-16.484-7.54-16.56-16.676c-0.088-9.136,7.168-16.637,16.29-16.964
	c-9.083-0.933-15.818-8.905-15.122-18.022c0.695-9.078,8.503-15.925,17.585-15.53c-8.92-1.742-14.9-10.234-13.43-19.225
	c1.478-8.99,9.855-15.156,18.87-13.983c-8.735-2.49-13.972-11.454-11.73-20.29c2.222-8.79,11.005-14.196,19.836-12.36
	c-8.396-3.268-12.783-12.587-9.817-21.147c2.975-8.597,12.24-13.262,20.918-10.626c-8.155-3.924-11.778-13.618-8.097-21.926
	c3.692-8.346,13.373-12.213,21.81-8.817c-7.856-4.568-10.707-14.55-6.33-22.56c4.377-8.04,14.397-11.1,22.533-6.964
	c-7.527-5.165-9.585-15.378-4.57-23.043c5.034-7.684,15.305-9.934,23.093-5.116c-7.15-5.71-8.426-16.097-2.812-23.368
	c5.633-7.3,16.098-8.722,23.49-3.25c-6.755-6.23-7.257-16.734-1.083-23.58c6.185-6.858,16.746-7.473,23.703-1.443
	c-6.29-6.714-6.02-17.234,0.657-23.61c6.696-6.396,17.305-6.223,23.78,0.355c-5.828-7.154-4.793-17.666,2.347-23.55
	c7.044-5.83,17.44-4.983,23.46,1.807c-5.063-7.52-3.237-17.734,4.203-23.042c7.45-5.31,17.75-3.742,23.266,3.443
	c-4.512-7.858-1.97-17.907,5.817-22.687c7.797-4.77,17.962-2.5,22.967,5.05c-3.96-8.146-0.744-18.003,7.363-22.235
	c8.097-4.24,18.078-1.277,22.56,6.59c-3.4-8.387,0.475-18.003,8.842-21.687c8.368-3.683,18.126-0.068,22.07,8.078
	c-2.832-8.586,1.68-17.924,10.27-21.05c8.6-3.125,18.078,1.125,21.48,9.51c-2.26-8.75,2.86-17.77,11.633-20.33
	c8.773-2.548,17.962,2.3,20.803,10.877c-1.67-8.876,4.02-17.53,12.94-19.522c8.917-1.98,17.758,3.443,20.04,12.175
	c-1.093-8.953,5.14-17.224,14.173-18.637h-0.01c9.035-1.416,17.507,4.564,19.227,13.422c-0.52-9.002,6.224-16.868,15.316-17.705
	v-0.01c9.09-0.837,17.16,5.645,18.33,14.58c0.062-9.013,7.282-16.418,16.402-16.697c9.132-0.27,16.794,6.722,17.384,15.733
	c0.59-9.01,8.26-15.993,17.402-15.704c9.122,0.288,16.33,7.712,16.378,16.723c1.18-8.935,9.266-15.397,18.35-14.55
	c9.09,0.855,15.826,8.73,15.285,17.742c1.738-8.857,10.22-14.82,19.246-13.397c9.024,1.424,15.237,9.714,14.136,18.666
	c2.3-8.73,11.15-14.135,20.068-12.145c8.91,2,14.58,10.665,12.9,19.532c2.87-8.57,12.05-13.397,20.813-10.83
	c8.773,2.57,13.874,11.6,11.604,20.35c3.41-8.376,12.908-12.607,21.49-9.472c8.588,3.135,13.07,12.463,10.24,21.04
	c3.972-8.116,13.722-11.712,22.08-8.01c8.357,3.693,12.222,13.32,8.802,21.695c4.502-7.857,14.483-10.8,22.58-6.55
	c8.097,4.252,11.295,14.118,7.315,22.254c5.014-7.54,15.19-9.8,22.976-5.01c7.79,4.8,10.3,14.858,5.77,22.696
	c5.545-7.174,15.846-8.723,23.276-3.404c7.44,5.328,9.237,15.54,4.164,23.05c6.03-6.77,16.426-7.597,23.47-1.76
	c7.034,5.83,8.107,16.148,2.513,23.283c6.512-6.33,16.937-6.396,23.537-0.068c6.542,6.27,6.91,16.53,0.957,23.244
	c6.957-5.674,17.247-4.934,23.306,1.808c6.068,6.75,5.652,17.03-0.822,23.282c7.384-5.164,17.606-3.654,23.142,3.54
	c5.546,7.202,4.34,17.444-2.618,23.185c7.768-4.615,17.866-2.317,22.832,5.3c4.976,7.626,2.948,17.77-4.474,22.946
	c8.117-4.02,18.04-0.934,22.378,7.068c4.357,8.02,1.497,17.993-6.358,22.542c8.436-3.376,18.107,0.51,21.788,8.857
	c3.69,8.376-0.01,18.118-8.28,21.993c8.715-2.72,18.078,1.952,21.054,10.608c2.985,8.675-1.565,18.118-10.184,21.254
	c8.947-2.04,17.923,3.423,20.165,12.328c2.222,8.838-3.035,17.79-11.78,20.263c9.016-1.146,17.393,5.028,18.842,14.02
	c1.46,9.002-4.542,17.474-13.46,19.195c9.083-0.375,16.88,6.49,17.557,15.57c0.677,9.087-6.03,17.03-15.074,17.983
	c9.083,0.385,16.282,7.886,16.175,16.993c-0.096,9.137-7.48,16.485-16.59,16.648c9.048,1.126,15.598,9.223,14.72,18.31
	L998.125,548.81z M683.583,718.184c21.768-25.116,36.743-63.418,17.696-85.395c-16.87-19.465-158.91-27.628-182.854,0
	c-2.86,3.298-4.938,6.735-6.367,10.262c-3.867-0.51-7.895-0.78-12.055-0.78s-8.19,0.27-12.054,0.78
	c-1.428-3.527-3.508-6.964-6.366-10.262c-23.945-27.628-165.982-19.465-182.853,0c-19.046,21.977-4.07,60.28,17.697,85.395
	c21.768,25.116,124.08,19.674,141.493-0.42c11.203-12.925,27.693-32.955,31.656-52.955c3.237-0.46,6.72-0.72,10.43-0.72
	s7.19,0.26,10.428,0.72c3.964,20,20.453,40.03,31.656,52.956C559.504,737.858,661.815,743.3,683.583,718.184L683.583,718.184z
	 M842.39,519.417l0.5,1.013C842.8,519.647,843.033,520.095,842.39,519.417z M785.326,282.132l-10.01-2.786
	c-3.017-1.53-6.647-3.885-10.513-4.305c0.9,1.646,1.227,1.698,2.503,2.533l0.25,0.76c-0.584-0.17-1.168-0.338-1.752-0.506
	c7.298,8.297,27.116,24.962,29.783,34.187c-9.14,8.712-20.457,16.02-31.535,22.032c1.97,0.617,4.257-1.557,5.005-2.28
	c0.4,1.15,3.375-0.45,3.504-0.506c5.978-2.585,18.433-3.515,25.53-1.52c6.985,1.966,7.002,9.36,12.763,12.916
	c2.858,1.764,4.383,3.97,6.758,5.57c2.436,1.644,5.307-1.042,6.508,2.28c2.03-0.618,8.727-1.367,10.01-2.532
	c10.615-9.632,2.62-23.87-6.256-32.668c-8.247-8.174-17.348-16.634-25.778-23.804c-4.65-3.957-11.732-6.053-16.768-9.37
	L785.326,282.132z M774.564,425.718l0.5,0.76c0.168,0.084,0.335,0.17,0.502,0.253c-0.48-0.893-0.076-0.538-1.002-1.012V425.718z
	 M772.562,424.706c0.282,1.423,0.543,1.616,1.502,2.28C773.564,426.226,773.064,425.466,772.562,424.706z M770.56,433.062
	l-1.752-1.266l-0.5-0.253l-0.25-0.506c0.37,1.007-0.224,0.332,0.75,0.76c0.13,0.953,0.315,0.254-0.5,1.266l0.5,1.013h1
	C769.958,432.818,769.523,433.771,770.56,433.062z M768.057,430.277c-0.767-0.86-0.95-1.355-2.253-1.773l1.25,1.773H768.057z
	 M570.589,426.225c-1.245-4.52-0.32-9.612-1.753-13.675c-1.45-4.115-3.5-10.968-3.504-14.18l0.5-1.52
	c-1.822-1.894-2.64-4.916-4.003-6.584c-4.36-5.33-14.285-9.51-20.272-10.13c-1.522,5.93,1.22,11.548-0.25,18.74
	c-3.16,15.46-7.046,32.76-14.015,48.37c-3.026,6.775-16.803,27.392-16.518,31.654c0.52,7.794,3.364,15.365,5.256,21.78l0.502,8.862
	c1.523,2.624,6.677,5.785,6.507,8.863c3.366,3.686,11.432,5.514,18.52,6.33c2.08-1.218,1.897-2.546,4.754-1.772
	c3.12-4.504,4.28-10.096,8.01-16.207C567.498,485.154,578.343,454.404,570.589,426.225L570.589,426.225z M597.869,494.853l1.5,1.013
	l0.25,0.506C599.914,495.388,598.909,495.164,597.869,494.853L597.869,494.853z M611.633,502.956
	c-0.315-0.845,0.252-0.407-0.75-0.76l-0.25-0.253v0.507C610.966,502.62,611.3,502.788,611.633,502.956z M659.686,499.411
	l-2.503-0.252l-0.25,1.266l-2.503-0.76l-2.25,1.773c2.815,1.08,5.588-0.732,7.257-1.013c-0.505-0.91-0.563-0.37,0.25-1.013
	L659.686,499.411z M849.646,536.638c-0.834-0.675-1.67-1.35-2.503-2.026c-1.25-4.388-2.503-8.778-3.754-13.167
	c-1.18-1.477-1.477-0.83-2.253-2.786h-0.75l0.5,2.026c-5.302-2.15-3.508-8.872-6.758-12.915c-0.31,0.562-1.09-0.68-1.753-1.013
	c-1.8,0.648-8.023-16.396-9.51-15.7l-0.502-1.774c-0.75-0.42-1.502-0.843-2.252-1.265l0.25-1.013l0.5,1.013l0.502-1.013l-0.25-0.76
	l-1.752,0.76c-10.16-12.6-19.17-24.834-27.28-37.733c-3.446-5.48-15.066-17.832-16.268-21.78h-0.25c-0.334,0.084-0.667,0.17-1,0.253
	c3.504,9.088,13.08,18.826,13.764,27.35c-4.506-6.837-9.01-13.676-13.516-20.512l-1,0.254c1,2.026,2,4.052,3.002,6.078
	c-1.26-0.6-0.803-0.722-2.002,0h0.75c0.23,0.962,1.483,0.245,0.752,1.52c-0.88-0.127-0.037-0.12-1,0.252
	c-1.67-2.077-1.888-4.518-3.004-7.09c0,0-1.146,0.178-2.753-0.254h-0.25c2.358,3.844,2.485,5.097,4.754,8.863l0.25-0.76l4.004,8.357
	c9.67,17.232,11.1,28.254,17.02,48.875c-1.153-0.72-1.105-1.618-1.753-2.786l2.002,9.37l-1,10.13
	c-0.335,0.083-0.668,0.168-1.002,0.252c-1.57-1.935-4.734-1.92-7.258-3.545c-4.17-2.687-12.007-6.857-16.518-10.13
	c-19.582-14.204-38.955-29.554-55.062-48.115c3.207-7.85,10.415-15.778,15.517-21.78l1.25-3.29
	c5.065-6.296,9.814-13.064,12.265-21.02l1.752-2.786c0.068-3.342,2.08-8.238,1.25-10.89c-3.083-9.85-7.486-17.402-15.766-25.323
	c-3.45-3.3-8.234-9.224-15.517-10.89c-2.14,3.648,1.618,14.08-1.002,20.767c-5.907,15.073-15.125,31.095-20.773,46.09l-0.25,0.253
	c-7.274-5.893-19.44-43.055-20.022-50.9c-0.403-5.438-6.064-13.183-3.754-18.487c0.743-1.707,10.82-3.898,13.764-5.825
	c8.358-5.47,19.908-18.624,31.034-19.245c1.106-1.127,1.085-1.185,0.25-2.532c23.022-7.747,5.513-29.966-9.01-29.122
	c-14.525,0.845-24.33,3.872-35.54,10.637c-1.57,0.948-1.718,2.922-3.002,4.052l-7.008,4.05c-2.504-1.652-5.273-4.367-7.008-7.343
	l2.252-3.04l0.25-0.505l-1.502,1.52l-0.75-1.773c0.816-0.847,2.2-0.46,1-1.267c6.065-4.48,7.248-4.537,8.51-10.13
	c1.057,0.584,0.28,0.51,1.25,0.253c4.02-2.624,7.888-12.076,12.764-12.662l-1-0.506l7.257-9.876
	c0.878,1.786,6.147-4.697,6.508-5.318l1.752-5.825c5.624-6.36,9.33-13.606,14.266-18.487c3-2.967,3.21-8.986,6.507-11.65
	c0.09-0.072,12.965-4.446,14.266-4.81c4.532-1.272,10.513,6.185,12.263,9.116c3.177,5.322,23.214,27.144,35.54,17.472
	c3.25-2.55,6.334-7.246,8.258-10.636c-0.082-1.35-0.166-2.7-0.25-4.052c-1.284-3.46-2.638-6.036-4.504-9.117
	c-3.094-5.107-18.267-16.31-25.278-19.753c-3.918-1.924-8.606-2.42-12.264-4.812c-3.652-2.39-9.38,0.263-12.764-0.76
	c-0.68-0.14-0.29-0.007-1-0.506c0.21-2.707,7.048-13.485,5.755-18.486c-4.266-16.503-14.57-28.77-24.777-42.797
	c-0.676-0.93-3.44-1.32-4.004-2.026c-2.038-2.547-3.927-5.675-7.258-6.837v0.76l0.5,0.76l-2-1.266l0.75,3.292l-2.753-2.026
	l-0.25,0.253c2.44,5.76-0.3,7.947,0.5,12.915c0.16-0.553,0.654,1.33,0.752,1.773c0.98,4.457,1.168,14.026-0.5,20.26
	c-2.753,10.282-7.094,22.298-10.262,32.92c-12.88,1.1-29.545,4.223-43.298,5.32l2.753-6.08l-5.005,6.585
	c-2.968,1.73-8.563,1.332-11.012,1.773c-9.258,2.28-18.52,4.56-27.78,6.837c-2.62-1.183-4.002-5.964-6.007-8.61
	c-4.856-6.41-18.234-22.425-27.53-23.298v0.253h0.75c-4.057,5.043-0.995,26.99,1.002,34.694c0.545,2.104,2.204,4.067,1,6.078
	c0.44,1.666-13.927,5.452-16.267,6.837c-8.87,5.25-22.06,6.376-33.036,9.37c-6.51-2.424-23.96,1.09-28.53,5.824
	c1.182,5.307,5.566,9.612,9.51,11.65c0.812,0.42,1.83-1.034,2.752-0.254l5.256,5.065c1.605,0.94,4.647,0.923,5.256,1.52
	c5.885,5.762,13.487,6.688,21.273,10.382c21.934,10.404,35.2-1.773,42.546-22.032c0.25-0.084,0.5-0.17,0.75-0.253
	c5.578,6.518,17.345,38.394,35.29,29.376c1.835-1.52,3.67-3.04,5.506-4.558c-1.13-3.533,3.76-8.417,4.255-11.143
	c0.49-2.71-2.096-7.808-1-11.396c1.798-5.893,3.66-27.946,9.51-33.933c3.04-3.114,40.186-8.01,48.052-7.85v0.253
	c-4.335,16.948-12.634,32.032-19.022,46.343c-2.842,6.366-10.256,13.138-11.012,19.246c-0.236,0.446-0.5,0.51,0,0.505
	c-0.675,1.09-0.172,0.556-1.25,0.76c0.463,1.08-0.166,0.3,1,0.76c-2.443,2.313-10.21,12.993-10.01,15.194h-0.502
	c-7.217-4.092-11.306-9.99-20.022-9.877c0,0,5.79,30.005,5.756,30.135l-2.503,2.532h1.25c-1.61,2.642-4.43,2.223-4.003,5.824
	l-0.25,1.013l-1-1.013c-2.29,4.16-6.066,8.398-9.762,11.902l0.5,1.773c-1.85-0.46-1.032-0.118-3.253,0.76l-0.25,1.012v0.253
	l2.503-1.52l-0.25,0.76c0.334,0.17,0.667,0.34,1,0.507l1.252-2.026c0.184-0.894,0.137-0.342-0.75-0.507l1-2.28h1l-0.5,1.266
	c0.334,0.084,0.667,0.17,1,0.253l1.252-1.267l0.25-0.506c1.034,1.985-7.466,8.585-8.26,9.117c2.23,0.555,2.535-1.066,5.007-1.266
	c-0.082-0.422-0.166-0.844-0.25-1.266c1.345,0.558,0.792,0.578,2.254,0.253c-0.477,1.195-0.357,0.83,0,1.773
	c-3.17,1.35-6.34,2.7-9.51,4.052l0.25-1.013c-0.944,0.534-1.28,1.257-2.002,2.532c-6.914,1.3-17.76,9.528-29.783,9.875
	c6.26,12.993,37.953,16.926,54.81,11.65c2.61-0.818,12.397-4.353,15.517-4.053c9.645,19.894,19.198,43.174,29.032,61.79
	c3.6,6.82,13.756,19.445,3.753,22.285l-0.25,0.76c0.584-0.084,1.168-0.17,1.752-0.253c-4.92,4.927-9.95,8.795-16.018,12.662
	c0.82,0.734,0.266-0.016,0.5,1.013c-5.875-0.604-12.28,6.555-17.77,8.356c-2.118,0.695-4.506,0.274-6.757,1.266
	c0.584,0.17,1.168,0.338,1.752,0.506l0.5,0.253c-12.37,1.918-25.33,10.73-38.04,3.04l1.25,2.026c-6.67-2.04-10.4-2.615-16.018-5.57
	h-0.25c1.42,2.027,3.627,3.93,4.755,6.836c-1.526,0.004-0.594,0.39-1.753-0.76l-1,0.76v0.253c3.006,1.343,14.83,9.128,14.765,10.89
	c4.176,3.52,22.657,8.66,29.533,8.61c-0.667-0.254-1.335-0.508-2.002-0.76v-0.254c3.05-0.64,3.61-0.51,5.506,1.014
	c6.947-0.6,12.76-4.18,18.77-6.584c4.893-1.957,8.236,1.87,11.763,0c4.025-2.133,4.847-4.127,8.26-6.078
	c0.75,0.17,1.5,0.338,2.252,0.506c2.92-3.02,7.67-3.21,10.26-5.318l12.765-9.876c3.056,1.25,5.468,6.466,7.76,9.37L725,508.016
	c18.165,17.067,37.627,31.952,60.067,44.064c3.936,2.125,9.673,6.083,13.014,7.344c4.25,1.603,17.213,3.806,19.022,5.57
	c0.397-0.862,2.045-0.605,2.503-0.505c9.44,2.054,16.46-3.648,23.526-7.09c-0.082-1.014-0.166-2.027-0.25-3.04
	c1.936-0.87,8.72-14.262,6.757-17.726L849.646,536.638z M591.111,480.418c1.178,1.25,3.816,2.588,5.256,2.28L591.111,480.418z
	 M598.369,481.685c-1.244-1.086-2.68-1.447-4.755-1.773C595.198,480.504,596.784,481.096,598.369,481.685L598.369,481.685z
	 M601.622,482.192l-0.75-0.252C601.348,482.304,601.264,482.1,601.622,482.192L601.622,482.192z M646.672,473.836
	c-0.25-0.084-0.5-0.17-0.75-0.253l-0.25,0.507c0.333-0.084,0.666-0.17,1-0.253V473.836z M650.426,471.81h-0.75
	C650.299,472.183,649.722,472.074,650.426,471.81z M655.432,469.024h-0.75C654.797,469.121,654.76,469.364,655.432,469.024z
	 M657.934,467.504h0.75l-1-0.505l0.25,0.506V467.504z M664.692,462.187c0.624,0.373,0.047,0.264,0.75,0H664.692z M665.442,461.68
	c0.65-0.233,2.276-1.058,3.505-2.026c-0.25-0.084-0.5-0.17-0.75-0.253c-1.085,0.59-2.17,1.18-3.255,1.772L665.442,461.68
	L665.442,461.68z M597.37,352.026c-0.25-0.17-0.502-0.338-0.752-0.506c0.104,0.633-0.145,0.39,0.75,0.506H597.37z M599.87,350.506
	c0.084,0.338,0.168,0.675,0.25,1.013c0.486-0.922,0.533-0.332-0.25-1.014V350.506z M600.622,348.481l-0.75,0.76
	C600.856,349.643,600.622,348.481,600.622,348.481z M605.127,346.709l0.25-0.253l-1-1.013v1.266H605.127z M763.552,334.299
	l-0.75,0.76l1.25-0.506l-0.5-0.253V334.299z M684.214,275.802l-1.752,2.28v0.253c1.08-0.58,2.743-1.945,1.752-2.532V275.802z
	 M668.447,294.036l-0.75,1.013c1.047-0.397,0.725-0.14,1.25-1.013H668.447z M667.197,295.049l-1.252,1.52l-0.25,1.012l1.25-0.76
	c0.394-0.847,0.82-1.377,0.25-1.773L667.197,295.049z M706.489,335.567c-0.335,0.506-0.668,1.013-1.002,1.52l1.752-1.52H706.489z
	 M699.981,339.872l-0.25,1.013C700.141,340.318,699.905,340.419,699.981,339.872z M783.323,465.985h0.75
	c-0.333-0.17-0.666-0.338-1-0.507L783.323,465.985z M775.563,432.558l0.502,1.013c-0.194-1.347-0.035-1.22-1-1.774
	c0.166,0.253,0.332,0.507,0.5,0.76L775.563,432.558z M605.63,235.283c3.347-3.444,10.21-4.484,12.764-6.584
	c-0.505,2.856-7.817,8.644-11.262,9.622l-1.502-3.04L605.63,235.283z M629.406,337.085c-0.02,0.037-0.478,0.482-1,1.266l1,0.254
	c-4.097,2.825-11.114,7.536-18.02,8.61c1.304-1.374,4.122-3.985,5.506-4.305c-1.194-0.87-1.003-0.33-2.503,0.252
	c0.862-1.28,1.947-2.71,3.504-3.292l0.502-0.506l-1.752,2.026l-0.25,0.253c1.946,0.156,2.322-1.878,5.005-2.532
	c-1.3-2.767,5.74-4.72,6.507-6.836c1.22,0.713,1.824,3.567,1.502,4.81L629.406,337.085z M613.388,336.325l-1.502,1.52l-0.25-0.254
	c0.055-0.677,0.4-0.3-0.25-0.76C612.053,336.664,612.721,336.495,613.388,336.325L613.388,336.325z M620.898,337.591
	c-0.585,0.34-1.17,0.676-1.753,1.014l0.75-1.266c0.334,0.084,0.668,0.17,1.002,0.253L620.898,337.591z M613.138,338.351l0.5-0.505
	c0.694-0.146-0.242,0.476-0.5,0.506V338.351z M777.068,441.674c0.97,0.725,1.207,1.218,2.504,1.773c-0.89,0.367-0.258,0.25-1,0
	c-1.144-0.51-1.102-0.52-1.503-1.773H777.068z M631.908,481.432h1.002c-0.584,0.34-1.168,0.676-1.752,1.014l0.75-1.013V481.432z
	 M663.444,495.362c-0.66,0.255-0.158-0.044-0.5,0.505c-0.585-0.084-1.17-0.17-1.753-0.253l1.5-1.013
	C663.527,495.105,662.951,494.505,663.444,495.362L663.444,495.362z M658.438,496.882c0.167,0.083,0.334,0.168,0.5,0.252
	c-0.333,0.084-0.666,0.17-1,0.253c0.166-0.17,0.333-0.337,0.5-0.506V496.882z"/>
</svg>
