<?xml version="1.0" encoding="iso-8859-1"?>
<!-- Generator: Adobe Illustrator 19.2.1, SVG Export Plug-In . SVG Version: 6.00 Build 0)  -->
<svg version="1.1" xmlns="http://www.w3.org/2000/svg" xmlns:xlink="http://www.w3.org/1999/xlink" x="0px" y="0px"
	 viewBox="0 0 300 25" style="enable-background:new 0 0 300 25;" xml:space="preserve">
<g id="copy01">
	<g>
		<path d="M56.237,10.227c0,1.049,0.025,3.249,0.05,4.249c0.05,1.475,0.05,1.875,2.299,1.925l-0.05,0.475
			c-0.45,0-2.699-0.075-3.224-0.075c-0.925,0-3.024,0.075-3.524,0.075l-0.025-0.45c1.875-0.1,2.224-0.45,2.424-1.05
			c0.375-1.075,0.375-4.949,0.375-6.374c0-2.424-0.05-3.224-0.125-5.249c-0.05-1.675-0.175-2.149-2.524-2.2v-0.5
			c0.475,0,1.1,0.025,1.725,0.075c0.625,0.025,1.25,0.05,1.674,0.05c0.375,0,1.075-0.025,1.775-0.075c0.7-0.025,1.35-0.05,1.6-0.05
			v0.55c-1.4,0-1.8,0.125-2.05,0.575c-0.4,0.775-0.4,4.749-0.4,5.874V10.227z"/>
		<path d="M68.636,7.077c-0.425-0.325-3.299-3.074-3.399-3.125l-0.15,7.473c-0.1,4.524,0.125,4.524,2.824,5.049
			c0,0.2,0,0.25-0.05,0.45c-0.175,0-0.675-0.025-1.175-0.05c-0.5-0.025-1-0.05-1.2-0.05c-0.2,0-0.775,0.025-1.35,0.05
			c-0.575,0.025-1.2,0.1-1.375,0.1c-0.25,0-0.325-0.075-0.325-0.3c0-0.175,0.05-0.25,0.325-0.275c1.225-0.125,1.399-0.45,1.45-4.024
			l0.075-5.824c0.05-3.099,0.075-4.799-2.149-5.049v-0.5c1.15,0.1,1.649,0.1,2.125,0.1l1.05-0.025
			c1.6,2.024,4.499,4.749,5.324,5.548l7.198,6.824c0.1-1.525,0.1-3.074,0.1-4.624v-2.35c0-4.773-0.375-4.799-2.499-5.148l0.125-0.35
			c0.175-0.025,0.4-0.025,0.6-0.025c0.225,0,1.05,0.05,1.65,0.075c0.6,0.025,1.024,0.025,1.174,0.025h1.55l0.025,0.4
			c-1.025,0.15-1.35,0.425-1.5,1.1c-0.35,1.6-0.4,7.373-0.4,9.473c0,1.4,0.025,3.774,0.125,5.099l-0.5-0.025
			c-0.825-1.774-3.999-4.749-5.074-5.749L68.636,7.077z"/>
		<path d="M83.812,3.578c0.475-1.225,0.6-1.6,1.025-2.899c0.275,0.25,0.4,0.4,0.975,0.475c0.575,0.075,1.575,0.1,3.549,0.1h6.173
			c0.45,0,2.524-0.05,2.924-0.05c0.75,0,0.825-0.1,1.05-0.35c0.125,0.175,0.175,0.2,0.325,0.3c-0.275,0.725-0.575,1.95-0.675,2.5
			l-0.525,0.075c0.075-0.475,0.075-0.625,0.1-1.1c-0.375-0.3-1.025-0.649-3.874-0.649c-1.7,0-1.85,0-1.875,0.475
			c-0.025,0.825-0.1,2.024-0.15,3.774c-0.025,0.95-0.05,4.999-0.05,5.823c0,4.199,0,4.199,1.949,4.449c0.5,0.05,0.55,0.05,0.55,0.15
			c0,0.025,0,0.25-0.025,0.3c-0.175,0.025-0.325,0.025-0.475,0.025c-0.175,0-0.725-0.05-1.3-0.075c-0.55-0.05-1.1-0.075-1.325-0.075
			c-0.525,0-1.175,0-2.6,0.225c-0.625,0.1-0.7,0.125-0.85,0.125c-0.275,0-0.325-0.125-0.425-0.4c0.225-0.075,0.35-0.1,0.75-0.2
			c1.725-0.4,1.8-0.55,1.8-1.475c0-0.075,0.075-1.175,0.1-1.375c0-0.275,0.075-2.699,0.075-5.174c0-4.474,0-5.674-0.3-6.448
			c-0.525-0.05-1.15-0.1-2.299-0.1c-3.474,0-3.674,0.475-4.174,1.674L83.812,3.578z"/>
		<path d="M109.186,9.352c-0.95,0-1.775-0.025-2.674-0.15l-0.025,2.924c0,0.825,0.025,3.049,0.3,3.699
			c0.2,0.425,0.3,0.475,1.399,0.774c0.225,0.075,0.275,0.075,0.275,0.175c0,0.1-0.025,0.25-0.175,0.25c-0.1,0-0.525-0.05-1.025-0.1
			c-0.525-0.05-1.075-0.1-1.274-0.1c-0.575,0-1.175,0.025-1.65,0.075c-0.5,0.025-0.875,0.075-1,0.075c-0.15,0-0.25-0.05-0.25-0.175
			c0-0.175,0.05-0.2,0.5-0.325c0.975-0.275,1.25-0.525,1.274-4.424V6.652c0.025-4.824-0.075-4.849-1.75-5.074
			c0.025-0.2,0.025-0.275,0.05-0.4c0.649,0.025,1.2,0.025,1.649,0.025c0.625,0,3.749-0.3,4.449-0.3c3.549,0,5.424,2.125,5.424,4.174
			c0,1.549-1.025,3.174-3.399,4.049l0.55,0.825c2.299,3.475,4.624,6.974,7.098,7.148c0.15,0.025,0.225,0.075,0.225,0.25
			c0,0.125,0,0.225-0.625,0.225c-3.349,0-5.824-3.174-7.948-6.224L109.186,9.352z M108.861,1.429c-0.525,0-1.824,0.125-2,0.575
			c-0.275,0.6-0.275,4.349-0.275,6.499c0.3,0.075,0.825,0.2,1.975,0.2c0.825,0,4.274,0,4.274-3.324
			C112.835,3.953,111.686,1.429,108.861,1.429z"/>
		<path d="M128.961,0.779c3.924,0,8.048,3.174,8.048,8.123c0,4.424-3.499,8.223-8.473,8.223c-5.249,0-8.023-4.624-8.023-8.173
			C120.513,4.403,124.512,0.779,128.961,0.779z M129.586,16.25c2.599,0,5.574-1.9,5.574-6.374c0-4.574-3.149-8.248-6.974-8.248
			c-3.024,0-5.849,2.324-5.849,6.398C122.337,12.401,125.712,16.25,129.586,16.25z"/>
		<path d="M148.286,16.825c-0.5,0-2.574-0.05-2.999-0.05c-0.675,0-3.674,0.05-4.299,0.05v-0.45c0.75,0,1.35-0.1,1.575-0.575
			c0.3-0.675,0.3-4.898,0.3-6.073c0-4.224-0.05-6.923-0.425-7.548c-0.2-0.3-0.7-0.45-1.325-0.425l-0.025-0.45
			c1.825,0,3.674-0.05,5.499-0.275c0.65-0.075,1.024-0.1,1.725-0.1c4.799,0,9.198,2.949,9.198,7.898
			C157.509,13.326,153.885,16.825,148.286,16.825z M147.986,1.503c-1.05,0-2.224,0.2-3.174,0.625c-0.2,1.05-0.25,8.048-0.25,9.922
			c0,0.5,0.075,2.975,0.075,3.524c1.3,0.425,2.049,0.7,3.549,0.7c5.374,0,7.198-3.999,7.198-7.423
			C155.385,3.978,151.386,1.503,147.986,1.503z"/>
		<path d="M161.538,1.179c0.575,0.025,1.175,0.025,1.75,0.025c2.05,0,2.075,0,4.074-0.1l0.125,0.4c-1.6,0.2-1.899,0.475-2.1,0.875
			c-0.375,0.675-0.375,4.599-0.375,5.724c0,2.299,0.025,4.024,0.25,5.099c0.625,2.899,4.099,3.049,4.874,3.049
			c1.175,0,4.449-0.4,5.174-2.575c0.625-1.799,0.675-5.624,0.675-7.673c0-4.374-0.475-4.374-2.149-4.374l-0.05-0.425
			c0.375-0.05,0.975-0.075,1.225-0.075c0.9,0,2.625,0,3.524,0.025v0.5c-1.6,0.075-1.6,0.225-1.625,2.325
			c-0.1,6.198-0.325,9.073-1.1,10.547c-1.25,2.324-4.999,2.549-6.323,2.549c-3.024,0-6.199-1.25-6.199-5.099
			c0-0.85,0.05-4.524,0.05-5.324c0-1.85-0.05-3.599-0.325-4.499c-0.125-0.375-0.15-0.375-1.524-0.525L161.538,1.179z"/>
		<path d="M195.609,16.175C194.359,16.55,192.76,17,190.885,17c-4.049,0-8.373-2.824-8.373-8.173c0-5.699,4.824-8.048,8.848-8.048
			c1.575,0,2.825,0.425,3.274,0.6c0.225,0.075,0.65,0.225,1.1,0.225c0.075,0,0.375-0.075,0.45-0.075c0.1,0,0.15,0.1,0.15,0.1
			c0,0.025-0.125,0.65-0.175,0.7c-0.2,0.7-0.35,1.55-0.45,2.325c-0.325-0.05-0.375-0.2-0.375-0.525c0-0.675-0.1-0.9-0.2-1.05
			c-0.4-0.625-2.375-1.649-4.299-1.649c-3.474,0-6.248,2.674-6.248,7.373c0,6.023,4.849,7.648,6.723,7.648
			c2.75,0,3.674-1.45,4.499-2.924c0.15-0.275,0.2-0.35,0.325-0.35c0.1,0,0.225,0.05,0.225,0.225c0,0.2-0.175,0.8-0.225,0.975
			L195.609,16.175z"/>
		<path d="M204.386,10.227c0,1.049,0.025,3.249,0.05,4.249c0.05,1.475,0.05,1.875,2.299,1.925l-0.05,0.475
			c-0.45,0-2.699-0.075-3.224-0.075c-0.925,0-3.024,0.075-3.524,0.075l-0.025-0.45c1.875-0.1,2.224-0.45,2.424-1.05
			c0.375-1.075,0.375-4.949,0.375-6.374c0-2.424-0.05-3.224-0.125-5.249c-0.05-1.675-0.175-2.149-2.524-2.2v-0.5
			c0.475,0,1.1,0.025,1.725,0.075c0.625,0.025,1.25,0.05,1.674,0.05c0.375,0,1.075-0.025,1.775-0.075c0.7-0.025,1.35-0.05,1.6-0.05
			v0.55c-1.4,0-1.8,0.125-2.05,0.575c-0.4,0.775-0.4,4.749-0.4,5.874V10.227z"/>
		<path d="M216.785,7.077c-0.425-0.325-3.299-3.074-3.399-3.125l-0.15,7.473c-0.1,4.524,0.125,4.524,2.824,5.049
			c0,0.2,0,0.25-0.05,0.45c-0.175,0-0.675-0.025-1.175-0.05c-0.5-0.025-1-0.05-1.2-0.05c-0.2,0-0.775,0.025-1.35,0.05
			c-0.575,0.025-1.2,0.1-1.375,0.1c-0.25,0-0.325-0.075-0.325-0.3c0-0.175,0.05-0.25,0.325-0.275c1.225-0.125,1.399-0.45,1.45-4.024
			l0.075-5.824c0.05-3.099,0.075-4.799-2.149-5.049v-0.5c1.15,0.1,1.649,0.1,2.125,0.1l1.05-0.025
			c1.6,2.024,4.499,4.749,5.324,5.548l7.198,6.824c0.1-1.525,0.1-3.074,0.1-4.624v-2.35c0-4.773-0.375-4.799-2.5-5.148l0.125-0.35
			c0.175-0.025,0.4-0.025,0.6-0.025c0.225,0,1.05,0.05,1.65,0.075c0.6,0.025,1.024,0.025,1.174,0.025h1.55l0.025,0.4
			c-1.024,0.15-1.35,0.425-1.5,1.1c-0.35,1.6-0.4,7.373-0.4,9.473c0,1.4,0.025,3.774,0.125,5.099l-0.5-0.025
			c-0.825-1.774-3.999-4.749-5.074-5.749L216.785,7.077z"/>
		<path d="M248.258,9.526c-0.5,0.175-0.7,0.225-0.825,0.575c-0.1,0.3-0.125,0.649-0.125,3.249c0,2.125,0.15,2.25,0.55,2.574
			l-0.125,0.275c-0.275,0.025-1.45,0.275-1.7,0.325C243.684,16.95,242.459,17,241.36,17c-6.273,0-8.773-4.349-8.773-7.998
			c0-5.224,4.574-8.123,9.298-8.123c1.574,0,2.849,0.4,2.974,0.425c0.1,0.05,0.575,0.225,0.675,0.225c0.125,0,0.6-0.55,0.75-0.55
			c0.175,0,0.175,0.175,0.175,0.475c0,0.875,0.325,2.224,0.325,3.099c0,0.1-0.025,0.175-0.15,0.175c-0.1,0-0.15-0.025-0.25-0.275
			c-0.575-1.274-2.099-2.899-5.074-2.899c-4.274,0-6.798,3.625-6.798,7.148c0,3.249,2.549,7.648,7.249,7.648
			c2.074,0,3.349-0.8,3.624-1.149c0.15-0.2,0.2-0.25,0.2-2.424c0-2.75-0.075-3.049-2.224-3.049c-0.325,0-0.625,0.025-0.775,0.05
			l0.05-0.525c2.6-0.025,3.999-0.025,5.624-0.175V9.526z"/>
	</g>
</g>
<g id="Layer_1">
</g>
</svg>
