<?xml version="1.0" encoding="iso-8859-1"?>
<!-- Generator: Adobe Illustrator 19.0.0, SVG Export Plug-In . SVG Version: 6.00 Build 0)  -->
<svg version="1.1" xmlns="http://www.w3.org/2000/svg" xmlns:xlink="http://www.w3.org/1999/xlink" x="0px" y="0px"
	 viewBox="0 0 100 25" style="enable-background:new 0 0 100 25;" xml:space="preserve">
<g id="cta_x5F_12_x5F_5pt">
	<rect id="XMLID_1_" style="fill:#C41230;" width="100" height="25"/>
	<g id="XMLID_27_">
		<path id="XMLID_28_" style="fill:#FFFFFF;" d="M13.056,11.969L9.15,15.875V8.062L13.056,11.969z"/>
		<path id="XMLID_30_" style="fill:#FFFFFF;" d="M18.75,13.738c0.137,0.612,0.312,1.012,1.225,1.437
			c0.537,0.238,1.212,0.4,1.725,0.4c0.3,0,1.237-0.088,1.237-1.287c0-1.025-0.875-1.399-2-1.787c-1.125-0.4-2.074-0.912-2.074-2.25
			c0-1.3,1.075-2.225,2.612-2.225c0.275,0,1.524,0.15,1.725,0.15c0.125,0,0.262-0.025,0.35-0.087l0.212,0.05
			c-0.013,0.088-0.05,0.7-0.05,0.725c0,0.112,0.025,0.7,0.025,0.725v0.375h-0.262c-0.288-1.6-1.975-1.6-2.137-1.6
			c-1.149,0-1.424,0.812-1.424,1.362c0,0.637,0.25,1.087,1.75,1.612c1.012,0.375,2.387,0.887,2.387,2.462
			c0,0.824-0.45,2.187-2.849,2.187c-0.625,0-1.188-0.075-1.787-0.2c-0.025,0-0.112-0.024-0.15-0.024
			c-0.112,0-0.125,0.062-0.125,0.112H18.8c-0.038-0.675-0.112-1.075-0.35-2.062L18.75,13.738z"/>
		<path id="XMLID_32_" style="fill:#FFFFFF;" d="M28.037,13.626c0,0.287,0,1.387,0.075,1.562c0.125,0.287,0.512,0.375,0.862,0.45
			v0.287c-0.325-0.013-1.887-0.062-2.049-0.062c-0.325,0-0.725,0.025-1.087,0.062l-0.112-0.287c0.812-0.125,0.85-0.3,0.887-0.55
			c0.15-0.987,0.2-3.374,0.2-4.512c0-2.049-0.112-2.199-0.875-2.199l0.025-0.325c0.137-0.025,0.287-0.025,0.45-0.025
			c0.125,0,0.587,0,1.05,0.013c0.475,0.012,0.95,0.038,1.125,0.038h0.562v0.3c-0.112,0.025-0.6,0.112-0.7,0.15
			c-0.138,0.05-0.2,0.125-0.263,0.587c-0.112,0.85-0.137,1.325-0.125,2.462c0.862,0.013,2.912,0.037,3.786,0.037
			c0.438,0,0.562-0.013,0.825-0.05c0-0.325,0.012-0.675,0.012-1.2c0-1.787-0.062-1.887-1-2.049l0.062-0.288
			c0.175,0.013,0.362,0.025,0.612,0.05c0.262,0.012,0.575,0.025,0.987,0.025c0.825,0,1.175-0.05,1.462-0.075v0.288
			c-0.3,0.038-0.575,0.087-0.687,0.438c-0.163,0.5-0.175,4.211-0.175,5.011c0,1.588,0.087,1.8,0.862,1.875l-0.025,0.287
			c-0.312-0.037-0.812-0.062-1.575-0.062c-0.487,0-0.937,0.025-1.462,0.062v-0.287c0.5-0.038,0.687-0.188,0.775-0.475
			c0.15-0.513,0.15-1.838,0.15-2.962c-0.962-0.05-4.437-0.062-4.611-0.062L28.037,13.626z"/>
		<path id="XMLID_34_" style="fill:#FFFFFF;" d="M41.024,7.952c2.287,0,4.124,1.774,4.124,4.049c0,2.1-1.65,4.074-4.199,4.074
			c-2.637,0-4.199-1.95-4.199-4.137C36.75,9.501,38.849,7.952,41.024,7.952z M41.224,15.625c0.8,0,2.475-0.487,2.475-2.799
			c0-1.625-0.788-4.387-3.024-4.387c-0.6,0-2.462,0.275-2.462,2.824C38.212,13.325,39.199,15.625,41.224,15.625z"/>
		<path id="XMLID_37_" style="fill:#FFFFFF;" d="M49.2,14.013c0.012,0.513,0.024,1.05,0.074,1.2
			c0.101,0.274,0.601,0.375,1.101,0.375v0.337c-0.213-0.013-0.4-0.037-0.65-0.05c-0.263-0.013-0.575-0.013-1.062-0.013
			s-0.975,0.062-1.262,0.062h-0.3v-0.287c0.712-0.2,0.737-0.3,0.774-0.425c0.088-0.312,0.088-1.75,0.088-2.199
			c0-0.538-0.013-0.75-0.05-2.712c-0.038-1.875-0.101-1.887-0.925-1.937c-0.013-0.163-0.013-0.3,0-0.375
			c0.188,0.025,1.124,0.038,1.574,0.038c0.213,0,0.425-0.012,0.625-0.025c0.212-0.013,0.425-0.025,0.625-0.025
			c2.012,0,3.349,1.274,3.349,2.587c0,0.825-0.725,2.524-3.462,2.524c-0.187,0-0.362,0-0.512-0.012L49.2,14.013z M49.925,8.402
			c-0.312,0-0.513,0.075-0.662,0.137c-0.088,1.962-0.088,2.162-0.075,4.012c0.188,0.037,0.449,0.112,0.787,0.112
			c0.25,0,1.712-0.024,1.712-2.012C51.687,8.939,50.712,8.402,49.925,8.402z"/>
		<path id="XMLID_58_" style="fill:#FFFFFF;" d="M66.822,13.713c0-0.388,0.038-2.149,0.038-2.499c0-2.662-0.101-2.787-1.274-2.899
			l0.112-0.275c0.075-0.013,0.188-0.025,0.312-0.025c0.1,0,0.375,0.012,0.662,0.037c0.287,0.038,0.587,0.05,0.688,0.05
			c0.062,0,0.862-0.013,1.024-0.013v0.312C68.21,8.389,67.86,8.389,67.71,8.677c-0.237,0.45-0.263,2.574-0.263,3.236
			c-0.012,0.425-0.037,2.287-0.037,2.662c0,0.138,0.025,0.65,0.037,1l0.025,0.475h-0.375c-0.425-0.8-1.087-1.449-1.75-2.074
			l-3.836-3.687c-0.163-0.163-0.351-0.35-0.513-0.475c-0.013,0.25-0.037,0.825-0.037,1.075l-0.05,2.887
			c-0.013,1.162-0.013,1.612,1.374,1.824c0.038,0.15,0.013,0.25,0,0.338c-0.162-0.013-0.312-0.037-0.5-0.062
			c-0.175-0.013-0.387-0.025-0.687-0.025c-0.275,0-1.487,0.075-1.737,0.088c-0.013-0.138-0.013-0.175,0-0.338
			c0.787-0.012,0.862-0.449,0.887-1.512l0.062-3.662c0.025-1.037,0.013-1.887-1.05-2.049c-0.012-0.138-0.012-0.188,0-0.375
			c0.062,0,0.325,0.025,0.588,0.038c0.263,0.012,0.537,0.025,0.637,0.025h0.588c0.774,0.887,0.812,0.925,2.924,2.949
			c0.575,0.575,1.15,1.138,1.75,1.688L66.822,13.713z"/>
		<path id="XMLID_60_" style="fill:#FFFFFF;" d="M74.411,7.952c2.287,0,4.124,1.774,4.124,4.049c0,2.1-1.649,4.074-4.199,4.074
			c-2.637,0-4.199-1.95-4.199-4.137C70.137,9.501,72.236,7.952,74.411,7.952z M74.611,15.625c0.8,0,2.474-0.487,2.474-2.799
			c0-1.625-0.787-4.387-3.023-4.387c-0.601,0-2.462,0.275-2.462,2.824C71.6,13.325,72.586,15.625,74.611,15.625z"/>
		<path id="XMLID_87_" style="fill:#FFFFFF;" d="M91.623,8.364c-0.663,0.125-0.851,0.3-1.112,0.75
			c-0.45,0.775-2.225,5.961-2.712,7.048h-0.263c-0.05-0.137-0.162-0.449-0.2-0.562c-0.487-1.499-1.05-2.999-1.612-4.498
			c-1.499,3.236-1.736,3.961-2.062,5.061h-0.287c-0.312-0.625-2.175-6.923-2.899-7.51c-0.275-0.225-0.45-0.263-0.875-0.275V8.064
			c0.237,0,0.587,0.013,0.938,0.025c0.35,0.013,0.699,0.013,0.912,0.013c0.138,0,0.5,0,0.862-0.013c0.35,0,0.712,0,0.824,0
			l0.038,0.337c-0.95,0.15-0.95,0.263-0.95,0.5c0,0.3,1.162,3.499,1.75,5.023c0.575-1.362,0.824-1.937,1.512-3.486
			c-0.737-1.862-0.812-1.962-1.512-2.024l-0.025-0.337h1c0.975,0,1.975-0.013,2.324-0.025l0.025,0.312
			c-0.713,0.113-0.9,0.2-0.9,0.475c0,0.6,1.463,4.461,1.737,5.124c0.588-1.513,1.6-4.287,1.6-4.887c0-0.7-0.75-0.7-1.112-0.7
			l-0.074-0.325c0.487,0.012,1.062,0.012,1.611,0.012c0.562,0,1.1-0.038,1.5-0.062L91.623,8.364z"/>
	</g>
</g>
<g id="Layer_1">
</g>
</svg>
