<?xml version="1.0" encoding="iso-8859-1"?>
<!-- Generator: Adobe Illustrator 19.2.1, SVG Export Plug-In . SVG Version: 6.00 Build 0)  -->
<svg version="1.1" xmlns="http://www.w3.org/2000/svg" xmlns:xlink="http://www.w3.org/1999/xlink" x="0px" y="0px"
	 viewBox="0 0 100 30" style="enable-background:new 0 0 100 30;" xml:space="preserve">
<g id="LOGO_x5F_JV">
	<g>
		<path style="fill:#D91925;" d="M2.011,0.929c0.365,0,0.63,0.267,0.63,0.599c0,0.35-0.348,0.682-0.73,0.682
			c-0.333,0-0.598-0.232-0.598-0.565C1.313,1.214,1.645,0.929,2.011,0.929 M0.067,5.883C0.582,5.684,1.463,5.318,2.36,4.552
			C2.393,4.586,2.442,4.637,2.493,4.67C2.294,5.302,2.294,6.183,2.294,6.597v2.544l0.033,2.792c0.016,1.446,0.016,1.795-1.463,2.991
			c-0.499,0.399-0.515,0.548-0.582,0.947c0,0-0.017,0-0.033,0.017L0,15.655c0.016-0.582,0.332-0.979,0.615-1.362
			c0.732-0.964,0.732-1.496,0.732-3.689c0-0.881,0-3.142-0.149-3.889C1.114,6.349,0.997,6.05,0.615,6.05
			c-0.149,0-0.299,0.049-0.432,0.083L0.067,5.883z"/>
		<path style="fill:#D91925;" d="M8.842,10.919c1.113,0,2.044-0.982,2.044-2.51c0-1.48-1.03-3.025-2.443-3.025
			c-1.113,0-1.928,0.981-1.928,2.327C6.515,9.207,7.479,10.919,8.842,10.919 M8.842,5.002c1.695,0,3.141,1.331,3.141,3.076
			c0,1.661-1.246,3.223-3.224,3.223c-1.296,0-3.307-0.798-3.307-3.125C5.451,6.249,6.997,5.002,8.842,5.002"/>
		<path style="fill:#D91925;" d="M16.237,8.958c0,0.167-0.016,0.417-0.016,0.681c0,0.4,0.016,0.815,0.099,1.014
			c0.05,0.167,0.066,0.216,1.014,0.299v0.283c-0.267-0.033-0.383-0.033-1.13-0.033c-0.864,0-1.313,0.033-1.945,0.082l0.016-0.266
			c0.931-0.199,0.947-0.199,0.997-1.662c0.034-1.477,0.05-1.778,0.068-2.177l0.033-2.277c0.017-0.35,0.017-0.947,0.017-1.545
			c0-1.113,0-2.142-0.549-2.142c-0.133,0-0.399,0.099-0.515,0.132V1.029c0.017,0,0.233-0.115,0.233-0.115l1.579-0.765L16.404,0
			l0.266,0.133c-0.201,0.948-0.266,2.027-0.316,4.105l-0.05,1.645c0.914-0.382,1.862-0.798,2.71-0.798
			c1.661,0,1.661,1.779,1.661,3.441c0,0.299-0.05,1.629-0.05,1.894c0,0.499,0.116,0.499,1.113,0.549l-0.016,0.248h-1.613
			c-0.415,0-0.848,0.067-1.213,0.084l-0.016-0.183c0.066-0.016,0.099-0.033,0.198-0.067c0.499-0.183,0.616-0.382,0.616-2.344
			c0-1.845-0.117-2.975-1.446-2.975c-0.715,0-1.629,0.366-1.911,0.499c0,0.166-0.017,0.232-0.033,0.764L16.237,8.958z"/>
		<path style="fill:#D91925;" d="M26.391,8.584c-0.017,1.263-0.017,1.396,0.033,1.828c0.033,0.316,0.051,0.482,1.064,0.599
			l-0.017,0.25c-0.298-0.033-0.896-0.052-1.361-0.052h-1.778l-0.018-0.265c0.915-0.167,0.948-0.349,0.998-0.682
			c0.099-0.631,0.117-1.961,0.117-2.409c0-1.762-0.083-1.762-1.064-1.862c0-0.049,0-0.099-0.017-0.149
			c0.565-0.15,1.529-0.614,1.546-0.632c0.017-0.016,0.299-0.166,0.366-0.166c0.183,0,0.183,0.433,0.183,1.014
			c1.063-0.598,1.844-0.931,2.575-0.931c1.679,0,1.679,1.28,1.679,2.493v1.928c0,0.465,0,1.147,0.101,1.246
			c0.099,0.1,0.73,0.199,0.829,0.25l0.017,0.25c-0.2-0.033-0.549-0.084-1.412-0.084c-0.682,0-1.314,0.052-1.63,0.084V11.06
			c0.582-0.116,0.797-0.266,0.915-0.465c0.182-0.382,0.216-2.144,0.216-2.477c0-1.063,0-2.293-1.263-2.293
			c-0.066,0-0.898,0-2.027,0.582L26.391,8.584z"/>
		<path style="fill:#D91925;" d="M42.629,5.468c-0.847,0.083-0.882,0.166-0.882,0.332c0,0.615,0.932,3.24,1.265,3.956
			c0.73-1.197,1.479-3.091,1.479-3.69c0-0.548-0.482-0.582-0.864-0.598l0.032-0.267l0.565-0.016c0.018,0,0.167,0.016,0.333,0.016
			c0.183,0.017,0.366,0.033,0.433,0.033c0.299,0,0.615-0.033,0.931-0.099v0.249c-0.583,0.249-0.814,0.798-1.314,1.928l-1.463,3.225
			c-0.066,0.15-0.283,0.68-0.414,1.031h-0.25c-0.315-1.33-1.246-3.789-1.945-5.402c-0.183-0.415-0.249-0.449-0.814-0.731v-0.2
			c0.914,0.05,2.062,0.017,2.943-0.049L42.629,5.468z"/>
		<path style="fill:#D91925;" d="M49.993,10.835c0.399,0,1.03-0.315,1.578-0.581c-0.033-0.382,0.033-1.247,0.05-1.529
			c-1.48-0.1-2.377,0.465-2.377,1.097C49.244,10.238,49.476,10.835,49.993,10.835 M48.646,6.864
			c-0.034-0.133-0.067-0.266-0.067-0.383c0-0.913,2.126-1.561,2.543-1.561c0.332,0,0.864,0.399,1.063,0.582
			c0.216,0.216,0.498,0.515,0.498,1.695c0,0.366-0.016,0.717-0.033,1.08l-0.033,0.616c-0.032,0.432-0.032,0.498-0.032,0.697
			c0,0.117,0,1.098,0.448,1.098c0.335,0,0.698-0.166,0.848-0.232v0.331l-1.197,0.483c-0.149,0.067-0.315,0.116-0.398,0.116
			c-0.267,0-0.549-0.431-0.665-0.83c-0.366,0.199-1.463,0.83-2.31,0.83c-0.998,0-0.998-0.88-0.998-1.146
			c0-0.798,0.183-1.047,0.565-1.246c0.964-0.482,2.244-0.648,2.725-0.715l0.035-0.997c0.033-0.798-0.068-1.013-0.318-1.28
			c-0.315-0.299-0.715-0.482-0.996-0.482c-0.267,0-0.765,0.166-0.765,0.548c0,0.1,0.033,0.216,0.082,0.349L48.646,6.864z"/>
		<path style="fill:#D91925;" d="M58.666,4.744C58.7,5.243,58.7,5.326,58.7,6.125l0.982-0.565c0.166-0.099,0.598-0.35,1.032-0.632
			c0.066,0.051,0.116,0.083,0.182,0.116c0.232,0.117,0.515,0.251,0.515,0.681c0,0.466-0.449,0.715-0.882,0.765
			c0-0.382-0.2-0.565-0.496-0.565c-0.384,0-0.867,0.316-1.082,0.499c-0.266,0.233-0.266,0.233-0.283,0.881
			c0,0.199-0.049,1.113-0.049,1.445c0,0.415,0.034,1.662,0.167,1.961c0.084,0.183,0.216,0.183,0.465,0.183h0.217l0.963-0.017
			l-0.016,0.351l-3.757,0.099l0.017-0.251c0.832-0.149,1.015-0.183,1.015-3.29c0-1.198-0.05-1.63-0.63-1.63
			c-0.119,0-0.385,0.034-0.518,0.067l0.033-0.266L58.666,4.744z"/>
		<path style="fill:#D91925;" d="M66.645,5.468c-0.847,0.083-0.88,0.166-0.88,0.332c0,0.615,0.93,3.24,1.261,3.956
			c0.732-1.197,1.481-3.091,1.481-3.69c0-0.548-0.482-0.582-0.865-0.598l0.033-0.267l0.566-0.016c0.017,0,0.166,0.016,0.333,0.016
			c0.181,0.017,0.364,0.033,0.43,0.033c0.3,0,0.617-0.033,0.93-0.099v0.249c-0.582,0.249-0.813,0.798-1.312,1.928l-1.464,3.225
			c-0.066,0.15-0.282,0.68-0.414,1.031h-0.249c-0.315-1.33-1.247-3.789-1.946-5.402c-0.182-0.415-0.248-0.449-0.813-0.731v-0.2
			c0.914,0.05,2.061,0.017,2.942-0.049L66.645,5.468z"/>
		<path style="fill:#D91925;" d="M73.908,10.835c0.398,0,1.03-0.315,1.578-0.581c-0.032-0.382,0.034-1.247,0.05-1.529
			c-1.479-0.1-2.377,0.465-2.377,1.097C73.158,10.238,73.392,10.835,73.908,10.835 M72.561,6.864
			c-0.033-0.133-0.067-0.266-0.067-0.383c0-0.913,2.127-1.561,2.541-1.561c0.334,0,0.867,0.399,1.065,0.582
			c0.217,0.216,0.498,0.515,0.498,1.695c0,0.366-0.015,0.717-0.032,1.08l-0.034,0.616c-0.033,0.432-0.033,0.498-0.033,0.697
			c0,0.117,0,1.098,0.448,1.098c0.332,0,0.698-0.166,0.848-0.232v0.331l-1.198,0.483c-0.148,0.067-0.314,0.116-0.398,0.116
			c-0.266,0-0.548-0.431-0.665-0.83c-0.364,0.199-1.461,0.83-2.31,0.83c-0.998,0-0.998-0.88-0.998-1.146
			c0-0.798,0.183-1.047,0.565-1.246c0.964-0.482,2.242-0.648,2.726-0.715l0.033-0.997c0.033-0.798-0.067-1.013-0.316-1.28
			C74.923,5.7,74.523,5.518,74.24,5.518c-0.265,0-0.764,0.166-0.764,0.548c0,0.1,0.032,0.216,0.082,0.349L72.561,6.864z"/>
		<path style="fill:#D91925;" d="M81.054,5.734c-0.249-0.033-0.382-0.05-0.864-0.05l0.016-0.199
			c0.998-0.615,1.379-1.047,2.044-1.928l-0.083,1.463c0.35,0.033,0.764,0.065,1.53,0.065c0.282,0,0.398,0,0.863-0.016l-0.017,0.499
			c-0.281,0.033-0.581,0.05-0.863,0.05c-0.184,0-1.014-0.05-1.18-0.05c-0.401,0-0.384,0.099-0.401,0.93l-0.033,2.527
			c-0.017,0.664-0.017,1.678,1.048,1.678c0.448,0,1.079-0.249,1.563-0.465l0.033,0.167c-0.367,0.399-1.58,0.912-2.411,0.912
			c-0.565,0-1.28-0.298-1.28-1.61V8.892L81.054,5.734z"/>
		<path style="fill:#D91925;" d="M89.994,10.919c1.115,0,2.045-0.982,2.045-2.51c0-1.48-1.03-3.025-2.443-3.025
			c-1.114,0-1.928,0.981-1.928,2.327C87.668,9.207,88.631,10.919,89.994,10.919 M89.994,5.002c1.696,0,3.142,1.331,3.142,3.076
			c0,1.661-1.246,3.223-3.225,3.223c-1.295,0-3.307-0.798-3.307-3.125C86.605,6.249,88.15,5.002,89.994,5.002"/>
		<path style="fill:#D91925;" d="M95.978,9.407c0,0.248,0.765,1.413,1.945,1.413c0.232,0,1.146-0.017,1.146-0.864
			c0-0.88-0.947-1.33-1.296-1.513L97.158,8.16c-0.499-0.248-1.163-0.632-1.163-1.363c0-0.731,0.798-1.728,2.194-1.728
			c0.282,0,0.633,0.033,1.298,0.116l0.263,1.38h-0.281c-0.151-0.566-1.048-1.147-1.563-1.147c-0.58,0-0.965,0.382-0.965,0.948
			c0,0.465,0.267,0.681,0.931,0.997l0.5,0.233C98.92,7.861,100,8.376,100,9.523c0,0.316-0.116,0.848-0.465,1.064
			c-0.982,0.615-1.513,0.681-2.011,0.681c-0.649,0-1.196-0.183-1.694-0.333c0.034-0.166,0.067-0.299,0.067-0.465
			c0-0.233-0.117-0.815-0.2-1.08L95.978,9.407z"/>
	</g>
</g>
<g id="Layer_1">
</g>
</svg>
