<svg xmlns="http://www.w3.org/2000/svg" viewBox="0 0 110 10" enable-background="new 0 0 110 10"><g><path d="M4.27 7.496h-.51l.76-2.13H2.843l-.76 2.13h-.51l.76-2.13h-1.27l.16-.5h1.29L3.04 3.4H1.76l.17-.5h1.29l.65-1.79h.51l-.65 1.79h1.68l.65-1.79h.51L5.92 2.9h1.3l-.17.5H5.74l-.53 1.47h1.3l-.17.5H5.03l-.76 2.128zm.96-4.098H3.553l-.53 1.47h1.68l.53-1.47zM15.07 7.496H8.69V0h6.157v.88H9.57v2.29h2.78v.878H9.57v2.57h5.497v.878zM22.37 7.496h-1.04l-.66-1.21h-3.158l-.64 1.21h-1L18.67 2.32h.88l2.82 5.176zM19.1 3.31l-1.128 2.098h2.26l-1.13-2.1zM25.952 7.496h-.88V3.198h-1.998v-.88h4.857v.88h-1.978v4.298zM33.54 0C36.1 0 37 2.41 37 3.748s-.72 3.748-3.46 3.748h-3.677V0h3.678zm0 6.617c1.71 0 2.58-1.67 2.58-2.87 0-1.218-.87-2.867-2.58-2.867h-2.797v5.737h2.798zM43.64 7.496h-4.657V2.32h4.557v.878h-3.678v1.19h2.02v.878h-2.02v1.35h3.778v.88zM49.85 3.638c-.43-.24-1-.6-2.14-.6-.958 0-1.448.25-1.448.69 0 .5.18.66 1.67.66 2.338 0 2.607.71 2.607 1.518 0 1.49-1.39 1.75-2.55 1.75-1.768 0-2.698-.64-3.038-.88l.42-.77c.6.36 1.18.77 2.64.77.928 0 1.578-.2 1.578-.78 0-.66-.34-.68-2.28-.73-1.178-.02-1.998-.358-1.998-1.438 0-.87.65-1.67 2.39-1.67 1.258 0 2.208.51 2.558.69l-.41.79zM56.6 3.638c-.43-.24-1-.6-2.14-.6-.96 0-1.45.25-1.45.69 0 .5.182.66 1.67.66 2.34 0 2.61.71 2.61 1.518 0 1.49-1.39 1.75-2.55 1.75-1.77 0-2.698-.64-3.038-.88l.42-.77c.6.36 1.18.77 2.638.77.93 0 1.58-.2 1.58-.78 0-.66-.34-.68-2.28-.73-1.18-.02-1.998-.358-1.998-1.438 0-.87.65-1.67 2.39-1.67 1.26 0 2.208.51 2.558.69l-.41.79zM63.89 7.496H59.23V2.32h4.558v.878h-3.68v1.19h2.02v.878h-2.02v1.35h3.78v.88zM71.258 7.496h-1.1l-1.49-2.12H66.85v2.12h-.88V2.32h3.2c1.038 0 1.968.35 1.968 1.488 0 1.15-.78 1.45-1.39 1.55l1.51 2.138zm-2-2.998c.58 0 1-.16 1-.67 0-.58-.38-.63-1.05-.63H66.85v1.3h2.41zM75.24 7.496h-.88V3.198h-1.998v-.88h4.856v.88H75.24v4.298zM80.1 7.496h-.88V0h6.158v.88H80.1v2.29h3.29v.878H80.1v3.448zM88.18 7.496h-.88V2.32h.88v5.176zM96.228 7.496h-1.1l-1.49-2.12H91.82v2.12h-.88V2.32h3.2c1.038 0 1.968.35 1.968 1.488 0 1.15-.78 1.45-1.39 1.55l1.51 2.138zm-2-2.998c.58 0 1-.16 1-.67 0-.58-.38-.63-1.05-.63H91.82v1.3h2.41zM102.187 3.638c-.43-.24-1-.6-2.14-.6-.958 0-1.448.25-1.448.69 0 .5.18.66 1.668.66 2.34 0 2.61.71 2.61 1.518 0 1.49-1.39 1.75-2.55 1.75-1.77 0-2.698-.64-3.038-.88l.42-.77c.6.36 1.18.77 2.638.77.93 0 1.58-.2 1.58-.78 0-.66-.34-.68-2.28-.73-1.18-.02-1.998-.358-1.998-1.438 0-.87.65-1.67 2.39-1.67 1.26 0 2.208.51 2.558.69l-.41.79zM106.958 7.496h-.88V3.198h-1.998v-.88h4.856v.88h-1.98v4.298z"/></g></svg>