<svg xmlns="http://www.w3.org/2000/svg" viewBox="0 0 120 120" enable-background="new 0 0 120 120"><g><linearGradient id="a" gradientUnits="userSpaceOnUse" x1="17.855" y1="107.904" x2="17.855" y2="63.003"><stop offset="0" stop-color="#A31E22"/><stop offset=".336" stop-color="#96191C"/><stop offset=".957" stop-color="#740A0B"/><stop offset="1" stop-color="#71090A"/></linearGradient><path fill="url(#a)" d="M35.68 115.9L.03 79.097V11.775L35.68 40.1z"/><path d="M100 74.8V4.3c0-2.37-1.928-4.3-4.298-4.3H.004v11.09L0 11.084l.03 68.012h95.672c2.37 0 4.298-1.93 4.298-4.298z" fill="#E31837"/><path d="M45.805 65.18C62.71 68.302 75.08 51.928 83.01 37.758 86.19 32.075 91 17.213 85.6 11.592c-4.937-5.43-8.76 1.703-11.684 4.078l2.255 2.676c4.513 5.703.594 16.54-2.084 22.33-4.024 7.128-11.6 17.908-20.465 16.404-1.917-.444-3.514-2.32-4.18-4.278 4.768-4.722 10.42-13.02 13.59-18.535 2.675-4.496 7.277-13.17 3.022-16.744-3.528-2.447-10.605 1.077-14.392 4.265-2.306 2.084-3.867 3.784-5.657 6.204-4.87 6.614-9.52 17.946-9.028 26.676-2.348 1.7-5.02 3.387-8.2 2.412-3.15-.703-3.722-3.386-4.165-5.485-2.006-12.652 10.667-28.618 17.78-37.79 0 0-5.61 1.518-9.707 1.694-9.412.403-16.398-3.977-21.49 2.314-1.535 2.232-2.418 4.592-2.707 7.38 2.086-1.78 5.18-1.35 8.134-1.18 5.103.456 7.62 1.06 12.228-.17-4.104 5.775-10.93 17.19-12.198 24.308-.664 4.728-.604 12.173 3.433 15.518 6.695 4.448 13.333 1.34 19.28-2.763 1.763 2.044 3.933 3.828 6.442 4.273zM57.16 25.668c1.778-.87 1.243 1.778 1.243 1.778-.247 3-2.43 6.567-3.974 9.312-1.6 2.805-7.175 9.412-9.606 10.84.106-4.003 4.386-12.73 6.572-16.076 1.124-1.953 3.986-4.978 5.765-5.854z" fill="#fff"/><path d="M108.413 71.23c2.142 0 3.94 1.692 3.94 3.908 0 2.26-1.798 3.95-3.94 3.95-2.154 0-3.96-1.69-3.96-3.95 0-2.216 1.806-3.907 3.96-3.907zm0 7.28c1.817 0 3.224-1.45 3.224-3.372 0-1.88-1.407-3.33-3.224-3.33-1.84 0-3.246 1.45-3.246 3.33 0 1.923 1.408 3.372 3.246 3.372zm-1.534-5.65h1.775c1.092 0 1.606.43 1.606 1.312 0 .83-.524 1.176-1.207 1.25l1.313 2.028h-.766l-1.25-1.975h-.757v1.975h-.714v-4.59zm.714 2.036h.746c.63 0 1.208-.03 1.208-.756 0-.61-.525-.704-1.008-.704h-.945v1.46z" fill="#848484"/></g></svg>