<svg xmlns="http://www.w3.org/2000/svg" viewBox="0 0 525 320" enable-background="new 0 0 525 320"><g><g><path d="M260.83 277.5c-16.127 0-30.895-9.492-37.623-24.184l-.798-1.744-1.893.32c-2.897.49-5.853.738-8.784.738-28.848 0-52.317-23.49-52.317-52.362 0-2.02.12-4.077.357-6.118l.237-2.038-1.953-.63c-18.278-5.894-30.558-22.774-30.558-42.007 0-19.473 12.476-36.417 31.046-42.165l2.31-.715-.638-2.333c-.875-3.198-1.32-6.494-1.32-9.794 0-20.405 16.587-37.005 36.974-37.005 2.43 0 4.873.242 7.264.718l2.672.534.3-2.708c2.998-26.96 25.726-47.293 52.87-47.293 17.95 0 34.572 8.973 44.46 24.003l.995 1.512 1.747-.473c3.334-.902 6.77-1.36 10.21-1.36.604 0 1.202.02 1.8.047l1.718.077.686-1.58c7.51-17.276 24.518-28.44 43.336-28.44 25.207 0 45.93 19.72 47.178 44.896l.14 2.807 2.77-.465c2.57-.43 5.19-.65 7.79-.65 12.06 0 23.512 4.583 32.242 12.903l1.26 1.2 1.562-.763c5.976-2.92 12.4-4.4 19.097-4.4 24.036 0 43.59 19.572 43.59 43.63 0 8.104-2.236 16.017-6.47 22.88l-.76 1.23.69 1.27c2.564 4.75 3.92 10.13 3.92 15.562 0 9.505-4.128 18.535-11.325 24.77l-2.273 1.97 2.353 1.876c10.68 8.512 16.807 21.22 16.807 34.865 0 24.563-19.966 44.546-44.507 44.546-6.286 0-12.365-1.287-18.067-3.825l-1.93-.858-1.17 1.76c-6.574 9.908-17.58 15.822-29.438 15.822-16.456 0-30.96-11.663-34.485-27.732l-.82-3.742-3.096 2.26c-6.288 4.588-13.73 7.013-21.52 7.013-6.186 0-12.303-1.58-17.69-4.565l-1.69-.936-1.33 1.396c-7.814 8.182-18.333 12.688-29.62 12.688-4.728 0-9.373-.805-13.807-2.393l-2.413-.864-.804 2.434c-5.61 16.995-21.397 28.416-39.286 28.416z" fill="#fff"/><path d="M363.93 5c23.873 0 43.5 18.677 44.68 42.52l.28 5.612 5.542-.93c2.434-.408 4.915-.615 7.375-.615 11.415 0 22.254 4.337 30.518 12.213l2.518 2.4 3.126-1.527c5.63-2.75 11.685-4.146 17.998-4.146 22.658 0 41.092 18.45 41.092 41.13 0 7.64-2.11 15.098-6.1 21.568l-1.516 2.46 1.374 2.54c2.37 4.385 3.62 9.355 3.62 14.373 0 8.78-3.813 17.12-10.462 22.883l-4.546 3.94 4.704 3.75C514.216 181.203 520 193.2 520 206.08c0 23.183-18.845 42.044-42.007 42.044-5.934 0-11.67-1.214-17.05-3.61l-3.863-1.72-2.338 3.523c-6.11 9.207-16.336 14.703-27.354 14.703-15.29 0-28.768-10.837-32.044-25.768l-1.642-7.484-6.19 4.516c-5.856 4.274-12.787 6.533-20.045 6.533-5.762 0-11.46-1.47-16.478-4.252l-3.376-1.87-2.665 2.79c-7.338 7.683-17.215 11.914-27.81 11.914-4.442 0-8.804-.757-12.965-2.247l-4.827-1.73-1.607 4.87C292.47 264.27 277.64 275 260.83 275c-15.153 0-29.028-8.92-35.35-22.725l-1.596-3.488-3.783.64c-2.758.467-5.573.704-8.366.704-27.47 0-49.817-22.367-49.817-49.86 0-1.924.115-3.886.34-5.83l.475-4.077-3.906-1.26C141.584 183.544 130 167.62 130 149.476c0-9.072 2.863-17.693 8.28-24.93 5.243-7.004 12.703-12.276 21.006-14.846l4.62-1.43-1.275-4.667c-.815-2.984-1.23-6.057-1.23-9.134 0-19.027 15.465-34.506 34.474-34.506 2.266 0 4.545.225 6.775.67l5.344 1.066.602-5.417c2.856-25.693 24.516-45.07 50.383-45.07 17.106 0 32.947 8.553 42.372 22.88l1.99 3.022 3.493-.945c3.12-.844 6.336-1.273 9.557-1.273.498 0 1.033.014 1.683.043l3.44.156 1.372-3.158C329.997 15.574 346.11 5 363.93 5m0-5c-20.425 0-37.97 12.323-45.63 29.945-.632-.03-1.268-.048-1.91-.048-3.76 0-7.398.51-10.862 1.446-9.96-15.136-27.087-25.13-46.55-25.13-28.658 0-52.257 21.662-55.352 49.517-2.507-.5-5.1-.766-7.753-.766-21.8 0-39.473 17.687-39.473 39.505 0 3.62.496 7.122 1.407 10.453-19.002 5.88-32.807 23.602-32.807 44.552 0 20.76 13.556 38.347 32.29 44.387-.243 2.102-.373 4.24-.373 6.407 0 30.3 24.542 54.86 54.817 54.86 3.136 0 6.21-.266 9.2-.773 6.928 15.13 22.18 25.643 39.896 25.643 19.422 0 35.885-12.635 41.66-30.136 4.578 1.64 9.51 2.54 14.65 2.54 12.362 0 23.51-5.173 31.426-13.462 5.603 3.106 12.044 4.88 18.902 4.88 8.597 0 16.54-2.786 22.993-7.495 3.728 16.983 18.84 29.696 36.93 29.696 13.16 0 24.745-6.732 31.52-16.94 5.83 2.597 12.288 4.043 19.084 4.043 25.96 0 47.006-21.063 47.006-47.045 0-14.91-6.934-28.2-17.75-36.82 7.462-6.466 12.19-16.008 12.19-26.662 0-6.062-1.53-11.766-4.223-16.75 4.338-7.033 6.843-15.32 6.843-24.192 0-25.477-20.636-46.13-46.092-46.13-7.243 0-14.095 1.674-20.194 4.654-8.84-8.423-20.8-13.593-33.967-13.593-2.795 0-5.534.237-8.203.684C412.3 20.946 390.56 0 363.93 0z"/></g><g><path d="M25 270c9.322-48.97 22.81-93.073 39.48-130.11s36.515-67.01 58.554-87.722S169.304 20 194.74 20s49.665 11.454 71.705 32.167S308.332 102.963 325 140" fill="none" stroke="#000" stroke-miterlimit="10"/></g><path d="M10.164 313.706c7.735 9.34 24.605 8.114 30.362-2.544 2.813-5.207 3.003-11.594.186-16.84-2.904-5.41-9.065-8.555-15.283-9.188-6.42-.654-13.07 1.684-16.955 6.63-3.9 4.967-4.607 12.137.127 16.854 4.535 4.52 11.862 4.53 17.812 3.054 6.502-1.612 12.996-5.167 17.53-9.865 4.63-4.8 7.284-11.432 4.872-17.805-2.334-6.168-8.464-10.812-15.243-12.04-7.614-1.38-15.903.72-22.15 4.97C5.73 280.8.578 287.626 3.314 294.5c2.442 6.14 9.84 8.83 16.37 8.567 6.803-.276 13.363-3.14 18.18-7.65 4.74-4.442 7.87-10.615 7.76-16.987-.11-6.344-3.21-12.58-8.088-16.92-5.093-4.53-11.966-6.99-18.977-6.173-7.488.872-14.26 5.337-16.428 12.352-2.057 6.655 1.092 13.196 7.015 16.996 5.61 3.6 13.084 4.383 19.476 2.346 12.553-4.002 21.796-17.54 16.672-29.843-4.598-11.04-18.768-18.508-31.07-14.477C7.754 244.833 1.948 249.95.4 256.4c-1.62 6.75 1.803 13.232 7.732 17.038 13.012 8.352 31.07-.39 36.818-12.776 2.866-6.175 3.01-13.057-.232-19.13-2.938-5.506-8.71-10.04-15.202-11.203-13.615-2.44-27.526 10.773-21.31 23.494 2.564 5.248 8.34 8.883 14.24 10.03 6.566 1.274 13.086-.264 18.328-4.177 10.726-8.007 12.62-23.19 2.918-32.612-9.492-9.22-25.55-9.655-34.78.106-4.303 4.55-7.036 10.72-6.447 16.883.608 6.364 4.23 11.872 9.602 15.682 5.374 3.812 11.683 4.92 18.234 4.07 1.676-.22 2.558-2.22 2.17-3.603-.473-1.693-2.167-2.26-3.822-2.045-8.777 1.142-18.597-6.13-19.34-14.408-.745-8.272 6.436-16.85 15.406-17.338 8.967-.49 18.345 6.243 18.482 15.054.128 8.205-7.13 16.42-16.13 16.4-8.49-.02-17.22-7.44-11.98-15.537 2.38-3.68 6.917-6.18 11.535-5.852 4.437.314 8.53 3.002 10.932 6.45 5.757 8.263 1.266 18.96-7.086 23.972-4.61 2.766-10.65 4.208-15.927 2.308-4.213-1.516-7.83-5.308-7.578-9.743.25-4.418 3.944-8.158 8.02-9.97 4.015-1.786 8.713-1.543 12.785-.068 8.232 2.982 13.917 11.12 11.24 19.395-2.68 8.275-12.49 14.607-21.66 12.234-4.223-1.092-8.56-4.08-8.876-8.52-.35-4.903 3.66-8.896 8.412-10.204 9.776-2.69 19.335 4.31 21.422 13.225 2.078 8.875-5.134 17.536-13.882 20.112-4.005 1.178-9.16 1.444-12.698-1.088-4.502-3.223-1.064-8.445 2.16-11.16 7.48-6.3 22.26-8.297 27.79 1.364 5.072 8.86-6.388 16.947-13.93 19.792-3.786 1.428-8.92 2.65-12.772.776-4.126-2.008-3.626-6.896-1.337-10.037 5.212-7.15 17.96-5.482 22.176 1.703 4.826 8.223-1.31 18.582-11.12 19.275-4.644.328-9.374-1.22-12.64-4.367-1.235-1.19-2.912.54-1.886 1.778z"/></g></svg>