<svg xmlns="http://www.w3.org/2000/svg" viewBox="0 0 525 320" enable-background="new 0 0 525 320"><g><g><path d="M264.17 277.5c-17.89 0-33.677-11.42-39.286-28.42l-.803-2.434-2.413.864c-4.433 1.588-9.08 2.393-13.807 2.393-11.286 0-21.804-4.506-29.618-12.688l-1.333-1.396-1.69.935c-5.388 2.986-11.505 4.565-17.69 4.565-7.79 0-15.23-2.425-21.52-7.014l-3.093-2.258-.82 3.74c-3.527 16.07-18.03 27.733-34.487 27.733-11.858 0-22.862-5.913-29.437-15.82l-1.168-1.76-1.93.858c-5.704 2.538-11.783 3.825-18.07 3.825-24.54 0-44.505-19.982-44.505-44.545 0-13.646 6.126-26.353 16.807-34.865l2.352-1.875-2.274-1.97C12.19 161.13 8.06 152.102 8.06 142.596c0-5.432 1.357-10.812 3.922-15.56l.687-1.272-.76-1.23c-4.232-6.864-6.47-14.776-6.47-22.88 0-24.058 19.555-43.63 43.592-43.63 6.695 0 13.12 1.48 19.096 4.4l1.563.764 1.26-1.2c8.73-8.32 20.182-12.903 32.243-12.903 2.6 0 5.22.22 7.79.65l2.77.464.14-2.808C115.14 22.222 135.862 2.5 161.07 2.5c18.817 0 35.828 11.164 43.336 28.44l.686 1.58 1.72-.078c.595-.027 1.194-.046 1.797-.046 3.44 0 6.874.458 10.21 1.36l1.746.472.995-1.512c9.89-15.03 26.512-24.003 44.462-24.003 27.144 0 49.87 20.332 52.868 47.293l.3 2.708 2.674-.533c2.39-.476 4.834-.717 7.264-.717 20.387 0 36.973 16.6 36.973 37.005 0 3.3-.442 6.596-1.317 9.794l-.64 2.333 2.312.715c18.57 5.747 31.047 22.692 31.047 42.165 0 19.232-12.28 36.114-30.56 42.008l-1.95.63.235 2.037c.237 2.04.357 4.1.357 6.118 0 28.873-23.47 52.362-52.316 52.362-2.93 0-5.886-.248-8.784-.738l-1.892-.32-.8 1.744c-6.728 14.692-21.495 24.184-37.622 24.184z" fill="#fff"/><path d="M161.07 5c17.822 0 33.932 10.574 41.043 26.938l1.372 3.158 3.44-.156c.65-.03 1.185-.043 1.683-.043 3.22 0 6.436.428 9.557 1.273l3.494.945 1.988-3.023c9.426-14.325 25.266-22.878 42.373-22.878 25.868 0 47.53 19.375 50.384 45.07l.602 5.416 5.345-1.066c2.23-.445 4.51-.67 6.776-.67 19.008 0 34.473 15.48 34.473 34.505 0 3.076-.415 6.15-1.23 9.133l-1.277 4.666 4.62 1.43c8.304 2.57 15.764 7.84 21.006 14.844 5.416 7.238 8.28 15.86 8.28 24.93 0 18.145-11.584 34.07-28.825 39.63l-3.906 1.258.473 4.077c.226 1.944.34 3.905.34 5.828 0 27.494-22.347 49.862-49.816 49.862-2.793 0-5.608-.237-8.367-.704l-3.783-.64-1.597 3.488C293.198 266.08 279.323 275 264.17 275c-16.808 0-31.64-10.73-36.91-26.703l-1.608-4.87-4.827 1.73c-4.16 1.49-8.523 2.245-12.964 2.245-10.595 0-20.47-4.23-27.81-11.914l-2.664-2.79-3.375 1.87c-5.017 2.782-10.716 4.252-16.477 4.252-7.257 0-14.19-2.26-20.046-6.533l-6.19-4.516-1.64 7.485c-3.278 14.93-16.754 25.768-32.045 25.768-11.018 0-21.244-5.497-27.354-14.703l-2.338-3.522-3.862 1.72c-5.38 2.394-11.117 3.61-17.05 3.61C23.843 248.125 5 229.264 5 206.08c0-12.88 5.783-24.874 15.865-32.91l4.704-3.748-4.547-3.94c-6.65-5.76-10.463-14.102-10.463-22.882 0-5.018 1.252-9.988 3.62-14.372l1.374-2.542-1.517-2.46c-3.99-6.47-6.1-13.927-6.1-21.567 0-22.68 18.435-41.13 41.093-41.13 6.312 0 12.368 1.394 18 4.145l3.125 1.527 2.52-2.4c8.263-7.876 19.1-12.213 30.517-12.213 2.46 0 4.942.206 7.375.614l5.543.93.278-5.613C117.57 23.678 137.198 5 161.07 5m0-5c-26.63 0-48.37 20.945-49.675 47.272-2.668-.448-5.408-.684-8.203-.684-13.168 0-25.13 5.17-33.967 13.593-6.098-2.98-12.95-4.653-20.194-4.653-25.455 0-46.09 20.653-46.09 46.13 0 8.873 2.504 17.16 6.842 24.193-2.692 4.983-4.222 10.687-4.222 16.75 0 10.652 4.727 20.195 12.188 26.66C6.934 177.88 0 191.17 0 206.08c0 25.983 21.045 47.046 47.006 47.046 6.795 0 13.252-1.445 19.085-4.042 6.775 10.207 18.36 16.94 31.52 16.94 18.09 0 33.202-12.714 36.93-29.697 6.452 4.71 14.395 7.494 22.992 7.494 6.858 0 13.3-1.773 18.902-4.878 7.916 8.29 19.064 13.46 31.426 13.46 5.142 0 10.072-.898 14.65-2.538 5.775 17.5 22.238 30.136 41.66 30.136 17.716 0 32.968-10.514 39.895-25.643 2.992.506 6.065.774 9.2.774 30.276 0 54.818-24.562 54.818-54.86 0-2.17-.13-4.306-.374-6.408 18.734-6.04 32.29-23.628 32.29-44.387 0-20.95-13.805-38.672-32.808-44.553.91-3.33 1.407-6.833 1.407-10.454 0-21.818-17.674-39.505-39.474-39.505-2.654 0-5.245.267-7.753.766-3.096-27.856-26.695-49.517-55.353-49.517-19.463 0-36.59 9.993-46.55 25.13-3.464-.938-7.103-1.447-10.863-1.447-.64 0-1.276.02-1.91.048C199.04 12.324 181.495 0 161.07 0z"/></g><g><path d="M200 140c16.668-37.037 36.516-67.12 58.555-87.833S304.825 20 330.26 20c25.435 0 49.666 11.454 71.706 32.167 22.04 20.713 41.887 50.686 58.555 87.722C477.19 176.926 490.68 221.03 500 270" fill="none" stroke="#000" stroke-miterlimit="10"/></g><path d="M514.836 313.706c-7.735 9.34-24.604 8.114-30.362-2.544-2.813-5.207-3.003-11.594-.186-16.84 2.904-5.41 9.065-8.555 15.283-9.188 6.42-.654 13.07 1.684 16.955 6.63 3.9 4.967 4.607 12.137-.127 16.854-4.535 4.52-11.862 4.53-17.812 3.054-6.502-1.612-12.996-5.167-17.53-9.865-4.63-4.8-7.284-11.432-4.872-17.805 2.334-6.168 8.464-10.812 15.243-12.04 7.614-1.38 15.903.72 22.15 4.97 5.692 3.87 10.844 10.695 8.108 17.57-2.442 6.14-9.84 8.83-16.37 8.567-6.803-.276-13.363-3.14-18.18-7.65-4.74-4.442-7.87-10.615-7.76-16.987.11-6.344 3.21-12.58 8.088-16.92 5.093-4.53 11.966-6.99 18.977-6.173 7.488.872 14.26 5.337 16.428 12.352 2.057 6.655-1.092 13.196-7.015 16.996-5.61 3.6-13.084 4.383-19.476 2.346-12.553-4.002-21.796-17.54-16.672-29.843 4.598-11.04 18.768-18.508 31.07-14.477 6.472 2.12 12.278 7.237 13.825 13.688 1.62 6.75-1.803 13.232-7.732 17.038-13.012 8.352-31.07-.39-36.818-12.776-2.866-6.175-3.01-13.057.232-19.13 2.938-5.506 8.71-10.04 15.202-11.203 13.615-2.44 27.526 10.773 21.31 23.494-2.564 5.248-8.34 8.883-14.24 10.03-6.566 1.274-13.086-.264-18.328-4.177-10.726-8.007-12.62-23.19-2.918-32.612 9.492-9.22 25.55-9.655 34.78.106 4.303 4.55 7.036 10.72 6.447 16.883-.608 6.364-4.23 11.872-9.602 15.682-5.374 3.812-11.683 4.92-18.234 4.07-1.676-.22-2.558-2.22-2.17-3.603.473-1.693 2.167-2.26 3.822-2.045 8.777 1.142 18.597-6.13 19.34-14.408.745-8.272-6.436-16.85-15.406-17.338-8.967-.49-18.345 6.243-18.482 15.054-.128 8.205 7.13 16.42 16.13 16.4 8.49-.02 17.22-7.44 11.98-15.537-2.38-3.68-6.917-6.18-11.535-5.852-4.437.314-8.53 3.002-10.932 6.45-5.757 8.263-1.266 18.96 7.086 23.972 4.61 2.766 10.65 4.208 15.927 2.308 4.213-1.516 7.83-5.308 7.578-9.743-.25-4.418-3.944-8.158-8.02-9.97-4.015-1.786-8.713-1.543-12.785-.068-8.232 2.982-13.917 11.12-11.24 19.395 2.68 8.275 12.49 14.607 21.66 12.234 4.223-1.092 8.56-4.08 8.876-8.52.35-4.903-3.66-8.896-8.412-10.204-9.776-2.69-19.335 4.31-21.422 13.225-2.078 8.875 5.134 17.536 13.882 20.112 4.005 1.178 9.16 1.444 12.698-1.088 4.502-3.223 1.064-8.445-2.16-11.16-7.48-6.3-22.26-8.297-27.79 1.364-5.072 8.86 6.388 16.947 13.93 19.792 3.786 1.428 8.92 2.65 12.772.776 4.126-2.008 3.626-6.896 1.337-10.037-5.212-7.15-17.96-5.482-22.176 1.703-4.826 8.223 1.31 18.582 11.12 19.275 4.644.328 9.374-1.22 12.64-4.367 1.235-1.19 2.912.54 1.886 1.778z"/></g></svg>