<?xml version="1.0" encoding="iso-8859-1"?>
<!-- Generator: Adobe Illustrator 19.2.1, SVG Export Plug-In . SVG Version: 6.00 Build 0)  -->
<svg version="1.1" xmlns="http://www.w3.org/2000/svg" xmlns:xlink="http://www.w3.org/1999/xlink" x="0px" y="0px"
	 viewBox="0 0 80 15" style="enable-background:new 0 0 80 15;" xml:space="preserve">
<g id="cta_x5F_shop">
	<rect style="fill:#FAA61A;" width="80" height="15"/>
	<g>
		<g>
			<path style="fill:#FFFFFF;" d="M12.685,10.534c-0.084,0-0.844-0.005-1.517-0.175c-0.153-0.038-0.359-0.09-0.645-0.213
				c-0.343-0.148-0.569-0.317-0.643-0.373c-0.325-0.248-0.48-0.475-0.573-0.61L9.133,8.906l0.275-0.133L10.321,8.4l0.117,0.14
				c0.046,0.056,0.07,0.085,0.105,0.12c0.123,0.123,0.369,0.3,0.693,0.433c0.582,0.237,1.281,0.262,1.533,0.253
				c0.756,0,1.153-0.181,1.357-0.334c0.263-0.2,0.284-0.479,0.284-0.559c0-0.215-0.111-0.372-0.329-0.466
				c-0.323-0.143-1.092-0.206-1.552-0.243l-0.21-0.018c-1.13-0.092-1.696-0.156-2.17-0.593c-0.48-0.44-0.48-0.957-0.48-1.127
				c0-0.88,0.574-1.317,0.916-1.5c0.269-0.147,0.888-0.397,1.981-0.397c0.959,0,1.745,0.194,2.334,0.576
				c0.11,0.073,0.198,0.136,0.288,0.216c0.159,0.131,0.288,0.299,0.357,0.389l0.225,0.265l-0.289,0.172l-0.889,0.357l-0.117-0.117
				C14.439,5.931,14.31,5.8,14.165,5.699c-0.409-0.283-0.944-0.426-1.592-0.426c-0.521,0-0.94,0.09-1.142,0.167
				c-0.418,0.158-0.463,0.421-0.463,0.526c0,0.078,0.022,0.16,0.059,0.221c0.125,0.201,0.415,0.235,0.694,0.269
				c0.39,0.05,0.727,0.079,1.065,0.108c0.285,0.024,0.57,0.049,0.855,0.082c0.863,0.103,1.357,0.322,1.708,0.755
				c0.352,0.452,0.352,0.898,0.352,1.044c0,0.523-0.182,0.882-0.335,1.09c-0.368,0.513-1.02,0.847-1.836,0.941
				C13.229,10.514,12.944,10.534,12.685,10.534z"/>
		</g>
		<g>
			<path style="fill:#FFFFFF;" d="M22.798,10.398H21.49v-2.67h-3.826v2.67h-1.316V4.253h1.308v2.303h3.826V4.253h1.316V10.398z"/>
		</g>
		<g>
			<path style="fill:#FFFFFF;" d="M27.181,10.55c-0.166,0-0.504-0.01-0.904-0.075c-1.052-0.154-1.868-0.65-2.355-1.434
				c-0.292-0.474-0.445-1.044-0.445-1.651c0-0.766,0.215-1.442,0.622-1.955c0.084-0.11,0.199-0.244,0.445-0.446
				c0.477-0.397,1.314-0.872,2.589-0.872c0.383,0,1.134,0.05,1.856,0.383c0.524,0.244,1.001,0.636,1.308,1.075
				c0.47,0.682,0.541,1.439,0.541,1.83c0,0.47-0.104,1.367-0.806,2.093C29.727,9.815,28.842,10.55,27.181,10.55z M27.132,5.304
				c-0.032,0-0.062,0-0.089,0.001c-0.339,0.011-1.19,0.096-1.74,0.646c-0.187,0.187-0.326,0.41-0.412,0.664
				c-0.074,0.215-0.115,0.479-0.115,0.743c0,0.261,0.047,0.763,0.359,1.187c0.078,0.101,0.181,0.219,0.392,0.369
				c0.414,0.293,0.976,0.441,1.67,0.441c0.148,0,0.495,0,0.887-0.104c0.727-0.191,1.217-0.671,1.38-1.352
				c0.019-0.086,0.065-0.303,0.065-0.573c0-0.406-0.1-0.701-0.184-0.876l-0.001-0.002C28.873,5.434,27.702,5.304,27.132,5.304z"/>
		</g>
		<g>
			<path style="fill:#FFFFFF;" d="M32.816,10.398h-1.315V4.253h3.704c0.141,0,0.282,0.008,0.422,0.015l0.079,0.006
				c0.317,0.027,1.159,0.101,1.679,0.845c0.215,0.313,0.333,0.707,0.333,1.11c0,0.354-0.09,1.017-0.69,1.471
				c-0.565,0.435-1.167,0.435-1.75,0.435h-2.461V10.398z M32.809,6.963h2.356c0.431,0,0.806-0.022,1.029-0.299
				c0.071-0.084,0.152-0.232,0.152-0.482c0-0.067,0-0.27-0.145-0.452l0,0c-0.245-0.306-0.692-0.306-1.124-0.306h-2.269V6.963z"/>
		</g>
		<g>
			<path style="fill:#FFFFFF;" d="M47.285,10.398h-1.141l-4.062-4.29l0.016,4.29h-1.269V4.253h1.182l0.073,0.079l3.955,4.199
				l-0.022-4.278h1.269V10.398z"/>
		</g>
		<g>
			<path style="fill:#FFFFFF;" d="M51.662,10.55c-0.166,0-0.504-0.01-0.903-0.075c-1.053-0.154-1.868-0.65-2.354-1.434
				c-0.292-0.474-0.446-1.045-0.446-1.651c0-0.766,0.215-1.442,0.621-1.955c0.086-0.111,0.2-0.243,0.445-0.445
				c0.478-0.397,1.314-0.873,2.59-0.873c0.384,0,1.135,0.05,1.855,0.383c0.524,0.244,1.001,0.636,1.308,1.075
				c0.471,0.682,0.541,1.439,0.541,1.83c0,0.47-0.104,1.367-0.805,2.092l0,0C54.209,9.814,53.322,10.55,51.662,10.55z M51.614,5.304
				c-0.032,0-0.062,0-0.09,0.001c-0.339,0.011-1.19,0.096-1.74,0.646c-0.188,0.187-0.325,0.409-0.412,0.664
				c-0.073,0.215-0.114,0.479-0.114,0.743c0,0.262,0.047,0.765,0.358,1.187c0.078,0.101,0.182,0.219,0.392,0.369
				c0.415,0.292,0.977,0.441,1.67,0.441c0.148,0,0.496,0,0.888-0.104c0.728-0.191,1.217-0.671,1.38-1.352
				c0.018-0.079,0.065-0.3,0.065-0.573c0-0.406-0.1-0.701-0.184-0.876l-0.001-0.002C53.354,5.434,52.184,5.304,51.614,5.304z"/>
		</g>
		<g>
			<path style="fill:#FFFFFF;" d="M62.696,10.398h-1.244l-1.488-4.135l-1.494,4.135h-1.269l-2.003-6.145h1.385l1.307,4.226
				l1.549-4.226H60.5l1.54,4.204l1.308-4.204h1.377L62.696,10.398z"/>
		</g>
	</g>
	<g>
		<g>
			<polygon style="fill:#FFFFFF;" points="69.55,10.771 68.757,9.978 71.484,7.25 68.756,4.521 69.549,3.728 73.07,7.25 			"/>
		</g>
	</g>
</g>
<g id="Layer_1">
</g>
</svg>
