<?xml version="1.0" encoding="iso-8859-1"?>
<!-- Generator: Adobe Illustrator 18.0.0, SVG Export Plug-In . SVG Version: 6.00 Build 0)  -->
<!DOCTYPE svg PUBLIC "-//W3C//DTD SVG 1.1//EN" "http://www.w3.org/Graphics/SVG/1.1/DTD/svg11.dtd">
<svg version="1.1" xmlns="http://www.w3.org/2000/svg" xmlns:xlink="http://www.w3.org/1999/xlink" x="0px" y="0px"
	 viewBox="0 0 40 35" style="enable-background:new 0 0 40 35;" xml:space="preserve">
<g id="prevage_x5F_G_x5F_k">
	<path d="M31.907,31.601v-4.24c-0.656,0.656-1.312,1.267-2.055,1.792c-1.748,1.224-5.769,3.147-11.407,3.147
		c-8.305,0-12.763-4.283-14.642-6.862c-1.049-1.399-3.016-4.633-3.016-9.354c0-1.486,0.219-5.114,2.535-8.61
		C3.934,6.556,4.546,5.813,5.333,5.07C7.431,3.104,11.932,0,19.232,0c1.749,0,5.945,0.131,10.315,2.404
		C31.776,3.541,33,4.721,33.699,5.507C34.399,6.25,34.705,6.6,35.535,8.13l-4.284,1.311c-0.306-0.437-0.743-1.18-1.661-2.054
		c-1.486-1.355-4.808-3.628-10.053-3.628c-0.961,0-3.365,0.087-5.9,0.962C8.61,6.469,5.464,10.49,5.464,15.91
		c0,2.753,1.005,5.9,2.797,8.042c3.628,4.414,9.528,4.676,11.145,4.676c4.284,0,9.091-1.836,11.408-5.638
		c0.831-1.399,1.005-2.448,1.224-3.977H18.445v-3.672H35.71v16.26H31.907z"/>
</g>
<g id="Layer_1">
</g>
</svg>
