<?xml version="1.0" encoding="iso-8859-1"?>
<!-- Generator: Adobe Illustrator 18.0.0, SVG Export Plug-In . SVG Version: 6.00 Build 0)  -->
<!DOCTYPE svg PUBLIC "-//W3C//DTD SVG 1.1//EN" "http://www.w3.org/Graphics/SVG/1.1/DTD/svg11.dtd">
<svg version="1.1" xmlns="http://www.w3.org/2000/svg" xmlns:xlink="http://www.w3.org/1999/xlink" x="0px" y="0px"
	 viewBox="0 0 40 35" style="enable-background:new 0 0 40 35;" xml:space="preserve">
<g id="prevage_x5F_reg_x5F_k">
	<path d="M24.2,6.613c0,0.908-0.159,1.736-0.478,2.481c-0.319,0.746-0.751,1.384-1.298,1.914c-0.546,0.53-1.178,0.941-1.897,1.233
		c-0.72,0.292-1.474,0.438-2.263,0.438c-0.876,0-1.679-0.154-2.408-0.462s-1.357-0.732-1.881-1.273
		c-0.525-0.541-0.935-1.181-1.233-1.922c-0.297-0.74-0.446-1.543-0.446-2.408c0-0.908,0.159-1.735,0.478-2.481
		c0.319-0.746,0.751-1.384,1.297-1.914c0.546-0.529,1.181-0.941,1.906-1.233c0.724-0.292,1.486-0.438,2.287-0.438
		c0.789,0,1.543,0.146,2.263,0.438c0.719,0.292,1.351,0.703,1.897,1.233c0.546,0.53,0.979,1.168,1.298,1.914
		C24.041,4.878,24.2,5.705,24.2,6.613z M22.903,6.613c0-0.735-0.12-1.411-0.357-2.027c-0.238-0.616-0.567-1.146-0.99-1.589
		c-0.421-0.443-0.914-0.787-1.476-1.03c-0.562-0.243-1.167-0.365-1.816-0.365c-0.66,0-1.273,0.122-1.841,0.365
		c-0.567,0.243-1.062,0.587-1.484,1.03c-0.421,0.444-0.751,0.973-0.989,1.589c-0.238,0.616-0.357,1.292-0.357,2.027
		c0,0.692,0.108,1.341,0.324,1.946c0.216,0.605,0.527,1.135,0.932,1.589c0.406,0.454,0.895,0.814,1.468,1.078
		c0.574,0.265,1.222,0.397,1.947,0.397c0.649,0,1.254-0.121,1.816-0.365c0.562-0.243,1.054-0.586,1.476-1.03
		c0.422-0.443,0.751-0.97,0.99-1.581C22.783,8.038,22.903,7.359,22.903,6.613z M17.065,10.084h-1.103V3.369h2.546
		c0.811,0,1.422,0.152,1.833,0.454c0.411,0.303,0.616,0.795,0.616,1.476c0,0.606-0.168,1.049-0.502,1.33
		c-0.335,0.281-0.752,0.449-1.249,0.503l1.881,2.952h-1.248l-1.736-2.871h-1.038V10.084z M18.297,6.273
		c0.205,0,0.402-0.008,0.591-0.024c0.189-0.016,0.354-0.062,0.495-0.138c0.14-0.076,0.254-0.181,0.34-0.316
		c0.087-0.135,0.13-0.327,0.13-0.576c0-0.205-0.046-0.368-0.137-0.486c-0.092-0.119-0.209-0.211-0.349-0.276
		c-0.141-0.065-0.298-0.105-0.47-0.121c-0.173-0.016-0.341-0.024-0.503-0.024h-1.33v1.963H18.297z"/>
</g>
<g id="Layer_1">
</g>
</svg>
