<?xml version="1.0" encoding="iso-8859-1"?>
<!-- Generator: Adobe Illustrator 18.0.0, SVG Export Plug-In . SVG Version: 6.00 Build 0)  -->
<!DOCTYPE svg PUBLIC "-//W3C//DTD SVG 1.1//EN" "http://www.w3.org/Graphics/SVG/1.1/DTD/svg11.dtd">
<svg version="1.1" xmlns="http://www.w3.org/2000/svg" xmlns:xlink="http://www.w3.org/1999/xlink" x="0px" y="0px"
	 viewBox="0 0 40 35" style="enable-background:new 0 0 40 35;" xml:space="preserve">
<g id="prevage_x5F_R_x5F_k">
	<path d="M30.268,31.601L19.822,19.232H4.917v12.369H0.503V0.743h21.023c2.623,0,3.584,0.131,4.895,0.481
		c4.153,1.092,6.512,4.327,6.512,8.567c0,1.661-0.35,5.988-4.983,7.911c-0.787,0.306-1.617,0.568-3.365,0.831l11.408,13.069H30.268z
		 M27.602,6.949c-1.311-2.316-3.365-2.535-5.77-2.535H4.873v11.189h15.254c2.492,0,5.42-0.087,7.124-2.273
		c0.437-0.525,1.136-1.574,1.136-3.365C28.388,9.397,28.345,8.217,27.602,6.949z"/>
</g>
<g id="Layer_1">
</g>
</svg>
