<?xml version="1.0" encoding="iso-8859-1"?>
<!-- Generator: Adobe Illustrator 18.0.0, SVG Export Plug-In . SVG Version: 6.00 Build 0)  -->
<!DOCTYPE svg PUBLIC "-//W3C//DTD SVG 1.1//EN" "http://www.w3.org/Graphics/SVG/1.1/DTD/svg11.dtd">
<svg version="1.1" xmlns="http://www.w3.org/2000/svg" xmlns:xlink="http://www.w3.org/1999/xlink" x="0px" y="0px"
	 viewBox="0 0 40 35" style="enable-background:new 0 0 40 35;" xml:space="preserve">
<g id="prevage_x5F_P_x5F_k">
	<path d="M30.639,17.134c-2.666,2.055-5.551,2.098-8.741,2.098H7.081v12.369H2.622V0.743h18.882c0.787,0,1.573,0.043,2.36,0.087
		c1.355,0.131,5.813,0.306,8.435,4.065c1.049,1.53,1.574,3.409,1.574,5.289C33.874,11.408,33.655,14.861,30.639,17.134z M28.017,6.6
		c-1.748-2.186-4.72-2.186-7.212-2.186H7.037V15.56h14.249c2.404,0,5.026-0.088,6.687-2.142c0.481-0.568,1.137-1.661,1.137-3.497
		C29.11,9.354,29.066,7.911,28.017,6.6z"/>
</g>
<g id="Layer_1">
</g>
</svg>
