<?xml version="1.0" encoding="iso-8859-1"?>
<!-- Generator: Adobe Illustrator 19.2.1, SVG Export Plug-In . SVG Version: 6.00 Build 0)  -->
<svg version="1.1" xmlns="http://www.w3.org/2000/svg" xmlns:xlink="http://www.w3.org/1999/xlink" x="0px" y="0px"
	 viewBox="0 0 90 15" style="enable-background:new 0 0 90 15;" xml:space="preserve">
<g id="cta_x5F_macys">
	<rect style="fill:#FAA61A;" width="90" height="15"/>
	<g>
		<g>
			<polygon style="fill:#FFFFFF;" points="79.55,10.771 78.757,9.978 81.484,7.25 78.756,4.521 79.549,3.728 83.07,7.25 			"/>
		</g>
	</g>
	<g>
		<g>
			<path style="fill:#FFFFFF;" d="M11.397,10.534c-0.084,0-0.844-0.005-1.517-0.175c-0.153-0.038-0.359-0.09-0.645-0.213
				C8.893,9.998,8.667,9.828,8.593,9.772c-0.325-0.248-0.48-0.475-0.573-0.61L7.845,8.906L8.12,8.773L9.033,8.4L9.15,8.54
				c0.046,0.056,0.07,0.085,0.105,0.12c0.123,0.123,0.369,0.3,0.693,0.433c0.582,0.237,1.275,0.262,1.533,0.253
				c0.756,0,1.153-0.181,1.357-0.334c0.263-0.2,0.284-0.479,0.284-0.559c0-0.215-0.111-0.372-0.329-0.466
				c-0.323-0.143-1.092-0.206-1.552-0.243l-0.21-0.018C9.9,7.634,9.335,7.571,8.861,7.133c-0.48-0.44-0.48-0.957-0.48-1.127
				c0-0.88,0.574-1.317,0.916-1.5c0.269-0.147,0.888-0.397,1.981-0.397c0.959,0,1.745,0.194,2.334,0.576
				c0.11,0.073,0.198,0.136,0.288,0.216c0.159,0.131,0.288,0.299,0.357,0.389l0.225,0.265l-0.289,0.172l-0.889,0.357l-0.117-0.117
				c-0.036-0.036-0.166-0.167-0.311-0.268c-0.409-0.283-0.944-0.426-1.592-0.426c-0.521,0-0.94,0.09-1.142,0.167
				C9.725,5.598,9.68,5.861,9.68,5.966c0,0.078,0.022,0.16,0.059,0.221c0.125,0.201,0.415,0.235,0.694,0.269
				c0.39,0.05,0.727,0.079,1.065,0.108c0.285,0.024,0.57,0.049,0.855,0.082c0.863,0.103,1.357,0.322,1.708,0.755
				c0.352,0.452,0.352,0.898,0.352,1.044c0,0.523-0.182,0.882-0.335,1.09c-0.368,0.513-1.02,0.847-1.836,0.941
				C11.94,10.514,11.656,10.534,11.397,10.534z"/>
		</g>
		<g>
			<path style="fill:#FFFFFF;" d="M21.51,10.398h-1.308v-2.67h-3.826v2.67h-1.316V4.253h1.308v2.303h3.826V4.253h1.316V10.398z"/>
		</g>
		<g>
			<path style="fill:#FFFFFF;" d="M25.893,10.55c-0.166,0-0.504-0.01-0.904-0.075c-1.052-0.154-1.868-0.65-2.355-1.434
				c-0.292-0.474-0.445-1.044-0.445-1.651c0-0.766,0.215-1.442,0.622-1.955c0.084-0.11,0.199-0.244,0.445-0.446
				c0.477-0.397,1.314-0.872,2.589-0.872c0.383,0,1.134,0.05,1.856,0.383c0.524,0.244,1.001,0.636,1.308,1.075
				c0.47,0.682,0.541,1.439,0.541,1.83c0,0.47-0.104,1.367-0.806,2.093C28.439,9.815,27.554,10.55,25.893,10.55z M25.844,5.304
				c-0.032,0-0.062,0-0.089,0.001c-0.339,0.011-1.19,0.096-1.74,0.646c-0.187,0.187-0.326,0.41-0.412,0.664
				c-0.074,0.215-0.115,0.479-0.115,0.743c0,0.261,0.047,0.763,0.359,1.187c0.078,0.101,0.181,0.219,0.392,0.369
				c0.414,0.293,0.976,0.441,1.67,0.441c0.148,0,0.495,0,0.887-0.104c0.727-0.191,1.217-0.671,1.38-1.352
				c0.019-0.086,0.065-0.303,0.065-0.573c0-0.406-0.1-0.701-0.184-0.876l-0.001-0.002C27.584,5.434,26.414,5.304,25.844,5.304z"/>
		</g>
		<g>
			<path style="fill:#FFFFFF;" d="M31.528,10.398h-1.315V4.253h3.704c0.141,0,0.282,0.008,0.422,0.015l0.079,0.006
				c0.317,0.027,1.159,0.101,1.679,0.845c0.215,0.313,0.333,0.707,0.333,1.11c0,0.354-0.09,1.017-0.69,1.471
				c-0.565,0.435-1.167,0.435-1.75,0.435h-2.461V10.398z M31.521,6.963h2.356c0.431,0,0.806-0.022,1.029-0.299
				c0.071-0.084,0.152-0.232,0.152-0.482c0-0.067,0-0.27-0.145-0.452l0,0c-0.245-0.306-0.692-0.306-1.124-0.306h-2.269V6.963z"/>
		</g>
		<g>
			<path style="fill:#FFFFFF;" d="M45.837,10.398h-1.262l0.032-3.971l-1.893,3.971h-1.068l-1.885-3.967l0.033,3.967h-1.253V4.253
				h1.51l2.146,4.455l2.146-4.455h1.494V10.398z"/>
		</g>
		<g>
			<path style="fill:#FFFFFF;" d="M53.776,10.398h-1.491l-0.688-1.391h-3.159l-0.688,1.391h-1.47l3.185-6.145h1.16L53.776,10.398z
				 M49.023,7.859h1.982l-0.982-1.988L49.023,7.859z"/>
		</g>
		<g>
			<path style="fill:#FFFFFF;" d="M56.96,10.542c-0.915,0-1.67-0.199-2.31-0.607c-0.157-0.104-0.277-0.199-0.413-0.318
				c-0.1-0.099-0.292-0.292-0.463-0.568c-0.207-0.313-0.486-0.843-0.486-1.763c0-0.712,0.183-1.327,0.543-1.826
				c0.076-0.114,0.187-0.258,0.443-0.488c0.167-0.14,0.42-0.331,0.712-0.477c0.732-0.37,1.613-0.41,1.958-0.41
				c0.403,0,1.431,0.054,2.257,0.556c0.158,0.102,0.392,0.261,0.634,0.512c0.27,0.287,0.416,0.545,0.494,0.684l0.167,0.296
				l-0.324,0.086l-1.039,0.223l-0.09-0.164C59,6.198,58.956,6.125,58.906,6.053c-0.104-0.144-0.271-0.296-0.43-0.393
				c-0.14-0.089-0.649-0.371-1.5-0.371c-0.647,0-1.219,0.151-1.606,0.426c-0.054,0.034-0.155,0.112-0.278,0.25
				c-0.304,0.327-0.456,0.767-0.456,1.312c0,0.344,0.068,0.844,0.396,1.271c0.297,0.388,0.787,0.648,1.417,0.753
				c0.164,0.024,0.37,0.037,0.607,0.037h0.001c1.031,0,1.567-0.352,1.837-0.646c0.124-0.132,0.193-0.238,0.279-0.387l0.09-0.158
				l1.359,0.283l-0.167,0.297c-0.189,0.338-0.303,0.498-0.425,0.645l-0.002,0.003C59.388,10.127,58.298,10.542,56.96,10.542z"/>
		</g>
		<g>
			<path style="fill:#FFFFFF;" d="M64.406,10.398h-1.292V8.039l-3.092-3.786h1.681l2.063,2.616l2.109-2.616h1.674l-3.144,3.802
				V10.398z"/>
		</g>
		<g>
			<path style="fill:#FFFFFF;" d="M67.96,6.786V5.791l0.222-0.025c0.092-0.01,0.124-0.023,0.133-0.028
				c-0.003-0.002,0.006-0.033,0.006-0.113h-0.36V4.253h1.38v1.282c0,0.411-0.081,0.907-0.712,1.102l-0.005,0.001
				c-0.07,0.02-0.143,0.029-0.216,0.037c-0.043,0.004-0.086,0.007-0.128,0.02L67.96,6.786z"/>
		</g>
		<g>
			<path style="fill:#FFFFFF;" d="M73.024,10.534c-0.084,0-0.845-0.005-1.517-0.175c-0.153-0.039-0.359-0.09-0.645-0.213
				c-0.343-0.148-0.569-0.317-0.644-0.373c-0.323-0.248-0.479-0.474-0.571-0.609l-0.175-0.256l0.274-0.134L70.66,8.4l0.117,0.14
				c0.045,0.054,0.07,0.084,0.106,0.121c0.122,0.122,0.369,0.3,0.692,0.432c0.581,0.237,1.298,0.262,1.532,0.253
				c0.757,0,1.153-0.181,1.356-0.333c0.265-0.202,0.285-0.479,0.285-0.56c0-0.215-0.111-0.372-0.33-0.466
				c-0.322-0.143-1.092-0.206-1.552-0.243l-0.21-0.018c-1.044-0.085-1.676-0.137-2.17-0.593c-0.48-0.441-0.48-0.958-0.48-1.127
				c0-0.88,0.574-1.318,0.917-1.5c0.269-0.147,0.888-0.397,1.979-0.397c0.959,0,1.745,0.194,2.335,0.576
				c0.109,0.073,0.198,0.136,0.288,0.216c0.155,0.129,0.284,0.294,0.353,0.384l0.23,0.265l-0.29,0.176l-0.889,0.357l-0.117-0.117
				C74.775,5.929,74.647,5.8,74.504,5.7c-0.408-0.283-0.943-0.427-1.591-0.427c-0.521,0-0.94,0.09-1.143,0.167
				c-0.418,0.158-0.463,0.421-0.463,0.526c0,0.078,0.022,0.161,0.06,0.221c0.125,0.2,0.414,0.235,0.694,0.268
				c0.39,0.05,0.727,0.079,1.064,0.108c0.285,0.024,0.569,0.049,0.854,0.082c0.864,0.104,1.358,0.322,1.709,0.755
				c0.352,0.451,0.352,0.897,0.352,1.044c0,0.525-0.183,0.882-0.336,1.091c-0.368,0.513-1.02,0.847-1.837,0.941
				C73.567,10.514,73.282,10.534,73.024,10.534z"/>
		</g>
	</g>
</g>
<g id="Layer_1">
</g>
</svg>
