<svg xmlns="http://www.w3.org/2000/svg" viewBox="0 0 1000 600" enable-background="new 0 0 1000 600"><g><path d="M0 170h1000v240H0zM199.82 392.317h6.01l1.83 5.196 13.067 50.393 12.936-50.393 1.83-5.196h39.072l-3.136 9.443-31.885 95.12-.132.353v100.08H201.91v-100.08l-31.884-95.473-3.268-9.443h33.062zM464.69 392.2h8.23V426.07H418.04v51.81h33.845v33.753h-33.845v85.68H380.668V392.2h84.02zM589.087 551.878c0 12.51-4.922 23.21-14.767 32.1-9.845 8.892-21.692 13.336-35.543 13.336-14.026 0-25.873-4.445-35.543-13.337-9.845-8.89-14.767-19.59-14.767-32.1V392.2H525.84v159.678c0 3.226 1.262 5.978 3.79 8.26 2.612 2.284 5.662 3.423 9.146 3.423 3.484 0 6.49-1.138 9.017-3.423 2.525-2.28 3.79-5.033 3.79-8.26V392.2h37.503v159.678zM636.65 392.2h8.1v53.107l25.61-48.856 2.092-4.25H713.353l-5.36 10.506-45.473 87.567 45.607 96.775 4.704 10.267h-40.508l-2.09-4.486-25.483-54.524v59.009h-37.372V392.2H636.648zM828.21 551.878c0 12.51-4.92 23.21-14.764 32.1-9.845 8.892-21.692 13.336-35.543 13.336-14.026 0-25.873-4.445-35.543-13.337-9.845-8.89-14.765-19.59-14.765-32.1V392.2H764.965v159.678c0 3.226 1.264 5.978 3.79 8.26 2.615 2.284 5.664 3.423 9.148 3.423s6.49-1.138 9.016-3.423c2.526-2.28 3.79-5.033 3.79-8.26V392.2H828.21v159.678zM353.236 444.29c-8.737-7.35-19.295-11.078-31.38-11.078-12.242 0-22.804 3.73-31.38 11.075-8.733 7.28-13.16 16.27-13.16 26.71v91.318c0 10.375 4.426 19.357 13.146 26.696 8.516 7.294 19.078 10.99 31.392 10.99 12.16 0 22.717-3.694 31.385-10.986 8.726-7.406 13.153-16.39 13.153-26.698v-91.318c0-10.373-4.427-19.36-13.157-26.708zm-21.714 118.024c0 2.19-.91 4.018-2.746 5.566-2.1 1.653-4.364 2.455-6.92 2.455-2.702 0-4.997-.8-7.002-2.43-1.873-1.574-2.782-3.403-2.782-5.59v-91.32c0-2.188.91-4.02 2.782-5.593 1.94-1.633 4.23-2.427 7-2.427 2.695 0 4.947.794 6.89 2.427 1.87 1.57 2.78 3.4 2.78 5.594v91.318zM357.36 394.983h6.877v27.181h-84.041v-27.181h77.167zM195.165 0h7.46v188.006h-34.417V0h26.957zM304.318 12.332c9.066 8.078 13.6 17.886 13.6 29.423v11.143H283.38V41.755c0-2.958-1.164-5.48-3.492-7.572-2.247-2.09-5.014-3.138-8.303-3.138-3.29 0-6.098 1.047-8.425 3.138-2.326 2.09-3.49 4.616-3.49 7.572V146.36c0 2.956 1.164 5.48 3.49 7.57 2.408 2.093 5.215 3.138 8.425 3.138 3.21 0 5.976-1.045 8.303-3.138 2.328-2.09 3.49-4.614 3.49-7.57v-11.143H317.917v11.143c0 11.465-4.532 21.273-13.598 29.423-9.066 8.15-19.977 12.223-32.733 12.223-12.917 0-23.83-4.074-32.734-12.223-9.065-8.15-13.598-17.96-13.598-29.423V41.755c0-11.54 4.533-21.346 13.6-29.423C247.836 4.112 258.747 0 271.585 0c12.676 0 23.587 4.11 32.732 12.332zM360.523 0h7.46V78.534h17.572V0h34.537v188.006h-34.536v-78.534h-17.572v78.534h-34.417V0h26.956zM466.553 0h7.46v188.006h-34.417V0h26.957zM538.04 188.006H496.64V0h41.397c14.04 0 26.073 4.507 36.1 13.523 10.03 8.94 15.045 19.795 15.045 32.56v17.414c0 6.852-1.646 13.45-4.934 19.797-2.246 4.038-4.933 7.61-8.063 10.71 3.13 3.243 5.817 6.85 8.064 10.817 3.29 6.273 4.935 12.836 4.935 19.687v17.526c0 12.763-5.016 23.58-15.044 32.452-10.027 9.014-22.06 13.52-36.1 13.52zm0-109.472c4.572 0 8.502-1.478 11.793-4.434 3.288-2.958 4.934-6.49 4.934-10.603V46.082c0-4.11-1.646-7.645-4.934-10.6-3.29-2.957-7.22-4.437-11.794-4.437h-6.98v47.489h6.98zm11.793 74.098c3.288-2.956 4.934-6.49 4.934-10.6v-17.525c0-4.11-1.646-7.643-4.934-10.6-3.29-2.957-7.22-4.435-11.794-4.435h-6.98V157.068h6.98c4.572 0 8.502-1.478 11.793-4.436zM644.667 158.908l-5.173 23.473-1.205 5.626h-40.194l1.805-7.896L638.29 5.625 639.493 0h39.11l1.203 5.625 38.39 174.485 1.805 7.896h-40.196l-1.203-5.625-5.175-23.472h-28.76zM658.99 78.64l-8.065 50.626h16.247L658.99 78.64zm-6.98 47.058l6.98-32.02-6.98 32.02zM731.322 6.814V0h32.975l1.684 4.76 29.606 82.32V0h34.537v188.006H797.15l-1.686-4.652-29.724-82.427V188.006h-34.417V6.814z"/><path d="M310.654 264.686h63.652v-23.61H327.76c4.738-7.064 9.01-14.138 11.422-18.228 3.67-.887 5.367-3.148 6.105-4.62l2.752-5.5-14.667-5.43c3.9-.654 7.56-1.32 10.96-1.995.946.12 1.763.12 2.323.12 1.33 0 3.803 0 5.85-2.05l3.707-3.71-16.295-17.96-3.105.67c-35.972 7.74-102.914 12.96-149.31 15.077l-8.185.373 3.435 7.44c1.012 2.19 2.427 7.115 2.804 9.757l.7 4.91 4.958-.182c3.58-.132 7.213-.28 10.883-.443l1.695 2.204c4.272 5.553 8.857 12.928 12.27 19.568H170.09v23.61h62.96c-18.424 14.173-42.495 26.99-64.787 34.18l-9.306 3.003 7.39 6.406c2.53 2.193 6.305 6.994 8.574 10.398l2.396 3.593 4.06-1.467c5.494-1.984 11.162-4.366 16.934-7.113v78.64h25.128v-7.813h99.908v6.945h25.563v-77.865c4.427 1.837 9.012 3.596 13.704 5.26l4.102 1.457 2.365-3.654c2.493-3.852 6.24-8.815 8.99-11.22l7.636-6.68-9.762-2.767c-22.515-6.383-46.696-18.094-65.29-31.304zm-51.564 86.18v10.688h-35.653v-10.69h35.653zm0-31.477v9.603h-35.653v-9.604h35.653zm-.434-78.313h-15.053c-2.492-7.182-7.52-15.863-12.687-23.3 9.21-.565 18.506-1.207 27.74-1.918v25.217zm57.158 55.572h-31.596v-23.07c9.144 8.07 19.95 15.954 31.596 23.07zm-57.158-22.335v22.333h-29.602c10.858-6.96 20.905-14.536 29.602-22.333zm40.114-33.556l-.23.317h-14.32v-27.48c11.63-1.154 22.468-2.416 32.29-3.756-4.364 9.67-11.797 22.675-17.74 30.92zm24.575 110.105v10.69H284v-10.69h39.345zm0-31.476v9.603H284v-9.604h39.345z" fill="#fff"/><g fill="#fff"><path d="M440.4 289.134l14.557-21.453-3.852-3.193c-9.307-7.718-27.618-17.815-42.593-23.487l-3.952-1.497-14.314 19.88 6.35 2.695c14.26 6.05 31.076 15.918 39.116 22.953l4.688 4.104zM446.132 226.872l4.517 4.398 15.377-20.758-3.626-3.354c-9.773-9.04-28.385-19.584-41.72-25.328l-3.878-1.67-15.186 19.18 6.293 2.955c14.3 6.72 30.732 17.284 38.222 24.577zM542.75 292.255h51.23V267.56h-51.23v-21.977h57.96V220.67h-31.408c4.79-7.397 9.524-15.387 12.947-21.897 3.065-.68 5.176-2.332 6.292-4.938l2.22-5.178-28.116-11.315-2.07 5.08c-4.406 10.82-13.49 27.313-20.68 37.554l-.49.695h-21.093l-.435-1.175c-3.82-10.332-13-25.852-22.323-37.74l-2.736-3.49-22.556 10.886 3.925 5.343c5.915 8.052 11.827 17.906 15.818 26.178h-29.045v24.913h56.006v21.977H467.69v24.694h49.277v23.28h-56.53l.596-1.258 1.788-3.792-19.45-16.73-3.13 6.425c-11.586 23.793-27.7 52.835-39.183 70.625l-2.784 4.315 24.146 18.108 2.955-5.896c.82-1.637 1.236-3.343 1.236-5.073 0-.827-.094-1.654-.278-2.463 8.6-14.228 19.487-34.423 28.983-53.68v14.328h61.65v51.882h25.78v-51.882h63.386v-24.912H542.75v-23.278z"/></g><g fill="#fff"><path d="M636.572 271.984c0 37.985-1.905 77.024-15.72 105.248l-2.668 5.45 5.683 2.13c2.906 1.09 8.122 4.208 10.148 6.067l5.454 5.003 3.227-6.66c8.52-17.583 13.97-41.173 16.625-72.003h26.526v49.916c-1.755.062-4.3.062-7.08.062-4.015 0-9.01 0-14.327-.21l-9.317-.37 4.172 8.34c1.76 3.516 3.456 9.386 3.797 12.288l.574 4.865h4.898c13.86 0 23.875 0 30.72-2.724 10.17-4.05 11.475-13.244 11.475-20.802V187.46h-74.19v84.524zm24.478-32.644v-26.97h24.8v26.97h-24.8zm24.8 24.695v28.272h-25.102c.166-7.12.302-13.9.302-20.323v-7.95h24.8zM833.247 370.745c-11.87-5.478-23.388-14.008-33.52-24.797 11.825-17.902 20.616-38.59 26.164-61.58 1.274-1.282 2.098-2.76 2.418-4.357l.896-4.475-15.072-6.1-3.47.946H746.36v-56.708h50.85v28.65c-1.935.055-4.737.055-7.95.055-1.957 0-4.18-.045-6.593-.094-2.87-.058-6.123-.123-9.47-.123h-9.15l4.28 8.087c1.748 3.304 3.464 8.184 3.992 11.353l.766 4.604h4.667c30.612 0 44.583 0 44.583-21.573v-55.653H721.232V392.11h25.128v-.638l1.83 3.254 4.878-2.996c11.67-7.167 22.266-16.026 31.57-26.388 10.756 11.166 22.31 20.018 34.408 26.356l4.737 2.48 2.62-4.66c1.524-2.705 5.318-7.186 8.12-9.587l6.52-5.587-7.796-3.598zM768.13 294.86h29.22c-3.632 10.56-8.295 20.678-13.935 30.226-5.858-9.135-11.042-19.383-15.285-30.226zm-21.77 8.28c5.974 15.677 13.51 29.978 22.473 42.65-6.85 8.035-14.476 15.032-22.473 20.642v-63.29z"/></g></g></svg>