<svg data-name="Layer 1" xmlns="http://www.w3.org/2000/svg" viewBox="0 0 1000 503.17"><path d="M923.78 124.62c11.02-5.76 20.78-15.02 26.12-26.62 4.69-10.2 2.47-20.85-6.56-23.42-7-1.99-16.67 1.34-20.29 9.21-4.22 9.18-2.57 19.28 5.49 22.24-2.1 2.64-7.61 6.83-10.45 8.89-3.77 2.74-5.42 6.25-3.59 8.99 2.44 3.66 6.27 2.29 9.3.71ZM906.2 335.09c.19-3.33-3.32-6.2-9.85-6.43-167.77-5.83-443.83-16.32-709.46 53.69-9.73 2.38-16.32 5.24-16.49 9.81-.18 4.73 2.92 8.48 11.05 10.68 14.59 3.94 29.77 6.31 38.09 7.29 6.45.75 14.49 1.09 22.4-.03 9.97-1.41 20.96-4.64 28.1-7.02 181.15-60.4 407.29-65.88 625.09-62.28 7.43.12 10.92-2.74 11.08-5.71ZM428.25 112.3c-2.37 8.74 3.09 18.03 14.24 18.39 10.57.34 17.02-6.1 18.8-13.55 2.36-9.89-3.71-18.83-14.33-18.57-8.9.21-16.22 4.6-18.71 13.73ZM986.92 169.11c-3-7.22-5.16-14.78-3.51-20.25 1.77-5.85 6.09-6.96 8.86-15.6 2.28-7.12 1.29-15.93-7.38-16.23-9.6-.35-14.18 7.06-18.42 19.84-15.7 28.86-59.1 65.31-72.66 76.08-12.85 10.21-14.87 13.79-11.28 18.75 3.52 4.86 10.34 4.11 24.26-6.65 17.42-13.47 48.53-43.45 61.22-61.61.95 18.9 8.66 36.6 3.5 63.5-2.31 12.03-8.31 27.89-22.74 34.31-10.42 4.64-25.15 1.15-29.66-9.36 8.63-2 12.64-6.85 12.88-15.58.22-8.04-4.41-13.99-12.11-15.05-5.5-.76-12.8.95-16.43 7.1-3.08 5.24-4.68 12.64-2.87 20.93 4.26 19.53 22.43 28.15 41.15 28.81 23.5.87 49.19-13.96 56.03-39.67 6.63-24.91-2.81-49.95-10.84-69.32Z"/><path d="M828.61 174.49c30.51-32.22 61.55-69.46 70.05-103.09 5.82-23.02.86-38.96-21.26-38.27-51.25 1.63-125.42 89.28-134.4 175.26-.8 7.69-.74 15.49.25 22.98-14.54 13.94-26.49 23.29-42.64 32.09-7.34 4-14.62 5.58-19.18.81-3.04-3.18-3.51-10.35-.16-18.32 6.5-15.48 17.62-29.17 27.79-46.72 6.64-11.46 8.19-25.08 5.36-33.11-2.91-8.24-11.97-13.7-22.47-13.7-17.22 0-34.59 8.97-48.17 18.84 0 0 60.3-101.75 66.91-113.09 5.68-9.73 1.03-12.28-5.97-12.28h-16.05c-4.93 0-7.43 2.36-11.14 8.83-45.65 78.77-74.75 128.97-93.51 161.42-3.94 4.18-8.47 9-13.93 14.95-21.21 21.53-48.72 43.98-69.16 46.72-10.39 1.39-18.54-2.65-23.53-10.25 28.44-16.38 59.49-35.66 73.51-60.27 7.4-12.99 10.7-21.48 8.21-34.18-2.33-11.84-11.17-17.09-23.57-18.25-18.88-1.77-41.55 5.55-59.23 22.39-17.29 16.47-26.44 33.03-30.96 49.66-3.65 13.43-3.21 29.18 1.87 42.34-10.36 5.68-21.59 10.27-30.25 13.02-23.02 7.31-33.64-10.31-20.68-39.1 5.81-12.92 27.31-54.72 38.23-71.45 3.54-5.44 2.18-9.77-4.49-9.51-5.32.21-15.74.52-20.08.78-4.9.29-7.59 1.65-10.14 5.65-8.65 13.54-27.39 56.4-40.28 77.4-8.71 14.17-17.12 25.89-29.16 35.51-12.57 10.05-26.07 5.95-28.09-7.84-2.44-16.7 4.02-38.97 4.2-55.42.26-24.88-5.06-40.96-15.57-53.5 82.55-30.31 129.89-115.13 177.86-137.7a83.17 83.17 0 0 1 8.86-3.56c14.14-4.77 27.93-4.87 31.22 5.16 3.83 11.6-9.5 25.73-24.68 30.79-12.99 4.33-18.93 8.62-17.81 12.49 1.29 4.42 7.53 4.29 17.43 2.99 24.07-3.14 48.82-25.58 43.56-51.17C523.99 7.43 508.18-1.1 486.48.14c-4.73.27-9.39 1.02-13.99 2.13 0-.01-.02-.02-.02-.03C410.5 17.07 359.5 102.96 304.14 141.37c-9.43 6.54-15.24 9.81-23.62 13.23-8.99-7.57-20.07-13.37-37.29-13.18 14.78-32.15 26.1-60.01 46.37-86.59 7.79-4.72 19.88-7.99 27.39-13.7 8.15-6.2 11.54-13.65 8.53-18.6-3.49-5.75-14.38-6.91-22.52-4.25-5.76 1.87-9.68 6.6-17.82 14.04-8.15 7.44-26.63 9.64-46.2 5.85-8.67-1.68-17.06-4.61-25.54-7.89-20.09-7.78-40.75-17.6-67.21-17.73-37.4-.17-64.47 17.25-64.96 45.59-.47 27.87 26.31 42.72 55.12 37.42 6.06-1.11 15.38-6.36 15.41-9.9.04-3.89-10.58-4.86-16.03-4.97-23.77-.55-36.27-7.54-35.85-20.65.38-11.9 12.58-20.77 35.08-20.99 23.14-.23 43.19 10.38 72.3 15.8v.01l.66.12c.11.02.22.04.33.07 15.52 2.81 33.62 4.11 56.13 1.52-23.15 24.91-57.88 75.67-82.54 121.02-39.97 73.52-57.79 103.35-87.46 117.78-20.8 10.12-48.64 12.44-64.23-.14-5.88-4.74-9.21-11.68-9.23-17.71-.01-3.13.83-3.85 1.71-3.88 13.27-.57 19.64-6.4 20.74-15.12 1.48-11.82-6.74-19.85-17.4-19.1C8.22 240.6-.71 253.95.04 274.12c.9 23.73 19.67 46.81 57.59 47.12 86.57.71 132.86-78.82 165.45-139.07 2.12-3.93 4.14-7.79 6.09-11.6 8.56 3.01 20.43 3.81 37.49.75 5.48 19.74-3.04 49.04-2.88 76.39.24 38.61 12.83 59.56 38.17 60.58 21.49.87 44.53-14.59 58.81-36.95 2.5 22.63 19.42 31.44 36.62 30.99 15.21-.4 35.76-9.51 56.34-21.17 7.19 9.61 18.13 15.99 33.21 15.85 23.78-.23 46.91-14.56 71.86-37.09-8.82 15.41-9.98 17.71-11.94 21.54-2.71 5.31-.47 10.53 4.43 10.36 4.25-.15 11.45-.72 15.69-1.03 5.73-.41 8.49-2.71 10.57-5.9 3.06-4.73 25.91-46.5 37.28-63.67 16.7-25.21 37.84-39.58 49.2-43.92 16.4-6.28 22.87 4.81 13.02 18.99-14.06 20.2-24.83 38.25-27.03 53.09-2.99 20.15 6.82 36.06 29.07 36.97 11.58.47 21.73-3.23 33.22-10.45 16.7-10.48 23.59-16.14 35.42-26.66 6.79 17.41 20.32 30.44 41.9 31.92 36.12 2.47 56.34-15.47 72.18-31.65 5.94-6.07 6-11.83 2.6-15.28-3.2-3.24-10.37-1.56-14.85 3.03-12.39 12.68-28.34 25.56-47.83 24.56-16.94-.87-25.93-14.72-28.15-33.96 24.29-21.78 37.03-34.34 55.03-53.35Zm-582.07-12.33c-8.44 0-11.89-2.26-11.16-6.37.53-3.02 4.06-3.62 7.13-3.58 9.89.14 15.13 2.5 19.37 8.74-5.74 1.1-10.63 1.22-15.34 1.22Zm228.55 64.62c7.23-23.32 21.05-40.29 34.64-48.91 6.95-4.4 15.16-4.74 18.19-2.75 7.08 4.68 8.83 21.07-9.96 41.6-10.48 11.45-22.56 23.63-45.45 37.55-1.29-7.93-.55-17.34 2.59-27.49Zm298.74-22.08c.17-1.44.37-2.89.59-4.34 8.8-57.58 55.56-122.4 85.56-142.01 13.08-8.55 21.8-5.31 17.76 8.1-6.96 23.19-31.48 57.75-51.46 82.19-16.77 20.5-34.44 39.27-52.44 56.05ZM248.25 469.35c0 9.11 5.58 12.04 16.56 14.6 6.95 1.63 9.18 2.98 9.18 5.58 0 4.26-4.69 4.26-7.5 4.26-4.6 0-10.32-2.28-13.88-4.49-.35.55-4.97 8.03-5.35 8.64 5.4 3.26 12.44 5.23 18.96 5.23 12.27 0 19.03-5.2 19.03-14.63 0-8-4.25-11.73-16.84-14.71-6.04-1.41-8.9-2.4-8.9-5.23 0-4.13 4.64-4.13 6.17-4.13 4.45 0 8.66 1.38 13.18 4.25.32-.55 5.01-8.11 5.38-8.71-5.11-3.34-10.78-4.92-17.87-4.92-11.01 0-18.12 5.61-18.12 14.27ZM324.25 455.86v46.51h11.55v-46.51h-11.55ZM407.74 484.46c-1.05-2.02-7.5-11.7-9.69-14.63 0 0-9.78-13.13-10.4-13.97h-10.22v46.51h10.69V488.6c0-6.19-.2-15.06-.49-16.85 1.2 2.04 7.54 11.94 9.74 15l11.3 15.61h9.31v-46.51h-10.71v12.19c0 1.25.07 13.97.47 16.4ZM452.3 479.13c0 14.81 8.09 24.04 21.1 24.04 11.28 0 16.09-6.19 18.73-11.02-.59-.33-8.91-4.74-9.48-5.03-2.27 3.85-4.31 6.53-9.11 6.53-5.95 0-9.37-5.29-9.37-14.51s3.36-14.53 9.23-14.53c5.08 0 7.01 3.46 8.49 7.08.59-.25 9.52-3.72 10.17-4-3.02-7.76-7.26-12.59-18.58-12.59-12.86 0-21.18 9.43-21.18 24.04ZM528.81 455.86v46.51h35.59v-9.08h-24.48v-10.63h14.44v-8.93h-14.44v-8.79h23.99v-9.08h-35.1ZM644.96 455.86c-1.53 4.1-4.33 5.94-9.75 6.47v6.46h8.22v33.58h10.98v-46.51h-9.46ZM694.96 468.47c0 4.52 3.11 7.06 4.95 8.14-.19-.05 1.32.79 1.32.79l.69.39-.74.28-1.43.59c-1.6.64-6.89 3.23-6.89 9.68 0 9.13 8.07 14.82 21.04 14.82s21.17-5.7 21.17-14.82c0-6.57-5.26-9.18-6.87-9.83l-2.06-.84 1.87-1.18c3.4-2.16 4.98-4.72 4.98-8.03 0-8.25-7.26-13.38-18.95-13.38s-19.08 5.14-19.08 13.38Zm10.69.19c0-1.4.59-6.02 8.25-6.02 6.18 0 8.39 3.11 8.39 6.02 0 1.76-.8 5.82-8.25 5.82s-8.39-4.46-8.39-5.82Zm-2.1 19.53c0-4.34 3.88-6.94 10.35-6.94s10.48 2.66 10.48 6.94-3.95 7.01-10.34 7.01-10.49-2.7-10.49-7.01ZM771.09 455.86c-.05.69-1.52 22.82-1.56 23.36.52.18 9.94 3.36 10.24 3.46 2.37-1.59 4.85-2.67 9.14-2.67 4.88 0 7.69 2.5 7.69 6.85 0 4.89-3.27 7.35-9.72 7.35-4.64 0-10.17-1.63-15.22-4.44-.14.26-4.08 7.5-4.42 8.11 6.31 3.64 12.28 5.28 19.3 5.28 13.23 0 20.83-6.07 20.83-16.65 0-9.71-5.79-15.04-16.29-15.04-5.13 0-7.86.98-10.03 2.05l-1.76.86.61-9.79h24.55v-8.73h-33.36ZM852.99 455.86c-1.53 4.1-4.31 5.94-9.73 6.47v6.46h8.23v33.58h10.96v-46.51h-9.46Z"/></svg>