<svg xmlns="http://www.w3.org/2000/svg" viewBox="0 0 100 40" enable-background="new 0 0 100 40"><g><path d="M10.073 22.823c-.23-.193-.55-.355-.973-.502.346-.186.598-.422.774-.71.175-.315.264-.637.264-1 0-.38-.102-.74-.305-1.053-.187-.31-.47-.542-.814-.697-.347-.15-.845-.223-1.487-.223h-1.6v8.113h2.224c.803 0 1.442-.23 1.93-.675.47-.465.707-1.01.707-1.662 0-.318-.058-.617-.197-.892-.116-.28-.29-.508-.524-.697m-3.338-3.4h.938c.57 0 .988.11 1.237.322.265.213.392.498.392.87 0 .275-.085.53-.222.755-.163.24-.38.397-.644.504-.26.11-.68.163-1.233.163h-.468v-2.615zm2.973 5.804c-.172.25-.39.432-.666.54-.274.12-.71.185-1.3.185H6.734v-3.134h.454c.692 0 1.17.032 1.44.102.42.092.74.285.97.56.242.267.355.58.355.943 0 .287-.082.554-.247.804"/><path d="M16.72 22.707c.39-.173.69-.416.904-.756.212-.335.32-.725.32-1.166 0-.526-.148-.973-.47-1.34-.296-.356-.692-.594-1.167-.703-.318-.075-.935-.104-1.836-.104H12.85v8.114h.81v-3.778h.462l2.92 3.778h1l-2.925-3.778c.685-.005 1.213-.097 1.605-.265m-3.064-.524v-2.76H15.1c.546 0 .944.048 1.19.138.244.094.43.26.585.48.143.223.22.472.22.74 0 .27-.077.53-.22.766-.15.228-.348.387-.61.493-.265.1-.668.147-1.206.147l-1.404-.004zM19.93 18.636h.807v8.114h-.807zM22.644 19.422h1.8v7.328h.807v-7.328h1.824v-.786h-4.43zM34.435 24.846l-5.39-6.21h-.176v8.114h.84v-6.157l5.35 6.157h.185v-8.114h-.81zM37.843 26.75h4.615v-.798h-3.81v-3.2h3.81v-.79h-3.81v-2.54h3.83v-.786h-4.635zM46.46 22.02l-2.097-3.384h-.927l2.62 4.228v3.884h.81v-3.884l2.56-4.228h-.914z"/></g></svg>