<svg xmlns="http://www.w3.org/2000/svg" viewBox="0 0 100 40" enable-background="new 0 0 100 40"><g><linearGradient id="a" gradientUnits="userSpaceOnUse" x1="-344.695" y1="324.988" x2="-344.372" y2="324.988" gradientTransform="matrix(0 -45.065 -45.065 0 14659.182 -15519.038)"><stop offset="0" stop-color="#DFD09D"/><stop offset=".002" stop-color="#DFD09D"/><stop offset=".519" stop-color="#8B774D"/><stop offset=".538" stop-color="#8F7C51"/><stop offset=".677" stop-color="#AC9A6E"/><stop offset=".804" stop-color="#C3B385"/><stop offset=".916" stop-color="#D2C395"/><stop offset="1" stop-color="#D8CA9B"/></linearGradient><path d="M13.38 14.72c-.983 0-1.652.033-1.974.048-.125.006-.21.01-.25.01h4.583c-.036 0-.114-.003-.233-.008-.35-.016-1.077-.05-2.127-.05z" fill="url(#a)"/><linearGradient id="b" gradientUnits="userSpaceOnUse" x1="-344.695" y1="325.207" x2="-344.372" y2="325.207" gradientTransform="matrix(0 -45.065 -45.065 0 14659.182 -15519.038)"><stop offset="0" stop-color="#DFD09D"/><stop offset=".002" stop-color="#DFD09D"/><stop offset=".519" stop-color="#8B774D"/><stop offset=".538" stop-color="#8F7C51"/><stop offset=".677" stop-color="#AC9A6E"/><stop offset=".804" stop-color="#C3B385"/><stop offset=".916" stop-color="#D2C395"/><stop offset="1" stop-color="#D8CA9B"/></linearGradient><path d="M3.413 14.72c-1.24 0-1.987.033-2.346.048-.136.006-.227.01-.278.01h5.553c-.076 0-.176-.004-.324-.01-.387-.016-1.106-.047-2.607-.047z" fill="url(#b)"/><linearGradient id="c" gradientUnits="userSpaceOnUse" x1="-344.695" y1="325.219" x2="-344.372" y2="325.219" gradientTransform="matrix(0 -45.065 -45.065 0 14659.182 -15519.038)"><stop offset="0" stop-color="#DFD09D"/><stop offset=".002" stop-color="#DFD09D"/><stop offset=".519" stop-color="#8B774D"/><stop offset=".538" stop-color="#8F7C51"/><stop offset=".677" stop-color="#AC9A6E"/><stop offset=".804" stop-color="#C3B385"/><stop offset=".916" stop-color="#D2C395"/><stop offset="1" stop-color="#D8CA9B"/></linearGradient><path d="M3.413.286c.14 0 .414-.01.73-.022.458-.016.98-.036 1.362-.036H.6c.062 0 .158.004.3.01.388.017 1.11.048 2.513.048z" fill="url(#c)"/><linearGradient id="d" gradientUnits="userSpaceOnUse" x1="-344.695" y1="325.031" x2="-344.372" y2="325.031" gradientTransform="matrix(0 -45.065 -45.065 0 14659.182 -15519.038)"><stop offset="0" stop-color="#DFD09D"/><stop offset=".002" stop-color="#DFD09D"/><stop offset=".519" stop-color="#8B774D"/><stop offset=".538" stop-color="#8F7C51"/><stop offset=".677" stop-color="#AC9A6E"/><stop offset=".804" stop-color="#C3B385"/><stop offset=".916" stop-color="#D2C395"/><stop offset="1" stop-color="#D8CA9B"/></linearGradient><path d="M22.41 13.106h-.576l-.012-.09c-.03-.188-.03-.947-.03-1.556V9.406c0-1.484 0-2.767.033-3.04.036-.283-.063-.463-.152-.564-.232-.262-.603-.268-1.12-.058-.147.06-.674.25-1.184.436-.714.258-1.158.42-1.288.476-.013.005-.024.012-.036.018-.108-.703-.682-1.195-1.45-1.195-.705 0-1.4.358-2.018 1.028l-.036-.28c-.097-.605-.558-.635-.65-.635-.174 0-.3.045-.402.082l-2.106.983c.35-.596.54-1.294.54-2.083 0-1.295-.614-2.52-1.655-3.29C9.11.485 7.953.23 5.505.23c-.383 0-.904.018-1.363.035-.316.01-.59.02-.73.02C2.01.286 1.287.256.898.24.758.232.66.23.598.23.31.23 0 .427 0 .864v.475c0 .358.252.618.6.618h.988c.092 0 .15.005.186.01.015.35.015 2.4.015 3.405V7.58c0 2.253-.04 5.105-.055 5.31-.008.07-.016.113-.022.14-.052.01-.153.02-.353.02H.75c-.14 0-.598.045-.598.635v.476c0 .37.256.618.637.618.05 0 .142-.004.277-.01.36-.016 1.105-.047 2.346-.047 1.5 0 2.22.03 2.605.047.148.006.25.01.324.01.106 0 .636-.032.636-.673v-.438c0-.37-.256-.618-.636-.618H5.278c-.034 0-.05-.002-.057-.003-.006-.01-.034-.055-.05-.16-.007-.106-.017-.836-.017-3.71v-.3c.377.025.782.025 1.227.025 1.847 0 3.31-.487 4.272-1.352.006.165.076.43.434.568l.315.176c.355.19.468.286.468 1.057V13.106h-.676c-.398 0-.655.25-.655.636v.418c0 .364.254.618.618.618.042 0 .126-.004.25-.01.323-.016.992-.047 1.975-.047 1.05 0 1.778.033 2.127.05.12.004.198.007.232.007.363 0 .617-.254.617-.617v-.437c0-.364-.262-.618-.637-.618h-.858c-.012-.047-.026-.14-.026-.314V9.12c0-.19.068-.522.164-.692.144-.25.326-.308.38-.308.076 0 .18.01.24.054l.075.046c.152.076.466.203.864.203.454 0 .89-.256 1.177-.62.077.128.215.245.462.3.626.165.626.325.626.712v2.683c0 .504 0 1.073-.033 1.607h-.663c-.464 0-.675.33-.675.637v.362c0 .465.32.674.637.674.076 0 .203-.006.378-.014.37-.017.93-.043 1.676-.043.937 0 1.645.032 2.026.048.14.006.233.01.275.01.307 0 .637-.21.637-.674v-.38c0-.285-.176-.618-.674-.618zM7.926 6.236c-.37.525-1.218 1.087-1.887 1.087-.342 0-.647-.02-.886-.055V1.86c.15-.017.31-.017.4-.017h.22c.024 0 2.52.03 2.52 2.693 0 .533-.042 1.21-.368 1.7z" fill="url(#d)"/><linearGradient id="e" gradientUnits="userSpaceOnUse" x1="-344.695" y1="324.837" x2="-344.372" y2="324.837" gradientTransform="matrix(0 -45.065 -45.065 0 14659.182 -15519.038)"><stop offset="0" stop-color="#DFD09D"/><stop offset=".002" stop-color="#DFD09D"/><stop offset=".519" stop-color="#8B774D"/><stop offset=".538" stop-color="#8F7C51"/><stop offset=".677" stop-color="#AC9A6E"/><stop offset=".804" stop-color="#C3B385"/><stop offset=".916" stop-color="#D2C395"/><stop offset="1" stop-color="#D8CA9B"/></linearGradient><path d="M20.146 14.72c-.747 0-1.307.027-1.676.044-.175.008-.302.014-.378.014h4.355c-.042 0-.136-.004-.275-.01-.38-.016-1.09-.047-2.026-.047z" fill="url(#e)"/><path fill="none" d="M19.918.742z"/><linearGradient id="f" gradientUnits="userSpaceOnUse" x1="-345.845" y1="320.16" x2="-345.522" y2="320.16" gradientTransform="matrix(0 -10.304 -10.304 0 3317.807 -3559.416)"><stop offset="0" stop-color="#DFD09D"/><stop offset=".002" stop-color="#DFD09D"/><stop offset=".519" stop-color="#8B774D"/><stop offset=".538" stop-color="#8F7C51"/><stop offset=".677" stop-color="#AC9A6E"/><stop offset=".804" stop-color="#C3B385"/><stop offset=".916" stop-color="#D2C395"/><stop offset="1" stop-color="#D8CA9B"/></linearGradient><path d="M18.026 2.406c0-.932.83-1.663 1.89-1.663" fill="url(#f)"/><linearGradient id="g" gradientUnits="userSpaceOnUse" x1="-345.845" y1="320.165" x2="-345.522" y2="320.165" gradientTransform="matrix(0 -10.304 -10.304 0 3317.807 -3559.416)"><stop offset="0" stop-color="#DFD09D"/><stop offset=".002" stop-color="#DFD09D"/><stop offset=".519" stop-color="#8B774D"/><stop offset=".538" stop-color="#8F7C51"/><stop offset=".677" stop-color="#AC9A6E"/><stop offset=".804" stop-color="#C3B385"/><stop offset=".916" stop-color="#D2C395"/><stop offset="1" stop-color="#D8CA9B"/></linearGradient><path d="M19.804 4.07c-.874 0-1.778-.623-1.778-1.664" fill="url(#g)"/><linearGradient id="h" gradientUnits="userSpaceOnUse" x1="-345.845" y1="319.989" x2="-345.522" y2="319.989" gradientTransform="matrix(0 -10.304 -10.304 0 3317.807 -3559.416)"><stop offset="0" stop-color="#DFD09D"/><stop offset=".002" stop-color="#DFD09D"/><stop offset=".519" stop-color="#8B774D"/><stop offset=".538" stop-color="#8F7C51"/><stop offset=".677" stop-color="#AC9A6E"/><stop offset=".804" stop-color="#C3B385"/><stop offset=".916" stop-color="#D2C395"/><stop offset="1" stop-color="#D8CA9B"/></linearGradient><path d="M21.657 2.33c0 .864-.637 1.738-1.853 1.738" fill="url(#h)"/><linearGradient id="i" gradientUnits="userSpaceOnUse" x1="-345.845" y1="319.984" x2="-345.522" y2="319.984" gradientTransform="matrix(0 -10.304 -10.304 0 3317.807 -3559.416)"><stop offset="0" stop-color="#DFD09D"/><stop offset=".002" stop-color="#DFD09D"/><stop offset=".519" stop-color="#8B774D"/><stop offset=".538" stop-color="#8F7C51"/><stop offset=".677" stop-color="#AC9A6E"/><stop offset=".804" stop-color="#C3B385"/><stop offset=".916" stop-color="#D2C395"/><stop offset="1" stop-color="#D8CA9B"/></linearGradient><path d="M19.92.742c1.087 0 1.737.808 1.737 1.587" fill="url(#i)"/><linearGradient id="j" gradientUnits="userSpaceOnUse" x1="-345.845" y1="320.075" x2="-345.522" y2="320.075" gradientTransform="matrix(0 -10.304 -10.304 0 3317.807 -3559.416)"><stop offset="0" stop-color="#DFD09D"/><stop offset=".002" stop-color="#DFD09D"/><stop offset=".519" stop-color="#8B774D"/><stop offset=".538" stop-color="#8F7C51"/><stop offset=".677" stop-color="#AC9A6E"/><stop offset=".804" stop-color="#C3B385"/><stop offset=".916" stop-color="#D2C395"/><stop offset="1" stop-color="#D8CA9B"/></linearGradient><path d="M19.92.742h-.002c-1.06 0-1.89.73-1.89 1.663 0 1.042.903 1.663 1.777 1.663 1.217 0 1.853-.875 1.853-1.74 0-.778-.65-1.585-1.74-1.586z" fill="url(#j)"/><linearGradient id="k" gradientUnits="userSpaceOnUse" x1="-344.512" y1="325.341" x2="-344.189" y2="325.341" gradientTransform="matrix(0 -29.16 -29.16 0 9517.774 -10031.01)"><stop offset="0" stop-color="#DFD09D"/><stop offset=".002" stop-color="#DFD09D"/><stop offset=".519" stop-color="#8B774D"/><stop offset=".538" stop-color="#8F7C51"/><stop offset=".677" stop-color="#AC9A6E"/><stop offset=".804" stop-color="#C3B385"/><stop offset=".916" stop-color="#D2C395"/><stop offset="1" stop-color="#D8CA9B"/></linearGradient><path d="M27.75 14.34c.044-.088.272-.6.67-1.5.43-.97.965-2.177 1.103-2.465l.078-.163c.29-.605 1.165-2.447 1.408-2.69.032-.03.143-.075.346-.083-.263.39-.414.83-.414 1.262 0 .644.486 1.13 1.13 1.13 1.02 0 1.626-.593 1.626-1.586 0-.188-.025-.346-.045-.473l-.015-.11c.217-.136.534-.207.756-.207.456 0 .575.106.61.142.097.098.138.51.16.73l.003.72c-.285.17-.694.363-1.22.612-.247.116-.522.246-.814.387-1.353.602-2.038 1.537-2.038 2.783 0 1.456.93 2.12 1.796 2.12.4 0 .852 0 1.37-.158.563-.187 1.015-.422 1.407-.735.387.574 1.005.893 1.77.893.942 0 1.673-.455 2.172-1.352l.027-.056c.22-.55-.094-.81-.23-.894l-.216-.145-.055-.032c-.063-.03-.16-.072-.286-.072-.206 0-.382.105-.52.313l-.018.028c-.025.018-.073.043-.127.055-.03-.096-.073-.322-.073-.84l-.038-3.92c0-.428 0-1.226-.62-1.787-.477-.425-.948-.655-2.07-.655-1.093 0-2.112.314-3.034.925V6.38c0-.284-.177-.616-.674-.616-.052 0-.134.005-.25.013-.237.016-.633.044-1.234.044-.683 0-1.086-.025-1.352-.04-.14-.01-.24-.016-.322-.016-.38 0-.636.248-.636.617v.42c0 .418.3.636.598.636h.28c.01.033.013.103-.02.214-.18.597-.78 2.096-1.215 3.148l-.564-1.47-.057-.165c-.34-1-.485-1.493-.54-1.728h.212c.306 0 .636-.21.636-.674V6.4c0-.308-.176-.636-.673-.636-.076 0-.18.005-.323.014-.29.016-.774.043-1.58.043-1.113 0-1.58-.028-1.83-.044-.113-.007-.19-.012-.262-.012-.498 0-.675.328-.675.636v.4c0 .38.248.636.617.636h.362c.08 0 .126 0 .385.452.13.222.83 2.034.992 2.496.122.304 1.553 3.69 1.697 3.93.128.24.37.693.92.693.548 0 .788-.44.91-.667zm7.413-1.87c-.074.14-.45.432-.75.464-.23-.01-.374-.268-.374-.675 0-.724.422-1.037 1.123-1.42v1.63z" fill="url(#k)"/><linearGradient id="l" gradientUnits="userSpaceOnUse" x1="-344.597" y1="326.302" x2="-344.274" y2="326.302" gradientTransform="matrix(0 -34.992 -34.992 0 11460.257 -12043.239)"><stop offset="0" stop-color="#DFD09D"/><stop offset=".002" stop-color="#DFD09D"/><stop offset=".519" stop-color="#8B774D"/><stop offset=".538" stop-color="#8F7C51"/><stop offset=".677" stop-color="#AC9A6E"/><stop offset=".804" stop-color="#C3B385"/><stop offset=".916" stop-color="#D2C395"/><stop offset="1" stop-color="#D8CA9B"/></linearGradient><path d="M45.233 14.047c.293-.292.246-.604.193-.763l-.134-.277c-.1-.225-.296-.358-.533-.358-.128 0-.237.038-.354.09-.175.087-.518.176-.886.176-.26 0-.524-.404-.524-1.304V9.9c0-.695.013-1.412.038-2.065h1.837c.4 0 .603-.248.663-.486l.19-.795c.045-.186.006-.376-.108-.522-.115-.147-.296-.232-.497-.232H43.11l.057-1.398c0-.435-.3-.75-.712-.75-.323 0-.592.166-.734.45-.37.708-1.942 2.023-2.35 2.168-.553.215-.67.562-.67.815 0 .442.31.75.75.75h.62v1.99c0 .362-.015.928-.03 1.487-.014.553-.027 1.1-.027 1.44 0 1.037 1.062 2.197 2.482 2.197 1.486 0 2.383-.64 2.678-.85l.06-.053z" fill="url(#l)"/><linearGradient id="m" gradientUnits="userSpaceOnUse" x1="-344.513" y1="326.668" x2="-344.19" y2="326.668" gradientTransform="matrix(0 -28.981 -28.981 0 9516.575 -9969.533)"><stop offset="0" stop-color="#DFD09D"/><stop offset=".002" stop-color="#DFD09D"/><stop offset=".519" stop-color="#8B774D"/><stop offset=".538" stop-color="#8F7C51"/><stop offset=".677" stop-color="#AC9A6E"/><stop offset=".804" stop-color="#C3B385"/><stop offset=".916" stop-color="#D2C395"/><stop offset="1" stop-color="#D8CA9B"/></linearGradient><path d="M53.286 12.68c.338-.63-.01-.928-.177-1.027l-.286-.17-.03-.018c-.098-.05-.198-.075-.298-.075-.136 0-.39.047-.555.336-.378.58-1.034.884-1.895.884-.813 0-1.99-.925-1.99-2.597V9.91h4.12c.252 0 1.017 0 1.017-.79 0-1.19-1.014-3.526-3.357-3.526-1.788 0-2.788.432-3.694 1.597-.872 1.137-1.03 1.94-1.03 3.11 0 1.257.2 2.325 1.184 3.458.72.825 1.68 1.193 3.103 1.193 1.7 0 3.08-.805 3.89-2.27zM49.38 7.264c.518 0 .65.62.683.984-.036.003-.08.005-.132.005h-1.674c.344-.99.895-.99 1.123-.99z" fill="url(#m)"/><path d="M2.272 5.293c0-1.256 0-3.27-.018-3.48-.04-.324-.248-.42-.667-.42H.6c-.077 0-.115-.037-.115-.132V.786C.485.67.523.633.6.633c.227 0 .912.057 2.814.057.343 0 1.446-.057 2.093-.057 2.283 0 3.386.21 4.49.97.875.647 1.445 1.712 1.445 2.89 0 2.36-1.826 3.844-5.06 3.844-.646 0-1.217 0-1.712-.076V9.1c0 .914 0 3.5.02 3.748.056.418.246.61.59.61h1.064c.152 0 .152.075.152.133v.436c0 .114 0 .19-.152.19-.266 0-.875-.057-2.93-.057-1.673 0-2.435.056-2.624.056-.153 0-.153-.076-.153-.133v-.476c0-.114 0-.152.115-.152h.61c.646 0 .798-.076.855-.59.02-.19.057-3.158.057-5.364V5.294zM4.67 7.576c.34.114.874.152 1.37.152.836 0 1.825-.647 2.282-1.293.38-.57.457-1.294.457-1.978 0-2.588-2.093-3.177-3.007-3.177-.343 0-.8-.02-1.103.134v6.162zM12.353 9.268c0-.875-.152-1.18-.723-1.484l-.342-.19c-.114-.038-.152-.076-.152-.152V7.33c0-.078.038-.115.152-.173l2.302-1.084c.114-.038.19-.076.304-.076.114 0 .153.114.17.228l.172 1.37h.077c.646-1.065 1.445-1.712 2.282-1.712.61 0 .99.418.99.95s-.533 1.028-1.027 1.028c-.266 0-.495-.075-.647-.15-.15-.115-.342-.153-.532-.153-.228 0-.57.152-.8.552-.152.264-.228.683-.228.93v3.67c0 .61.152.8.533.8h.837c.114 0 .153.037.153.133v.437c0 .095-.038.133-.134.133-.134 0-.97-.057-2.36-.057-1.33 0-2.073.057-2.225.057-.095 0-.134-.038-.134-.133v-.418c0-.114.04-.153.172-.153h.666c.304 0 .494-.153.494-.514V9.268zM19.31 8.736c0-.57-.115-.95-.99-1.18-.172-.037-.19-.094-.19-.17v-.21c0-.076.037-.114.132-.152.266-.114 2.15-.78 2.472-.913.19-.076.343-.113.457-.113.115 0 .172.076.153.228-.038.305-.038 1.522-.038 3.1v2.055c0 .723 0 1.408.038 1.636.038.343.114.494.305.494h.76c.153 0 .19.038.19.134v.38c0 .115-.037.19-.152.19-.152 0-1.027-.056-2.3-.056-1.104 0-1.827.057-2.055.057-.094 0-.152-.038-.152-.19v-.362c0-.114.076-.153.19-.153h.837c.19 0 .305-.076.305-.38.038-.57.038-1.18.038-1.712V8.736zm.494-5.23c-.647 0-1.293-.457-1.293-1.18 0-.61.57-1.18 1.41-1.18.836 0 1.254.61 1.254 1.104 0 .608-.42 1.255-1.37 1.255M26.347 14.005c-.114-.19-1.484-3.405-1.674-3.88-.133-.38-.875-2.32-1.027-2.57-.304-.532-.457-.684-.8-.684h-.36c-.095 0-.133-.037-.133-.15v-.4c0-.115.038-.153.19-.153.228 0 .532.057 2.092.057 1.18 0 1.674-.057 1.903-.057.152 0 .19.038.19.152v.36c0 .115-.038.19-.152.19h-.304c-.23 0-.42.115-.42.324 0 .343.534 1.864.648 2.207.057.153.875 2.283.95 2.473h.115c.228-.533 1.37-3.27 1.636-4.166.153-.494-.075-.837-.417-.837h-.305c-.076 0-.114-.057-.114-.152V6.3c0-.094.037-.132.152-.132.228 0 .646.057 1.674.057.875 0 1.33-.057 1.484-.057.152 0 .19.038.19.133v.42c0 .094-.037.152-.133.152h-.322c-.23 0-.533.038-.723.21-.342.342-1.217 2.206-1.598 3.005-.247.513-1.673 3.766-1.77 3.956-.132.247-.247.4-.475.4-.23 0-.343-.153-.495-.438"/><path d="M35.76 13.225c-.417.456-.912.78-1.654 1.027-.437.133-.837.133-1.217.133-.705 0-1.313-.57-1.313-1.636 0-.876.38-1.732 1.75-2.34 1.18-.57 1.902-.876 2.32-1.18v-.99c-.037-.38-.076-.837-.304-1.065-.19-.21-.533-.285-.95-.285-.343 0-.8.114-1.104.342-.267.19-.077.475-.077.932 0 .685-.342 1.103-1.14 1.103-.343 0-.648-.228-.648-.646 0-.532.305-1.14.875-1.56.8-.608 1.826-1.064 3.082-1.064 1.065 0 1.407.228 1.75.533.42.38.457.912.457 1.425l.037 3.006v.914c0 1.027.152 1.332.494 1.332.267 0 .534-.152.61-.305.076-.113.114-.113.19-.075l.228.153c.076.038.115.114.038.304-.19.342-.647 1.103-1.75 1.103-.723 0-1.332-.342-1.598-1.16h-.077zm-.113-3.29c-.837.532-2.092.856-2.092 2.244 0 .78.418 1.16.875 1.16.532-.04 1.217-.57 1.217-.914v-2.49zM39.45 7.27c-.152 0-.266-.075-.266-.265 0-.152.114-.266.36-.362.534-.19 2.19-1.597 2.607-2.397.077-.152.19-.19.305-.19.152 0 .228.114.228.266l-.076 1.883h2.51c.115 0 .154.077.135.153l-.19.798c-.02.077-.076.114-.19.114h-2.3c-.04.8-.06 1.712-.06 2.55v1.71c0 1.485.63 1.79 1.01 1.79.418 0 .837-.096 1.103-.23.133-.057.19-.057.228.038l.114.228c.038.114 0 .19-.076.266-.265.19-1.064.76-2.396.76-1.14 0-1.997-.912-1.997-1.71 0-.686.057-2.208.057-2.93v-2.47H39.45zM47.572 9.935c0 1.94 1.39 3.08 2.473 3.08 1.18 0 1.902-.494 2.3-1.102.077-.134.154-.134.23-.095l.285.17c.095.058.133.134 0 .382-.4.722-1.37 2.016-3.462 2.016-1.217 0-2.073-.266-2.74-1.027-.874-1.01-1.064-1.96-1.064-3.14 0-1.046.114-1.75.932-2.815.8-1.028 1.655-1.408 3.31-1.408 2.17 0 2.872 2.264 2.872 3.043 0 .286-.19.304-.533.304h-4.603v.59zm2.36-1.275c.4 0 .627-.114.627-.266 0-.57-.19-1.693-1.18-1.693-.933 0-1.503.686-1.75 1.96h2.3z"/></g></svg>