<svg xmlns="http://www.w3.org/2000/svg" viewBox="0 0 100 40" enable-background="new 0 0 100 40"><g><path d="M57.63 22.166c-.59-.438-.944-.703-1.05-.81-.19-.208-.323-.38-.4-.548-.066-.165-.102-.336-.102-.508 0-.296.1-.534.307-.73.202-.196.476-.3.798-.3.263 0 .493.07.71.196.214.118.476.39.784.796l.662-.503c-.383-.5-.724-.855-1.057-1.036-.34-.2-.698-.297-1.075-.297-.364 0-.698.09-1 .257-.307.165-.542.394-.716.69-.167.28-.257.602-.257.956 0 .442.145.85.43 1.246.166.228.593.596 1.256 1.105.686.51 1.14.946 1.4 1.303.18.258.265.522.265.79 0 .243-.06.466-.18.666-.123.22-.31.384-.554.518-.235.125-.49.194-.753.194-.642 0-1.196-.446-1.685-1.34l-.686.415c.34.61.708 1.06 1.112 1.323.4.256.837.394 1.332.394.64 0 1.17-.216 1.624-.653.442-.438.674-.953.674-1.533 0-.412-.13-.803-.388-1.207-.272-.406-.754-.87-1.45-1.384M64.84 18.755c-.316-.08-.95-.12-1.873-.12h-1.61v8.115h.802v-3.78h.575c1.007 0 1.7-.05 2.074-.132.49-.126.883-.358 1.17-.71.285-.354.432-.804.432-1.342 0-.528-.146-.975-.437-1.33-.3-.355-.674-.593-1.135-.7m.51 2.8c-.148.224-.334.392-.596.486-.256.105-.662.155-1.228.155l-1.366-.014v-2.76h1.428c.552 0 .95.048 1.187.138.243.094.427.26.576.48.155.23.228.476.228.746 0 .286-.073.538-.227.77"/><path d="M67.752 26.75h4.61v-.798H68.56v-3.2h3.803v-.79H68.56v-2.54h3.84v-.786h-4.648zM77.065 18.636l-3.824 8.112h.915l1.252-2.658h3.51l1.256 2.658h.873l-3.778-8.112h-.203zm-1.29 4.667l1.396-2.973 1.4 2.973h-2.795zM86.428 22.707c.377-.173.68-.416.898-.756.213-.335.32-.725.32-1.166 0-.526-.157-.973-.46-1.34-.304-.356-.7-.594-1.188-.703-.32-.075-.93-.104-1.83-.104h-1.62v8.114h.815v-3.778h.46l2.92 3.778h1.004l-2.925-3.778c.673-.005 1.22-.097 1.606-.265m-3.066-.524v-2.76h1.434c.556 0 .955.048 1.196.138.242.094.436.26.583.48.144.223.224.472.224.74 0 .27-.08.53-.225.766-.147.228-.347.387-.6.493-.27.1-.674.147-1.212.147l-1.4-.004zM91.812 22.166c-.586-.438-.93-.703-1.04-.81-.203-.208-.34-.38-.407-.548-.08-.165-.11-.336-.11-.508 0-.296.11-.534.31-.73.208-.196.472-.3.8-.3.253 0 .494.07.717.196.215.118.476.39.783.796l.656-.503c-.37-.5-.717-.855-1.056-1.036-.33-.2-.698-.297-1.085-.297-.348 0-.688.09-.992.257-.312.165-.548.394-.71.69-.178.28-.265.602-.265.956 0 .442.143.85.438 1.246.16.228.583.596 1.257 1.105.68.51 1.137.946 1.403 1.303.18.258.27.522.27.79 0 .243-.057.466-.194.666-.122.22-.298.384-.54.518-.24.125-.5.194-.772.194-.636 0-1.198-.446-1.675-1.34l-.692.415c.33.61.702 1.06 1.103 1.323.394.256.858.394 1.34.394.647 0 1.193-.216 1.642-.653.436-.438.666-.953.666-1.533 0-.412-.136-.803-.396-1.207-.263-.406-.74-.87-1.45-1.384M98.35 18.763v1.852h-.323V19.09l-.686 1.525h-.21l-.67-1.526v1.525h-.32v-1.852h.53l.565 1.282.596-1.282h.52zm-2.57 0v.293h-.65v1.558h-.322v-1.558h-.65v-.293h1.623"/></g></svg>