<svg xmlns="http://www.w3.org/2000/svg" viewBox="0 0 100 40" enable-background="new 0 0 100 40"><g><linearGradient id="a" gradientUnits="userSpaceOnUse" x1="-344.694" y1="327.393" x2="-344.371" y2="327.393" gradientTransform="matrix(0 -46.483 -46.483 0 15280.881 -16007.528)"><stop offset="0" stop-color="#DFD09D"/><stop offset=".002" stop-color="#DFD09D"/><stop offset=".519" stop-color="#8B774D"/><stop offset=".538" stop-color="#8F7C51"/><stop offset=".677" stop-color="#AC9A6E"/><stop offset=".804" stop-color="#C3B385"/><stop offset=".916" stop-color="#D2C395"/><stop offset="1" stop-color="#D8CA9B"/></linearGradient><path d="M63.308 5.632c-.73-.22-1.704-.644-2.104-1.044-.336-.365-.404-.8-.404-1.384 0-.45.415-1.437 1.646-1.437.72 0 1.204.192 1.627.648.588.62.874 1.28 1.072 1.835.092.28.322.453.6.453.056 0 .112-.007.195-.03l.293-.09c.283-.078.465-.31.465-.6 0-.094-.03-.384-.128-1.332-.07-.667-.176-1.676-.176-1.824 0-.75-.53-.788-.636-.788-.238 0-.437.083-.61.256l-.175.176C64.555.305 63.74 0 62.446 0c-1.25 0-2.178.317-3 1.018-1.02.807-1.516 1.802-1.516 3.042 0 1.33.382 2.394 1.108 3.077.955.876 2.248 1.438 2.933 1.694 2.058.778 2.503 1.245 2.503 2.63 0 1.428-1.435 1.74-1.988 1.74-.856 0-1.66-.437-2.103-1.144-.524-.824-.62-1.5-.647-1.908 0-.422-.29-.622-.57-.636l-.403-.037-.045-.002c-.15 0-.507.054-.592.558-.02.118-.07.655-.172 1.77-.068.737-.152 1.653-.17 1.768l-.006.08c0 .542.37.788.713.788.422 0 .62-.234.758-.465l.004-.006c.017.01.034.023.05.033.943.708 1.997 1.01 3.524 1.01 2.617 0 4.517-1.98 4.517-4.707 0-1.315-.334-2.256-1.084-3.053-.78-.822-1.743-1.24-2.952-1.615z" fill="url(#a)"/><linearGradient id="b" gradientUnits="userSpaceOnUse" x1="-344.7" y1="327.902" x2="-344.377" y2="327.902" gradientTransform="matrix(0 -45.774 -45.774 0 15079.059 -15763.638)"><stop offset="0" stop-color="#DFD09D"/><stop offset=".002" stop-color="#DFD09D"/><stop offset=".519" stop-color="#8B774D"/><stop offset=".538" stop-color="#8F7C51"/><stop offset=".677" stop-color="#AC9A6E"/><stop offset=".804" stop-color="#C3B385"/><stop offset=".916" stop-color="#D2C395"/><stop offset="1" stop-color="#D8CA9B"/></linearGradient><path d="M69.558 14.72c-.855 0-1.465.03-1.792.047-.13.006-.218.01-.262.01h4.033c-.047 0-.152-.004-.303-.01-.365-.017-.976-.046-1.676-.046z" fill="url(#b)"/><linearGradient id="c" gradientUnits="userSpaceOnUse" x1="-344.7" y1="327.843" x2="-344.377" y2="327.843" gradientTransform="matrix(0 -45.774 -45.774 0 15079.059 -15763.638)"><stop offset="0" stop-color="#DFD09D"/><stop offset=".002" stop-color="#DFD09D"/><stop offset=".519" stop-color="#8B774D"/><stop offset=".538" stop-color="#8F7C51"/><stop offset=".677" stop-color="#AC9A6E"/><stop offset=".804" stop-color="#C3B385"/><stop offset=".916" stop-color="#D2C395"/><stop offset="1" stop-color="#D8CA9B"/></linearGradient><path d="M76.996 13.106h-.342c-.07 0-.122-.003-.163-.006V9.504c.003-1.06.004-2.157-1.003-3.033-.61-.527-1.22-.878-2.22-.878-.74 0-1.49.24-2.083.638v-.172c0-4.27.024-4.963.034-5.057.033-.264.04-.566-.16-.79-.117-.136-.286-.21-.472-.21-.226 0-.388.064-.532.12-.045.017-.095.037-.154.057l-.064.026c-.507.254-1.852.928-2.38 1.07l-.093.034c-.212.107-.534.267-.534.66v.19c0 .17.062.474.482.612l.326.108c.368.153.56.29.56 1.26l.038 6.788c0 1.05-.027 1.846-.068 2.164-.035.007-.09.014-.17.014h-.475c-.374 0-.655.265-.655.618v.418c0 .375.262.636.636.636.044 0 .133-.004.262-.01.327-.017.937-.047 1.792-.047.7 0 1.31.027 1.676.044.15.007.257.012.303.012.307 0 .636-.21.636-.674v-.343c0-.387-.277-.657-.675-.657h-.303c-.006-.067-.01-.166-.01-.314V8.682c0-.22.124-.48.22-.61.344-.338.715-.523 1.045-.523.3 0 .49.083.723.314.353.354.353 1.38.353 2.208v1.274c0 .478 0 1.443-.03 1.757-.014.002-.033.003-.056.003h-.324c-.357 0-.617.252-.617.6v.455c0 .37.255.618.635.618.06 0 .165-.005.313-.012.338-.017.905-.045 1.703-.045.87 0 1.424.033 1.69.05.097.004.162.008.194.008.375 0 .637-.262.637-.636v-.418c0-.285-.176-.618-.674-.618z" fill="url(#c)"/><linearGradient id="d" gradientUnits="userSpaceOnUse" x1="-344.7" y1="327.781" x2="-344.377" y2="327.781" gradientTransform="matrix(0 -45.774 -45.774 0 15079.059 -15763.638)"><stop offset="0" stop-color="#DFD09D"/><stop offset=".002" stop-color="#DFD09D"/><stop offset=".519" stop-color="#8B774D"/><stop offset=".538" stop-color="#8F7C51"/><stop offset=".677" stop-color="#AC9A6E"/><stop offset=".804" stop-color="#C3B385"/><stop offset=".916" stop-color="#D2C395"/><stop offset="1" stop-color="#D8CA9B"/></linearGradient><path d="M75.15 14.72c-.797 0-1.364.03-1.702.046-.15.007-.253.012-.313.012h3.9c-.033 0-.097-.003-.196-.01-.266-.015-.82-.047-1.69-.047z" fill="url(#d)"/><linearGradient id="e" gradientUnits="userSpaceOnUse" x1="-344.512" y1="329.502" x2="-344.189" y2="329.502" gradientTransform="matrix(0 -29.16 -29.16 0 9696.95 -10031.01)"><stop offset="0" stop-color="#DFD09D"/><stop offset=".002" stop-color="#DFD09D"/><stop offset=".519" stop-color="#8B774D"/><stop offset=".538" stop-color="#8F7C51"/><stop offset=".677" stop-color="#AC9A6E"/><stop offset=".804" stop-color="#C3B385"/><stop offset=".916" stop-color="#D2C395"/><stop offset="1" stop-color="#D8CA9B"/></linearGradient><path d="M99.363 5.764c-.07 0-.16.006-.28.016-.214.016-.54.04-1.09.04-.658 0-1.132-.03-1.386-.045-.105-.007-.176-.01-.21-.01-.376 0-.638.26-.638.635v.418c0 .352.256.618.598.618H96.652c.01.055.024.22-.102.567l-.826 2.263-.93-2.716h.042c.375 0 .637-.262.637-.636v-.4c0-.317-.208-.636-.674-.636-.053 0-.133.005-.245.013-.225.018-.603.045-1.202.045-.9 0-1.47-.032-1.742-.047-.107-.006-.178-.01-.216-.01-.386 0-.656.262-.656.637v.418c0 .364.254.617.617.617h.21c.03 0 .054.002.07.003.027.002.04.004.042 0 .086.12.12.3.085.38l-1.04 2.613-.96-3.12c.304-.054.5-.284.5-.607V6.4c0-.38-.257-.636-.638-.636-.1 0-.227.007-.39.017-.282.018-.668.04-1.246.04-.958 0-1.417-.027-1.69-.044-.126-.007-.214-.012-.287-.012-.38 0-.635.256-.635.636v.418c0 .065.012.124.028.182-.046-.05-.088-.1-.137-.15-.592-.573-1.63-1.257-3.21-1.257-1.18 0-2.165.334-3.003 1.02-1.314 1.05-1.78 2.56-1.78 3.535 0 1.21.187 2.132 1.14 3.258.876 1.053 1.974 1.544 3.453 1.544 1.413 0 2.676-.544 3.554-1.528.84-.93 1.304-2.072 1.304-3.216 0-1.05-.33-1.978-.994-2.824.08.035.166.056.262.056h.323c.148 0 .21.027.272.186l2.605 6.675c.182.47.456.71.813.71.28 0 .665-.106.903-.62l1.79-4.232 1.537 4.147c.098.246.282.704.83.704.494 0 .73-.29.842-.537.113-.256.546-1.31 1.047-2.532.687-1.673 1.725-4.202 1.84-4.422.02-.02.128-.08.303-.08h.285c.358-.002.618-.27.618-.638v-.42c0-.357-.268-.616-.637-.616zm-17.346 7.418c-.6 0-.863-.227-1.093-.59-.44-.704-.516-1.305-.516-2.387 0-1.273.19-1.96.695-2.53.223-.25.466-.353.837-.353.536 0 1.494.944 1.494 2.826 0 1.51-.438 3.034-1.417 3.034z" fill="url(#e)"/><path d="M59.136 9.915c.076 0 .114.038.114.152.038.61.19 1.332.723 2.168.57.914 1.56 1.37 2.51 1.37 1.028 0 2.473-.646 2.473-2.225 0-1.75-.8-2.32-2.815-3.082-.608-.228-1.863-.76-2.776-1.597-.647-.608-.952-1.56-.952-2.72 0-1.064.42-1.94 1.332-2.662.76-.647 1.598-.913 2.7-.913 1.257 0 2.018.305 2.398.457.19.076.305.038.4-.057l.247-.248c.075-.076.15-.114.265-.114.114 0 .152.114.152.304 0 .305.305 2.968.305 3.158 0 .076-.038.115-.115.133l-.304.095c-.077.02-.153 0-.19-.114-.19-.534-.495-1.295-1.18-2.018-.494-.533-1.103-.8-1.978-.8-1.52 0-2.13 1.218-2.13 1.922 0 .646.076 1.217.532 1.712.495.495 1.56.95 2.32 1.18 1.104.342 2.017.722 2.74 1.484.61.646.95 1.445.95 2.72 0 2.32-1.52 4.223-4.03 4.223-1.56 0-2.474-.343-3.235-.913-.228-.152-.343-.228-.457-.228-.114 0-.19.152-.304.343-.113.19-.19.228-.34.228-.154 0-.23-.114-.23-.304.038-.23.304-3.31.342-3.54.02-.113.038-.15.114-.15l.42.035zM74.01 9.99c0-.99 0-2.053-.494-2.548-.305-.304-.61-.457-1.065-.457-.493 0-.99.266-1.407.685-.153.19-.343.57-.343.933v4.11c0 .608.076.797.342.797h.457c.113 0 .19.038.19.17v.344c0 .114-.04.19-.153.19-.153 0-.99-.057-1.98-.057-1.178 0-1.9.057-2.053.057-.095 0-.152-.038-.152-.152v-.418c0-.095.076-.133.17-.133H68c.305 0 .57-.075.628-.303.076-.38.095-1.484.095-2.36l-.037-6.79c0-1.065-.228-1.445-.875-1.712l-.343-.114c-.114-.037-.152-.075-.152-.15v-.19c0-.077.038-.115.266-.23.57-.152 1.863-.798 2.472-1.103.228-.076.342-.152.533-.152.152 0 .19.152.152.457-.037.34-.037 4.184-.037 5.116v1.18h.114c.533-.743 1.56-1.16 2.454-1.16.837 0 1.33.265 1.902.76.875.76.837 1.712.837 2.797v3.652c0 .266.343.304.647.304h.342c.152 0 .19.04.19.134v.418c0 .095-.038.152-.153.152-.114 0-.723-.057-1.883-.057-1.14 0-1.826.057-2.016.057-.114 0-.152-.038-.152-.133v-.456c0-.076.038-.114.133-.114h.324c.227 0 .494-.076.532-.38.038-.266.038-1.256.038-1.864V9.99zM84.928 7.12c.894.893 1.312 1.882 1.312 3.004 0 1.065-.456 2.092-1.18 2.89-.78.876-1.92 1.37-3.194 1.37-1.198 0-2.226-.342-3.082-1.37-.837-.988-1.027-1.787-1.027-2.947 0-.913.457-2.244 1.598-3.158.932-.762 1.92-.914 2.7-.914 1.275 0 2.226.495 2.873 1.123m-1.01 2.947c0-2.092-1.102-3.31-1.977-3.31-.493 0-.874.152-1.197.514-.59.667-.818 1.465-.818 2.854 0 1.104.076 1.826.59 2.644.324.513.742.818 1.503.818 1.255 0 1.9-1.578 1.9-3.52M89.643 14.043l-2.606-6.676c-.152-.38-.418-.494-.723-.494h-.323c-.094 0-.132-.057-.132-.134v-.42c0-.114.038-.152.152-.152.228 0 .61.057 1.978.057.913 0 1.37-.057 1.636-.057.114 0 .153.037.153.152v.418c0 .095-.038.134-.153.134h-.19c-.19 0-.285.152-.19.437l1.37 4.45h.113l1.484-3.73c.115-.264.02-.626-.152-.855-.114-.152-.304-.19-.494-.19h-.21c-.095 0-.133-.038-.133-.133v-.417c0-.115.058-.152.172-.152.133 0 .742.057 1.96.057.874 0 1.293-.057 1.445-.057.133 0 .19.037.19.152v.4c0 .094-.038.15-.153.15h-.304c-.19 0-.343.19-.266.438l1.408 4.11h.076l1.256-3.444c.304-.838.076-1.218-.38-1.218h-.267c-.076 0-.114-.057-.114-.134V6.32c0-.114.057-.152.153-.152.114 0 .684.057 1.597.057.837 0 1.18-.057 1.37-.057.114 0 .153.057.153.133v.42c0 .095-.038.152-.134.152h-.285c-.304 0-.61.114-.722.323-.19.342-2.625 6.353-2.91 7-.096.21-.248.247-.4.247-.19 0-.266-.115-.38-.4L92.78 8.906h-.114l-2.206 5.212c-.114.248-.266.324-.457.324-.152 0-.267-.152-.362-.4"/></g></svg>