<svg xmlns="http://www.w3.org/2000/svg" viewBox="0 0 100 40" enable-background="new 0 0 100 40"><g fill="#fff"><path d="M16.604 33.517h.502v4.542h1.935v.484h-2.436v-5.027zM23.512 34.825v3.72h-.472v-.64c-.2.243-.426.427-.675.55-.25.123-.522.185-.82.185-.525 0-.975-.19-1.347-.572-.373-.382-.56-.846-.56-1.393 0-.536.19-.994.565-1.375.376-.38.828-.57 1.357-.57.305 0 .582.064.83.195.247.13.463.324.65.584v-.685h.472zm-1.912.365c-.267 0-.512.066-.738.197-.225.13-.404.314-.538.55-.133.238-.2.488-.2.752 0 .26.067.512.2.75.135.24.316.426.543.56.226.132.47.198.73.198s.51-.065.744-.197.416-.31.542-.535.19-.48.19-.762c0-.43-.143-.79-.426-1.078-.283-.29-.632-.435-1.046-.435zM26.625 34.825h.48v.666c.19-.254.402-.444.635-.57.232-.127.485-.19.76-.19.277 0 .523.07.74.212.214.142.373.33.476.57.103.24.154.612.154 1.118v1.914h-.48V36.77c0-.428-.018-.714-.053-.857-.056-.246-.162-.432-.32-.556s-.362-.186-.615-.186c-.29 0-.548.097-.777.288-.23.19-.38.428-.453.71-.045.185-.068.522-.068 1.013v1.364h-.48v-3.72zM30.88 34.825h.48v1.736c0 .425.023.717.068.876.068.228.2.408.392.54s.423.198.69.198c.267 0 .493-.064.68-.193s.313-.297.384-.507c.048-.143.072-.447.072-.912v-1.735h.49v1.825c0 .513-.06.9-.18 1.16-.12.26-.3.462-.54.608-.24.147-.543.22-.905.22s-.664-.072-.907-.22c-.242-.146-.424-.352-.543-.615-.12-.263-.18-.66-.18-1.188v-1.79zM38.378 37.31l.403.213c-.13.26-.284.47-.457.63-.173.158-.368.28-.585.362s-.462.125-.735.125c-.607 0-1.08-.2-1.423-.597s-.513-.847-.513-1.35c0-.47.145-.89.435-1.26.367-.47.858-.704 1.474-.704.634 0 1.14.24 1.52.72.268.34.405.764.41 1.27H35.56c.01.434.147.787.414 1.063s.597.414.99.414c.188 0 .373-.032.552-.1.18-.064.332-.152.457-.26.124-.108.26-.284.405-.527zm0-1c-.064-.256-.157-.46-.28-.613-.12-.152-.283-.275-.483-.37-.2-.092-.412-.14-.633-.14-.365 0-.68.118-.94.354-.192.17-.337.428-.436.77h2.772zM39.494 34.825h.51l1.247 2.71 1.234-2.71h.513l-1.702 3.72h-.09l-1.71-3.72zM47.48 34.825v3.72h-.473v-.64c-.2.243-.426.427-.675.55-.25.123-.522.185-.82.185-.525 0-.975-.19-1.347-.572-.373-.382-.56-.846-.56-1.393 0-.536.19-.994.565-1.375.376-.38.828-.57 1.357-.57.305 0 .582.064.83.195.247.13.463.324.65.584v-.685h.472zm-1.913.365c-.267 0-.512.066-.738.197-.226.13-.405.314-.54.55-.132.238-.2.488-.2.752 0 .26.068.512.202.75.134.24.315.426.542.56.226.132.47.198.73.198s.51-.065.744-.197.415-.31.54-.535.19-.48.19-.762c0-.43-.142-.79-.425-1.078-.283-.29-.632-.435-1.046-.435zM52.123 33.39v.47c-.175-.077-.326-.114-.45-.114-.094 0-.172.02-.233.057-.062.037-.1.08-.116.13s-.024.18-.024.392v.502h.776v.414H51.3l-.003 3.306h-.48V35.24h-.488v-.413h.488v-.58c0-.268.024-.458.073-.572.05-.113.133-.205.25-.274.118-.068.26-.103.426-.103.155-.003.34.03.557.093zM52.658 34.825h.49v.543c.145-.214.3-.374.46-.48.162-.105.33-.158.506-.158.132 0 .273.042.424.127l-.25.402c-.1-.044-.185-.065-.253-.065-.16 0-.313.065-.46.196s-.262.336-.34.61c-.058.213-.088.642-.088 1.286v1.258h-.49v-3.72zM58.698 34.825v3.72h-.472v-.64c-.2.243-.426.427-.675.55-.25.123-.52.185-.818.185-.526 0-.976-.19-1.348-.572-.373-.382-.56-.846-.56-1.393 0-.536.19-.994.565-1.375.375-.38.827-.57 1.356-.57.305 0 .582.064.83.195.247.13.463.324.65.584v-.685h.472zm-1.912.365c-.267 0-.512.066-.738.197-.225.13-.404.314-.538.55-.133.238-.2.488-.2.752 0 .26.067.512.2.75.135.24.316.426.543.56.226.132.47.198.73.198s.51-.065.744-.197.415-.31.54-.535.19-.48.19-.762c0-.43-.142-.79-.425-1.078-.283-.29-.632-.435-1.046-.435zM63.03 34.825h.48v2.963c0 .522-.046.904-.138 1.146-.125.342-.343.604-.653.79-.31.183-.684.276-1.12.276-.318 0-.604-.045-.858-.136-.254-.09-.46-.21-.62-.363-.16-.15-.308-.373-.442-.665h.52c.142.246.324.428.547.547.224.118.5.178.832.178.325 0 .6-.062.826-.183.225-.122.385-.274.48-.458.097-.186.145-.482.145-.892v-.19c-.18.227-.4.4-.66.523s-.535.184-.827.184c-.342 0-.664-.085-.965-.255s-.534-.398-.698-.686c-.164-.287-.246-.604-.246-.947s.085-.665.257-.962c.172-.298.41-.533.71-.706.302-.174.62-.26.957-.26.278 0 .538.057.778.172s.473.305.696.57v-.647zm-1.412.365c-.27 0-.523.066-.755.197s-.415.312-.547.543-.198.48-.198.75c0 .408.137.746.41 1.012.273.268.628.4 1.063.4.44 0 .794-.132 1.062-.396.268-.265.402-.61.402-1.043 0-.28-.062-.53-.185-.75s-.298-.394-.524-.52c-.225-.128-.468-.193-.728-.193zM68.288 34.825v3.72h-.472v-.64c-.2.243-.426.427-.675.55-.25.123-.52.185-.818.185-.526 0-.976-.19-1.348-.572-.373-.382-.56-.846-.56-1.393 0-.536.19-.994.565-1.375.375-.38.827-.57 1.356-.57.305 0 .582.064.83.195.247.13.463.324.65.584v-.685h.472zm-1.912.365c-.267 0-.512.066-.738.197-.225.13-.404.314-.538.55-.133.238-.2.488-.2.752 0 .26.067.512.2.75.135.24.316.426.543.56.226.132.47.198.73.198s.51-.065.744-.197.415-.31.54-.535.19-.48.19-.762c0-.43-.142-.79-.425-1.078-.283-.29-.632-.435-1.046-.435zM69.414 34.825h.48v.666c.19-.254.402-.444.635-.57.23-.127.484-.19.758-.19.278 0 .524.07.74.212.215.142.374.33.477.57.103.24.154.612.154 1.118v1.914h-.48V36.77c0-.428-.018-.714-.053-.857-.056-.246-.162-.432-.32-.556s-.362-.186-.615-.186c-.29 0-.548.097-.777.288-.23.19-.38.428-.453.71-.045.185-.068.522-.068 1.013v1.364h-.48v-3.72zM77.34 35.598l-.378.235c-.328-.435-.775-.652-1.342-.652-.453 0-.83.147-1.128.44-.3.29-.45.644-.45 1.06 0 .272.07.526.208.766s.327.425.567.557c.24.132.51.197.807.197.546 0 .992-.217 1.338-.652l.38.25c-.18.268-.418.475-.717.622-.3.147-.64.222-1.024.222-.587 0-1.075-.187-1.462-.56s-.58-.83-.58-1.364c0-.36.09-.695.27-1.004.182-.31.43-.55.748-.723s.67-.26 1.063-.26c.245 0 .482.038.712.114.23.074.423.173.583.293.16.12.294.274.406.46zM78.476 33.294c.11 0 .202.04.28.116s.115.17.115.28c0 .107-.038.2-.115.277-.077.077-.17.115-.28.115-.106 0-.198-.038-.275-.115-.077-.078-.116-.17-.116-.277 0-.11.04-.203.116-.28s.17-.116.276-.116zm-.238 1.53h.48v3.72h-.48v-3.72zM83.465 34.825v3.72h-.472v-.64c-.2.243-.426.427-.675.55-.25.123-.522.185-.82.185-.525 0-.975-.19-1.347-.572-.372-.382-.558-.846-.558-1.393 0-.536.188-.994.564-1.375.376-.38.828-.57 1.357-.57.305 0 .582.064.83.195.247.13.463.324.65.584v-.685h.472zm-1.912.365c-.267 0-.512.066-.738.197-.225.13-.404.314-.538.55-.133.238-.2.488-.2.752 0 .26.067.512.2.75.135.24.316.426.543.56.226.132.47.198.73.198s.51-.065.744-.197.415-.31.54-.535.19-.48.19-.762c0-.43-.142-.79-.425-1.078-.285-.29-.633-.435-1.047-.435z"/></g></svg>