<svg xmlns="http://www.w3.org/2000/svg" viewBox="0 0 100 40" enable-background="new 0 0 100 40"><g fill="#fff"><path d="M22.41 13.106h-.576l-.012-.09c-.03-.188-.03-.947-.03-1.556V9.406c0-1.484 0-2.767.033-3.04.036-.283-.063-.463-.152-.564-.232-.262-.603-.268-1.12-.058-.147.06-.674.25-1.184.436-.714.258-1.158.42-1.288.476-.013.005-.024.012-.036.018-.108-.703-.682-1.195-1.45-1.195-.705 0-1.4.358-2.018 1.028l-.036-.28c-.097-.605-.558-.635-.65-.635-.174 0-.3.045-.402.082l-2.106.983c.35-.596.54-1.294.54-2.083 0-1.295-.614-2.52-1.655-3.29C9.11.485 7.953.23 5.505.23c-.383 0-.904.018-1.363.035-.316.01-.59.02-.73.02C2.01.286 1.287.256.898.24.758.232.66.23.598.23.31.23 0 .427 0 .864v.475c0 .358.252.618.6.618h.988c.092 0 .15.005.186.01.015.35.015 2.4.015 3.405V7.58c0 2.253-.04 5.105-.055 5.31-.008.07-.016.113-.022.14-.052.01-.153.02-.353.02H.75c-.14 0-.598.045-.598.635v.476c0 .37.256.618.637.618.05 0 .142-.004.277-.01.36-.016 1.105-.047 2.346-.047 1.5 0 2.22.03 2.605.047.148.006.25.01.324.01.106 0 .636-.032.636-.673v-.438c0-.37-.256-.618-.636-.618H5.278c-.034 0-.05-.002-.057-.003-.006-.01-.034-.055-.05-.16-.007-.106-.017-.836-.017-3.71v-.3c.377.025.782.025 1.227.025 1.847 0 3.31-.487 4.272-1.352.006.165.076.43.434.568l.315.176c.355.19.468.286.468 1.057V13.106h-.676c-.398 0-.655.25-.655.636v.418c0 .364.254.618.618.618.042 0 .126-.004.25-.01.323-.016.992-.047 1.975-.047 1.05 0 1.778.033 2.127.05.12.004.198.007.232.007.363 0 .617-.254.617-.617v-.437c0-.364-.262-.618-.637-.618h-.858c-.012-.047-.026-.14-.026-.314V9.12c0-.19.068-.522.164-.692.144-.25.326-.308.38-.308.076 0 .18.01.24.054l.075.046c.152.076.466.203.864.203.454 0 .89-.256 1.177-.62.077.128.215.245.462.3.626.165.626.325.626.712v2.683c0 .504 0 1.073-.033 1.607h-.663c-.464 0-.675.33-.675.637v.362c0 .465.32.674.637.674.076 0 .203-.006.378-.014.37-.017.93-.043 1.676-.043.937 0 1.645.032 2.026.048.14.006.233.01.275.01.307 0 .637-.21.637-.674v-.38c0-.285-.176-.618-.674-.618zM5.154 1.86c.15-.017.31-.017.4-.017h.22c.024 0 2.52.03 2.52 2.693 0 .533-.042 1.21-.368 1.7-.37.525-1.218 1.087-1.887 1.087-.342 0-.647-.02-.886-.055V1.86zM19.804 4.07c1.217 0 1.853-.876 1.853-1.74 0-.78-.65-1.587-1.74-1.587-1.06 0-1.89.73-1.89 1.663 0 1.04.903 1.663 1.777 1.663zM39.404 12.648l-.215-.145-.056-.032c-.063-.03-.16-.072-.286-.072-.206 0-.382.105-.52.313l-.018.028c-.024.018-.072.043-.126.055-.03-.096-.073-.322-.073-.84l-.037-3.92c0-.428 0-1.226-.62-1.787-.477-.425-.948-.655-2.07-.655-1.093 0-2.112.314-3.034.925V6.38c0-.284-.178-.616-.675-.616-.052 0-.134.005-.25.013-.237.016-.633.044-1.234.044-.682 0-1.085-.025-1.35-.04-.14-.01-.242-.016-.323-.016-.38 0-.636.248-.636.617v.42c0 .418.302.636.6.636h.28c.008.033.012.103-.022.214-.178.597-.78 2.096-1.214 3.148l-.564-1.47-.056-.165c-.34-1-.485-1.493-.54-1.728h.212c.306 0 .636-.21.636-.674V6.4c0-.308-.177-.636-.674-.636-.076 0-.18.005-.323.014-.29.016-.774.043-1.58.043-1.113 0-1.58-.028-1.83-.044-.113-.007-.19-.012-.262-.012-.498 0-.675.328-.675.636v.4c0 .38.248.636.617.636h.362c.08 0 .126 0 .385.452.13.222.83 2.034.99 2.496.123.304 1.554 3.69 1.698 3.93.13.24.37.693.922.693.547 0 .786-.44.908-.667.044-.088.272-.6.67-1.5.43-.97.965-2.177 1.103-2.465l.078-.163c.29-.605 1.165-2.447 1.408-2.69.032-.03.143-.075.346-.083-.263.39-.414.83-.414 1.262 0 .644.486 1.13 1.13 1.13 1.02 0 1.626-.593 1.626-1.586 0-.188-.025-.346-.045-.473l-.015-.11c.217-.136.534-.207.756-.207.456 0 .575.106.61.142.097.098.138.51.16.73l.003.72c-.285.17-.694.363-1.22.612-.247.116-.522.246-.814.387-1.353.602-2.038 1.537-2.038 2.783 0 1.456.93 2.12 1.796 2.12.4 0 .852 0 1.37-.158.563-.187 1.015-.422 1.407-.735.387.574 1.005.893 1.77.893.942 0 1.673-.455 2.172-1.352l.027-.056c.22-.55-.092-.81-.23-.894zm-4.24-1.81v1.632c-.075.14-.452.432-.75.464-.232-.01-.375-.268-.375-.675 0-.724.422-1.037 1.123-1.42zM45.292 13.007c-.1-.225-.296-.358-.533-.358-.128 0-.237.038-.354.09-.175.087-.518.176-.886.176-.26 0-.524-.404-.524-1.304V9.9c0-.695.013-1.412.038-2.065h1.837c.4 0 .603-.248.663-.486l.19-.795c.045-.186.006-.376-.108-.522-.115-.147-.296-.232-.497-.232H43.11l.057-1.398c0-.435-.3-.75-.712-.75-.323 0-.592.166-.734.45-.37.708-1.942 2.023-2.35 2.168-.553.215-.67.562-.67.815 0 .442.31.75.75.75h.62v1.99c0 .362-.015.928-.03 1.487-.014.553-.027 1.1-.027 1.44 0 1.037 1.062 2.197 2.482 2.197 1.486 0 2.383-.64 2.678-.85l.06-.053c.294-.292.247-.604.194-.763l-.135-.277zM53.11 11.653l-.286-.17-.03-.018c-.098-.05-.198-.075-.298-.075-.136 0-.39.047-.555.336-.378.58-1.034.884-1.895.884-.813 0-1.99-.925-1.99-2.597V9.91h4.12c.252 0 1.017 0 1.017-.79 0-1.19-1.014-3.526-3.357-3.526-1.788 0-2.788.432-3.694 1.597-.872 1.137-1.03 1.94-1.03 3.11 0 1.257.2 2.325 1.184 3.458.72.825 1.68 1.193 3.103 1.193 1.698 0 3.08-.804 3.888-2.27.34-.628-.01-.927-.176-1.027zm-3.18-3.397h-1.674c.344-.99.895-.99 1.123-.99.518 0 .65.62.683.984-.036.003-.08.006-.132.006z"/></g></svg>