<svg xmlns="http://www.w3.org/2000/svg" viewBox="0 0 100 40" enable-background="new 0 0 100 40"><g fill="#fff"><path d="M66.26 7.247c-.78-.822-1.742-1.24-2.952-1.615-.73-.22-1.704-.644-2.104-1.044-.336-.365-.404-.8-.404-1.384 0-.45.415-1.437 1.646-1.437.72 0 1.204.192 1.627.648.588.62.874 1.28 1.072 1.835.092.28.322.453.6.453.056 0 .112-.007.195-.03l.293-.09c.283-.078.465-.31.465-.6 0-.094-.03-.384-.128-1.332-.07-.667-.176-1.676-.176-1.824 0-.75-.53-.788-.636-.788-.238 0-.437.083-.61.256l-.175.176C64.555.305 63.74 0 62.446 0c-1.25 0-2.178.317-3 1.018-1.02.807-1.516 1.802-1.516 3.042 0 1.33.382 2.394 1.108 3.077.955.876 2.248 1.438 2.933 1.694 2.058.778 2.503 1.245 2.503 2.63 0 1.428-1.435 1.74-1.988 1.74-.856 0-1.66-.437-2.103-1.144-.524-.824-.62-1.5-.647-1.908 0-.422-.29-.622-.57-.636l-.403-.037-.045-.002c-.15 0-.507.054-.592.558-.02.118-.07.655-.172 1.77-.068.737-.152 1.653-.17 1.768l-.006.08c0 .542.37.788.713.788.422 0 .62-.234.758-.465l.004-.006c.017.01.034.023.05.033.943.708 1.997 1.01 3.524 1.01 2.617 0 4.517-1.98 4.517-4.707 0-1.316-.334-2.257-1.084-3.053zM76.996 13.106h-.342c-.07 0-.122-.003-.163-.006V9.504c.003-1.06.004-2.157-1.003-3.033-.61-.527-1.22-.878-2.22-.878-.74 0-1.49.24-2.083.638v-.172c0-4.27.024-4.963.034-5.057.033-.264.04-.566-.16-.79-.117-.136-.286-.21-.472-.21-.226 0-.388.064-.532.12-.045.017-.095.037-.154.057l-.064.026c-.507.254-1.852.928-2.38 1.07l-.093.034c-.212.107-.534.267-.534.66v.19c0 .17.062.474.482.612l.326.108c.368.153.56.29.56 1.26l.038 6.788c0 1.05-.027 1.846-.068 2.164-.035.007-.09.014-.17.014h-.475c-.374 0-.655.265-.655.618v.418c0 .375.262.636.636.636.044 0 .133-.004.262-.01.327-.017.937-.047 1.792-.047.7 0 1.31.027 1.676.044.15.007.257.012.303.012.307 0 .636-.21.636-.674v-.343c0-.387-.277-.657-.675-.657h-.303c-.006-.067-.01-.166-.01-.314V8.682c0-.22.124-.48.22-.61.344-.338.715-.523 1.045-.523.3 0 .49.083.723.314.353.354.353 1.38.353 2.208v1.274c0 .478 0 1.443-.03 1.757-.014.002-.033.003-.056.003h-.324c-.357 0-.617.252-.617.6v.455c0 .37.255.618.635.618.06 0 .165-.005.313-.012.338-.017.905-.045 1.703-.045.87 0 1.424.033 1.69.05.097.004.162.008.194.008.375 0 .637-.262.637-.636v-.418c0-.285-.176-.618-.674-.618zM99.363 5.764c-.07 0-.16.006-.28.016-.214.016-.54.04-1.09.04-.658 0-1.132-.03-1.386-.045-.105-.007-.176-.01-.21-.01-.376 0-.638.26-.638.635v.418c0 .352.256.618.598.618H96.652c.01.055.024.22-.102.567l-.826 2.263-.93-2.716h.042c.375 0 .637-.262.637-.636v-.4c0-.317-.208-.636-.674-.636-.053 0-.133.005-.245.013-.225.018-.603.045-1.202.045-.9 0-1.47-.032-1.742-.047-.107-.006-.178-.01-.216-.01-.386 0-.656.262-.656.637v.418c0 .364.254.617.617.617h.21c.03 0 .054.002.07.003.027.002.04.004.042 0 .086.12.12.3.085.38l-1.04 2.613-.96-3.12c.304-.054.5-.284.5-.607V6.4c0-.38-.257-.636-.638-.636-.1 0-.227.007-.39.017-.282.018-.668.04-1.246.04-.958 0-1.417-.027-1.69-.044-.126-.007-.214-.012-.287-.012-.38 0-.635.256-.635.636v.418c0 .065.012.124.028.182-.046-.05-.088-.1-.137-.15-.592-.573-1.63-1.257-3.21-1.257-1.18 0-2.165.334-3.003 1.02-1.314 1.05-1.78 2.56-1.78 3.535 0 1.21.187 2.132 1.14 3.258.876 1.053 1.974 1.544 3.453 1.544 1.413 0 2.676-.544 3.554-1.528.84-.93 1.304-2.072 1.304-3.216 0-1.05-.33-1.978-.994-2.824.08.035.166.056.262.056h.323c.148 0 .21.027.272.186l2.605 6.675c.182.47.456.71.813.71.28 0 .665-.106.903-.62l1.79-4.232 1.537 4.147c.098.246.282.704.83.704.494 0 .73-.29.842-.537.113-.256.546-1.31 1.047-2.532.687-1.673 1.725-4.202 1.84-4.422.02-.02.128-.08.303-.08h.285c.358-.002.618-.27.618-.638v-.42c0-.357-.268-.616-.637-.616zm-18.954 4.44c0-1.273.188-1.96.694-2.53.223-.25.466-.353.837-.353.537 0 1.495.945 1.495 2.827 0 1.51-.44 3.035-1.418 3.035-.6 0-.863-.227-1.093-.59-.44-.704-.515-1.305-.515-2.388z"/></g></svg>