<?xml version="1.0" encoding="iso-8859-1"?>
<!-- Generator: Adobe Illustrator 19.2.1, SVG Export Plug-In . SVG Version: 6.00 Build 0)  -->
<svg version="1.1" xmlns="http://www.w3.org/2000/svg" xmlns:xlink="http://www.w3.org/1999/xlink" x="0px" y="0px"
	 viewBox="0 0 40 10" style="enable-background:new 0 0 40 10;" xml:space="preserve">
<g id="cta_x5F_shop_x5F_SC">
	<g>
		<defs>
			<path id="SVGID_1_" d="M30,1.211C30,0.542,30.545,0,31.211,0h7.578C39.458,0,40,0.545,40,1.211v7.578
				C40,9.458,39.455,10,38.789,10h-7.578C30.542,10,30,9.455,30,8.789V1.211z"/>
		</defs>
		<use xlink:href="#SVGID_1_"  style="overflow:visible;fill-rule:evenodd;clip-rule:evenodd;fill:#B91E30;"/>
		<clipPath id="SVGID_2_">
			<use xlink:href="#SVGID_1_"  style="overflow:visible;"/>
		</clipPath>
		<rect x="28.485" y="-1.515" style="clip-path:url(#SVGID_2_);fill:#B91E30;" width="13.03" height="13.03"/>
	</g>
	<path style="fill:#FFFFFF;" d="M37.615,4.782l-2.122-2.055c-0.12-0.115-0.312-0.113-0.429,0.007s-0.113,0.312,0.007,0.429
		l1.573,1.522h-4.048c-0.167,0-0.303,0.136-0.303,0.303s0.136,0.303,0.303,0.303h4.072l-1.597,1.546
		c-0.12,0.116-0.123,0.309-0.007,0.429c0.06,0.062,0.139,0.092,0.218,0.092c0.076,0,0.152-0.028,0.211-0.085l2.122-2.055
		C37.674,5.161,37.707,5.082,37.707,5S37.674,4.839,37.615,4.782z"/>
	<g>
		<path d="M3.544,6.047c0.122,0.098,0.3,0.146,0.536,0.146c0.113,0,0.209-0.013,0.287-0.037S4.507,6.1,4.556,6.059
			C4.604,6.02,4.639,5.971,4.66,5.916s0.031-0.115,0.031-0.18c0-0.09-0.034-0.176-0.102-0.254C4.522,5.402,4.397,5.346,4.216,5.31
			L3.765,5.227C3.587,5.195,3.43,5.152,3.294,5.102c-0.136-0.053-0.25-0.119-0.342-0.202S2.79,4.716,2.741,4.596
			C2.692,4.477,2.668,4.334,2.668,4.17c0-0.166,0.033-0.311,0.1-0.438c0.066-0.126,0.159-0.23,0.277-0.315
			C3.162,3.333,3.304,3.27,3.469,3.226S3.815,3.16,4.012,3.16c0.252,0,0.462,0.029,0.631,0.088c0.168,0.058,0.304,0.135,0.408,0.23
			c0.104,0.095,0.18,0.205,0.23,0.332c0.05,0.126,0.083,0.257,0.1,0.393L4.696,4.291C4.661,4.1,4.592,3.963,4.49,3.878
			C4.388,3.794,4.234,3.752,4.027,3.752c-0.123,0-0.224,0.011-0.303,0.031C3.645,3.805,3.581,3.832,3.532,3.866
			C3.483,3.9,3.449,3.939,3.43,3.984C3.411,4.03,3.401,4.077,3.401,4.125c0,0.13,0.037,0.227,0.109,0.292
			c0.073,0.064,0.196,0.114,0.371,0.15l0.476,0.092c0.375,0.075,0.65,0.195,0.825,0.362c0.175,0.166,0.262,0.406,0.262,0.72
			c0,0.152-0.028,0.292-0.085,0.42S5.218,6.4,5.106,6.496s-0.251,0.17-0.42,0.223c-0.168,0.054-0.365,0.08-0.592,0.08
			c-0.472,0-0.834-0.101-1.084-0.303S2.625,5.988,2.605,5.582h0.733C3.354,5.795,3.423,5.95,3.544,6.047z"/>
		<path d="M6.577,3.248v1.251c0.101-0.136,0.217-0.235,0.35-0.301c0.132-0.064,0.271-0.097,0.417-0.097
			c0.288,0,0.501,0.075,0.64,0.226s0.209,0.388,0.209,0.711v1.674h-0.68V5.13c0-0.178-0.034-0.299-0.102-0.364
			C7.344,4.701,7.253,4.669,7.14,4.669c-0.087,0-0.163,0.013-0.226,0.039S6.792,4.771,6.737,4.819
			c-0.045,0.046-0.083,0.1-0.114,0.163C6.592,5.045,6.577,5.113,6.577,5.188v1.523H5.897V3.248H6.577z"/>
		<path d="M9.015,6.44c-0.223-0.233-0.335-0.566-0.335-1c0-0.207,0.03-0.394,0.09-0.56c0.06-0.168,0.146-0.309,0.257-0.423
			c0.111-0.114,0.247-0.203,0.405-0.265c0.158-0.061,0.334-0.092,0.529-0.092c0.197,0,0.375,0.031,0.534,0.092
			c0.158,0.062,0.293,0.15,0.405,0.265c0.111,0.114,0.196,0.255,0.254,0.423c0.059,0.166,0.087,0.353,0.087,0.56
			c0,0.21-0.03,0.399-0.09,0.565c-0.06,0.166-0.146,0.309-0.257,0.425c-0.112,0.116-0.247,0.205-0.405,0.267
			s-0.335,0.092-0.529,0.092C9.554,6.789,9.238,6.673,9.015,6.44z M10.396,6.037c0.096-0.139,0.143-0.338,0.143-0.597
			s-0.047-0.456-0.143-0.592c-0.095-0.136-0.24-0.204-0.434-0.204c-0.194,0-0.339,0.068-0.435,0.204
			C9.432,4.984,9.384,5.182,9.384,5.44c0,0.263,0.047,0.462,0.141,0.6s0.24,0.206,0.437,0.206C10.155,6.246,10.3,6.177,10.396,6.037
			z"/>
		<path d="M12.415,4.18v0.334c0.194-0.275,0.459-0.412,0.795-0.412c0.353,0,0.616,0.119,0.791,0.359
			c0.175,0.238,0.262,0.567,0.262,0.984c0,0.201-0.025,0.383-0.075,0.549c-0.05,0.164-0.123,0.307-0.218,0.424
			c-0.096,0.119-0.211,0.21-0.347,0.274c-0.136,0.065-0.29,0.097-0.461,0.097c-0.126,0-0.251-0.021-0.376-0.067
			s-0.242-0.136-0.352-0.272v1.204h-0.679V4.18H12.415z M12.47,5.86c0.027,0.099,0.072,0.179,0.133,0.24
			c0.065,0.058,0.13,0.097,0.197,0.114c0.066,0.018,0.133,0.026,0.201,0.026c0.074,0,0.146-0.015,0.213-0.044
			s0.127-0.074,0.177-0.139c0.05-0.062,0.09-0.145,0.119-0.244c0.029-0.101,0.044-0.222,0.044-0.364
			c0-0.148-0.014-0.273-0.042-0.374c-0.027-0.1-0.065-0.182-0.114-0.244c-0.048-0.063-0.106-0.109-0.172-0.137
			s-0.137-0.041-0.211-0.041c-0.084,0-0.157,0.012-0.218,0.034s-0.122,0.058-0.18,0.106c-0.064,0.062-0.112,0.14-0.143,0.233
			s-0.046,0.214-0.046,0.358v0.078C12.429,5.63,12.443,5.762,12.47,5.86z"/>
		<path d="M16.555,3.248l1.427,2.27v-2.27h0.704v3.464h-0.646l-1.432-2.251v2.251h-0.703V3.248H16.555z"/>
		<path d="M19.584,6.44c-0.223-0.233-0.334-0.566-0.334-1c0-0.207,0.029-0.394,0.09-0.56c0.06-0.168,0.145-0.309,0.257-0.423
			c0.111-0.114,0.247-0.203,0.405-0.265c0.158-0.061,0.334-0.092,0.529-0.092c0.197,0,0.375,0.031,0.533,0.092
			c0.158,0.062,0.293,0.15,0.405,0.265c0.111,0.114,0.196,0.255,0.255,0.423c0.059,0.166,0.087,0.353,0.087,0.56
			c0,0.21-0.03,0.399-0.09,0.565s-0.146,0.309-0.257,0.425s-0.246,0.205-0.405,0.267s-0.335,0.092-0.528,0.092
			C20.123,6.789,19.808,6.673,19.584,6.44z M20.965,6.037c0.096-0.139,0.143-0.338,0.143-0.597s-0.047-0.456-0.143-0.592
			s-0.24-0.204-0.434-0.204c-0.195,0-0.34,0.068-0.436,0.204c-0.095,0.136-0.143,0.333-0.143,0.592c0,0.263,0.047,0.462,0.141,0.6
			s0.24,0.206,0.438,0.206C20.725,6.246,20.869,6.177,20.965,6.037z"/>
		<path d="M22.731,4.18l0.354,1.678l0.484-1.659h0.593l0.461,1.659l0.354-1.678h0.708l-0.737,2.532h-0.66l-0.451-1.669l-0.456,1.669
			h-0.65L21.994,4.18H22.731z"/>
	</g>
</g>
<g id="Layer_1">
</g>
</svg>
