<?xml version="1.0" encoding="iso-8859-1"?>
<!-- Generator: Adobe Illustrator 19.2.1, SVG Export Plug-In . SVG Version: 6.00 Build 0)  -->
<svg version="1.1" xmlns="http://www.w3.org/2000/svg" xmlns:xlink="http://www.w3.org/1999/xlink" x="0px" y="0px"
	 viewBox="0 0 100 11" style="enable-background:new 0 0 100 11;" xml:space="preserve">
<g id="free_x5F_shipping01">
	<g>
		<path d="M6.402,1.713H1.699v2.836h4.423v1.474H1.699v4.255H0V0.252h6.402V1.713z"/>
		<path d="M13.363,0.519c0.492,0.178,0.879,0.409,1.165,0.695s0.485,0.601,0.597,0.948s0.169,0.687,0.169,1.025
			c0,0.654-0.129,1.203-0.386,1.642c-0.257,0.44-0.672,0.796-1.243,1.068l2.077,4.381H13.89L12.093,6.29
			c-0.085,0.009-0.174,0.016-0.268,0.021s-0.192,0.007-0.295,0.007H9.734v3.96H8.063V0.252h3.426
			C12.246,0.252,12.872,0.341,13.363,0.519z M12.57,4.766c0.253-0.079,0.452-0.191,0.597-0.337c0.145-0.144,0.248-0.32,0.31-0.526
			c0.059-0.206,0.09-0.436,0.09-0.688c0-0.233-0.035-0.447-0.105-0.639c-0.07-0.191-0.186-0.356-0.351-0.49
			c-0.165-0.137-0.382-0.242-0.653-0.317c-0.271-0.074-0.609-0.112-1.012-0.112H9.734v3.23h1.881
			C11.999,4.886,12.317,4.845,12.57,4.766z"/>
		<path d="M23.765,0.252v1.461h-4.971v2.668h4.69v1.474h-4.69v2.962h5.237l-0.197,1.461h-6.739V0.252H23.765z"/>
		<path d="M32.334,0.252v1.461h-4.97v2.668h4.689v1.474h-4.689v2.962H32.6l-0.197,1.461h-6.738V0.252H32.334z"/>
	</g>
</g>
<g id="Layer_1">
</g>
</svg>
