<?xml version="1.0" encoding="iso-8859-1"?>
<!-- Generator: Adobe Illustrator 19.2.1, SVG Export Plug-In . SVG Version: 6.00 Build 0)  -->
<svg version="1.1" xmlns="http://www.w3.org/2000/svg" xmlns:xlink="http://www.w3.org/1999/xlink" x="0px" y="0px"
	 viewBox="0 0 100 11" style="enable-background:new 0 0 100 11;" xml:space="preserve">
<g id="free_x5F_shipping02">
	<g>
		<path d="M39.03,8.648c0.398,0.3,0.99,0.449,1.777,0.449c0.384,0,0.707-0.042,0.969-0.126c0.261-0.085,0.472-0.197,0.631-0.338
			c0.159-0.139,0.272-0.306,0.336-0.498c0.066-0.191,0.098-0.396,0.098-0.61c0-0.159-0.023-0.316-0.07-0.47
			s-0.131-0.297-0.253-0.429c-0.121-0.13-0.286-0.245-0.492-0.343s-0.468-0.176-0.787-0.232l-1.277-0.239
			c-0.505-0.094-0.955-0.21-1.348-0.351c-0.393-0.141-0.723-0.326-0.99-0.554c-0.266-0.229-0.468-0.51-0.604-0.843
			c-0.135-0.333-0.203-0.737-0.203-1.215c0-0.477,0.096-0.893,0.288-1.248c0.192-0.357,0.456-0.654,0.793-0.892
			c0.336-0.239,0.736-0.416,1.2-0.534C39.564,0.058,40.067,0,40.61,0c0.693,0,1.274,0.079,1.741,0.238
			c0.468,0.16,0.847,0.368,1.138,0.625s0.51,0.554,0.66,0.892s0.253,0.687,0.309,1.053L42.856,3.06
			c-0.131-0.561-0.358-0.977-0.68-1.25c-0.324-0.272-0.837-0.407-1.539-0.407c-0.402,0-0.736,0.034-1.004,0.105
			c-0.266,0.071-0.482,0.168-0.645,0.295c-0.165,0.126-0.281,0.271-0.352,0.434c-0.07,0.165-0.105,0.335-0.105,0.513
			c0,0.44,0.119,0.767,0.359,0.982c0.238,0.216,0.656,0.384,1.255,0.505l1.39,0.268c1.059,0.197,1.835,0.53,2.331,1.004
			c0.496,0.473,0.744,1.154,0.744,2.043c0,0.422-0.078,0.812-0.231,1.172c-0.155,0.361-0.391,0.675-0.71,0.942
			c-0.318,0.265-0.713,0.477-1.186,0.631c-0.473,0.154-1.023,0.231-1.651,0.231c-1.282,0-2.289-0.269-3.018-0.807
			c-0.729-0.537-1.132-1.373-1.207-2.506h1.713C38.396,7.872,38.632,8.349,39.03,8.648z"/>
		<path d="M47.958,0.252V4.31h4.507V0.252h1.699v10.026h-1.699V5.883h-4.507v4.395h-1.699V0.252H47.958z"/>
		<path d="M58.003,0.252v10.026h-1.699V0.252H58.003z"/>
		<path d="M63.592,0.252c0.758,0,1.382,0.085,1.874,0.254c0.492,0.168,0.878,0.393,1.159,0.673c0.28,0.281,0.477,0.607,0.59,0.976
			c0.112,0.369,0.168,0.756,0.168,1.158c0,0.43-0.056,0.843-0.168,1.236c-0.113,0.392-0.312,0.737-0.597,1.032
			c-0.286,0.295-0.672,0.528-1.159,0.702c-0.487,0.173-1.1,0.258-1.838,0.258h-1.826v3.736h-1.67V0.252H63.592z M64.638,4.998
			c0.277-0.085,0.494-0.203,0.653-0.359c0.159-0.153,0.269-0.338,0.33-0.553c0.059-0.216,0.091-0.46,0.091-0.731
			c0-0.281-0.034-0.527-0.098-0.737c-0.066-0.21-0.181-0.386-0.345-0.526c-0.163-0.142-0.383-0.249-0.66-0.324
			c-0.276-0.074-0.625-0.112-1.046-0.112h-1.769v3.467h1.782C64.008,5.124,64.361,5.083,64.638,4.998z"/>
		<path d="M72.484,0.252c0.758,0,1.382,0.085,1.874,0.254c0.492,0.168,0.878,0.393,1.159,0.673c0.28,0.281,0.477,0.607,0.59,0.976
			c0.112,0.369,0.168,0.756,0.168,1.158c0,0.43-0.056,0.843-0.168,1.236c-0.113,0.392-0.312,0.737-0.597,1.032
			c-0.286,0.295-0.672,0.528-1.159,0.702c-0.487,0.173-1.1,0.258-1.838,0.258h-1.826v3.736h-1.67V0.252H72.484z M73.53,4.998
			c0.277-0.085,0.494-0.203,0.653-0.359c0.159-0.153,0.269-0.338,0.33-0.553c0.059-0.216,0.091-0.46,0.091-0.731
			c0-0.281-0.034-0.527-0.098-0.737c-0.066-0.21-0.181-0.386-0.345-0.526c-0.163-0.142-0.383-0.249-0.66-0.324
			c-0.276-0.074-0.625-0.112-1.046-0.112h-1.769v3.467h1.782C72.9,5.124,73.253,5.083,73.53,4.998z"/>
		<path d="M79.607,0.252v10.026h-1.699V0.252H79.607z"/>
		<path d="M83.301,0.252l4.605,7.246V0.252h1.657v10.026H87.99l-4.62-7.217v7.217h-1.642V0.252H83.301z"/>
		<path d="M100,9.084c-0.514,0.477-1.123,0.837-1.825,1.08c-0.702,0.244-1.408,0.365-2.121,0.365c-0.776,0-1.458-0.123-2.043-0.372
			c-0.585-0.248-1.075-0.599-1.467-1.053c-0.393-0.454-0.688-1.004-0.885-1.65s-0.295-1.371-0.295-2.176
			c0-0.815,0.109-1.548,0.324-2.197c0.215-0.652,0.519-1.206,0.912-1.665c0.393-0.458,0.871-0.809,1.431-1.053
			C94.595,0.121,95.221,0,95.914,0c0.608,0,1.14,0.077,1.594,0.231c0.455,0.155,0.838,0.368,1.151,0.639
			c0.314,0.271,0.566,0.588,0.758,0.948c0.192,0.361,0.33,0.747,0.414,1.158l-1.67,0.239c-0.074-0.281-0.166-0.53-0.273-0.751
			c-0.107-0.221-0.248-0.405-0.421-0.554c-0.174-0.15-0.386-0.265-0.64-0.344c-0.252-0.079-0.556-0.12-0.912-0.12
			c-0.468,0-0.878,0.091-1.228,0.274c-0.352,0.183-0.644,0.442-0.878,0.78c-0.233,0.336-0.407,0.739-0.519,1.207
			c-0.112,0.468-0.169,0.988-0.169,1.558c0,0.59,0.057,1.119,0.169,1.587c0.112,0.468,0.29,0.868,0.533,1.2
			c0.244,0.333,0.551,0.586,0.92,0.765s0.816,0.268,1.341,0.268c0.468,0,0.889-0.05,1.263-0.149s0.735-0.269,1.08-0.512V6.388
			h-2.218V4.956H100V9.084z"/>
	</g>
</g>
<g id="Layer_1">
</g>
</svg>
