<svg xmlns="http://www.w3.org/2000/svg" viewBox="0 0 80 20" enable-background="new 0 0 80 20"><g><linearGradient id="a" gradientUnits="userSpaceOnUse" x1="15" y1="35" x2="65" y2="-15"><stop offset="0" stop-color="#B9792A"/><stop offset=".141" stop-color="#C9913A"/><stop offset=".38" stop-color="#E7BC5F"/><stop offset=".5" stop-color="#F5D070"/><stop offset=".62" stop-color="#E7BC5F"/><stop offset=".859" stop-color="#C9913A"/><stop offset="1" stop-color="#B9792A"/></linearGradient><path fill="url(#a)" d="M0 0h80v20H0z"/><g fill="#fff"><path d="M10.507 10.754l-.89-.54c-.56-.342-.956-.677-1.193-1.007s-.354-.71-.354-1.14c0-.645.224-1.168.67-1.57s1.03-.604 1.744-.604c.684 0 1.31.192 1.88.576V7.8c-.59-.568-1.224-.852-1.903-.852-.382 0-.696.088-.942.266s-.37.404-.37.68c0 .245.092.475.273.69s.474.437.876.673l.895.53c1 .597 1.5 1.355 1.5 2.277 0 .656-.22 1.19-.66 1.6s-1.01.615-1.714.615c-.81 0-1.545-.25-2.21-.747v-1.488c.634.802 1.366 1.203 2.198 1.203.367 0 .673-.102.917-.307.245-.203.367-.46.367-.767-.002-.5-.36-.97-1.08-1.42zM19.748 6h1.172v8.185h-1.172v-3.562h-4.6v3.562h-1.172V6h1.172v3.538h4.6v-3.54zM26.74 5.88c1.266 0 2.32.4 3.16 1.202.84.8 1.262 1.805 1.262 3.012s-.424 2.206-1.273 2.997-1.92 1.188-3.213 1.188c-1.233 0-2.26-.396-3.083-1.187s-1.232-1.78-1.232-2.973c0-1.223.414-2.234 1.24-3.035s1.874-1.2 3.14-1.2zm.048 1.115c-.937 0-1.707.293-2.31.88s-.904 1.333-.904 2.243c0 .883.302 1.617.907 2.203s1.363.88 2.272.88c.913 0 1.675-.3 2.286-.896.61-.598.916-1.342.916-2.232 0-.867-.306-1.597-.916-2.188-.61-.593-1.36-.89-2.25-.89zM32.54 14.184V5.987h2.595c.78 0 1.404.21 1.87.633s.696.988.696 1.7c0 .476-.118.897-.356 1.265s-.564.634-.98.8-1.007.25-1.78.25h-.867v3.55H32.54zm2.39-7.154h-1.214v2.56H35c.477 0 .844-.112 1.102-.337s.387-.546.387-.964c-.002-.84-.522-1.26-1.56-1.26zM48.558 6h1.113v8.185h-1.007L43.19 7.88v6.304h-1.1V6h.948l5.52 6.357V6zM55.44 5.88c1.265 0 2.318.4 3.16 1.202.84.8 1.26 1.805 1.26 3.012s-.423 2.206-1.272 2.997-1.92 1.188-3.212 1.188c-1.233 0-2.26-.396-3.083-1.187s-1.232-1.78-1.232-2.973c0-1.223.415-2.234 1.242-3.035s1.873-1.2 3.138-1.2zm.047 1.115c-.937 0-1.707.293-2.31.88s-.904 1.333-.904 2.243c0 .883.302 1.617.907 2.203s1.362.88 2.27.88c.914 0 1.676-.3 2.287-.896.61-.598.916-1.342.916-2.232 0-.867-.306-1.597-.916-2.188-.61-.593-1.36-.89-2.25-.89zM71.25 6h1.168l-3.31 8.22h-.257l-2.676-6.656-2.704 6.656h-.25L59.92 6h1.18l2.256 5.642L65.626 6h1.11l2.28 5.642L71.25 6z"/></g></g></svg>