<svg xmlns="http://www.w3.org/2000/svg" viewBox="0 0 100 90" enable-background="new 0 0 100 90"><g fill="#010101"><path d="M29.505 82.116l2.453-1.144.174.375-1.024.478 1.197 2.566-.423.197-1.196-2.566-1.007.47-.175-.374zM34.75 79.676l.42-.195 1.37 2.938-.42.195-.597-1.278-1.65.77.596 1.278-.422.196-1.37-2.938.422-.196.592 1.27 1.65-.77-.592-1.27zM36.142 79.027l1.665-.776.174.375-1.243.58.418.896 1.202-.56.175.376-1.203.562.425.91 1.284-.6.173.376-1.705.795-1.366-2.933zM40.566 76.964l1.665-.776.175.374-1.244.58.42.897 1.2-.562.176.375-1.203.562.426.91 1.283-.6.174.376-1.705.796-1.366-2.932zM45.167 74.818l.508-.236-.515 1.964 1.966.935-.508.237-1.568-.75-.442 1.688-.514.24.555-2.11-1.835-.87.514-.238 1.443.69.394-1.55zM46.16 74.35l2.453-1.144.175.375-1.024.48 1.197 2.565-.422.196-1.196-2.565-1.007.47-.175-.375zM50.717 75.806l-1.37-2.937.737-.344c.297-.14.566-.176.81-.108.244.065.424.224.54.474.08.17.107.34.08.503-.027.165-.107.315-.238.452.124.018.254.06.393.123.14.065.35.19.637.38.18.12.32.208.42.262l.255.14-.5.232-.22-.134c-.006-.006-.02-.013-.04-.024l-.137-.077-.23-.155-.247-.162c-.143-.08-.268-.14-.373-.178-.106-.037-.195-.06-.268-.063-.073-.003-.178.025-.315.09l-.11.05.597 1.28-.423.194zm-.656-2.834l-.125.06.432.926.16-.074c.213-.1.35-.186.414-.258.063-.074.1-.158.108-.253.01-.094-.007-.188-.05-.28-.044-.093-.108-.166-.19-.22-.085-.05-.18-.07-.282-.06s-.26.063-.465.16zM53.188 71.06l.295-.14 2.694 2.34-.43.2-.798-.688-1.253.584.04 1.042-.433.202-.116-3.54zm1.415 1.42l-.97-.844.057 1.27.913-.426zM56.702 69.39c.454-.212.898-.245 1.334-.098.436.146.755.436.956.868.202.435.217.863.045 1.29-.173.426-.49.746-.954.962-.442.207-.877.237-1.305.09-.427-.146-.74-.434-.94-.86-.204-.438-.225-.87-.062-1.296.163-.427.472-.745.926-.957zm.202.39c-.335.157-.562.392-.68.702-.12.31-.102.63.05.957.147.315.38.527.694.637.314.11.635.088.96-.064.33-.152.552-.388.67-.703.12-.318.105-.636-.044-.955-.146-.312-.376-.52-.694-.632s-.636-.09-.956.057zM60.53 71.23l-1.37-2.936.735-.343c.297-.138.567-.175.81-.107.244.064.424.224.54.474.08.17.106.34.08.503-.027.165-.107.314-.238.452.123.018.254.06.393.123s.352.19.638.38c.18.12.32.208.42.262l.255.14-.5.232-.22-.135c-.006-.006-.02-.013-.04-.024l-.136-.076-.23-.154-.248-.163c-.144-.08-.268-.14-.373-.177-.106-.037-.195-.06-.268-.063-.074-.004-.18.025-.316.09l-.11.05.597 1.28-.42.194zm-.657-2.833l-.126.06.432.926.16-.074c.212-.1.35-.187.413-.26.06-.073.098-.158.108-.252.01-.094-.007-.188-.05-.28-.043-.093-.107-.166-.19-.22-.084-.05-.18-.07-.282-.06-.104.01-.26.062-.465.16zM63.442 69.867l-1.367-2.933.99-.462c.4-.186.743-.272 1.03-.262.29.012.557.102.802.27s.433.39.56.664c.093.197.143.402.15.617s-.026.424-.104.625c-.078.206-.194.39-.35.55-.09.096-.178.17-.264.23-.087.058-.26.147-.52.27l-.928.432zm-.247-3l-.525.245 1.02 2.184.537-.25c.21-.1.366-.19.47-.272.103-.083.183-.165.24-.246.057-.08.103-.167.137-.26.11-.308.09-.622-.06-.943-.148-.315-.375-.522-.68-.622-.113-.038-.23-.057-.355-.057-.125 0-.236.012-.334.04-.1.028-.25.087-.45.18zM65.626 65.278l.42-.196 1.37 2.937-.42.195-1.37-2.937zM69.354 63.54l.4-.187 1.368 2.937-.36.17-3.02-1.347 1.055 2.26-.395.186-1.37-2.938.34-.16 3.044 1.36-1.062-2.282zM71.635 62.456l.296-.138 2.694 2.34-.43.2-.797-.688-1.252.584.038 1.04-.432.203-.115-3.54zm1.415 1.42l-.97-.842.057 1.27.913-.427zM75.28 64.352l-1.368-2.937.736-.344c.297-.137.567-.174.81-.106.243.064.423.224.54.474.08.17.106.34.08.503-.028.166-.108.315-.24.453.125.018.255.06.395.123s.352.19.638.38c.182.12.322.207.422.262l.254.14-.5.232-.218-.134c-.007-.006-.02-.013-.042-.024l-.136-.077-.23-.154-.248-.162c-.143-.08-.268-.14-.373-.177-.107-.036-.196-.058-.27-.062-.072-.004-.177.025-.314.09l-.11.05.596 1.28-.42.194zm-.655-2.834l-.126.06.43.926.16-.074c.214-.1.352-.186.415-.26.062-.072.098-.157.108-.25.01-.095-.008-.19-.05-.283-.044-.092-.108-.164-.192-.218-.082-.052-.177-.072-.28-.063-.104.01-.26.064-.465.16zM78.158 59.435l.51-.237-.44 1.89.726 1.552-.432.2-.724-1.552-1.73-.878.507-.236 1.258.646.325-1.385zM84.417 59.262l.216.463c-.23.312-.546.562-.95.75-.328.154-.637.217-.927.19s-.555-.12-.796-.29c-.24-.17-.424-.388-.55-.656-.2-.43-.214-.86-.046-1.294.17-.433.478-.755.924-.963.308-.144.688-.224 1.14-.238l.21.453c-.434-.037-.814.022-1.143.176-.336.156-.566.393-.69.708-.122.316-.11.634.04.954.15.32.383.535.7.64s.642.08.982-.078c.356-.167.652-.438.89-.816zM84.204 56.615l.42-.196 1.19 2.554 1.323-.616.178.382-1.743.812-1.368-2.937zM87.567 55.027l.296-.14 2.693 2.34-.43.2-.796-.687-1.253.584.038 1.04-.432.203-.116-3.54zm1.415 1.42l-.97-.843.057 1.27.912-.427zM91.355 55.357l-.41-.044c-.258-.03-.456-.083-.596-.163-.14-.077-.247-.194-.32-.35-.106-.23-.114-.455-.02-.675.093-.22.268-.39.524-.51.245-.112.502-.148.77-.106l.224.477c-.307-.105-.582-.1-.826.014-.137.064-.234.15-.293.254-.06.104-.066.206-.02.305.04.087.11.155.212.2.1.048.243.08.427.097l.408.04c.458.047.765.236.92.566.108.235.12.464.03.685-.09.22-.26.39-.512.508-.29.135-.596.168-.917.102l-.25-.534c.36.183.69.203.99.064.13-.062.224-.148.277-.264.053-.114.054-.227.003-.337-.084-.18-.292-.29-.625-.33zM93.65 54.288l-.41-.044c-.258-.03-.457-.084-.597-.163-.14-.077-.246-.193-.318-.35-.107-.23-.115-.455-.02-.674.092-.22.267-.39.523-.51.245-.113.502-.148.77-.106l.224.478c-.306-.105-.582-.1-.825.013-.138.065-.235.15-.294.255-.06.104-.065.206-.02.305.042.088.113.155.214.2.1.048.243.08.426.098l.41.04c.458.046.764.236.918.566.11.235.12.463.032.685-.09.22-.26.39-.512.506-.29.136-.596.17-.917.103l-.25-.536c.36.183.69.204.99.064.13-.062.225-.148.277-.264.053-.114.054-.227.003-.337-.083-.18-.29-.29-.623-.33zM94.426 51.85l.42-.196 1.37 2.937-.42.196-1.37-2.936zM99.403 52.273l.216.463c-.23.312-.548.562-.95.75-.33.154-.638.217-.928.19s-.556-.12-.797-.29c-.24-.17-.424-.388-.55-.656-.198-.428-.213-.858-.045-1.293.17-.433.477-.755.924-.963.308-.144.688-.224 1.14-.238l.21.453c-.433-.038-.814.02-1.142.175-.336.156-.566.393-.69.708-.123.316-.11.634.04.954.15.32.382.535.697.64s.643.08.983-.078c.356-.167.653-.44.89-.817zM41.588 82.777l.42-.195.187 3.503-.092.043-2.074-1.94.143 2.84-.09.043-2.56-2.396.424-.198 1.754 1.647-.128-2.404.397-.187 1.76 1.644-.142-2.4zM42.66 82.277l.42-.196 1.37 2.938-.42.196-1.37-2.937zM43.802 81.74l2.453-1.145.175.374-1.023.477 1.196 2.566-.422.197-1.196-2.566-1.007.47-.175-.374zM49.048 79.3l.42-.197 1.37 2.937-.42.196-.597-1.277-1.65.768.597 1.277-.42.196-1.37-2.936.42-.195.593 1.27 1.65-.77-.592-1.27zM51.92 77.954l2.454-1.144.175.373-1.025.478 1.197 2.567-.423.197-1.197-2.566-1.007.47-.176-.374zM56.238 75.896c.454-.212.898-.245 1.334-.098.436.146.754.436.956.87s.217.86.045 1.287c-.172.426-.49.747-.954.963-.443.206-.878.236-1.305.09s-.74-.434-.94-.86c-.204-.44-.226-.87-.062-1.296.163-.427.47-.745.925-.956zm.203.39c-.335.157-.562.39-.68.702-.12.312-.102.63.05.957.148.316.38.528.695.638.314.11.635.088.96-.064.33-.153.552-.39.67-.705.12-.317.105-.635-.044-.955-.144-.31-.376-.52-.694-.63-.317-.112-.636-.092-.955.056zM60.055 77.736l-1.367-2.933.99-.462c.4-.186.744-.272 1.032-.262.29.012.556.103.8.27.247.17.435.392.563.666.09.196.14.4.15.616.007.214-.027.423-.105.624-.078.206-.194.39-.35.55-.09.095-.178.172-.264.23-.086.057-.26.147-.52.27l-.93.432zm-.247-3l-.525.245 1.018 2.185.54-.25c.21-.1.366-.19.47-.272.102-.083.182-.165.24-.246.057-.08.102-.167.137-.262.11-.307.09-.62-.06-.942-.147-.314-.375-.52-.68-.622-.113-.036-.23-.055-.355-.056-.124 0-.235.013-.334.04-.098.03-.248.09-.45.182zM62.927 72.807l.295-.14 2.694 2.34-.43.2-.797-.687-1.254.584.04 1.042-.434.2-.115-3.54zm1.415 1.42l-.97-.842.057 1.27.912-.427zM66.485 71.167l.51-.237-.44 1.89.725 1.552-.43.2-.726-1.552-1.73-.878.51-.236 1.257.646.325-1.385zM68.01 71.71l-.04-.08c.035-.092.05-.173.048-.245-.003-.072-.027-.162-.072-.27-.17.022-.288-.035-.352-.17-.035-.078-.04-.155-.015-.234.024-.078.072-.134.142-.166.085-.04.173-.034.263.016s.162.134.218.25c.073.16.092.317.058.478s-.117.3-.25.423zM70.432 71.404l-.41-.045c-.257-.03-.457-.084-.597-.163-.14-.078-.246-.195-.318-.35-.107-.23-.115-.456-.02-.676.092-.218.267-.388.523-.507.246-.114.502-.15.772-.107l.223.477c-.308-.104-.582-.1-.826.014-.14.063-.236.148-.295.253-.06.104-.065.207-.02.306.04.088.113.155.214.2.1.048.24.08.425.097l.41.04c.458.048.764.236.918.566.11.234.12.463.03.684s-.26.39-.51.508c-.29.135-.596.168-.918.102l-.25-.534c.362.183.69.203.99.064.132-.062.224-.148.277-.264.054-.114.055-.227.003-.336-.082-.18-.29-.29-.623-.33zM75.22 68.908l.986-.46.58 1.246c-.29.324-.61.57-.966.737-.486.228-.94.267-1.364.118s-.732-.43-.926-.846c-.205-.44-.224-.874-.06-1.307.167-.432.476-.754.93-.966.165-.078.33-.133.496-.167.165-.033.384-.056.655-.065l.2.428c-.444-.04-.84.02-1.184.183-.32.148-.54.384-.66.705-.117.32-.102.64.046.96.155.332.393.553.71.662s.652.083.998-.078c.168-.08.352-.213.55-.397l.034-.032-.286-.61-.565.264-.173-.376zM76.447 66.522l.42-.195 1.19 2.555 1.323-.617.178.383-1.742.812-1.37-2.938zM79.81 64.934l.296-.138 2.694 2.34-.43.2-.798-.688-1.253.585.038 1.04-.432.202-.115-3.54zm1.415 1.42l-.97-.842.057 1.27.913-.427zM84.41 62.81l.393-.184 1.37 2.937-.423.196-1.065-2.286-.374 1.558-.076.036-1.443-.71 1.066 2.285-.42.195-1.37-2.936.4-.187 1.538.75.406-1.656zM87.18 61.467c.455-.21.9-.245 1.335-.098.436.145.754.435.956.868s.218.86.046 1.288c-.172.427-.49.747-.954.963-.442.205-.877.236-1.304.09-.427-.147-.74-.435-.94-.86-.204-.44-.226-.872-.062-1.297.162-.427.47-.744.925-.956zm.203.39c-.336.156-.563.39-.68.702-.12.31-.103.63.05.956.147.316.38.528.694.638.314.11.635.088.96-.064.33-.152.552-.388.67-.703.12-.318.105-.635-.044-.955-.145-.312-.377-.52-.695-.63-.317-.112-.635-.093-.955.055zM91.67 59.424l.42-.197.778 1.668c.105.225.168.403.19.534.02.128.023.243.01.342s-.04.195-.08.288c-.14.31-.397.55-.773.727-.382.178-.735.222-1.06.13-.1-.028-.19-.07-.274-.124-.083-.054-.167-.13-.25-.225-.082-.096-.18-.263-.29-.5l-.775-1.662.423-.197.777 1.667c.128.274.25.452.362.53.114.08.25.12.41.127.16.004.326-.034.5-.115.25-.117.423-.277.52-.48.05-.11.07-.22.063-.332-.008-.112-.065-.284-.173-.515l-.778-1.67zM94.378 61.735l-1.37-2.937.737-.343c.297-.14.567-.175.81-.108.243.065.423.224.54.475.08.17.107.34.08.503s-.106.315-.238.45c.123.02.254.06.393.125.14.064.352.19.638.38.18.12.32.207.42.263l.255.137-.5.233-.22-.134c-.007-.006-.02-.014-.04-.024l-.137-.078-.23-.154-.248-.162c-.143-.08-.268-.14-.373-.178-.105-.037-.194-.06-.268-.062-.072-.004-.177.025-.315.09l-.11.05.597 1.278-.422.195zm-.655-2.834l-.126.06.432.927.16-.074c.212-.1.35-.185.412-.258.062-.074.098-.157.108-.252.01-.094-.007-.188-.05-.282-.044-.09-.107-.163-.192-.216-.083-.052-.177-.073-.28-.062-.105.01-.26.064-.465.16z"/></g></svg>