<svg xmlns="http://www.w3.org/2000/svg" viewBox="0 0 100 90" enable-background="new 0 0 100 90"><g fill="#fff"><path d="M29.505 82.116l2.453-1.144.174.375-1.024.478 1.197 2.566-.423.197-1.196-2.566-1.007.47-.175-.374zM34.75 79.676l.42-.195 1.37 2.938-.42.195-.597-1.278-1.65.77.596 1.278-.422.196-1.37-2.938.422-.196.592 1.27 1.65-.77-.592-1.27zM36.142 79.027l1.665-.776.174.375-1.243.58.418.896 1.202-.56.175.376-1.203.562.425.91 1.284-.6.173.376-1.705.795-1.366-2.933zM40.566 76.964l1.665-.776.175.374-1.244.58.42.897 1.2-.562.176.375-1.203.562.426.91 1.283-.6.174.376-1.705.796-1.366-2.932zM45.167 74.818l.508-.236-.515 1.964 1.966.935-.508.237-1.568-.75-.442 1.688-.514.24.555-2.11-1.835-.87.514-.238 1.443.69.394-1.55zM46.16 74.35l2.453-1.144.175.375-1.024.48 1.197 2.565-.422.196-1.196-2.565-1.007.47-.175-.375zM50.717 75.806l-1.37-2.937.737-.344c.297-.14.566-.176.81-.108.244.065.424.224.54.474.08.17.107.34.08.503-.027.165-.107.315-.238.452.124.018.254.06.393.123.14.065.35.19.637.38.18.12.32.208.42.262l.255.14-.5.232-.22-.134c-.006-.006-.02-.013-.04-.024l-.137-.077-.23-.155-.247-.162c-.143-.08-.268-.14-.373-.178-.106-.037-.195-.06-.268-.063-.073-.003-.178.025-.315.09l-.11.05.597 1.28-.423.194zm-.656-2.834l-.125.06.432.926.16-.074c.213-.1.35-.186.414-.258.063-.074.1-.158.108-.253.01-.094-.007-.188-.05-.28-.044-.093-.108-.166-.19-.22-.085-.05-.18-.07-.282-.06s-.26.063-.465.16zM53.188 71.06l.295-.14 2.694 2.34-.43.2-.798-.688-1.253.584.04 1.042-.433.202-.116-3.54zm1.415 1.42l-.97-.844.057 1.27.913-.426zM56.702 69.39c.454-.212.898-.245 1.334-.098.436.146.755.436.956.868.202.435.217.863.045 1.29-.173.426-.49.746-.954.962-.442.207-.877.237-1.305.09-.427-.146-.74-.434-.94-.86-.204-.438-.225-.87-.062-1.296.163-.427.472-.745.926-.957zm.202.39c-.335.157-.562.392-.68.702-.12.31-.102.63.05.957.147.315.38.527.694.637.314.11.635.088.96-.064.33-.152.552-.388.67-.703.12-.318.105-.636-.044-.955-.146-.312-.376-.52-.694-.632s-.636-.09-.956.057zM60.53 71.23l-1.37-2.936.735-.343c.297-.138.567-.175.81-.107.244.064.424.224.54.474.08.17.106.34.08.503-.027.165-.107.314-.238.452.123.018.254.06.393.123s.352.19.638.38c.18.12.32.208.42.262l.255.14-.5.232-.22-.135c-.006-.006-.02-.013-.04-.024l-.136-.076-.23-.154-.248-.163c-.144-.08-.268-.14-.373-.177-.106-.037-.195-.06-.268-.063-.074-.004-.18.025-.316.09l-.11.05.597 1.28-.42.194zm-.657-2.833l-.126.06.432.926.16-.074c.212-.1.35-.187.413-.26.06-.073.098-.158.108-.252.01-.094-.007-.188-.05-.28-.043-.093-.107-.166-.19-.22-.084-.05-.18-.07-.282-.06-.104.01-.26.062-.465.16zM63.442 69.867l-1.367-2.933.99-.462c.4-.186.743-.272 1.03-.262.29.012.557.102.802.27s.433.39.56.664c.093.197.143.402.15.617s-.026.424-.104.625c-.078.206-.194.39-.35.55-.09.096-.178.17-.264.23-.087.058-.26.147-.52.27l-.928.432zm-.247-3l-.525.245 1.02 2.184.537-.25c.21-.1.366-.19.47-.272.103-.083.183-.165.24-.246.057-.08.103-.167.137-.26.11-.308.09-.622-.06-.943-.148-.315-.375-.522-.68-.622-.113-.038-.23-.057-.355-.057-.125 0-.236.012-.334.04-.1.028-.25.087-.45.18zM65.626 65.278l.42-.196 1.37 2.937-.42.195-1.37-2.937zM69.354 63.54l.4-.187 1.368 2.937-.36.17-3.02-1.347 1.055 2.26-.395.186-1.37-2.938.34-.16 3.044 1.36-1.062-2.282zM71.635 62.456l.296-.138 2.694 2.34-.43.2-.797-.688-1.252.584.038 1.04-.432.203-.115-3.54zm1.415 1.42l-.97-.842.057 1.27.913-.427zM75.28 64.352l-1.368-2.937.736-.344c.297-.137.567-.174.81-.106.243.064.423.224.54.474.08.17.106.34.08.503-.028.166-.108.315-.24.453.125.018.255.06.395.123s.352.19.638.38c.182.12.322.207.422.262l.254.14-.5.232-.218-.134c-.007-.006-.02-.013-.042-.024l-.136-.077-.23-.154-.248-.162c-.143-.08-.268-.14-.373-.177-.107-.036-.196-.058-.27-.062-.072-.004-.177.025-.314.09l-.11.05.596 1.28-.42.194zm-.655-2.834l-.126.06.43.926.16-.074c.214-.1.352-.186.415-.26.062-.072.098-.157.108-.25.01-.095-.008-.19-.05-.283-.044-.092-.108-.164-.192-.218-.082-.052-.177-.072-.28-.063-.104.01-.26.064-.465.16zM78.158 59.435l.51-.237-.44 1.89.726 1.552-.432.2-.724-1.552-1.73-.878.507-.236 1.258.646.325-1.385zM84.417 59.262l.216.463c-.23.312-.546.562-.95.75-.328.154-.637.217-.927.19s-.555-.12-.796-.29c-.24-.17-.424-.388-.55-.656-.2-.43-.214-.86-.046-1.294.17-.433.478-.755.924-.963.308-.144.688-.224 1.14-.238l.21.453c-.434-.037-.814.022-1.143.176-.336.156-.566.393-.69.708-.122.316-.11.634.04.954.15.32.383.535.7.64s.642.08.982-.078c.356-.167.652-.438.89-.816zM84.204 56.615l.42-.196 1.19 2.554 1.323-.616.178.382-1.743.812-1.368-2.937zM87.567 55.027l.296-.14 2.693 2.34-.43.2-.796-.687-1.253.584.038 1.04-.432.203-.116-3.54zm1.415 1.42l-.97-.843.057 1.27.912-.427zM91.355 55.357l-.41-.044c-.258-.03-.456-.083-.596-.163-.14-.077-.247-.194-.32-.35-.106-.23-.114-.455-.02-.675.093-.22.268-.39.524-.51.245-.112.502-.148.77-.106l.224.477c-.307-.105-.582-.1-.826.014-.137.064-.234.15-.293.254-.06.104-.066.206-.02.305.04.087.11.155.212.2.1.048.243.08.427.097l.408.04c.458.047.765.236.92.566.108.235.12.464.03.685-.09.22-.26.39-.512.508-.29.135-.596.168-.917.102l-.25-.534c.36.183.69.203.99.064.13-.062.224-.148.277-.264.053-.114.054-.227.003-.337-.084-.18-.292-.29-.625-.33zM93.65 54.288l-.41-.044c-.258-.03-.457-.084-.597-.163-.14-.077-.246-.193-.318-.35-.107-.23-.115-.455-.02-.674.092-.22.267-.39.523-.51.245-.113.502-.148.77-.106l.224.478c-.306-.105-.582-.1-.825.013-.138.065-.235.15-.294.255-.06.104-.065.206-.02.305.042.088.113.155.214.2.1.048.243.08.426.098l.41.04c.458.046.764.236.918.566.11.235.12.463.032.685-.09.22-.26.39-.512.506-.29.136-.596.17-.917.103l-.25-.536c.36.183.69.204.99.064.13-.062.225-.148.277-.264.053-.114.054-.227.003-.337-.083-.18-.29-.29-.623-.33zM94.426 51.85l.42-.196 1.37 2.937-.42.196-1.37-2.936zM99.403 52.273l.216.463c-.23.312-.548.562-.95.75-.33.154-.638.217-.928.19s-.556-.12-.797-.29c-.24-.17-.424-.388-.55-.656-.198-.428-.213-.858-.045-1.293.17-.433.477-.755.924-.963.308-.144.688-.224 1.14-.238l.21.453c-.433-.038-.814.02-1.142.175-.336.156-.566.393-.69.708-.123.316-.11.634.04.954.15.32.382.535.697.64s.643.08.983-.078c.356-.167.653-.44.89-.817zM41.588 82.777l.42-.195.187 3.503-.092.043-2.074-1.94.143 2.84-.09.043-2.56-2.396.424-.198 1.754 1.647-.128-2.404.397-.187 1.76 1.644-.142-2.4zM42.66 82.277l.42-.196 1.37 2.938-.42.196-1.37-2.937zM43.802 81.74l2.453-1.145.175.374-1.023.477 1.196 2.566-.422.197-1.196-2.566-1.007.47-.175-.374zM49.048 79.3l.42-.197 1.37 2.937-.42.196-.597-1.277-1.65.768.597 1.277-.42.196-1.37-2.936.42-.195.593 1.27 1.65-.77-.592-1.27zM51.92 77.954l2.454-1.144.175.373-1.025.478 1.197 2.567-.423.197-1.197-2.566-1.007.47-.176-.374zM56.238 75.896c.454-.212.898-.245 1.334-.098.436.146.754.436.956.87s.217.86.045 1.287c-.172.426-.49.747-.954.963-.443.206-.878.236-1.305.09s-.74-.434-.94-.86c-.204-.44-.226-.87-.062-1.296.163-.427.47-.745.925-.956zm.203.39c-.335.157-.562.39-.68.702-.12.312-.102.63.05.957.148.316.38.528.695.638.314.11.635.088.96-.064.33-.153.552-.39.67-.705.12-.317.105-.635-.044-.955-.144-.31-.376-.52-.694-.63-.317-.112-.636-.092-.955.056zM60.055 77.736l-1.367-2.933.99-.462c.4-.186.744-.272 1.032-.262.29.012.556.103.8.27.247.17.435.392.563.666.09.196.14.4.15.616.007.214-.027.423-.105.624-.078.206-.194.39-.35.55-.09.095-.178.172-.264.23-.086.057-.26.147-.52.27l-.93.432zm-.247-3l-.525.245 1.018 2.185.54-.25c.21-.1.366-.19.47-.272.102-.083.182-.165.24-.246.057-.08.102-.167.137-.262.11-.307.09-.62-.06-.942-.147-.314-.375-.52-.68-.622-.113-.036-.23-.055-.355-.056-.124 0-.235.013-.334.04-.098.03-.248.09-.45.182zM62.927 72.807l.295-.14 2.694 2.34-.43.2-.797-.687-1.254.584.04 1.042-.434.2-.115-3.54zm1.415 1.42l-.97-.842.057 1.27.912-.427zM66.485 71.167l.51-.237-.44 1.89.725 1.552-.43.2-.726-1.552-1.73-.878.51-.236 1.257.646.325-1.385zM68.01 71.71l-.04-.08c.035-.092.05-.173.048-.245-.003-.072-.027-.162-.072-.27-.17.022-.288-.035-.352-.17-.035-.078-.04-.155-.015-.234.024-.078.072-.134.142-.166.085-.04.173-.034.263.016s.162.134.218.25c.073.16.092.317.058.478s-.117.3-.25.423zM70.432 71.404l-.41-.045c-.257-.03-.457-.084-.597-.163-.14-.078-.246-.195-.318-.35-.107-.23-.115-.456-.02-.676.092-.218.267-.388.523-.507.246-.114.502-.15.772-.107l.223.477c-.308-.104-.582-.1-.826.014-.14.063-.236.148-.295.253-.06.104-.065.207-.02.306.04.088.113.155.214.2.1.048.24.08.425.097l.41.04c.458.048.764.236.918.566.11.234.12.463.03.684s-.26.39-.51.508c-.29.135-.596.168-.918.102l-.25-.534c.362.183.69.203.99.064.132-.062.224-.148.277-.264.054-.114.055-.227.003-.336-.082-.18-.29-.29-.623-.33zM75.22 68.908l.986-.46.58 1.246c-.29.324-.61.57-.966.737-.486.228-.94.267-1.364.118s-.732-.43-.926-.846c-.205-.44-.224-.874-.06-1.307.167-.432.476-.754.93-.966.165-.078.33-.133.496-.167.165-.033.384-.056.655-.065l.2.428c-.444-.04-.84.02-1.184.183-.32.148-.54.384-.66.705-.117.32-.102.64.046.96.155.332.393.553.71.662s.652.083.998-.078c.168-.08.352-.213.55-.397l.034-.032-.286-.61-.565.264-.173-.376zM76.447 66.522l.42-.195 1.19 2.555 1.323-.617.178.383-1.742.812-1.37-2.938zM79.81 64.934l.296-.138 2.694 2.34-.43.2-.798-.688-1.253.585.038 1.04-.432.202-.115-3.54zm1.415 1.42l-.97-.842.057 1.27.913-.427zM84.41 62.81l.393-.184 1.37 2.937-.423.196-1.065-2.286-.374 1.558-.076.036-1.443-.71 1.066 2.285-.42.195-1.37-2.936.4-.187 1.538.75.406-1.656zM87.18 61.467c.455-.21.9-.245 1.335-.098.436.145.754.435.956.868s.218.86.046 1.288c-.172.427-.49.747-.954.963-.442.205-.877.236-1.304.09-.427-.147-.74-.435-.94-.86-.204-.44-.226-.872-.062-1.297.162-.427.47-.744.925-.956zm.203.39c-.336.156-.563.39-.68.702-.12.31-.103.63.05.956.147.316.38.528.694.638.314.11.635.088.96-.064.33-.152.552-.388.67-.703.12-.318.105-.635-.044-.955-.145-.312-.377-.52-.695-.63-.317-.112-.635-.093-.955.055zM91.67 59.424l.42-.197.778 1.668c.105.225.168.403.19.534.02.128.023.243.01.342s-.04.195-.08.288c-.14.31-.397.55-.773.727-.382.178-.735.222-1.06.13-.1-.028-.19-.07-.274-.124-.083-.054-.167-.13-.25-.225-.082-.096-.18-.263-.29-.5l-.775-1.662.423-.197.777 1.667c.128.274.25.452.362.53.114.08.25.12.41.127.16.004.326-.034.5-.115.25-.117.423-.277.52-.48.05-.11.07-.22.063-.332-.008-.112-.065-.284-.173-.515l-.778-1.67zM94.378 61.735l-1.37-2.937.737-.343c.297-.14.567-.175.81-.108.243.065.423.224.54.475.08.17.107.34.08.503s-.106.315-.238.45c.123.02.254.06.393.125.14.064.352.19.638.38.18.12.32.207.42.263l.255.137-.5.233-.22-.134c-.007-.006-.02-.014-.04-.024l-.137-.078-.23-.154-.248-.162c-.143-.08-.268-.14-.373-.178-.105-.037-.194-.06-.268-.062-.072-.004-.177.025-.315.09l-.11.05.597 1.278-.422.195zm-.655-2.834l-.126.06.432.927.16-.074c.212-.1.35-.185.412-.258.062-.074.098-.157.108-.252.01-.094-.007-.188-.05-.282-.044-.09-.107-.163-.192-.216-.083-.052-.177-.073-.28-.062-.105.01-.26.064-.465.16zM52.716 3.837c-.104-.052-.15-.082-.17-.164-.11-.403-.468-.458-.493-.473-.018-.013-.05-.048-.1-.03-.063.025-.08.065-.193.174-.114.114-.163.05-.23.035-.062-.02-.162-.015-.147-.06.056-.235.872-.375 1.333-.375m0 .892c.1-.052.15-.082.17-.164.106-.403.473-.458.493-.473.02-.013.044-.048.106-.03.056.025.076.065.188.174.115.114.162.05.233.035.06-.02.16-.015.146-.06-.057-.235-.873-.375-1.336-.375m0-.225c.235-.014.907.09 1.263.283.155.087.17 0 .197-.05 0 0 .04-.07.08-.12 0 0 .198-.28.454-.24.087.013.2.013.262-.043.046-.046.114-.145.08-.254-.045-.134-.17-.167-.28-.152-.128.03-.148.12-.186.207-.02.04-.215.172-.28.203-.112.043-.188.037-.166-.08.013-.07.146-.292.194-.305.062-.02.167-.003.254-.102.056-.063.076-.192-.01-.29-.11-.125-.24-.073-.292-.033-.077.063-.097.15-.1.27-.003.06-.218.29-.272.314-.088.037-.15.01-.158-.09-.01-.116.115-.37.18-.397.095-.027.163-.08.193-.163.036-.11 0-.25-.117-.294-.12-.038-.25.002-.298.128-.046.118 0 .164.018.235.013.06-.11.308-.207.388-.09.07-.16.063-.186-.055-.022-.078.06-.447.1-.473.128-.095.153-.148.163-.22.012-.074-.03-.212-.162-.24-.082-.024-.216.006-.278.118-.042.097 0 .236.036.266.032.027-.056.415-.143.53-.078.114-.152.057-.177 0-.02-.05-.144-.523-.047-.633.104-.11.108-.137.108-.207.006-.07-.065-.22-.222-.22m0 0c-.154 0-.226.15-.224.22 0 .07.005.098.107.206.098.11-.027.582-.044.632-.03.058-.1.115-.18 0-.086-.114-.173-.502-.144-.53.033-.03.078-.17.033-.266-.055-.112-.196-.142-.273-.12-.135.03-.175.168-.165.242.012.072.035.125.165.22.044.027.123.396.102.473-.028.118-.096.125-.183.055-.1-.08-.225-.328-.21-.388.016-.07.062-.117.016-.234-.046-.125-.177-.166-.294-.128-.116.043-.156.186-.116.294.03.084.1.136.195.163.064.025.185.28.176.395-.008.1-.068.128-.155.09-.053-.024-.27-.253-.27-.313-.008-.12-.025-.206-.106-.27-.05-.04-.184-.092-.29.032-.085.1-.07.228-.013.29.09.1.193.083.254.103.05.013.183.234.198.306.02.115-.054.122-.164.08-.067-.032-.26-.165-.28-.203-.04-.086-.06-.178-.19-.207-.108-.016-.237.018-.28.152-.036.11.034.208.084.254.06.056.17.056.26.042.252-.04.45.24.45.24.043.05.08.12.08.12.03.05.04.137.194.05.36-.193 1.034-.297 1.268-.283M50.78 7.38c.11.242.207.463.29.672.086-.042.214-.1.223-.162 0-.035-.027-.096-.064-.116-.037-.027-.206-.25-.23-.265-.025-.017-.1-.098-.22-.128m2.184-2.896c.09-.067.283.072.33.072.03.007.123 0 .086-.025-.364-.28-.045-.67.26-.66.484.017.768.66.61 1.063-.02.027 0 .112.114.126.746.133 1.042.872.87 1.49-.02.047.158.136.172.096.022-.064.36-1.33-.85-1.752-.124-.043-.078-.145-.075-.177.017-.806-.614-1.027-.722-1.05-.11-.026-.317.074-.382-.026-.066-.09 0-.14-.088-.192-.04-.027-.223.125-.204.16.068.11-.216.513-.257.715-.015.074.014.092.048.092.025-.002.07-.04.09.066m-.5-.003c.025-.102.07-.067.097-.067.03 0 .058-.017.045-.096-.042-.196-.324-.6-.26-.71.023-.032-.157-.185-.205-.16-.085.052-.02.105-.085.195-.068.1-.27 0-.38.025-.11.024-.74.245-.726 1.05 0 .03.05.13-.074.177-1.215.42-.872 1.684-.85 1.752.013.036.188-.055.174-.1-.173-.615.12-1.354.868-1.487.116-.027.13-.1.116-.128-.158-.41.124-1.048.61-1.062.307-.012.623.382.254.66-.032.025.06.032.088.025.048-.006.237-.14.328-.075M50.37 6.478s.127.018.182.033c.082.025.194.092.252.138.06.04.483.318.635.37.334.106.346.223.416.374.007.025.027.04.067-.01.022-.02.212-.276.255-.34.226-.353.428-.595.687-.857.137-.143.64-.632 1.574-.895-.116-.04-.245-.082-.398-.1-.166-.032-.123-.032-.08-.144.052-.148.08-.164.094-.446.013-.268-.246-.495-.417-.495-.145 0-.252.146-.136.235.022.018.135.093.108.174-.077.215-.205.305-.276.31-.08.003-.148-.08-.215-.105-.104-.056-.095 0-.13 0h-.073c-.15.002-.118 0-.2-.056-.08.055-.047.06-.205.055h-.074c-.027 0-.02-.056-.13 0-.06.024-.13.108-.205.104-.08-.005-.208-.095-.28-.31-.03-.08.082-.156.11-.174.11-.09.01-.235-.138-.235-.173 0-.432.228-.416.495.013.282.042.298.093.446.042.112.087.112-.08.144-1.053.155-1.128.898-1.022 1.288m2.477 5.805c-.03 0-.068.128-.068.187 0 .057.026.196.177.21.02.004.02-.014.027-.03.01-.06-.052-.02-.074-.14-.023-.152-.032-.227-.063-.227m-.264.003c-.027 0-.04.072-.06.227-.017.115-.087.076-.072.136.002.02.008.034.03.034.15-.014.168-.152.168-.212s-.027-.186-.065-.186m.133.57c-.352.137-.446.044-.526-.035-.02-.024-.323.3-1.025-.63-.022-.027-.526.222-1.534 1.482-.29.355-.737.61-1.12.584-.38-.014-.464-.208-.402-.377.06-.175.353-.462.477-.305.056.072-.377.116-.23.38.17.3.703-.1.647-.348-.05-.212-.273-.247-.456-.247-.043 0-.065-.144-.296-.17.058.1.07.17.027.205-.06.05-.644.527-.455 1.12.192.58.79.76 1.272.596.69-.242 1.13-.836 2.072-.78.408.022.702.26.747.44.03.114-.223.066-.168.504.026.22.463.674.973.146.514.528.944.073.973-.146.058-.437-.196-.39-.163-.505.04-.182.334-.418.74-.44.946-.056 1.39.538 2.074.78.485.164 1.08-.016 1.27-.596.195-.592-.39-1.068-.45-1.12-.04-.034-.027-.103.03-.203-.234.026-.258.17-.304.17-.173 0-.398.035-.448.247-.065.248.47.647.642.348.146-.264-.286-.307-.226-.38.12-.157.415.13.477.304.06.168-.026.362-.405.376-.384.026-.833-.23-1.12-.584-1.01-1.26-1.513-1.51-1.537-1.48-.7.93-1 .605-1.02.63-.086.077-.175.17-.532.034m0 2.254c-.134.23-.305.4-.486.39-.326-.03-.34-.407-.252-.46.045-.02.133-.12.136-.187.02-.124-.22-.67-.95-.73-.742-.074-1.756.656-2.09.777-.66.24-1.08-.286-1.01-.557.035.034.416.243 1.047-.023.63-.274 1.126-1.104 1.382-1.375.26-.268.397-.382.663-.493.074-.03.087.085.098.11.006.02-.482.277-.66.504-.385.505-.912 1.224-1.438 1.415-.196.07-.4.172-.83.122.11.142.352.256.685.128.438-.16 1.44-.88 2.168-.808.677.076 1.09.485 1.105.915.007.217-.053.292-.143.32-.055.012 0 .144.09.146.225.003.454-.453.485-.517.03.063.26.52.487.517.09-.002.138-.134.09-.147-.09-.027-.15-.102-.144-.32.012-.43.428-.838 1.102-.914.727-.072 1.735.648 2.164.808.334.128.58.013.69-.128-.43.05-.635-.05-.834-.12-.518-.19-1.044-.91-1.436-1.416-.176-.227-.664-.484-.655-.503.008-.027.017-.142.093-.11.27.11.41.225.667.492.257.272.758 1.102 1.382 1.375.63.266 1.01.057 1.048.023.065.27-.352.797-1.008.557-.342-.12-1.355-.85-2.098-.776-.73.06-.965.605-.947.73.007.065.088.167.138.187.085.053.07.43-.253.46-.178.01-.355-.16-.486-.39m-.644-2.764c0 .06-.056.114-.167.074-.16-.052-.64-.772-.854-1.18.28-.877.21-1.36.15-1.928-.09-.896-.708-1.986-.796-2.054-.042-.03-.182.05-.162.088.357.66.69 1.007.796 2.248.052.58.052 1.018-.208 1.69.232.387.846 1.37 1.137 1.334.223-.028.294-.19.3-.393.012-.183-.126-.29-.224-.284-.065.01-.18.028-.167.2.01.13.078.144.117.144.036 0 .08-.027.08.062m1.282 0c0-.092.046-.063.08-.063.037 0 .11-.013.118-.144.008-.173-.105-.19-.168-.2-.093-.007-.235.096-.23.284.007.196.083.365.3.393.297.037.912-.947 1.145-1.337-.264-.67-.266-1.107-.213-1.69.108-1.24.443-1.587.798-2.248.016-.035-.12-.114-.164-.085-.084.068-.7 1.153-.793 2.054-.062.57-.132 1.052.15 1.928-.217.41-.69 1.13-.853 1.18-.114.042-.17-.012-.17-.072m.056-4.566c-.003-.007-.004-.047 0-.075.13-.602.863-.736.988-.8.052-.026.474-.178.63-.315.104-.236.144-.677-.148-1.008-.04-.037-.167-.108-.41-.064-.125.022-.675.242-1.01.468-.235.172-.58.44-.976 1.08-.068.114-.44.566-.507.634 0 .02.047.22.04.232-.017.025-.012.135-.145.126-.135-.012-.557.03-.712.217.147.396.24.752.282 1.135 0 0 1.005.065 1.97-1.6.008-.007.004-.023-.002-.03m-1.33.756s.15.19.15.247c0 .065-.047.1-.096.1-.05 0 0 .108-.268.176-.08.017-.22-.033-.28-.088-.044-.033-.19-.19-.182-.39.007-.26.18-.325.28-.338.138-.032.226.076.23.095.008.03-.03.07-.08.088-.017.015-.05-.02-.118-.01-.08.017-.163.104-.146.197.018.093.03.14.114.22.07.07.172.047.212.01.047-.036.057-.085.057-.118 0-.022.008-.056.008-.112.006-.026.062-.09.12-.08m.332.137s-.055.044-.078.015c-.023-.027-.305-.495-.33-.542-.005-.016.018-.05.045-.07.033-.017.058-.032.08-.007.02.025.306.523.32.552.007.026-.015.03-.038.052m-.095-1.06c.182-.15.435-.04.555.162.116.2.13.406-.037.51-.145.105-.385.116-.556-.15-.123-.185-.074-.42.037-.522m.15.15c.09-.05.196.037.25.125.058.1.053.18-.013.24-.098.087-.195-.01-.26-.1-.06-.078-.07-.21.024-.264m1.42-1.21s.127.213.122.262c-.003.068-.055.095-.104.088-.043-.01-.014.104-.285.154-.08.012-.22-.06-.268-.112-.04-.05-.173-.22-.142-.418.04-.256.213-.307.315-.312.137-.01.217.1.22.12 0 .033-.042.07-.092.09-.02 0-.046-.027-.115-.024-.082.003-.174.077-.165.177.006.097.02.142.09.234.06.08.17.065.205.03.05-.034.062-.078.07-.114 0-.016.013-.05.025-.11.003-.022.066-.082.124-.063m.26.158s-.06.017-.078-.012c-.015-.02-.21-.585-.226-.632-.005-.023.028-.05.062-.06.03-.02.057-.02.072.007.018.03.212.616.216.647.005.028-.02.028-.046.05m.308-.93c.23-.065.41.137.438.366.026.237-.05.424-.243.462-.174.037-.398-.054-.447-.367-.035-.224.107-.428.253-.46m.075.197c.1-.015.157.11.175.214.018.117-.022.193-.11.216-.127.04-.173-.092-.197-.193-.023-.1.027-.227.133-.236m-1.38 1.828c-.03.036-.06.04-.086.04-.018-.026-.444-.693-.444-.693.096-.227.19-.292.23-.324.07-.064.163-.074.196-.064.022.003.15.018.18.164.026.132-.008.23-.008.29 0 .012 0 .035.01.04.023.022.057 0 .143.008.04 0 .115-.044.155-.012.03.015-.02.094-.028.11-.032.036-.08.053-.11.06-.076.033-.135.036-.194.055-.06.01-.08.032-.084.05-.007.014.002.062.03.12.022.063.037.12.01.155m-.162-.515c-.01.01-.036 0-.036 0-.037-.042-.093-.146-.106-.168-.01-.02-.01-.044 0-.062.02-.03.04-.066.085-.094.033-.013.075.003.096.02.02.012.058.044.05.12 0 .015-.012.066-.026.097-.02.05-.045.078-.062.087m5.353-2.292c.213.13.023.37.014.542.105.59-.1 1.088-.44 1.514-.032.036-.117.166-.136.195-.13.262-.245.564-.17.845.05-.063.127-.127.166-.14.047-.023.14-.108.165-.167.038-.102.017-.155.038-.222.004-.023.032-.035.062-.022l.036.042c.01.007.02.007.038 0 .123-.292.354-.533.53-.8.014-.032.086-.118.102-.18.02-.11.003-.253.13-.27.022-.002.048-.013.04-.024-.06-.236.082-.65-.033-.75-.195-.12-.197-.298-.233-.437-.043-.358-.326-.323-.427-.316-.064.006-.12.023-.183.014-.062-.02-.126-.07-.193-.08-.153.054-.232.007-.357.055 0 .033.042.05.062.058.237.045.38.127.625.122.058-.007.107-.007.164.018m-3.147-.356c-.203.058-.314-.234-.508-.285-.05-.01-.07.05-.06.104.004.03.01.168.004.192 0 .066.03.066.082.076.086.046.192.104.263.164.02.02.04.033.063.038.284.072.416.388.602.586.36.347.01.797.062 1.218l.375.17c.057-.037.148-.223.153-.25.016-.164-.06-.344-.09-.508-.05-.17.02-.386-.062-.544-.293-.297-.464-.68-.813-.94-.022-.034-.05-.03-.066-.025m1.464 2.495c.052 0 .072-.062.09-.094.152-.3.41-.547.567-.846.012-.013.014-.05-.015-.052l-.146-.027c-.017-.01-.043.017-.053.02-.236.293-.586.445-.76.77-.03.053-.076.08-.008.096.105.046.202.124.324.132m.22.098c-.01.036-.085.09-.14.077-.222.018-.437-.08-.643-.155-.273-.22-.672-.153-.948-.376-.026-.012-.106-.012-.172.018-.302.213-.63.266-.932.446-.012.013-.094.02-.134.06-.04.03-.03.035-.066.062-.04.03-.042.033-.078.072-.117.16-.19.22-.193.358 0 .013-.007.038.022.04.068.022.16-.002.228-.027.013-.003.042-.013.038-.05.005-.008.002-.035.02-.05.013-.032.02-.042.05-.045.018 0 .044-.003.07.003.024.012.08.025.108-.003.04-.036.052-.067.057-.086.113-.344.478-.334.708-.504.46-.16.66.458 1.03.587.125.08.252.207.274.35-.176.153-.207-.175-.38-.16.023.086-.035.153-.02.246-.104.402.08.587.186.905.032.118.088.29.212.386.13.108.16.217.196.32.072.187.118.224.145.263-.346.335.04.762-.085 1.165-.02.104-.174.19-.19.192-.31.065-.633.102-.928.196-.05.007-.086.004-.105-.003-.087-.01-.16-.013-.24-.002-.017.012-.063.036-.07.055-.11.194-.36.246-.44.456-.007.02-.013.027.004.042.065.085.184.13.283.176.127.01.04-.176.127-.226.052-.046.123-.078.187-.065.02.01.05.01.067-.005.367-.354.925-.308 1.41-.245.208-.03.257-.225.314-.378.01-.007-.04-.065-.08-.125-.134-.226-.24-.476-.252-.776-.002-.102.06-.256.107-.35.08-.128.172-.253.325-.305.014-.004.048-.012.062.01.01.007.01.007.02.027.007.013.003.035-.004.054-.087.11-.196.213-.26.335-.177.512.16.97.525 1.333.118.176.407.247.417.49-.137.245-.43.396-.644.598-.148.08-.408.086-.405.298-.056.067-.197.16-.145.26.08.068.323-.04.44-.16.063.01.136-.026.148-.057.183-.402.613-.465.887-.78.44-.324-.106-.66-.106-1.02.04-.162.226-.16.32-.31.157-.268.206-.638.126-.96 0-.01-.012-.044.05-.056.062-.004.108.123.135.182.12.393.012.84-.33 1.123-.026.034-.043.077-.037.125.03.152.1.296.18.444.2.615-.622.8-.866 1.225-.07.143.05.307.062.396.004.04-.05.157 0 .167.274-.024.027-.484.232-.644.024-.017.075.056.107.02.067-.185.307-.193.4-.367.005-.022.022-.05.037-.064.407-.297.164-.864.53-1.18.095-.104.055-.35.24-.354.017.004.024-.03.018-.033-.142-.45.185-.96-.196-1.326-.02-.023-.084-.04-.12-.052-.194-.036-.37.05-.53.145-.013.006-.03 0-.036 0l-.366-.333c-.337-.25-.49-.584-.506-.965-.022-.41.07-.776.226-1.112.018-.043.133-.212.166-.247.368-.448.583-1.01.385-1.603 0-.036.094-.09.123-.19.006-.02.006-.046-.036-.04-.118.005-.223.055-.273.07-.022.008-.03-.008-.042-.015-.12-.154-.293-.176-.467-.216-.074-.024-.154.007-.194.02-.282.085-.6-.026-.882-.063-.03-.007-.04 0-.058.005-.056.04-.13.1-.158.164-.01.015-.002.03.007.034.184.067.02.198.044.328.056.083.158.124.274.105.32-.156.592.16.843.33.095.07.326-.048.32.13-.256.358-.458.738-.698 1.106l-.04.08m.46-2.04c.062-.098.197.015.19.062 0 .046-.092.082-.167.038-.032-.018-.027-.07-.023-.1m.718.144c-.02.004-.033-.012-.042-.015-.008-.008-.008-.035.01-.048.01-.008.046-.027.075-.033.017 0 .06-.002.03.046-.037.033-.044.033-.073.048m-1.69-.31c.07-.02.143.044.132.082-.02.04-.067.02-.088.02-.017-.01-.106-.058-.043-.1m-7.86 6.44c.055.06.192.172.28.176.39-.085.808.027 1.18.14.094.06.162.18.292.168.206-.032.11.207.254.27.137.05.276 0 .376-.08.033-.037-.106-.137-.168-.22-.027-.043-.05-.046-.062-.062-.158-.09-.226-.26-.38-.35-.017-.005-.037-.025-.056-.027-.374-.038-.74-.12-1.102-.206-.05-.01-.13-.04-.144-.063-.25-.234-.07-.613-.03-.928.01-.177-.062-.248-.09-.304-.028-.02-.046-.027-.07-.004-.02.015-.018.045-.01.06.18.436-.28.747-.41 1.12.06.066.097.138.117.225-.002.018-.002.07.023.086m1.75-6.52c.13-.005.222-.115.338-.147.182-.062.148-.267.173-.382-.017-.05-.132.01-.223.105-.03.022-.068.02-.086.015-.383-.108-.496.407-.727.588-.253.224-.42.48-.38.834-.013.3-.45.667-.02.923.154-.043.334-.035.363-.19-.04-.71-.11-1.345.494-1.738.016-.002.05-.014.07-.01M46.67 6.46c.148.4.654.603.58 1.09 0 .016.008.022.018.024.04.004.06-.047.088-.07.04-.012.072.02.086.044.014.226.26.353.323.545.006.034.01.038.01.053 0 .022.002.052.027.032.14-.682-.353-1.192-.59-1.768-.03-.057-.043-.14-.043-.173-.013-.384-.14-.742-.023-1.112.1-.378.583-.115.782-.398.003-.004.003-.01 0-.01-.14-.036-.324-.117-.455-.018-.03.017-.07.027-.1.03-.305.078-.38.43-.65.603-.254.203-.04.595-.254.813-.017.037.003.092.063.064.106-.013.142.092.135.172 0 .018-.004.06.003.077m2.444.493c.004-.016.004-.03 0-.05l-.497-.648c-.095-.115-.22-.125-.25-.254-.03-.136-.15-.066-.23-.037-.02.015-.035.036-.03.05.098.214.253.41.405.6.132.114.16.313.308.395.032.01.057.01.086.01.073-.02.163-.012.208-.065m.042-2.02c-.07-.02-.118.017-.128.078.018.046.08.024.086.024.022-.013.102-.068.042-.1m-.878.117c-.06-.1-.195.01-.192.058-.01.027.116.093.17.042.035-.035.027-.063.022-.1m3.458 2.55c.016.045.078.22.1.238.01.015.022.056-.06.074-.083.028-.15.046-.207.028-.037-.003-.06-.095-.06-.135.006-.058.012-.1-.07-.13-.077-.002-.283-.285-.442-.398-.24-.09-.47-.34-.754-.207-.294.294-.682.49-.91.817-.007.045 0 .114.06.12.107-.033.127-.17.236-.184.198.502-.116.813-.31 1.204-.034.052-.03.067-.06.187-.078.227-.165.293-.255.378-.116.13-.23.232-.407.232-.152-.005-.25-.29-.39-.184-.02.012-.034.057-.034.077.008.124.11.22.213.292.085.042.212.07.23.183-.003.3-.267.493-.38.747-.008.028-.055.134-.094.184-.146.2-.257.402-.492.517-.093.08-.183.217-.084.33.255.286.563.436.863.618.024.016.15.113.163.174.064.13.093.26.134.397l.006.012c-.047.062-.187-.003-.268-.045-.023-.016-.036-.026-.056-.057-.07-.062-.146-.106-.185-.126-.023-.015-.027-.023-.033-.036-.113-.367-.532-.42-.777-.665-.107-.076-.28-.07-.317-.226-.128-.513.62-.996.017-1.4-.013-.007-.042-.04-.056-.056-.134-.253-.026-.536-.087-.823 0-.014-.013-.055-.058-.055-.025-.005-.038.008-.062.038-.134.23-.094.54-.07.81.03.25.476.407.242.683-.035.045-.198.753-.134.84.183.372.714.39.853.824.006.018.007.065 0 .09-.023.138.006.29-.027.42-.007.016-.017.016-.03.02-.075-.02-.092-.118-.142-.168-.035-.13.083-.404-.09-.47-.01 0-.028.01-.04.025-.01.018-.01.032-.032.054-.032.015-.047-.037-.055-.055-.13-.26-.467-.514-.514-.572-.332-.21-.054-.627-.195-.9-.126-.133-.18-.3-.237-.46-.05-.192-.262.026-.287-.12 0-.015.01-.045.018-.057.196-.272.067-.615.108-.95.02-.098.05-.202.113-.283.022-.02.12-.157.303-.153.338.002.44.2.513.186.2-.262.513-.414.73-.647.05-.044.072-.126.082-.16.12-.64.125-1.412-.307-1.906-.243-.263-.292-.587-.35-.928-.012-.066-.04-.224-.025-.298.024-.112.105-.187.08-.36l-.003-.038c-.007-.016.01-.045.047-.045l.252.02c.01-.002.02-.002.03-.02.095-.157.333-.204.45-.25.047-.02.086-.03.178-.022.155.042.454.104.77 0 .123-.013.18.116.272.158.017.007.028.022.028.03-.013.115-.29.156-.065.27.037.02.037.047.018.09-.21.254-.52-.075-.76.12-.175.102-.323.333-.547.27-.06-.007-.11.05-.105.106.057.478.56.862.75 1.282.013.015.038.047.076.034.514-.072 1.02-.15 1.45-.416.478-.06.822.33 1.224.502.04.013.1.003.146.05.047.037.042.066.05.087.016.02.044.052.055.07.02.013.044.062.066.115M47.5 5.264c.023.007.038-.006.045-.015.004-.012.002-.033-.007-.047-.01-.007-.05-.027-.077-.027-.02 0-.066-.006-.032.035.034.04.042.05.072.054m5.216 6.79h.093c.097-.027.063-.047.16-.15.063-.064.184-.2.35-.2.186 0 .27.027.357.072.05-.067.26-.324.393-.537-.254-1.738-.062-2.426.582-3.848 0 0-.087.013-.17.092-.013.008-.017.04-.03.07-.164.43-.867.476-.877.495-.3.416-1.186 1.595-2.108 1.602.03.448-.007.945-.1 1.586.136.21.342.464.396.542.084-.05.16-.08.353-.08.167 0 .294.14.342.203.094.102.054.122.164.15h.094m-19.24 43.774c.09.036 0 .106-.04.13-1.18.427-4.03 2.147-5.352 3.595-.288 1.692-.61 3.425-1.012 5.114-.72 2.996-1.63 5.98-2.767 8.52-2.304 5.12-5.187 8.61-6.86 8.04-3.644-1.252 3.213-15.308 7.495-19.514.15-.897.885-9.04 1.066-10.692-1.403 1.95-5.398 9.68-8.85 10.233-1.72.275-4.34-.926-5.5-4.565-1.99 1.916-5.66 4.69-8.773 3.31-7.084-3.13.155-23.193 8.095-24.7.045-.003.052.01.04.027C3.264 39.44-1.618 56.09 3.35 59.105c2.475 1.494 6.544-3.21 7.75-4.328-.47-8.173 3.9-15.92 5.128-18.523 2.517-5.33 9.125-13.258 12.55-11.067 2.286 1.466-3.774 12.094-5.167 14.602-1.25 2.253-4.473 7.822-9.525 14.038-.54 2.54.123 5.56 1.316 6.087 1.763.782 5.584-4.468 8.853-9.31 2.11-3.403 3.743-6.97 4.397-8.698.498-1.154 1.344-1.09 1.847-.473.296.362.606.366.432.786-2.517 5.934-2.663 14.08-2.79 16.37.652-.456 3.907-2.803 5.335-2.763zM14.4 50.78c1.934-2.19 6.12-8.486 8.1-11.818 1.98-3.33 6.365-11.968 5.06-12.778-1.678-1.04-7.388 8.6-8.283 10.12-2.71 4.605-4.853 12.414-4.876 14.475zm10.432 12.094c-1.96 2.054-4.277 5.81-5.712 9.333-1.49 3.664-2.124 6.97-1.218 7.23 1.365.394 3.322-2.756 4.73-6.696 1.184-3.317 1.825-7.145 2.2-9.866zM38.2 33.008c.13.037.315-.256.424-.448.295-.512 2.37-2.054 2.73-3.75.154-.708-.484-1.48-1.506-.802-1.575 1.042-1.848 3.405-1.824 4.172.01.283.046.79.175.828zm15.226-6.13c.564.335 2.43 1.135 2.77 1.314.61.328.256.975.1 1.42-2.715 7.91-1.68 10.443-.11 12.22 1.426 1.607 4.846.988 6.48-1.27.2-.276.054-.597-.26-.29-.204.197-1.205 1.237-2.486 1.423-1.052.154-2.66-.878-2.9-3.455-.14-1.503.134-2.738.396-3.815.42-1.72 1.005-3.073 1.093-4.047.093-.984.223-1.592-.432-2.206-.707-.655-3.956-1.027-4.268-2.44-.228-1.042 1.57-4.372.645-4.903-.637-.37-2.368 2.662-1.597 4.847.324.926-1.536 6.205-2.187 8.18-.332 1.02-1.974 5.458-2.91 7.02.357-.977 1.397-4.906-.46-6.37-.03 1.077-.194 1.843-.425 2.834-.61 2.63-3.268 7.213-4.09 8.24-.534.662-1.555 1.842-2.208 1.513-.416-.21-.52-1.378-.332-2.71.476-3.37 3.93-8.507 4.767-9.643.83-1.134 1.98-2.187 2.79-2.443l.036-.203c-.426-.128-1.732-.42-4.144 1.56-3.08 2.54-5.316 8.706-5.76 10.604-.282 1.23-2.676 8.85-3.65 7.896-1.052-1.033.61-5.436.784-5.945.363-1.086 1.55-4.54 1.82-5.805.09-.426.543-1.715.137-1.948-.744-.432-1.577.836-1.854 1.462-.334.743-2.162 4.548-2.57 5.793-.278.88-2.494 7.17.905 8.08 2.527.685 4.128-7.765 5.035-9.203.085 2.388.97 3.327 2.157 3.83 2.496 1.053 4.848-2.77 5.543-3.923 3.327-5.53 5.387-10.937 7.186-17.618zm26.15-17.227c.94-1.14 2.725-3.642 3.747-4.52 1.024-.88 1.975-3.238 1-3.94-.756-.54-2.215.884-2.91 2.04-.734 1.215-1.886 4.305-1.838 6.42zM94.74 30.22c-.74.357-1.614.048-1.972-.675-.362-.735-.058-1.605.68-1.958.74-.36 1.616-.054 1.973.683.36.727.056 1.6-.68 1.95zm.37-1.798c-.288-.59-.94-.8-1.508-.522-.582.276-.81.903-.52 1.494.285.584.928.792 1.507.518.567-.275.806-.906.522-1.49zm-.98.58l-.213.102.285.574-.312.15-.665-1.367.668-.322c.32-.153.564-.2.745.16.123.254.042.417-.196.553l.624.42-.338.162-.597-.432zm.058-.284c.153-.074.227-.146.138-.318-.07-.143-.245-.054-.377.007l-.3.146.17.348.37-.182zM33.974 61.903l-1.152.552-1.616-3.322.972-.467c.724-.343 1.242-.063 1.446.357.17.344.114.646-.166.954l.003.008c.552-.147 1.016.037 1.232.482.202.41.124 1.035-.718 1.436zm-1.597-1.578l.32-.155c.48-.223.624-.513.45-.867-.12-.25-.366-.395-.81-.185l-.444.212.484.995zm1.784.31c-.143-.3-.486-.403-.99-.162l-.58.28.508 1.043.602-.29c.565-.27.584-.62.46-.87zm3.882-4.77l-1.902.908 1.62 3.324 1.946-.93-.21-.43-1.464.7-.504-1.033 1.37-.655-.206-.427-1.373.653-.49-1.002 1.422-.68-.21-.43zm5.03-2.403l-.478.228.135 2.813-2.147-1.854-.483.232 3.086 2.66.094-.05-.208-4.03zm4.24-2.03l-1.905.91 1.62 3.326 1.95-.934-.21-.427-1.466.698-.502-1.03 1.37-.66-.205-.426-1.375.657-.487-1.006 1.423-.675-.21-.434zm6.75.873l-.578.277-.776-.47c-.772-.47-1.016-.452-1.26-.337l-.2.098.7 1.444-.48.23-1.622-3.32.846-.406c.68-.323 1.278-.17 1.556.406.19.383.128.767-.163 1.077.404.056.738.274 1.197.564.254.163.39.233.78.438zm-2.32-1.866c-.157-.31-.438-.408-.903-.186l-.313.15.51 1.04.31-.146c.516-.25.536-.58.395-.86zm3.512-2.8l-.482.23 1.622 3.324 1.996-.955-.206-.43-1.515.723-1.416-2.894zm5.475-1.206l-1.462-.713-.58.278 2.01.968.856 1.76.48-.23-.852-1.755.48-2.163-.58.278-.353 1.58zm15.26-8.7l-.486.23.708 1.448-1.88.897-.71-1.448-.48.23 1.62 3.326.48-.233-.702-1.445 1.88-.9.703 1.45.485-.232-1.62-3.325zm2.998-1.434l-.485.23 1.623 3.322.482-.23-1.62-3.322zm3.093-1.474l-.482.23 1.618 3.322 2-.955-.21-.43-1.518.724-1.407-2.89zm4.18-2l-.484.232 1.62 3.32 2-.955-.213-.43-1.51.724-1.412-2.892zm5.394-2.342c-.312-.044-.607.002-.862.125-.616.29-.85.83-.59 1.372.45.91 1.936.296 2.272.98.09.186.03.503-.343.68-.33.157-.722.135-1.12-.057l.293.6c.385.078.728.036 1.09-.14.542-.256.756-.828.502-1.35-.512-1.057-1.964-.354-2.275-.99-.11-.238.03-.5.338-.65.228-.108.547-.163.958-.03l-.262-.54zm6.81-11.475c-1.136 2.713-5.352 9.36-9.035 8.16-4.017-1.314-3.48-7.253-3.424-8.18-.684 1.29-1.88 3.67-2.9 6.232-1.29 3.236-2.485 6.33-3.86 5.853-2.266-.777-1.97-4.17-1.93-5.113-.34.61-5.417 9.192-5.555 10.313-.292 2.4-.862 7.942-1.23 10.347-.708 4.595-3.85 12.713-6.577 11.715-2.618-.96.23-9.01.927-10.725.69-1.717 3.13-6.722 4.097-8.79.283-2.092.504-4.862 1.02-7.73.618-3.432 1.298-6.324 1.182-6.927-.74 1.55-5.405 10.883-7.088 12.894-1.342 1.615-2.638.898-2.958-.31-1.218-4.59 2.238-9.758 2.683-10.772.624-1.416 3.54-5.456 6.832-7.196.44-.233.645.076.374.307-1.748 1.502-4.038 4.827-5.37 7.595-2.296 4.78-2.443 7.44-2.51 8.013-.253 2.24.82 1.19 1.208.693.444-.563 2.905-4.475 3.99-7.385.448-1.184 2.79-5.453 3.842-10.84.122-.633.54-.613.974-.583.412.03.808.234.877.823.148 1.205-.532 7.15-.703 8.1-.178.944-1.132 8.24-1.208 8.738.577-1.046 4.606-7.91 5.377-10.582.518-1.78 1.635-5.65 1.835-6.163.514-1.32 1.673-1.694 1.993-1.67.32.02.385.52.244 1.046-.146.527-1.528 6.556-1.622 7.217-.086.658-.854 4.44-.084 5.29.467.512 1.024-.358 1.206-.804.187-.466 4.916-10.83 5.27-11.865.578-1.668 1.953-4.683 2.768-5.493.538-.527 1.753-1.374 2.115-.777.176.298.463.6.153 1.318-.31.708-2.776 6.296-3.23 8.876-.563 3.177-.155 4.8 1.23 5.54 1.515.802 3.65-2.036 4.107-2.636.695-.907 2.94-4.33 3.948-9.247.354-1.715.125-4.29-1.54-4.317-1.49-.022-2.663 3.323-2.875 3.92-.922 2.58-.857 6.104 1.527 4.423l-.09.348c-1.05.978-1.922.653-2.38.248-1.297-1.13-.82-3.448-.026-5.56.45-1.195 2.886-5.458 6.09-4.29 3.246 1.18 1.5 7.114.323 9.947zM69 40.184c-.78 1.384-3.486 7.018-4.552 10.43-.497 1.59-1.524 6.645-.524 6.99 1.568.537 2.9-5.37 3.48-7.373.576-2.002 1.51-9.137 1.596-10.047zM52.716 2.837c-.104-.052-.15-.082-.17-.164-.11-.403-.468-.458-.493-.473-.018-.013-.05-.048-.1-.03-.063.025-.08.065-.193.174-.114.114-.163.05-.23.035-.062-.02-.162-.015-.147-.06.056-.235.872-.375 1.333-.375m0 .892c.1-.052.15-.082.17-.164.106-.403.473-.458.493-.473.02-.013.044-.048.106-.03.056.025.076.065.188.174.115.114.162.05.233.035.06-.02.16-.015.146-.06-.057-.235-.873-.375-1.336-.375m0-.225c.235-.014.907.09 1.263.283.155.087.17 0 .197-.05 0 0 .04-.07.08-.12 0 0 .198-.28.454-.24.087.013.2.013.262-.043.046-.046.114-.145.08-.254-.045-.134-.17-.167-.28-.152-.128.03-.148.12-.186.207-.02.04-.215.172-.28.203-.112.043-.188.037-.166-.08.013-.07.146-.292.194-.305.062-.02.167-.003.254-.102.056-.063.076-.192-.01-.29-.11-.125-.24-.073-.292-.033-.077.063-.097.15-.1.27-.003.06-.218.29-.272.314-.088.037-.15.01-.158-.09-.01-.116.115-.37.18-.397.095-.027.163-.08.193-.163.036-.11 0-.25-.117-.294-.12-.038-.25.002-.298.128-.046.118 0 .164.018.235.013.06-.11.308-.207.388-.09.07-.16.063-.186-.055-.022-.078.06-.447.1-.473.128-.095.153-.148.163-.22.012-.074-.03-.212-.162-.24-.082-.024-.216.006-.278.118-.042.097 0 .236.036.266.032.027-.056.415-.143.53-.078.114-.152.057-.177 0-.02-.05-.144-.523-.047-.633.104-.11.108-.137.108-.207.006-.07-.065-.22-.222-.22m0 0c-.154 0-.226.15-.224.22 0 .07.005.098.107.206.098.11-.027.582-.044.632-.03.058-.1.115-.18 0-.086-.114-.173-.502-.144-.53.033-.03.078-.17.033-.266-.055-.112-.196-.142-.273-.12-.135.03-.175.168-.165.242.012.072.035.125.165.22.044.027.123.396.102.473-.028.118-.096.125-.183.055-.1-.08-.225-.328-.21-.388.016-.07.062-.117.016-.234-.046-.125-.177-.166-.294-.128-.116.043-.156.186-.116.294.03.084.1.136.195.163.064.025.185.28.176.395-.008.1-.068.128-.155.09-.053-.024-.27-.253-.27-.313-.008-.12-.025-.206-.106-.27-.05-.04-.184-.092-.29.032-.085.1-.07.228-.013.29.09.1.193.083.254.103.05.013.183.234.198.306.02.115-.054.122-.164.08-.067-.032-.26-.165-.28-.203-.04-.086-.06-.178-.19-.207-.108-.016-.237.018-.28.152-.036.11.034.208.084.254.06.056.17.056.26.042.252-.04.45.24.45.24.043.05.08.12.08.12.03.05.04.137.194.05.36-.193 1.034-.297 1.268-.283M50.78 6.38c.11.242.207.463.29.672.086-.042.214-.1.223-.162 0-.035-.027-.096-.064-.116-.037-.027-.206-.25-.23-.265-.025-.017-.1-.098-.22-.128m2.184-2.896c.09-.067.283.072.33.072.03.007.123 0 .086-.025-.364-.28-.045-.67.26-.66.484.017.768.66.61 1.063-.02.027 0 .112.114.126.746.133 1.042.872.87 1.49-.02.047.158.136.172.096.022-.064.36-1.33-.85-1.752-.124-.043-.078-.145-.075-.177.017-.806-.614-1.027-.722-1.05-.11-.026-.317.074-.382-.026-.066-.09 0-.14-.088-.192-.04-.027-.223.125-.204.16.068.11-.216.513-.257.715-.015.074.014.092.048.092.025-.002.07-.04.09.066m-.5-.003c.025-.102.07-.067.097-.067.03 0 .058-.017.045-.096-.042-.196-.324-.6-.26-.71.023-.032-.157-.185-.205-.16-.085.052-.02.105-.085.195-.068.1-.27 0-.38.025-.11.024-.74.245-.726 1.05 0 .03.05.13-.074.177-1.215.42-.872 1.684-.85 1.752.013.036.188-.055.174-.1-.173-.615.12-1.354.868-1.487.116-.027.13-.1.116-.128-.158-.41.124-1.048.61-1.062.307-.012.623.382.254.66-.032.025.06.032.088.025.048-.006.237-.14.328-.075M50.37 5.478s.127.018.182.033c.082.025.194.092.252.138.06.04.483.318.635.37.334.106.346.223.416.374.007.025.027.04.067-.01.022-.02.212-.276.255-.34.226-.353.428-.595.687-.857.137-.143.64-.632 1.574-.895-.116-.04-.245-.082-.398-.1-.166-.032-.123-.032-.08-.144.052-.148.08-.164.094-.446.013-.268-.246-.495-.417-.495-.145 0-.252.146-.136.235.022.018.135.093.108.174-.077.215-.205.305-.276.31-.08.003-.148-.08-.215-.105-.104-.056-.095 0-.13 0h-.073c-.15.002-.118 0-.2-.056-.08.055-.047.06-.205.055h-.074c-.027 0-.02-.056-.13 0-.06.024-.13.108-.205.104-.08-.005-.208-.095-.28-.31-.03-.08.082-.156.11-.174.11-.09.01-.235-.138-.235-.173 0-.432.228-.416.495.013.282.042.298.093.446.042.112.087.112-.08.144-1.053.155-1.128.898-1.022 1.288m2.477 5.805c-.03 0-.068.128-.068.187 0 .057.026.196.177.21.02.004.02-.014.027-.03.01-.06-.052-.02-.074-.14-.023-.152-.032-.227-.063-.227m-.264.003c-.027 0-.04.072-.06.227-.017.115-.087.076-.072.136.002.02.008.034.03.034.15-.014.168-.152.168-.212s-.027-.186-.065-.186m.133.57c-.352.137-.446.044-.526-.035-.02-.024-.323.3-1.025-.63-.022-.027-.526.222-1.534 1.482-.29.355-.737.61-1.12.584-.38-.014-.464-.208-.402-.377.06-.175.353-.462.477-.305.056.072-.377.116-.23.38.17.3.703-.1.647-.348-.05-.212-.273-.247-.456-.247-.043 0-.065-.144-.296-.17.058.1.07.17.027.205-.06.05-.644.527-.455 1.12.192.58.79.76 1.272.596.69-.242 1.13-.836 2.072-.78.408.022.702.26.747.44.03.114-.223.066-.168.504.026.22.463.674.973.146.514.528.944.073.973-.146.058-.437-.196-.39-.163-.505.04-.182.334-.418.74-.44.946-.056 1.39.538 2.074.78.485.164 1.08-.016 1.27-.596.195-.592-.39-1.068-.45-1.12-.04-.034-.027-.103.03-.203-.234.026-.258.17-.304.17-.173 0-.398.035-.448.247-.065.248.47.647.642.348.146-.264-.286-.307-.226-.38.12-.157.415.13.477.304.06.168-.026.362-.405.376-.384.026-.833-.23-1.12-.584-1.01-1.26-1.513-1.51-1.537-1.48-.7.93-1 .605-1.02.63-.086.077-.175.17-.532.034m0 2.254c-.134.23-.305.4-.486.39-.326-.03-.34-.407-.252-.46.045-.02.133-.12.136-.187.02-.124-.22-.67-.95-.73-.742-.074-1.756.656-2.09.777-.66.24-1.08-.286-1.01-.557.035.034.416.243 1.047-.023.63-.274 1.126-1.104 1.382-1.375.26-.268.397-.382.663-.493.074-.03.087.085.098.11.006.02-.482.277-.66.504-.385.505-.912 1.224-1.438 1.415-.196.07-.4.172-.83.122.11.142.352.256.685.128.438-.16 1.44-.88 2.168-.808.677.076 1.09.485 1.105.915.007.217-.053.292-.143.32-.055.012 0 .144.09.146.225.003.454-.453.485-.517.03.063.26.52.487.517.09-.002.138-.134.09-.147-.09-.027-.15-.102-.144-.32.012-.43.428-.838 1.102-.914.727-.072 1.735.648 2.164.808.334.128.58.013.69-.128-.43.05-.635-.05-.834-.12-.518-.19-1.044-.91-1.436-1.416-.176-.227-.664-.484-.655-.503.008-.027.017-.142.093-.11.27.11.41.225.667.492.257.272.758 1.102 1.382 1.375.63.266 1.01.057 1.048.023.065.27-.352.797-1.008.557-.342-.12-1.355-.85-2.098-.776-.73.06-.965.605-.947.73.007.065.088.167.138.187.085.053.07.43-.253.46-.178.01-.355-.16-.486-.39m-.644-2.764c0 .06-.056.114-.167.074-.16-.052-.64-.772-.854-1.18.28-.877.21-1.36.15-1.928-.09-.896-.708-1.986-.796-2.054-.042-.03-.182.05-.162.088.357.66.69 1.007.796 2.248.052.58.052 1.018-.208 1.69.232.387.846 1.37 1.137 1.334.223-.028.294-.19.3-.393.012-.183-.126-.29-.224-.284-.065.01-.18.028-.167.2.01.13.078.144.117.144.036 0 .08-.027.08.062m1.282 0c0-.092.046-.063.08-.063.037 0 .11-.013.118-.144.008-.173-.105-.19-.168-.2-.093-.007-.235.096-.23.284.007.196.083.365.3.393.297.037.912-.947 1.145-1.337-.264-.67-.266-1.107-.213-1.69.108-1.24.443-1.587.798-2.248.016-.035-.12-.114-.164-.085-.084.068-.7 1.153-.793 2.054-.062.57-.132 1.052.15 1.928-.217.41-.69 1.13-.853 1.18-.114.042-.17-.012-.17-.072m.056-4.566c-.003-.007-.004-.047 0-.075.13-.602.863-.736.988-.8.052-.026.474-.178.63-.315.104-.236.144-.677-.148-1.008-.04-.037-.167-.108-.41-.064-.125.022-.675.242-1.01.468-.235.172-.58.44-.976 1.08-.068.114-.44.566-.507.634 0 .02.047.22.04.232-.017.025-.012.135-.145.126-.135-.012-.557.03-.712.217.147.396.24.752.282 1.135 0 0 1.005.065 1.97-1.6.008-.007.004-.023-.002-.03m-1.33.756s.15.19.15.247c0 .065-.047.1-.096.1-.05 0 0 .108-.268.176-.08.017-.22-.033-.28-.088-.044-.033-.19-.19-.182-.39.007-.26.18-.325.28-.338.138-.032.226.076.23.095.008.03-.03.07-.08.088-.017.015-.05-.02-.118-.01-.08.017-.163.104-.146.197.018.093.03.14.114.22.07.07.172.047.212.01.047-.036.057-.085.057-.118 0-.022.008-.056.008-.112.006-.026.062-.09.12-.08m.332.137s-.055.044-.078.015c-.023-.027-.305-.495-.33-.542-.005-.016.018-.05.045-.07.033-.017.058-.032.08-.007.02.025.306.523.32.552.007.026-.015.03-.038.052m-.095-1.06c.182-.15.435-.04.555.162.116.2.13.406-.037.51-.145.105-.385.116-.556-.15-.123-.185-.074-.42.037-.522m.15.15c.09-.05.196.037.25.125.058.1.053.18-.013.24-.098.087-.195-.01-.26-.1-.06-.078-.07-.21.024-.264m1.42-1.21s.127.213.122.262c-.003.068-.055.095-.104.088-.043-.01-.014.104-.285.154-.08.012-.22-.06-.268-.112-.04-.05-.173-.22-.142-.418.04-.256.213-.307.315-.312.137-.01.217.1.22.12 0 .033-.042.07-.092.09-.02 0-.046-.027-.115-.024-.082.003-.174.077-.165.177.006.097.02.142.09.234.06.08.17.065.205.03.05-.034.062-.078.07-.114 0-.016.013-.05.025-.11.003-.022.066-.082.124-.063m.26.158s-.06.017-.078-.012c-.015-.02-.21-.585-.226-.632-.005-.023.028-.05.062-.06.03-.02.057-.02.072.007.018.03.212.616.216.647.005.028-.02.028-.046.05m.308-.93c.23-.065.41.137.438.366.026.237-.05.424-.243.462-.174.037-.398-.054-.447-.367-.035-.224.107-.428.253-.46m.075.197c.1-.015.157.11.175.214.018.117-.022.193-.11.216-.127.04-.173-.092-.197-.193-.023-.1.027-.227.133-.236m-1.38 1.828c-.03.036-.06.04-.086.04-.018-.026-.444-.693-.444-.693.096-.227.19-.292.23-.324.07-.064.163-.074.196-.064.022.003.15.018.18.164.026.132-.008.23-.008.29 0 .012 0 .035.01.04.023.022.057 0 .143.008.04 0 .115-.044.155-.012.03.015-.02.094-.028.11-.032.036-.08.053-.11.06-.076.033-.135.036-.194.055-.06.01-.08.032-.084.05-.007.014.002.062.03.12.022.063.037.12.01.155m-.162-.515c-.01.01-.036 0-.036 0-.037-.042-.093-.146-.106-.168-.01-.02-.01-.044 0-.062.02-.03.04-.066.085-.094.033-.013.075.003.096.02.02.012.058.044.05.12 0 .015-.012.066-.026.097-.02.05-.045.078-.062.087m5.353-2.292c.213.13.023.37.014.542.105.59-.1 1.088-.44 1.514-.032.036-.117.166-.136.195-.13.262-.245.564-.17.845.05-.063.127-.127.166-.14.047-.023.14-.108.165-.167.038-.102.017-.155.038-.222.004-.023.032-.035.062-.022l.036.042c.01.007.02.007.038 0 .123-.292.354-.533.53-.8.014-.032.086-.118.102-.18.02-.11.003-.253.13-.27.022-.002.048-.013.04-.024-.06-.236.082-.65-.033-.75-.195-.12-.197-.298-.233-.437-.043-.358-.326-.323-.427-.316-.064.006-.12.023-.183.014-.062-.02-.126-.07-.193-.08-.153.054-.232.007-.357.055 0 .033.042.05.062.058.237.045.38.127.625.122.058-.007.107-.007.164.018m-3.147-.356c-.203.058-.314-.234-.508-.285-.05-.01-.07.05-.06.104.004.03.01.168.004.192 0 .066.03.066.082.076.086.046.192.104.263.164.02.02.04.033.063.038.284.072.416.388.602.586.36.347.01.797.062 1.218l.375.17c.057-.037.148-.223.153-.25.016-.164-.06-.344-.09-.508-.05-.17.02-.386-.062-.544-.293-.297-.464-.68-.813-.94-.022-.034-.05-.03-.066-.025m1.464 2.495c.052 0 .072-.062.09-.094.152-.3.41-.547.567-.846.012-.013.014-.05-.015-.052l-.146-.027c-.017-.01-.043.017-.053.02-.236.293-.586.445-.76.77-.03.053-.076.08-.008.096.105.046.202.124.324.132m.22.098c-.01.036-.085.09-.14.077-.222.018-.437-.08-.643-.155-.273-.22-.672-.153-.948-.376-.026-.012-.106-.012-.172.018-.302.213-.63.266-.932.446-.012.013-.094.02-.134.06-.04.03-.03.035-.066.062-.04.03-.042.033-.078.072-.117.16-.19.22-.193.358 0 .013-.007.038.022.04.068.022.16-.002.228-.027.013-.003.042-.013.038-.05.005-.008.002-.035.02-.05.013-.032.02-.042.05-.045.018 0 .044-.003.07.003.024.012.08.025.108-.003.04-.036.052-.067.057-.086.113-.344.478-.334.708-.504.46-.16.66.458 1.03.587.125.08.252.207.274.35-.176.153-.207-.175-.38-.16.023.086-.035.153-.02.246-.104.402.08.587.186.905.032.118.088.29.212.386.13.108.16.217.196.32.072.187.118.224.145.263-.346.335.04.762-.085 1.165-.02.104-.174.19-.19.192-.31.065-.633.102-.928.196-.05.007-.086.004-.105-.003-.087-.01-.16-.013-.24-.002-.017.012-.063.036-.07.055-.11.194-.36.246-.44.456-.007.02-.013.027.004.042.065.085.184.13.283.176.127.01.04-.176.127-.226.052-.046.123-.078.187-.065.02.01.05.01.067-.005.367-.354.925-.308 1.41-.245.208-.03.257-.225.314-.378.01-.007-.04-.065-.08-.125-.134-.226-.24-.476-.252-.776-.002-.102.06-.256.107-.35.08-.128.172-.253.325-.305.014-.004.048-.012.062.01.01.007.01.007.02.027.007.013.003.035-.004.054-.087.11-.196.213-.26.335-.177.512.16.97.525 1.333.118.176.407.247.417.49-.137.245-.43.396-.644.598-.148.08-.408.086-.405.298-.056.067-.197.16-.145.26.08.068.323-.04.44-.16.063.01.136-.026.148-.057.183-.402.613-.465.887-.78.44-.324-.106-.66-.106-1.02.04-.162.226-.16.32-.31.157-.268.206-.638.126-.96 0-.01-.012-.044.05-.056.062-.004.108.123.135.182.12.393.012.84-.33 1.123-.026.034-.043.077-.037.125.03.152.1.296.18.444.2.615-.622.8-.866 1.225-.07.143.05.307.062.396.004.04-.05.157 0 .167.274-.024.027-.484.232-.644.024-.017.075.056.107.02.067-.185.307-.193.4-.367.005-.022.022-.05.037-.064.407-.297.164-.864.53-1.18.095-.104.055-.35.24-.354.017.004.024-.03.018-.033-.142-.45.185-.96-.196-1.326-.02-.023-.084-.04-.12-.052-.194-.036-.37.05-.53.145-.013.006-.03 0-.036 0l-.366-.333c-.337-.25-.49-.584-.506-.965-.022-.41.07-.776.226-1.112.018-.043.133-.212.166-.247.368-.448.583-1.01.385-1.603 0-.036.094-.09.123-.19.006-.02.006-.046-.036-.04-.118.005-.223.055-.273.07-.022.008-.03-.008-.042-.015-.12-.154-.293-.176-.467-.216-.074-.024-.154.007-.194.02-.282.085-.6-.026-.882-.063-.03-.007-.04 0-.058.005-.056.04-.13.1-.158.164-.01.015-.002.03.007.034.184.067.02.198.044.328.056.083.158.124.274.105.32-.156.592.16.843.33.095.07.326-.048.32.13-.256.358-.458.738-.698 1.106l-.04.08m.46-2.04c.062-.098.197.015.19.062 0 .046-.092.082-.167.038-.032-.018-.027-.07-.023-.1m.718.144c-.02.004-.033-.012-.042-.015-.008-.008-.008-.035.01-.048.01-.008.046-.027.075-.033.017 0 .06-.002.03.046-.037.033-.044.033-.073.048m-1.69-.31c.07-.02.143.044.132.082-.02.04-.067.02-.088.02-.017-.01-.106-.058-.043-.1m-7.86 6.44c.055.06.192.172.28.176.39-.085.808.027 1.18.14.094.06.162.18.292.168.206-.032.11.207.254.27.137.05.276 0 .376-.08.033-.037-.106-.137-.168-.22-.027-.043-.05-.046-.062-.062-.158-.09-.226-.26-.38-.35-.017-.005-.037-.025-.056-.027-.374-.038-.74-.12-1.102-.206-.05-.01-.13-.04-.144-.063-.25-.233-.07-.612-.03-.927.01-.177-.063-.248-.092-.304-.027-.02-.045-.028-.068-.005-.02.015-.02.045-.012.06.182.436-.28.747-.41 1.12.062.066.098.138.118.225 0 .018 0 .07.024.086m1.75-6.52c.13-.005.222-.115.338-.147.182-.062.148-.267.173-.382-.017-.05-.132.01-.223.105-.03.022-.068.02-.086.015-.383-.108-.496.407-.727.588-.253.224-.42.48-.38.834-.013.3-.45.667-.02.923.154-.043.334-.035.363-.19-.04-.71-.11-1.345.494-1.738.016-.002.05-.014.07-.01M46.67 5.46c.148.4.654.603.58 1.09 0 .016.008.022.018.024.04.004.06-.047.088-.07.04-.012.072.02.086.044.014.226.26.353.323.545.006.034.01.038.01.053 0 .022.002.052.027.032.14-.682-.353-1.192-.59-1.768-.03-.057-.043-.14-.043-.173-.013-.384-.14-.742-.023-1.112.1-.378.583-.115.782-.398.003-.004.003-.01 0-.01-.14-.036-.324-.117-.455-.018-.03.017-.07.027-.1.03-.305.078-.38.43-.65.603-.254.203-.04.595-.254.813-.017.037.003.092.063.064.106-.013.142.092.135.172 0 .018-.004.06.003.077m2.444.493c.004-.016.004-.03 0-.05l-.497-.648c-.095-.115-.22-.125-.25-.254-.03-.136-.15-.066-.23-.037-.02.015-.035.036-.03.05.098.214.253.41.405.6.132.114.16.313.308.395.032.01.057.01.086.01.073-.02.163-.012.208-.065m.042-2.02c-.07-.02-.118.017-.128.078.018.046.08.024.086.024.022-.013.102-.068.042-.1m-.878.117c-.06-.1-.195.01-.192.058-.01.027.116.093.17.042.035-.035.027-.063.022-.1m3.458 2.55c.016.045.078.22.1.238.01.015.022.056-.06.074-.083.028-.15.046-.207.028-.037-.003-.06-.095-.06-.135.006-.058.012-.1-.07-.13-.077-.002-.283-.285-.442-.398-.24-.09-.47-.34-.754-.207-.294.294-.682.49-.91.817-.007.045 0 .114.06.12.107-.033.127-.17.236-.184.198.502-.116.813-.31 1.204-.034.052-.03.067-.06.187-.078.227-.165.293-.255.378-.116.13-.23.232-.407.232-.152-.005-.25-.29-.39-.184-.02.012-.034.057-.034.077.008.124.11.22.213.292.085.042.212.07.23.183-.003.3-.267.493-.38.747-.008.028-.055.134-.094.184-.146.2-.257.402-.492.517-.093.08-.183.217-.084.33.255.286.563.436.863.618.024.016.15.113.163.174.064.13.093.26.134.397l.006.012c-.047.062-.187-.003-.268-.045-.023-.016-.036-.026-.056-.057-.07-.062-.146-.106-.185-.126-.023-.015-.027-.023-.033-.036-.113-.367-.532-.42-.777-.665-.107-.076-.28-.07-.317-.226-.128-.513.62-.996.017-1.4-.013-.007-.042-.04-.056-.056-.134-.253-.026-.536-.087-.823 0-.014-.013-.055-.058-.055-.025-.005-.038.008-.062.038-.133.23-.093.54-.07.81.03.25.476.408.242.684-.035.045-.198.753-.134.84.183.372.714.39.853.824.006.018.007.065 0 .09-.023.138.006.29-.027.42-.007.016-.017.016-.03.02-.075-.02-.092-.118-.142-.168-.035-.128.083-.403-.09-.47-.01 0-.028.01-.04.026-.01.018-.01.032-.032.054-.032.016-.047-.036-.055-.054-.13-.26-.467-.514-.514-.572-.332-.21-.054-.627-.195-.9-.126-.133-.18-.3-.237-.46-.05-.192-.262.026-.287-.12 0-.015.01-.045.018-.057.196-.272.067-.615.108-.95.02-.098.05-.202.113-.283.022-.02.12-.157.303-.153.338.003.44.202.513.187.2-.262.513-.414.73-.647.05-.043.072-.125.082-.158.12-.64.125-1.413-.307-1.907-.243-.263-.292-.587-.35-.928-.012-.066-.04-.224-.025-.298.024-.113.105-.188.08-.36l-.003-.04c-.007-.015.01-.044.047-.044l.252.02c.01-.002.02-.002.03-.02.095-.157.333-.204.45-.25.047-.02.086-.03.178-.022.155.042.454.104.77 0 .123-.013.18.116.272.158.017.006.028.02.028.03-.013.114-.29.155-.065.27.037.02.037.046.018.088-.21.255-.52-.074-.76.12-.175.103-.323.334-.547.27-.06-.006-.11.05-.105.107.057.478.56.862.75 1.282.013.014.038.046.076.033.514-.072 1.02-.15 1.45-.416.478-.06.822.33 1.224.502.04.012.1.002.146.05.047.036.042.065.05.086.016.02.044.052.055.07.02.012.044.06.066.114M47.5 4.264c.023.007.038-.006.045-.015.004-.012.002-.033-.007-.047-.01-.007-.05-.027-.077-.027-.02 0-.066-.006-.032.035.034.04.042.05.072.054m5.216 6.79h.093c.097-.027.063-.047.16-.15.063-.064.184-.2.35-.2.186 0 .27.027.357.072.05-.067.26-.324.393-.537-.254-1.738-.062-2.426.582-3.848 0 0-.087.013-.17.092-.013.008-.017.04-.03.07-.164.43-.867.476-.877.495-.3.416-1.186 1.595-2.108 1.602.03.448-.007.945-.1 1.586.136.21.342.464.396.542.084-.05.16-.08.353-.08.167 0 .294.14.342.203.094.102.054.122.164.15h.094m-19.24 43.774c.09.036 0 .106-.04.13-1.18.427-4.03 2.147-5.352 3.595-.288 1.692-.61 3.425-1.012 5.114-.72 2.996-1.63 5.98-2.767 8.52-2.304 5.12-5.187 8.61-6.86 8.04-3.644-1.252 3.213-15.308 7.495-19.514.15-.897.885-9.04 1.066-10.692-1.403 1.95-5.398 9.68-8.85 10.233-1.72.275-4.34-.926-5.5-4.565-1.99 1.916-5.66 4.69-8.773 3.31-7.084-3.13.155-23.193 8.095-24.7.045-.003.052.01.04.027C3.264 38.44-1.618 55.09 3.35 58.105c2.475 1.494 6.544-3.21 7.75-4.328-.47-8.173 3.9-15.92 5.128-18.523 2.517-5.33 9.125-13.258 12.55-11.067 2.286 1.466-3.774 12.094-5.167 14.602-1.25 2.253-4.473 7.822-9.525 14.038-.54 2.54.123 5.56 1.316 6.087 1.763.782 5.584-4.468 8.853-9.31 2.11-3.403 3.743-6.97 4.397-8.698.498-1.154 1.344-1.09 1.847-.473.296.362.606.366.432.786-2.517 5.934-2.663 14.08-2.79 16.37.652-.456 3.907-2.803 5.335-2.763zM14.4 49.78c1.934-2.19 6.12-8.486 8.1-11.818 1.98-3.33 6.365-11.968 5.06-12.778-1.678-1.04-7.388 8.6-8.283 10.12-2.71 4.605-4.853 12.414-4.876 14.475zm10.432 12.094c-1.96 2.054-4.277 5.81-5.712 9.333-1.49 3.664-2.124 6.97-1.218 7.23 1.365.394 3.322-2.756 4.73-6.696 1.184-3.317 1.825-7.145 2.2-9.866zM38.2 32.008c.13.037.315-.256.424-.448.295-.512 2.37-2.054 2.73-3.75.154-.708-.484-1.48-1.506-.802-1.575 1.042-1.848 3.405-1.824 4.172.01.283.046.79.175.828zm15.226-6.13c.564.335 2.43 1.135 2.77 1.314.61.328.256.975.1 1.42-2.715 7.91-1.68 10.443-.11 12.22 1.426 1.607 4.846.988 6.48-1.27.2-.276.054-.597-.26-.29-.204.197-1.205 1.237-2.486 1.423-1.052.154-2.66-.878-2.9-3.455-.14-1.503.134-2.738.396-3.815.42-1.72 1.005-3.073 1.093-4.047.093-.984.223-1.592-.432-2.206-.707-.655-3.956-1.027-4.268-2.44-.228-1.042 1.57-4.372.645-4.903-.637-.37-2.368 2.662-1.597 4.847.324.926-1.536 6.205-2.187 8.18-.332 1.02-1.974 5.458-2.91 7.02.357-.977 1.397-4.906-.46-6.37-.03 1.077-.194 1.843-.425 2.834-.61 2.63-3.268 7.213-4.09 8.24-.534.662-1.555 1.842-2.208 1.513-.416-.21-.52-1.378-.332-2.71.476-3.37 3.93-8.507 4.767-9.643.83-1.134 1.98-2.187 2.79-2.443l.036-.203c-.426-.128-1.732-.42-4.144 1.56-3.08 2.54-5.316 8.706-5.76 10.604-.282 1.23-2.676 8.85-3.65 7.896-1.052-1.033.61-5.436.784-5.945.363-1.086 1.55-4.54 1.82-5.805.09-.426.543-1.715.137-1.948-.744-.432-1.577.836-1.854 1.462-.334.743-2.162 4.548-2.57 5.793-.278.88-2.494 7.17.905 8.08 2.527.685 4.128-7.765 5.035-9.203.085 2.388.97 3.327 2.157 3.83 2.496 1.053 4.848-2.77 5.543-3.923 3.327-5.53 5.387-10.937 7.186-17.618zm26.15-17.227c.94-1.14 2.725-3.642 3.747-4.52 1.024-.88 1.975-3.238 1-3.94-.756-.54-2.215.884-2.91 2.04-.734 1.215-1.886 4.305-1.838 6.42zM94.74 29.22c-.74.357-1.614.048-1.972-.675-.362-.735-.058-1.605.68-1.958.74-.36 1.616-.054 1.973.683.36.727.056 1.6-.68 1.95zm.37-1.798c-.288-.59-.94-.8-1.508-.522-.582.276-.81.903-.52 1.494.285.584.928.792 1.507.518.567-.275.806-.906.522-1.49zm-.98.58l-.213.102.285.574-.312.15-.665-1.367.668-.322c.32-.153.564-.2.745.16.123.254.042.417-.196.553l.624.42-.338.162-.597-.432zm.058-.284c.153-.074.227-.146.138-.318-.07-.143-.245-.054-.377.007l-.3.146.17.348.37-.182zM33.974 60.903l-1.152.552-1.616-3.322.972-.467c.724-.343 1.242-.063 1.446.357.17.344.114.646-.166.954l.003.008c.552-.147 1.016.037 1.232.482.202.41.124 1.035-.718 1.436zm-1.597-1.578l.32-.155c.48-.223.624-.513.45-.867-.12-.25-.366-.395-.81-.185l-.444.212.484.995zm1.784.31c-.143-.3-.486-.403-.99-.162l-.58.28.508 1.043.602-.29c.565-.27.584-.62.46-.87zm3.882-4.77l-1.902.908 1.62 3.324 1.946-.93-.21-.43-1.464.7-.504-1.033 1.37-.655-.206-.427-1.373.653-.49-1.002 1.422-.68-.21-.43zm5.03-2.403l-.478.228.135 2.813-2.147-1.854-.483.232 3.086 2.66.094-.05-.208-4.03zm4.24-2.03l-1.905.91 1.62 3.326 1.95-.934-.21-.427-1.466.698-.502-1.03 1.37-.66-.205-.426-1.375.657-.487-1.006 1.423-.675-.21-.434zm6.75.873l-.578.277-.776-.47c-.772-.47-1.016-.452-1.26-.337l-.2.098.7 1.444-.48.23-1.622-3.32.846-.406c.68-.323 1.278-.17 1.556.406.19.383.128.767-.163 1.077.404.056.738.274 1.197.564.254.163.39.233.78.438zm-2.32-1.866c-.157-.31-.438-.408-.903-.186l-.313.15.51 1.04.31-.146c.516-.25.536-.58.395-.86zm3.512-2.8l-.482.23 1.622 3.324 1.996-.955-.206-.43-1.515.723-1.416-2.894zm5.475-1.206l-1.462-.713-.58.278 2.01.968.856 1.76.48-.23-.852-1.755.48-2.163-.58.278-.353 1.58zm15.26-8.7l-.486.23.708 1.448-1.88.897-.71-1.448-.48.23 1.62 3.326.48-.233-.702-1.445 1.88-.9.703 1.45.485-.232-1.62-3.325zm2.998-1.434l-.485.23 1.623 3.322.482-.23-1.62-3.322zm3.093-1.474l-.482.23 1.618 3.322 2-.955-.21-.43-1.518.724-1.407-2.89zm4.18-2l-.484.232 1.62 3.32 2-.955-.213-.43-1.51.724-1.412-2.892zm5.394-2.342c-.312-.044-.607.002-.862.125-.616.29-.85.83-.59 1.372.45.91 1.936.296 2.272.98.09.186.03.503-.343.68-.33.157-.722.135-1.12-.057l.293.6c.385.078.728.036 1.09-.14.542-.256.756-.828.502-1.35-.512-1.057-1.964-.354-2.275-.99-.11-.238.03-.5.338-.65.228-.108.547-.163.958-.03l-.262-.54zm6.81-11.475c-1.136 2.713-5.352 9.36-9.035 8.16-4.017-1.314-3.48-7.253-3.424-8.18-.684 1.29-1.88 3.67-2.9 6.232-1.29 3.236-2.485 6.33-3.86 5.853-2.266-.777-1.97-4.17-1.93-5.113-.34.61-5.417 9.192-5.555 10.313-.292 2.4-.862 7.942-1.23 10.347-.708 4.595-3.85 12.713-6.577 11.715-2.618-.96.23-9.01.927-10.725.69-1.717 3.13-6.722 4.097-8.79.283-2.092.504-4.862 1.02-7.73.618-3.432 1.298-6.324 1.182-6.927-.74 1.55-5.405 10.883-7.088 12.894-1.342 1.615-2.638.898-2.958-.31-1.218-4.59 2.238-9.758 2.683-10.772.624-1.416 3.54-5.456 6.832-7.196.44-.233.645.076.374.307-1.748 1.502-4.038 4.827-5.37 7.595-2.296 4.78-2.443 7.44-2.51 8.013-.253 2.24.82 1.19 1.208.693.444-.563 2.905-4.475 3.99-7.385.448-1.184 2.79-5.453 3.842-10.84.122-.633.54-.613.974-.583.412.03.808.234.877.823.148 1.205-.532 7.15-.703 8.1-.178.944-1.132 8.24-1.208 8.738.577-1.046 4.606-7.91 5.377-10.582.518-1.78 1.635-5.65 1.835-6.163.514-1.32 1.673-1.694 1.993-1.67.32.02.385.52.244 1.046-.146.527-1.528 6.556-1.622 7.217-.086.658-.854 4.44-.084 5.29.467.512 1.024-.358 1.206-.804.187-.466 4.916-10.83 5.27-11.865.578-1.668 1.953-4.683 2.768-5.493.538-.527 1.753-1.374 2.115-.777.176.298.463.6.153 1.318-.31.708-2.776 6.296-3.23 8.876-.563 3.177-.155 4.8 1.23 5.54 1.515.802 3.65-2.036 4.107-2.636.695-.907 2.94-4.33 3.948-9.247.354-1.715.125-4.29-1.54-4.317-1.49-.022-2.663 3.323-2.875 3.92-.922 2.58-.857 6.104 1.527 4.423l-.09.348c-1.05.978-1.922.653-2.38.248-1.297-1.13-.82-3.448-.026-5.56.45-1.195 2.886-5.458 6.09-4.29 3.246 1.18 1.5 7.114.323 9.947zM69 39.184c-.78 1.384-3.486 7.018-4.552 10.43-.497 1.59-1.524 6.645-.524 6.99 1.568.537 2.9-5.37 3.48-7.373.576-2.002 1.51-9.137 1.596-10.047z"/></g></svg>